%FSLAX25Y25*%
%MOIN*%
G70*
G01*
G75*
G04 Layer_Physical_Order=1*
G04 Layer_Color=255*
%ADD10R,0.03543X0.03150*%
%ADD11R,0.02756X0.03543*%
%ADD12R,0.05512X0.01772*%
%ADD13C,0.02362*%
%ADD14C,0.01575*%
%ADD15C,0.01181*%
%ADD16C,0.00394*%
%ADD17C,0.05906*%
%ADD18R,0.05906X0.05906*%
%ADD19C,0.05000*%
G36*
X200787Y118110D02*
X98425D01*
Y148977D01*
X98925Y149128D01*
X99007Y149006D01*
X101556Y146458D01*
X101356Y145976D01*
X101228Y145000D01*
X101356Y144024D01*
X101733Y143114D01*
X102332Y142332D01*
X103114Y141733D01*
X104024Y141356D01*
X105000Y141228D01*
X105976Y141356D01*
X106886Y141733D01*
X107668Y142332D01*
X108267Y143114D01*
X108644Y144024D01*
X108772Y145000D01*
X108644Y145976D01*
X108267Y146886D01*
X107668Y147668D01*
X106886Y148267D01*
X105976Y148644D01*
X105000Y148772D01*
X104024Y148644D01*
X103542Y148444D01*
X101405Y150582D01*
Y152720D01*
X101905Y152890D01*
X102332Y152332D01*
X103114Y151733D01*
X104024Y151356D01*
X105000Y151228D01*
X105976Y151356D01*
X106886Y151733D01*
X107668Y152332D01*
X108267Y153114D01*
X108644Y154024D01*
X108772Y155000D01*
X108644Y155976D01*
X108267Y156886D01*
X107668Y157668D01*
X106886Y158267D01*
X105976Y158644D01*
X105000Y158772D01*
X104024Y158644D01*
X103114Y158267D01*
X102332Y157668D01*
X101905Y157110D01*
X101405Y157280D01*
Y162720D01*
X101905Y162890D01*
X102332Y162332D01*
X103114Y161733D01*
X104024Y161356D01*
X105000Y161228D01*
X105976Y161356D01*
X106886Y161733D01*
X107668Y162332D01*
X108267Y163114D01*
X108644Y164024D01*
X108772Y165000D01*
X108644Y165976D01*
X108444Y166458D01*
X109598Y167611D01*
X117820D01*
X117920Y167111D01*
X117342Y166872D01*
X116655Y166345D01*
X116129Y165658D01*
X115797Y164858D01*
X115684Y164000D01*
X115797Y163142D01*
X116129Y162342D01*
X116655Y161655D01*
X116993Y161396D01*
Y134831D01*
X109169Y127007D01*
X108174D01*
X107668Y127667D01*
X106886Y128267D01*
X105976Y128644D01*
X105000Y128772D01*
X104024Y128644D01*
X103114Y128267D01*
X102332Y127667D01*
X101733Y126886D01*
X101356Y125976D01*
X101228Y125000D01*
X101356Y124024D01*
X101733Y123114D01*
X102332Y122333D01*
X103114Y121733D01*
X104024Y121356D01*
X105000Y121228D01*
X105976Y121356D01*
X106886Y121733D01*
X107668Y122333D01*
X108174Y122993D01*
X110000D01*
X110768Y123146D01*
X111419Y123581D01*
X120419Y132581D01*
X120854Y133232D01*
X121007Y134000D01*
Y161396D01*
X121345Y161655D01*
X121871Y162342D01*
X122203Y163142D01*
X122316Y164000D01*
X122203Y164858D01*
X121871Y165658D01*
X121345Y166345D01*
X120658Y166872D01*
X120080Y167111D01*
X120180Y167611D01*
X180402D01*
X181007Y167007D01*
X181462Y166702D01*
X181882Y166619D01*
Y165441D01*
X186213D01*
Y170559D01*
X181882D01*
X181882Y170559D01*
Y170559D01*
X181382Y170342D01*
X181106Y170396D01*
X180872Y170869D01*
X181405Y171402D01*
X181882Y171441D01*
Y171441D01*
X181882Y171441D01*
X186213D01*
Y176559D01*
X181882D01*
Y175378D01*
X181478Y175298D01*
X181022Y174993D01*
X178418Y172389D01*
X120180D01*
X120080Y172889D01*
X120658Y173128D01*
X121345Y173655D01*
X121871Y174342D01*
X122203Y175142D01*
X122316Y176000D01*
X122203Y176858D01*
X121871Y177658D01*
X121345Y178345D01*
X121007Y178604D01*
Y179394D01*
X123000D01*
X123000Y179394D01*
X123512Y179496D01*
X123615Y179517D01*
X124135Y179865D01*
X128708Y184438D01*
X129842D01*
Y184370D01*
X136929D01*
Y186929D01*
Y189488D01*
Y191835D01*
X137142D01*
Y193220D01*
X129630D01*
Y191835D01*
X129842D01*
Y189488D01*
Y187649D01*
X128043D01*
X128043Y187649D01*
X127531Y187547D01*
X127429Y187527D01*
X126908Y187179D01*
X126908Y187179D01*
X126544Y186815D01*
X126016Y186994D01*
X125969Y187355D01*
X125616Y188206D01*
X125270Y188657D01*
X125331Y189157D01*
X125331D01*
X125331Y189157D01*
Y191232D01*
X119787D01*
Y189157D01*
X119787Y189157D01*
X119787D01*
X119848Y188657D01*
X119502Y188206D01*
X119149Y187355D01*
X119095Y186941D01*
X122559D01*
Y185941D01*
X119095D01*
X119149Y185527D01*
X119502Y184676D01*
X120063Y183945D01*
X120794Y183384D01*
X121465Y183106D01*
X121366Y182606D01*
X120233D01*
X117007Y185831D01*
Y192396D01*
X117345Y192655D01*
X117871Y193342D01*
X118203Y194142D01*
X118316Y195000D01*
X118281Y195263D01*
X118611Y195638D01*
X120000D01*
Y194882D01*
X122426D01*
X122488Y194807D01*
X122255Y194307D01*
X119787D01*
Y192232D01*
X125331D01*
Y194307D01*
X125652Y194674D01*
X129630D01*
Y194220D01*
X137142D01*
Y195606D01*
X136929D01*
Y197165D01*
Y199724D01*
Y202284D01*
Y205630D01*
X134791D01*
Y236614D01*
X134684Y237152D01*
X134379Y237608D01*
X125994Y245993D01*
X125538Y246298D01*
X125000Y246405D01*
X108466D01*
X108267Y246886D01*
X107668Y247668D01*
X106886Y248267D01*
X105976Y248644D01*
X105000Y248772D01*
X104024Y248644D01*
X103114Y248267D01*
X102332Y247668D01*
X101733Y246886D01*
X101356Y245976D01*
X101228Y245000D01*
X101356Y244024D01*
X101733Y243114D01*
X102332Y242333D01*
X103114Y241733D01*
X104024Y241356D01*
X105000Y241228D01*
X105976Y241356D01*
X106886Y241733D01*
X107668Y242333D01*
X108267Y243114D01*
X108466Y243595D01*
X124418D01*
X131981Y236032D01*
Y205630D01*
X129842D01*
Y203798D01*
X129381Y203606D01*
X126405Y206582D01*
Y230000D01*
X126298Y230538D01*
X125994Y230993D01*
X120993Y235993D01*
X120538Y236298D01*
X120000Y236405D01*
X108466D01*
X108267Y236886D01*
X107668Y237667D01*
X106886Y238267D01*
X105976Y238644D01*
X105000Y238772D01*
X104024Y238644D01*
X103114Y238267D01*
X102332Y237667D01*
X101733Y236886D01*
X101356Y235976D01*
X101228Y235000D01*
X101356Y234024D01*
X101733Y233114D01*
X102332Y232332D01*
X103114Y231733D01*
X104024Y231356D01*
X105000Y231228D01*
X105976Y231356D01*
X106886Y231733D01*
X107668Y232332D01*
X108267Y233114D01*
X108466Y233595D01*
X119418D01*
X123595Y229418D01*
Y206000D01*
X123702Y205462D01*
X124006Y205007D01*
X125123Y203890D01*
X125060Y203643D01*
X124901Y203405D01*
X116000D01*
X115462Y203298D01*
X115006Y202993D01*
X99007Y186994D01*
X98925Y186872D01*
X98425Y187023D01*
Y271654D01*
X200787D01*
Y118110D01*
D02*
G37*
G36*
X111534Y195108D02*
X111685Y194991D01*
X111797Y194142D01*
X112128Y193342D01*
X112655Y192655D01*
X112993Y192396D01*
Y185000D01*
X113146Y184232D01*
X113581Y183581D01*
X116993Y180169D01*
Y178604D01*
X116655Y178345D01*
X116129Y177658D01*
X115797Y176858D01*
X115684Y176000D01*
X115797Y175142D01*
X116129Y174342D01*
X116655Y173655D01*
X117342Y173128D01*
X117920Y172889D01*
X117820Y172389D01*
X109598D01*
X108740Y173247D01*
Y178740D01*
X101405D01*
Y185418D01*
X111240Y195253D01*
X111534Y195108D01*
D02*
G37*
%LPC*%
G36*
X145500Y150921D02*
Y147500D01*
X148921D01*
X148851Y148032D01*
X148453Y148993D01*
X147819Y149819D01*
X146993Y150453D01*
X146032Y150851D01*
X145500Y150921D01*
D02*
G37*
G36*
X144500D02*
X143968Y150851D01*
X143007Y150453D01*
X142181Y149819D01*
X141547Y148993D01*
X141149Y148032D01*
X141079Y147500D01*
X144500D01*
Y150921D01*
D02*
G37*
G36*
X148953Y156500D02*
X145500D01*
Y153047D01*
X148953D01*
Y156500D01*
D02*
G37*
G36*
X144500D02*
X141047D01*
Y153047D01*
X144500D01*
Y156500D01*
D02*
G37*
G36*
X104500Y138921D02*
X103968Y138851D01*
X103007Y138453D01*
X102181Y137819D01*
X101547Y136993D01*
X101149Y136032D01*
X101079Y135500D01*
X104500D01*
Y138921D01*
D02*
G37*
G36*
X108921Y134500D02*
X105500D01*
Y131079D01*
X106032Y131149D01*
X106993Y131547D01*
X107819Y132181D01*
X108453Y133007D01*
X108851Y133968D01*
X108921Y134500D01*
D02*
G37*
G36*
X104500D02*
X101079D01*
X101149Y133968D01*
X101547Y133007D01*
X102181Y132181D01*
X103007Y131547D01*
X103968Y131149D01*
X104500Y131079D01*
Y134500D01*
D02*
G37*
G36*
X148921Y146500D02*
X145500D01*
Y143079D01*
X146032Y143149D01*
X146993Y143547D01*
X147819Y144181D01*
X148453Y145007D01*
X148851Y145968D01*
X148921Y146500D01*
D02*
G37*
G36*
X144500D02*
X141079D01*
X141149Y145968D01*
X141547Y145007D01*
X142181Y144181D01*
X143007Y143547D01*
X143968Y143149D01*
X144500Y143079D01*
Y146500D01*
D02*
G37*
G36*
X105500Y138921D02*
Y135500D01*
X108921D01*
X108851Y136032D01*
X108453Y136993D01*
X107819Y137819D01*
X106993Y138453D01*
X106032Y138851D01*
X105500Y138921D01*
D02*
G37*
G36*
X144500Y160953D02*
X141047D01*
Y157500D01*
X144500D01*
Y160953D01*
D02*
G37*
G36*
X108921Y224500D02*
X105500D01*
Y221079D01*
X106032Y221149D01*
X106993Y221547D01*
X107819Y222181D01*
X108453Y223007D01*
X108851Y223968D01*
X108921Y224500D01*
D02*
G37*
G36*
X104500D02*
X101079D01*
X101149Y223968D01*
X101547Y223007D01*
X102181Y222181D01*
X103007Y221547D01*
X103968Y221149D01*
X104500Y221079D01*
Y224500D01*
D02*
G37*
G36*
Y228921D02*
X103968Y228851D01*
X103007Y228453D01*
X102181Y227819D01*
X101547Y226993D01*
X101149Y226032D01*
X101079Y225500D01*
X104500D01*
Y228921D01*
D02*
G37*
G36*
X108740Y268740D02*
X101260D01*
Y261260D01*
X106753D01*
X107763Y260250D01*
Y259750D01*
X106458Y258444D01*
X105976Y258644D01*
X105000Y258772D01*
X104024Y258644D01*
X103114Y258267D01*
X102332Y257667D01*
X101733Y256886D01*
X101356Y255976D01*
X101228Y255000D01*
X101356Y254024D01*
X101733Y253114D01*
X102332Y252332D01*
X103114Y251733D01*
X104024Y251356D01*
X105000Y251228D01*
X105976Y251356D01*
X106886Y251733D01*
X107668Y252332D01*
X108267Y253114D01*
X108644Y254024D01*
X108772Y255000D01*
X108644Y255976D01*
X108444Y256458D01*
X109598Y257611D01*
X127402D01*
X158975Y226038D01*
X159431Y225733D01*
X159968Y225626D01*
X181434D01*
X181882Y225179D01*
Y222441D01*
X186213D01*
Y227559D01*
X183475D01*
X183039Y227995D01*
X183041Y228007D01*
X183475Y228441D01*
X186213D01*
Y233559D01*
X181882D01*
Y230821D01*
X181465Y230405D01*
X161366D01*
X129793Y261978D01*
X129337Y262282D01*
X128800Y262389D01*
X109598D01*
X108740Y263247D01*
Y268740D01*
D02*
G37*
G36*
X105500Y228921D02*
Y225500D01*
X108921D01*
X108851Y226032D01*
X108453Y226993D01*
X107819Y227819D01*
X106993Y228453D01*
X106032Y228851D01*
X105500Y228921D01*
D02*
G37*
G36*
X190000Y196772D02*
X189024Y196644D01*
X188114Y196267D01*
X187332Y195668D01*
X186733Y194886D01*
X186534Y194405D01*
X185118D01*
Y195559D01*
X180787D01*
Y190441D01*
X185118D01*
Y191595D01*
X186534D01*
X186733Y191114D01*
X187332Y190332D01*
X188114Y189733D01*
X189024Y189356D01*
X190000Y189228D01*
X190976Y189356D01*
X191886Y189733D01*
X192667Y190332D01*
X192680Y190333D01*
X193595Y189418D01*
Y186740D01*
X186260D01*
Y184405D01*
X185118D01*
Y185559D01*
X180787D01*
Y180441D01*
X185118D01*
Y181595D01*
X186260D01*
Y179260D01*
X188595D01*
Y176559D01*
X187787D01*
Y171441D01*
X192118D01*
Y176559D01*
X191405D01*
Y179260D01*
X193595D01*
Y170582D01*
X192618Y169605D01*
X192118Y169812D01*
Y170559D01*
X187787D01*
Y165441D01*
X192118D01*
Y166595D01*
X193000D01*
X193538Y166702D01*
X193993Y167007D01*
X195993Y169007D01*
X196298Y169462D01*
X196405Y170000D01*
Y190000D01*
X196298Y190538D01*
X195993Y190993D01*
X193740Y193247D01*
X193644Y193976D01*
X193267Y194886D01*
X192667Y195668D01*
X191886Y196267D01*
X190976Y196644D01*
X190000Y196772D01*
D02*
G37*
G36*
X148953Y160953D02*
X145500D01*
Y157500D01*
X148953D01*
Y160953D01*
D02*
G37*
G36*
X179213Y218559D02*
X174882D01*
Y215822D01*
X172465Y213405D01*
X170339D01*
X169801Y213298D01*
X169345Y212993D01*
X161418Y205066D01*
X160780D01*
X160498Y205255D01*
X160158Y205323D01*
Y205630D01*
X153071D01*
Y202284D01*
Y199724D01*
Y197165D01*
Y194606D01*
Y192047D01*
Y189488D01*
Y186929D01*
Y184370D01*
X160158D01*
Y186929D01*
Y189488D01*
Y192047D01*
Y194606D01*
Y194875D01*
X161138D01*
X169975Y186038D01*
X170431Y185733D01*
X170968Y185626D01*
X173418D01*
X174882Y184163D01*
Y180441D01*
X179213D01*
Y185559D01*
X177456D01*
X177450Y185568D01*
X175003Y188016D01*
X177428Y190441D01*
X179213D01*
Y195559D01*
X174882D01*
Y191869D01*
X173418Y190405D01*
X172366D01*
X162963Y199808D01*
X162965Y199927D01*
X163078Y200340D01*
X163353Y200395D01*
X163809Y200699D01*
X171736Y208627D01*
X172434D01*
X174882Y206178D01*
Y203441D01*
X179213D01*
Y208559D01*
X176475D01*
X174039Y210995D01*
X174041Y211007D01*
X176475Y213441D01*
X179213D01*
Y218559D01*
D02*
G37*
G36*
X192118Y233559D02*
X187787D01*
Y228441D01*
X192118D01*
Y229595D01*
X193418D01*
X193595Y229418D01*
Y218280D01*
X193095Y218110D01*
X192667Y218668D01*
X191886Y219267D01*
X191405Y219466D01*
Y222441D01*
X192118D01*
Y227559D01*
X187787D01*
Y222441D01*
X188595D01*
Y219466D01*
X188114Y219267D01*
X187332Y218668D01*
X186733Y217886D01*
X186534Y217405D01*
X185118D01*
Y218559D01*
X180787D01*
Y213441D01*
X185118D01*
Y214595D01*
X186534D01*
X186733Y214114D01*
X187332Y213333D01*
X188114Y212733D01*
X189024Y212356D01*
X190000Y212228D01*
X190976Y212356D01*
X191886Y212733D01*
X192667Y213333D01*
X193095Y213890D01*
X193595Y213720D01*
Y211582D01*
X191753Y209740D01*
X186260D01*
Y207405D01*
X185118D01*
Y208559D01*
X180787D01*
Y203441D01*
X185118D01*
Y204595D01*
X186260D01*
Y202260D01*
X193740D01*
Y207753D01*
X195993Y210007D01*
X196298Y210462D01*
X196405Y211000D01*
Y230000D01*
X196298Y230538D01*
X195993Y230993D01*
X194993Y231993D01*
X194538Y232298D01*
X194000Y232405D01*
X192118D01*
Y233559D01*
D02*
G37*
G36*
X105000Y218772D02*
X104024Y218644D01*
X103114Y218267D01*
X102332Y217668D01*
X101733Y216886D01*
X101356Y215976D01*
X101228Y215000D01*
X101356Y214024D01*
X101733Y213114D01*
X102332Y212333D01*
X103114Y211733D01*
X104024Y211356D01*
X105000Y211228D01*
X105976Y211356D01*
X106886Y211733D01*
X107668Y212333D01*
X108267Y213114D01*
X108644Y214024D01*
X108772Y215000D01*
X108644Y215976D01*
X108267Y216886D01*
X107668Y217668D01*
X106886Y218267D01*
X105976Y218644D01*
X105000Y218772D01*
D02*
G37*
%LPD*%
D10*
X122559Y197244D02*
D03*
Y191732D02*
D03*
D11*
X189953Y225000D02*
D03*
X184047D02*
D03*
X177047Y216000D02*
D03*
X182953D02*
D03*
X177047Y206000D02*
D03*
X182953D02*
D03*
X184047Y231000D02*
D03*
X189953D02*
D03*
X189953Y168000D02*
D03*
X184047D02*
D03*
X177047Y193000D02*
D03*
X182953D02*
D03*
X177047Y183000D02*
D03*
X182953D02*
D03*
X184047Y174000D02*
D03*
X189953D02*
D03*
D12*
X133386Y203957D02*
D03*
Y201398D02*
D03*
Y198839D02*
D03*
Y196280D02*
D03*
Y193720D02*
D03*
Y191161D02*
D03*
Y188602D02*
D03*
Y186043D02*
D03*
X156614Y193720D02*
D03*
Y191161D02*
D03*
Y188602D02*
D03*
Y186043D02*
D03*
Y203957D02*
D03*
Y201398D02*
D03*
Y198839D02*
D03*
Y196280D02*
D03*
D13*
X119000Y176000D02*
Y181000D01*
X105000Y125000D02*
X110000D01*
X119000Y134000D01*
Y164000D01*
X115000Y185000D02*
X119000Y181000D01*
X115000Y185000D02*
Y195000D01*
X122559Y186441D02*
Y191732D01*
D14*
X123524Y196280D02*
X133386D01*
X122559Y197244D02*
X123524Y196280D01*
X124547Y193720D02*
X133386D01*
X122559Y191732D02*
X124547Y193720D01*
X117244Y197244D02*
X122559D01*
X115000Y195000D02*
X117244Y197244D01*
X128043Y186043D02*
X133386D01*
X123000Y181000D02*
X128043Y186043D01*
X119000Y181000D02*
X123000D01*
D15*
X182953Y216000D02*
X190000D01*
X182953Y216000D02*
X182953Y216000D01*
Y206000D02*
X190000D01*
Y216000D02*
Y224953D01*
Y206000D02*
X195000Y211000D01*
Y230000D01*
X194000Y231000D02*
X195000Y230000D01*
X189953Y231000D02*
X194000D01*
X182953Y193000D02*
X190000D01*
X182953Y183000D02*
X190000D01*
X190000Y174047D02*
Y183000D01*
Y193000D02*
X192000D01*
X195000Y190000D01*
Y170000D02*
Y190000D01*
X193000Y168000D02*
X195000Y170000D01*
X189953Y168000D02*
X193000D01*
X128161Y198839D02*
X133386D01*
X125000Y202000D02*
X128161Y198839D01*
X100000Y150000D02*
X105000Y145000D01*
X100000Y150000D02*
Y186000D01*
X129602Y201398D02*
X133386D01*
X125000Y206000D02*
X129602Y201398D01*
X116000Y202000D02*
X125000D01*
X100000Y186000D02*
X116000Y202000D01*
X133386Y203957D02*
Y236614D01*
X125000Y245000D02*
X133386Y236614D01*
X105000Y245000D02*
X125000D01*
Y206000D02*
Y230000D01*
X120000Y235000D02*
X125000Y230000D01*
X105000Y235000D02*
X120000D01*
X128800Y260984D02*
X160784Y229000D01*
X127984Y259016D02*
X159968Y227031D01*
X182016D01*
X160784Y229000D02*
X182047D01*
X184047Y231000D01*
X182016Y227031D02*
X184047Y225000D01*
X109016Y260984D02*
X128800D01*
X105000Y265000D02*
X109016Y260984D01*
X105000Y255000D02*
X109016Y259016D01*
X127984D01*
X156614Y203957D02*
X159961D01*
X160256Y203661D01*
X162000D01*
X156614Y201398D02*
X159961D01*
X160256Y201693D01*
X162000Y203661D02*
X170339Y212000D01*
X160256Y201693D02*
X162815D01*
X171154Y210032D01*
X170339Y212000D02*
X173047D01*
X177047Y216000D01*
X171154Y210032D02*
X173016D01*
X177047Y206000D01*
X156614Y196280D02*
X161721D01*
X156614Y198839D02*
X161945D01*
X171784Y189000D01*
X174000D01*
X161721Y196280D02*
X170968Y187031D01*
X174000D01*
Y189000D02*
X176457Y191457D01*
Y192409D01*
X177047Y193000D01*
X174000Y187031D02*
X176457Y184575D01*
Y183590D02*
Y184575D01*
Y183590D02*
X177047Y183000D01*
X109016Y170984D02*
X179000D01*
X105000Y165000D02*
X109016Y169016D01*
X105000Y175000D02*
X109016Y170984D01*
X179000D02*
X182016Y174000D01*
X184047D01*
X109016Y169016D02*
X180984D01*
X182000Y168000D01*
X184047D01*
D16*
X98425Y118110D02*
Y271654D01*
Y118110D02*
X118110D01*
X137795Y137795D01*
X153543D01*
X177165Y161417D01*
X192913D01*
X200787Y169291D01*
Y232283D01*
X192913Y240158D02*
X200787Y232283D01*
X157480Y240158D02*
X192913D01*
X125984Y271654D02*
X157480Y240158D01*
X98425Y271654D02*
X125984D01*
D17*
X145000Y147000D02*
D03*
X190000Y216000D02*
D03*
X105000Y125000D02*
D03*
Y135000D02*
D03*
Y145000D02*
D03*
Y155000D02*
D03*
X190000Y193000D02*
D03*
X105000Y215000D02*
D03*
Y225000D02*
D03*
Y235000D02*
D03*
Y245000D02*
D03*
Y255000D02*
D03*
Y165000D02*
D03*
D18*
X145000Y157000D02*
D03*
X190000Y206000D02*
D03*
Y183000D02*
D03*
X105000Y265000D02*
D03*
Y175000D02*
D03*
D19*
X119000Y164000D02*
D03*
Y176000D02*
D03*
X115000Y195000D02*
D03*
X122559Y186441D02*
D03*
M02*
