M48
;Layer_Color=9474304
;FILE_FORMAT=2:5
INCH,LZ
;TYPE=PLATED
T1F00S00C0.03543
%
T01
X05Y018
Y019
X0508Y0188
X0512Y0179
X05215Y01825
X05315
X05425
X0553Y0182
X05465Y0193
X056Y02
Y021
X054Y0225
X0516Y022
X05095Y02195
X05Y022
Y021
Y02
Y023
Y027
Y028
X0508Y0278
X0512Y0269
X05215Y02725
X05315
X05425
X0553Y0272
X05465Y0283
X056Y029
Y03
X0516Y031
X05095Y03095
X05Y031
Y03
Y029
Y032
Y036
Y037
Y038
Y039
Y04
Y041
X0547Y038
X056
Y037
X054Y0315
M30
