%FSLAX25Y25*%
%MOIN*%
G70*
G01*
G75*
G04 Layer_Color=32896*
G04:AMPARAMS|DCode=10|XSize=37.4mil|YSize=29.53mil|CornerRadius=0mil|HoleSize=0mil|Usage=FLASHONLY|Rotation=93.284|XOffset=0mil|YOffset=0mil|HoleType=Round|Shape=Rectangle|*
%AMROTATEDRECTD10*
4,1,4,0.01581,-0.01782,-0.01367,-0.01952,-0.01581,0.01782,0.01367,0.01952,0.01581,-0.01782,0.0*
%
%ADD10ROTATEDRECTD10*%

G04:AMPARAMS|DCode=11|XSize=59.06mil|YSize=118.11mil|CornerRadius=0mil|HoleSize=0mil|Usage=FLASHONLY|Rotation=325.000|XOffset=0mil|YOffset=0mil|HoleType=Round|Shape=Rectangle|*
%AMROTATEDRECTD11*
4,1,4,-0.05806,-0.03144,0.00969,0.06531,0.05806,0.03144,-0.00969,-0.06531,-0.05806,-0.03144,0.0*
%
%ADD11ROTATEDRECTD11*%

G04:AMPARAMS|DCode=12|XSize=37.4mil|YSize=29.53mil|CornerRadius=0mil|HoleSize=0mil|Usage=FLASHONLY|Rotation=214.500|XOffset=0mil|YOffset=0mil|HoleType=Round|Shape=Rectangle|*
%AMROTATEDRECTD12*
4,1,4,0.00705,0.02276,0.02377,-0.00158,-0.00705,-0.02276,-0.02377,0.00158,0.00705,0.02276,0.0*
%
%ADD12ROTATEDRECTD12*%

G04:AMPARAMS|DCode=13|XSize=37.4mil|YSize=29.53mil|CornerRadius=0mil|HoleSize=0mil|Usage=FLASHONLY|Rotation=212.500|XOffset=0mil|YOffset=0mil|HoleType=Round|Shape=Rectangle|*
%AMROTATEDRECTD13*
4,1,4,0.00784,0.02250,0.02371,-0.00240,-0.00784,-0.02250,-0.02371,0.00240,0.00784,0.02250,0.0*
%
%ADD13ROTATEDRECTD13*%

G04:AMPARAMS|DCode=14|XSize=37.4mil|YSize=29.53mil|CornerRadius=0mil|HoleSize=0mil|Usage=FLASHONLY|Rotation=120.243|XOffset=0mil|YOffset=0mil|HoleType=Round|Shape=Rectangle|*
%AMROTATEDRECTD14*
4,1,4,0.02217,-0.00872,-0.00334,-0.02359,-0.02217,0.00872,0.00334,0.02359,0.02217,-0.00872,0.0*
%
%ADD14ROTATEDRECTD14*%

G04:AMPARAMS|DCode=15|XSize=37.4mil|YSize=29.53mil|CornerRadius=0mil|HoleSize=0mil|Usage=FLASHONLY|Rotation=210.500|XOffset=0mil|YOffset=0mil|HoleType=Round|Shape=Rectangle|*
%AMROTATEDRECTD15*
4,1,4,0.00862,0.02221,0.02361,-0.00323,-0.00862,-0.02221,-0.02361,0.00323,0.00862,0.02221,0.0*
%
%ADD15ROTATEDRECTD15*%

G04:AMPARAMS|DCode=16|XSize=37.4mil|YSize=29.53mil|CornerRadius=0mil|HoleSize=0mil|Usage=FLASHONLY|Rotation=213.500|XOffset=0mil|YOffset=0mil|HoleType=Round|Shape=Rectangle|*
%AMROTATEDRECTD16*
4,1,4,0.00745,0.02263,0.02374,-0.00199,-0.00745,-0.02263,-0.02374,0.00199,0.00745,0.02263,0.0*
%
%ADD16ROTATEDRECTD16*%

G04:AMPARAMS|DCode=17|XSize=37.4mil|YSize=29.53mil|CornerRadius=0mil|HoleSize=0mil|Usage=FLASHONLY|Rotation=130.000|XOffset=0mil|YOffset=0mil|HoleType=Round|Shape=Rectangle|*
%AMROTATEDRECTD17*
4,1,4,0.02333,-0.00484,0.00071,-0.02382,-0.02333,0.00484,-0.00071,0.02382,0.02333,-0.00484,0.0*
%
%ADD17ROTATEDRECTD17*%

G04:AMPARAMS|DCode=18|XSize=37.4mil|YSize=29.53mil|CornerRadius=0mil|HoleSize=0mil|Usage=FLASHONLY|Rotation=216.500|XOffset=0mil|YOffset=0mil|HoleType=Round|Shape=Rectangle|*
%AMROTATEDRECTD18*
4,1,4,0.00625,0.02299,0.02382,-0.00074,-0.00625,-0.02299,-0.02382,0.00074,0.00625,0.02299,0.0*
%
%ADD18ROTATEDRECTD18*%

G04:AMPARAMS|DCode=19|XSize=37.4mil|YSize=29.53mil|CornerRadius=0mil|HoleSize=0mil|Usage=FLASHONLY|Rotation=219.500|XOffset=0mil|YOffset=0mil|HoleType=Round|Shape=Rectangle|*
%AMROTATEDRECTD19*
4,1,4,0.00504,0.02329,0.02382,0.00050,-0.00504,-0.02329,-0.02382,-0.00050,0.00504,0.02329,0.0*
%
%ADD19ROTATEDRECTD19*%

G04:AMPARAMS|DCode=20|XSize=37.4mil|YSize=29.53mil|CornerRadius=0mil|HoleSize=0mil|Usage=FLASHONLY|Rotation=222.500|XOffset=0mil|YOffset=0mil|HoleType=Round|Shape=Rectangle|*
%AMROTATEDRECTD20*
4,1,4,0.00381,0.02352,0.02376,0.00175,-0.00381,-0.02352,-0.02376,-0.00175,0.00381,0.02352,0.0*
%
%ADD20ROTATEDRECTD20*%

G04:AMPARAMS|DCode=21|XSize=37.4mil|YSize=29.53mil|CornerRadius=0mil|HoleSize=0mil|Usage=FLASHONLY|Rotation=45.000|XOffset=0mil|YOffset=0mil|HoleType=Round|Shape=Rectangle|*
%AMROTATEDRECTD21*
4,1,4,-0.00278,-0.02366,-0.02366,-0.00278,0.00278,0.02366,0.02366,0.00278,-0.00278,-0.02366,0.0*
%
%ADD21ROTATEDRECTD21*%

G04:AMPARAMS|DCode=22|XSize=37.4mil|YSize=29.53mil|CornerRadius=0mil|HoleSize=0mil|Usage=FLASHONLY|Rotation=259.000|XOffset=0mil|YOffset=0mil|HoleType=Round|Shape=Rectangle|*
%AMROTATEDRECTD22*
4,1,4,-0.01092,0.02117,0.01806,0.01554,0.01092,-0.02117,-0.01806,-0.01554,-0.01092,0.02117,0.0*
%
%ADD22ROTATEDRECTD22*%

G04:AMPARAMS|DCode=23|XSize=37.4mil|YSize=29.53mil|CornerRadius=0mil|HoleSize=0mil|Usage=FLASHONLY|Rotation=262.500|XOffset=0mil|YOffset=0mil|HoleType=Round|Shape=Rectangle|*
%AMROTATEDRECTD23*
4,1,4,-0.01220,0.02047,0.01708,0.01661,0.01220,-0.02047,-0.01708,-0.01661,-0.01220,0.02047,0.0*
%
%ADD23ROTATEDRECTD23*%

G04:AMPARAMS|DCode=24|XSize=37.4mil|YSize=29.53mil|CornerRadius=0mil|HoleSize=0mil|Usage=FLASHONLY|Rotation=358.956|XOffset=0mil|YOffset=0mil|HoleType=Round|Shape=Rectangle|*
%AMROTATEDRECTD24*
4,1,4,-0.01897,-0.01442,-0.01843,0.01510,0.01897,0.01442,0.01843,-0.01510,-0.01897,-0.01442,0.0*
%
%ADD24ROTATEDRECTD24*%

G04:AMPARAMS|DCode=25|XSize=37.4mil|YSize=29.53mil|CornerRadius=0mil|HoleSize=0mil|Usage=FLASHONLY|Rotation=199.000|XOffset=0mil|YOffset=0mil|HoleType=Round|Shape=Rectangle|*
%AMROTATEDRECTD25*
4,1,4,0.01288,0.02005,0.02249,-0.00787,-0.01288,-0.02005,-0.02249,0.00787,0.01288,0.02005,0.0*
%
%ADD25ROTATEDRECTD25*%

G04:AMPARAMS|DCode=26|XSize=37.4mil|YSize=29.53mil|CornerRadius=0mil|HoleSize=0mil|Usage=FLASHONLY|Rotation=182.681|XOffset=0mil|YOffset=0mil|HoleType=Round|Shape=Rectangle|*
%AMROTATEDRECTD26*
4,1,4,0.01799,0.01562,0.01937,-0.01387,-0.01799,-0.01562,-0.01937,0.01387,0.01799,0.01562,0.0*
%
%ADD26ROTATEDRECTD26*%

G04:AMPARAMS|DCode=27|XSize=37.4mil|YSize=29.53mil|CornerRadius=0mil|HoleSize=0mil|Usage=FLASHONLY|Rotation=95.500|XOffset=0mil|YOffset=0mil|HoleType=Round|Shape=Rectangle|*
%AMROTATEDRECTD27*
4,1,4,0.01649,-0.01720,-0.01290,-0.02003,-0.01649,0.01720,0.01290,0.02003,0.01649,-0.01720,0.0*
%
%ADD27ROTATEDRECTD27*%

G04:AMPARAMS|DCode=28|XSize=37.4mil|YSize=29.53mil|CornerRadius=0mil|HoleSize=0mil|Usage=FLASHONLY|Rotation=77.000|XOffset=0mil|YOffset=0mil|HoleType=Round|Shape=Rectangle|*
%AMROTATEDRECTD28*
4,1,4,0.01018,-0.02154,-0.01859,-0.01490,-0.01018,0.02154,0.01859,0.01490,0.01018,-0.02154,0.0*
%
%ADD28ROTATEDRECTD28*%

%ADD29R,0.05709X0.01181*%
%ADD30R,0.01181X0.05709*%
G04:AMPARAMS|DCode=31|XSize=37.4mil|YSize=29.53mil|CornerRadius=0mil|HoleSize=0mil|Usage=FLASHONLY|Rotation=96.500|XOffset=0mil|YOffset=0mil|HoleType=Round|Shape=Rectangle|*
%AMROTATEDRECTD31*
4,1,4,0.01679,-0.01691,-0.01255,-0.02025,-0.01679,0.01691,0.01255,0.02025,0.01679,-0.01691,0.0*
%
%ADD31ROTATEDRECTD31*%

G04:AMPARAMS|DCode=32|XSize=37.4mil|YSize=29.53mil|CornerRadius=0mil|HoleSize=0mil|Usage=FLASHONLY|Rotation=272.280|XOffset=0mil|YOffset=0mil|HoleType=Round|Shape=Rectangle|*
%AMROTATEDRECTD32*
4,1,4,-0.01550,0.01810,0.01401,0.01927,0.01550,-0.01810,-0.01401,-0.01927,-0.01550,0.01810,0.0*
%
%ADD32ROTATEDRECTD32*%

G04:AMPARAMS|DCode=33|XSize=37.4mil|YSize=29.53mil|CornerRadius=0mil|HoleSize=0mil|Usage=FLASHONLY|Rotation=84.948|XOffset=0mil|YOffset=0mil|HoleType=Round|Shape=Rectangle|*
%AMROTATEDRECTD33*
4,1,4,0.01306,-0.01993,-0.01635,-0.01733,-0.01306,0.01993,0.01635,0.01733,0.01306,-0.01993,0.0*
%
%ADD33ROTATEDRECTD33*%

G04:AMPARAMS|DCode=34|XSize=66.93mil|YSize=78.74mil|CornerRadius=0mil|HoleSize=0mil|Usage=FLASHONLY|Rotation=162.000|XOffset=0mil|YOffset=0mil|HoleType=Round|Shape=Rectangle|*
%AMROTATEDRECTD34*
4,1,4,0.04399,0.02710,0.01966,-0.04778,-0.04399,-0.02710,-0.01966,0.04778,0.04399,0.02710,0.0*
%
%ADD34ROTATEDRECTD34*%

G04:AMPARAMS|DCode=35|XSize=37.4mil|YSize=29.53mil|CornerRadius=0mil|HoleSize=0mil|Usage=FLASHONLY|Rotation=77.000|XOffset=0mil|YOffset=0mil|HoleType=Round|Shape=Rectangle|*
%AMROTATEDRECTD35*
4,1,4,0.01018,-0.02154,-0.01859,-0.01490,-0.01018,0.02154,0.01859,0.01490,0.01018,-0.02154,0.0*
%
%ADD35ROTATEDRECTD35*%

G04:AMPARAMS|DCode=36|XSize=37.4mil|YSize=29.53mil|CornerRadius=0mil|HoleSize=0mil|Usage=FLASHONLY|Rotation=352.500|XOffset=0mil|YOffset=0mil|HoleType=Round|Shape=Rectangle|*
%AMROTATEDRECTD36*
4,1,4,-0.02047,-0.01220,-0.01661,0.01708,0.02047,0.01220,0.01661,-0.01708,-0.02047,-0.01220,0.0*
%
%ADD36ROTATEDRECTD36*%

%ADD37P,0.12806X4X213.0*%
G04:AMPARAMS|DCode=38|XSize=37.4mil|YSize=29.53mil|CornerRadius=0mil|HoleSize=0mil|Usage=FLASHONLY|Rotation=96.500|XOffset=0mil|YOffset=0mil|HoleType=Round|Shape=Rectangle|*
%AMROTATEDRECTD38*
4,1,4,0.01679,-0.01691,-0.01255,-0.02025,-0.01679,0.01691,0.01255,0.02025,0.01679,-0.01691,0.0*
%
%ADD38ROTATEDRECTD38*%

G04:AMPARAMS|DCode=39|XSize=37.4mil|YSize=29.53mil|CornerRadius=0mil|HoleSize=0mil|Usage=FLASHONLY|Rotation=74.487|XOffset=0mil|YOffset=0mil|HoleType=Round|Shape=Rectangle|*
%AMROTATEDRECTD39*
4,1,4,0.00922,-0.02197,-0.01923,-0.01407,-0.00922,0.02197,0.01923,0.01407,0.00922,-0.02197,0.0*
%
%ADD39ROTATEDRECTD39*%

G04:AMPARAMS|DCode=40|XSize=59.06mil|YSize=118.11mil|CornerRadius=0mil|HoleSize=0mil|Usage=FLASHONLY|Rotation=33.000|XOffset=0mil|YOffset=0mil|HoleType=Round|Shape=Rectangle|*
%AMROTATEDRECTD40*
4,1,4,0.00740,-0.06561,-0.05693,0.03345,-0.00740,0.06561,0.05693,-0.03345,0.00740,-0.06561,0.0*
%
%ADD40ROTATEDRECTD40*%

G04:AMPARAMS|DCode=41|XSize=37.4mil|YSize=29.53mil|CornerRadius=0mil|HoleSize=0mil|Usage=FLASHONLY|Rotation=215.500|XOffset=0mil|YOffset=0mil|HoleType=Round|Shape=Rectangle|*
%AMROTATEDRECTD41*
4,1,4,0.00665,0.02288,0.02380,-0.00116,-0.00665,-0.02288,-0.02380,0.00116,0.00665,0.02288,0.0*
%
%ADD41ROTATEDRECTD41*%

G04:AMPARAMS|DCode=42|XSize=23.62mil|YSize=57.09mil|CornerRadius=0mil|HoleSize=0mil|Usage=FLASHONLY|Rotation=349.000|XOffset=0mil|YOffset=0mil|HoleType=Round|Shape=Rectangle|*
%AMROTATEDRECTD42*
4,1,4,-0.01704,-0.02577,-0.00615,0.03027,0.01704,0.02577,0.00615,-0.03027,-0.01704,-0.02577,0.0*
%
%ADD42ROTATEDRECTD42*%

G04:AMPARAMS|DCode=43|XSize=108.27mil|YSize=122.05mil|CornerRadius=0mil|HoleSize=0mil|Usage=FLASHONLY|Rotation=259.000|XOffset=0mil|YOffset=0mil|HoleType=Round|Shape=Rectangle|*
%AMROTATEDRECTD43*
4,1,4,-0.04957,0.06478,0.07023,0.04150,0.04957,-0.06478,-0.07023,-0.04150,-0.04957,0.06478,0.0*
%
%ADD43ROTATEDRECTD43*%

G04:AMPARAMS|DCode=44|XSize=37.4mil|YSize=29.53mil|CornerRadius=0mil|HoleSize=0mil|Usage=FLASHONLY|Rotation=100.500|XOffset=0mil|YOffset=0mil|HoleType=Round|Shape=Rectangle|*
%AMROTATEDRECTD44*
4,1,4,0.01792,-0.01570,-0.01111,-0.02108,-0.01792,0.01570,0.01111,0.02108,0.01792,-0.01570,0.0*
%
%ADD44ROTATEDRECTD44*%

%ADD45C,0.03000*%
%ADD46C,0.01000*%
%ADD47C,0.05000*%
%ADD48P,0.07517X4X134.5*%
%ADD49C,0.05315*%
G04:AMPARAMS|DCode=50|XSize=39.37mil|YSize=78.74mil|CornerRadius=0mil|HoleSize=0mil|Usage=FLASHONLY|Rotation=320.000|XOffset=0mil|YOffset=0mil|HoleType=Round|Shape=Round|*
%AMOVALD50*
21,1,0.03937,0.03937,0.00000,0.00000,50.0*
1,1,0.03937,-0.01265,-0.01508*
1,1,0.03937,0.01265,0.01508*
%
%ADD50OVALD50*%

G04:AMPARAMS|DCode=51|XSize=39.37mil|YSize=78.74mil|CornerRadius=0mil|HoleSize=0mil|Usage=FLASHONLY|Rotation=46.000|XOffset=0mil|YOffset=0mil|HoleType=Round|Shape=Round|*
%AMOVALD51*
21,1,0.03937,0.03937,0.00000,0.00000,136.0*
1,1,0.03937,0.01416,-0.01367*
1,1,0.03937,-0.01416,0.01367*
%
%ADD51OVALD51*%

G04:AMPARAMS|DCode=52|XSize=39.37mil|YSize=78.74mil|CornerRadius=0mil|HoleSize=0mil|Usage=FLASHONLY|Rotation=40.500|XOffset=0mil|YOffset=0mil|HoleType=Round|Shape=Round|*
%AMOVALD52*
21,1,0.03937,0.03937,0.00000,0.00000,130.5*
1,1,0.03937,0.01278,-0.01497*
1,1,0.03937,-0.01278,0.01497*
%
%ADD52OVALD52*%

G04:AMPARAMS|DCode=53|XSize=39.37mil|YSize=78.74mil|CornerRadius=0mil|HoleSize=0mil|Usage=FLASHONLY|Rotation=342.000|XOffset=0mil|YOffset=0mil|HoleType=Round|Shape=Round|*
%AMOVALD53*
21,1,0.03937,0.03937,0.00000,0.00000,72.0*
1,1,0.03937,-0.00608,-0.01872*
1,1,0.03937,0.00608,0.01872*
%
%ADD53OVALD53*%

G04:AMPARAMS|DCode=54|XSize=39.37mil|YSize=78.74mil|CornerRadius=0mil|HoleSize=0mil|Usage=FLASHONLY|Rotation=14.000|XOffset=0mil|YOffset=0mil|HoleType=Round|Shape=Round|*
%AMOVALD54*
21,1,0.03937,0.03937,0.00000,0.00000,104.0*
1,1,0.03937,0.00476,-0.01910*
1,1,0.03937,-0.00476,0.01910*
%
%ADD54OVALD54*%

G04:AMPARAMS|DCode=55|XSize=39.37mil|YSize=78.74mil|CornerRadius=0mil|HoleSize=0mil|Usage=FLASHONLY|Rotation=6.000|XOffset=0mil|YOffset=0mil|HoleType=Round|Shape=Round|*
%AMOVALD55*
21,1,0.03937,0.03937,0.00000,0.00000,96.0*
1,1,0.03937,0.00206,-0.01958*
1,1,0.03937,-0.00206,0.01958*
%
%ADD55OVALD55*%

%ADD56O,0.09843X0.05906*%
%ADD57O,0.03937X0.07874*%
%ADD58P,0.07517X4X335.0*%
G04:AMPARAMS|DCode=59|XSize=39.37mil|YSize=78.74mil|CornerRadius=0mil|HoleSize=0mil|Usage=FLASHONLY|Rotation=349.000|XOffset=0mil|YOffset=0mil|HoleType=Round|Shape=Round|*
%AMOVALD59*
21,1,0.03937,0.03937,0.00000,0.00000,79.0*
1,1,0.03937,-0.00376,-0.01932*
1,1,0.03937,0.00376,0.01932*
%
%ADD59OVALD59*%

G04:AMPARAMS|DCode=60|XSize=59.06mil|YSize=118.11mil|CornerRadius=0mil|HoleSize=0mil|Usage=FLASHONLY|Rotation=33.500|XOffset=0mil|YOffset=0mil|HoleType=Round|Shape=Round|*
%AMOVALD60*
21,1,0.05906,0.05906,0.00000,0.00000,123.5*
1,1,0.05906,0.01630,-0.02462*
1,1,0.05906,-0.01630,0.02462*
%
%ADD60OVALD60*%

G04:AMPARAMS|DCode=61|XSize=39.37mil|YSize=78.74mil|CornerRadius=0mil|HoleSize=0mil|Usage=FLASHONLY|Rotation=182.000|XOffset=0mil|YOffset=0mil|HoleType=Round|Shape=Round|*
%AMOVALD61*
21,1,0.03937,0.03937,0.00000,0.00000,272.0*
1,1,0.03937,-0.00069,0.01967*
1,1,0.03937,0.00069,-0.01967*
%
%ADD61OVALD61*%

%ADD62C,0.02362*%
%ADD63C,0.03150*%
%ADD64C,0.04331*%
%ADD65C,0.00787*%
%ADD66C,0.02362*%
%ADD67C,0.00984*%
%ADD68C,0.00394*%
%ADD69C,0.00197*%
G04:AMPARAMS|DCode=70|XSize=45.4mil|YSize=37.53mil|CornerRadius=0mil|HoleSize=0mil|Usage=FLASHONLY|Rotation=93.284|XOffset=0mil|YOffset=0mil|HoleType=Round|Shape=Rectangle|*
%AMROTATEDRECTD70*
4,1,4,0.02003,-0.02159,-0.01743,-0.02374,-0.02003,0.02159,0.01743,0.02374,0.02003,-0.02159,0.0*
%
%ADD70ROTATEDRECTD70*%

G04:AMPARAMS|DCode=71|XSize=67.06mil|YSize=126.11mil|CornerRadius=0mil|HoleSize=0mil|Usage=FLASHONLY|Rotation=325.000|XOffset=0mil|YOffset=0mil|HoleType=Round|Shape=Rectangle|*
%AMROTATEDRECTD71*
4,1,4,-0.06363,-0.03242,0.00870,0.07088,0.06363,0.03242,-0.00870,-0.07088,-0.06363,-0.03242,0.0*
%
%ADD71ROTATEDRECTD71*%

G04:AMPARAMS|DCode=72|XSize=45.4mil|YSize=37.53mil|CornerRadius=0mil|HoleSize=0mil|Usage=FLASHONLY|Rotation=214.500|XOffset=0mil|YOffset=0mil|HoleType=Round|Shape=Rectangle|*
%AMROTATEDRECTD72*
4,1,4,0.00808,0.02832,0.02934,-0.00261,-0.00808,-0.02832,-0.02934,0.00261,0.00808,0.02832,0.0*
%
%ADD72ROTATEDRECTD72*%

G04:AMPARAMS|DCode=73|XSize=45.4mil|YSize=37.53mil|CornerRadius=0mil|HoleSize=0mil|Usage=FLASHONLY|Rotation=212.500|XOffset=0mil|YOffset=0mil|HoleType=Round|Shape=Rectangle|*
%AMROTATEDRECTD73*
4,1,4,0.00906,0.02802,0.02923,-0.00363,-0.00906,-0.02802,-0.02923,0.00363,0.00906,0.02802,0.0*
%
%ADD73ROTATEDRECTD73*%

G04:AMPARAMS|DCode=74|XSize=45.4mil|YSize=37.53mil|CornerRadius=0mil|HoleSize=0mil|Usage=FLASHONLY|Rotation=120.243|XOffset=0mil|YOffset=0mil|HoleType=Round|Shape=Rectangle|*
%AMROTATEDRECTD74*
4,1,4,0.02764,-0.01016,-0.00478,-0.02906,-0.02764,0.01016,0.00478,0.02906,0.02764,-0.01016,0.0*
%
%ADD74ROTATEDRECTD74*%

G04:AMPARAMS|DCode=75|XSize=45.4mil|YSize=37.53mil|CornerRadius=0mil|HoleSize=0mil|Usage=FLASHONLY|Rotation=210.500|XOffset=0mil|YOffset=0mil|HoleType=Round|Shape=Rectangle|*
%AMROTATEDRECTD75*
4,1,4,0.01004,0.02769,0.02908,-0.00465,-0.01004,-0.02769,-0.02908,0.00465,0.01004,0.02769,0.0*
%
%ADD75ROTATEDRECTD75*%

G04:AMPARAMS|DCode=76|XSize=45.4mil|YSize=37.53mil|CornerRadius=0mil|HoleSize=0mil|Usage=FLASHONLY|Rotation=213.500|XOffset=0mil|YOffset=0mil|HoleType=Round|Shape=Rectangle|*
%AMROTATEDRECTD76*
4,1,4,0.00857,0.02818,0.02929,-0.00312,-0.00857,-0.02818,-0.02929,0.00312,0.00857,0.02818,0.0*
%
%ADD76ROTATEDRECTD76*%

G04:AMPARAMS|DCode=77|XSize=45.4mil|YSize=37.53mil|CornerRadius=0mil|HoleSize=0mil|Usage=FLASHONLY|Rotation=130.000|XOffset=0mil|YOffset=0mil|HoleType=Round|Shape=Rectangle|*
%AMROTATEDRECTD77*
4,1,4,0.02897,-0.00533,0.00022,-0.02945,-0.02897,0.00533,-0.00022,0.02945,0.02897,-0.00533,0.0*
%
%ADD77ROTATEDRECTD77*%

G04:AMPARAMS|DCode=78|XSize=45.4mil|YSize=37.53mil|CornerRadius=0mil|HoleSize=0mil|Usage=FLASHONLY|Rotation=216.500|XOffset=0mil|YOffset=0mil|HoleType=Round|Shape=Rectangle|*
%AMROTATEDRECTD78*
4,1,4,0.00709,0.02859,0.02941,-0.00158,-0.00709,-0.02859,-0.02941,0.00158,0.00709,0.02859,0.0*
%
%ADD78ROTATEDRECTD78*%

G04:AMPARAMS|DCode=79|XSize=45.4mil|YSize=37.53mil|CornerRadius=0mil|HoleSize=0mil|Usage=FLASHONLY|Rotation=219.500|XOffset=0mil|YOffset=0mil|HoleType=Round|Shape=Rectangle|*
%AMROTATEDRECTD79*
4,1,4,0.00558,0.02892,0.02945,-0.00004,-0.00558,-0.02892,-0.02945,0.00004,0.00558,0.02892,0.0*
%
%ADD79ROTATEDRECTD79*%

G04:AMPARAMS|DCode=80|XSize=45.4mil|YSize=37.53mil|CornerRadius=0mil|HoleSize=0mil|Usage=FLASHONLY|Rotation=222.500|XOffset=0mil|YOffset=0mil|HoleType=Round|Shape=Rectangle|*
%AMROTATEDRECTD80*
4,1,4,0.00406,0.02917,0.02941,0.00150,-0.00406,-0.02917,-0.02941,-0.00150,0.00406,0.02917,0.0*
%
%ADD80ROTATEDRECTD80*%

G04:AMPARAMS|DCode=81|XSize=45.4mil|YSize=37.53mil|CornerRadius=0mil|HoleSize=0mil|Usage=FLASHONLY|Rotation=45.000|XOffset=0mil|YOffset=0mil|HoleType=Round|Shape=Rectangle|*
%AMROTATEDRECTD81*
4,1,4,-0.00278,-0.02932,-0.02932,-0.00278,0.00278,0.02932,0.02932,0.00278,-0.00278,-0.02932,0.0*
%
%ADD81ROTATEDRECTD81*%

G04:AMPARAMS|DCode=82|XSize=45.4mil|YSize=37.53mil|CornerRadius=0mil|HoleSize=0mil|Usage=FLASHONLY|Rotation=259.000|XOffset=0mil|YOffset=0mil|HoleType=Round|Shape=Rectangle|*
%AMROTATEDRECTD82*
4,1,4,-0.01409,0.02586,0.02275,0.01870,0.01409,-0.02586,-0.02275,-0.01870,-0.01409,0.02586,0.0*
%
%ADD82ROTATEDRECTD82*%

G04:AMPARAMS|DCode=83|XSize=45.4mil|YSize=37.53mil|CornerRadius=0mil|HoleSize=0mil|Usage=FLASHONLY|Rotation=262.500|XOffset=0mil|YOffset=0mil|HoleType=Round|Shape=Rectangle|*
%AMROTATEDRECTD83*
4,1,4,-0.01564,0.02496,0.02157,0.02006,0.01564,-0.02496,-0.02157,-0.02006,-0.01564,0.02496,0.0*
%
%ADD83ROTATEDRECTD83*%

G04:AMPARAMS|DCode=84|XSize=45.4mil|YSize=37.53mil|CornerRadius=0mil|HoleSize=0mil|Usage=FLASHONLY|Rotation=358.956|XOffset=0mil|YOffset=0mil|HoleType=Round|Shape=Rectangle|*
%AMROTATEDRECTD84*
4,1,4,-0.02304,-0.01835,-0.02236,0.01917,0.02304,0.01835,0.02236,-0.01917,-0.02304,-0.01835,0.0*
%
%ADD84ROTATEDRECTD84*%

G04:AMPARAMS|DCode=85|XSize=45.4mil|YSize=37.53mil|CornerRadius=0mil|HoleSize=0mil|Usage=FLASHONLY|Rotation=199.000|XOffset=0mil|YOffset=0mil|HoleType=Round|Shape=Rectangle|*
%AMROTATEDRECTD85*
4,1,4,0.01536,0.02513,0.02757,-0.01035,-0.01536,-0.02513,-0.02757,0.01035,0.01536,0.02513,0.0*
%
%ADD85ROTATEDRECTD85*%

G04:AMPARAMS|DCode=86|XSize=45.4mil|YSize=37.53mil|CornerRadius=0mil|HoleSize=0mil|Usage=FLASHONLY|Rotation=182.681|XOffset=0mil|YOffset=0mil|HoleType=Round|Shape=Rectangle|*
%AMROTATEDRECTD86*
4,1,4,0.02180,0.01981,0.02355,-0.01768,-0.02180,-0.01981,-0.02355,0.01768,0.02180,0.01981,0.0*
%
%ADD86ROTATEDRECTD86*%

G04:AMPARAMS|DCode=87|XSize=45.4mil|YSize=37.53mil|CornerRadius=0mil|HoleSize=0mil|Usage=FLASHONLY|Rotation=95.500|XOffset=0mil|YOffset=0mil|HoleType=Round|Shape=Rectangle|*
%AMROTATEDRECTD87*
4,1,4,0.02085,-0.02080,-0.01650,-0.02440,-0.02085,0.02080,0.01650,0.02440,0.02085,-0.02080,0.0*
%
%ADD87ROTATEDRECTD87*%

G04:AMPARAMS|DCode=88|XSize=45.4mil|YSize=37.53mil|CornerRadius=0mil|HoleSize=0mil|Usage=FLASHONLY|Rotation=77.000|XOffset=0mil|YOffset=0mil|HoleType=Round|Shape=Rectangle|*
%AMROTATEDRECTD88*
4,1,4,0.01318,-0.02634,-0.02339,-0.01790,-0.01318,0.02634,0.02339,0.01790,0.01318,-0.02634,0.0*
%
%ADD88ROTATEDRECTD88*%

%ADD89R,0.06509X0.01981*%
%ADD90R,0.01981X0.06509*%
G04:AMPARAMS|DCode=91|XSize=45.4mil|YSize=37.53mil|CornerRadius=0mil|HoleSize=0mil|Usage=FLASHONLY|Rotation=96.500|XOffset=0mil|YOffset=0mil|HoleType=Round|Shape=Rectangle|*
%AMROTATEDRECTD91*
4,1,4,0.02121,-0.02043,-0.01607,-0.02468,-0.02121,0.02043,0.01607,0.02468,0.02121,-0.02043,0.0*
%
%ADD91ROTATEDRECTD91*%

G04:AMPARAMS|DCode=92|XSize=45.4mil|YSize=37.53mil|CornerRadius=0mil|HoleSize=0mil|Usage=FLASHONLY|Rotation=272.280|XOffset=0mil|YOffset=0mil|HoleType=Round|Shape=Rectangle|*
%AMROTATEDRECTD92*
4,1,4,-0.01965,0.02194,0.01785,0.02343,0.01965,-0.02194,-0.01785,-0.02343,-0.01965,0.02194,0.0*
%
%ADD92ROTATEDRECTD92*%

G04:AMPARAMS|DCode=93|XSize=45.4mil|YSize=37.53mil|CornerRadius=0mil|HoleSize=0mil|Usage=FLASHONLY|Rotation=84.948|XOffset=0mil|YOffset=0mil|HoleType=Round|Shape=Rectangle|*
%AMROTATEDRECTD93*
4,1,4,0.01669,-0.02427,-0.02069,-0.02096,-0.01669,0.02427,0.02069,0.02096,0.01669,-0.02427,0.0*
%
%ADD93ROTATEDRECTD93*%

G04:AMPARAMS|DCode=94|XSize=74.93mil|YSize=86.74mil|CornerRadius=0mil|HoleSize=0mil|Usage=FLASHONLY|Rotation=162.000|XOffset=0mil|YOffset=0mil|HoleType=Round|Shape=Rectangle|*
%AMROTATEDRECTD94*
4,1,4,0.04903,0.02967,0.02223,-0.05283,-0.04903,-0.02967,-0.02223,0.05283,0.04903,0.02967,0.0*
%
%ADD94ROTATEDRECTD94*%

G04:AMPARAMS|DCode=95|XSize=45.4mil|YSize=37.53mil|CornerRadius=0mil|HoleSize=0mil|Usage=FLASHONLY|Rotation=77.000|XOffset=0mil|YOffset=0mil|HoleType=Round|Shape=Rectangle|*
%AMROTATEDRECTD95*
4,1,4,0.01318,-0.02634,-0.02339,-0.01790,-0.01318,0.02634,0.02339,0.01790,0.01318,-0.02634,0.0*
%
%ADD95ROTATEDRECTD95*%

G04:AMPARAMS|DCode=96|XSize=45.4mil|YSize=37.53mil|CornerRadius=0mil|HoleSize=0mil|Usage=FLASHONLY|Rotation=352.500|XOffset=0mil|YOffset=0mil|HoleType=Round|Shape=Rectangle|*
%AMROTATEDRECTD96*
4,1,4,-0.02496,-0.01564,-0.02006,0.02157,0.02496,0.01564,0.02006,-0.02157,-0.02496,-0.01564,0.0*
%
%ADD96ROTATEDRECTD96*%

%ADD97P,0.13937X4X213.0*%
G04:AMPARAMS|DCode=98|XSize=45.4mil|YSize=37.53mil|CornerRadius=0mil|HoleSize=0mil|Usage=FLASHONLY|Rotation=96.500|XOffset=0mil|YOffset=0mil|HoleType=Round|Shape=Rectangle|*
%AMROTATEDRECTD98*
4,1,4,0.02121,-0.02043,-0.01607,-0.02468,-0.02121,0.02043,0.01607,0.02468,0.02121,-0.02043,0.0*
%
%ADD98ROTATEDRECTD98*%

G04:AMPARAMS|DCode=99|XSize=45.4mil|YSize=37.53mil|CornerRadius=0mil|HoleSize=0mil|Usage=FLASHONLY|Rotation=74.487|XOffset=0mil|YOffset=0mil|HoleType=Round|Shape=Rectangle|*
%AMROTATEDRECTD99*
4,1,4,0.01201,-0.02689,-0.02415,-0.01686,-0.01201,0.02689,0.02415,0.01686,0.01201,-0.02689,0.0*
%
%ADD99ROTATEDRECTD99*%

G04:AMPARAMS|DCode=100|XSize=67.06mil|YSize=126.11mil|CornerRadius=0mil|HoleSize=0mil|Usage=FLASHONLY|Rotation=33.000|XOffset=0mil|YOffset=0mil|HoleType=Round|Shape=Rectangle|*
%AMROTATEDRECTD100*
4,1,4,0.00622,-0.07114,-0.06246,0.03462,-0.00622,0.07114,0.06246,-0.03462,0.00622,-0.07114,0.0*
%
%ADD100ROTATEDRECTD100*%

G04:AMPARAMS|DCode=101|XSize=45.4mil|YSize=37.53mil|CornerRadius=0mil|HoleSize=0mil|Usage=FLASHONLY|Rotation=215.500|XOffset=0mil|YOffset=0mil|HoleType=Round|Shape=Rectangle|*
%AMROTATEDRECTD101*
4,1,4,0.00759,0.02846,0.02938,-0.00209,-0.00759,-0.02846,-0.02938,0.00209,0.00759,0.02846,0.0*
%
%ADD101ROTATEDRECTD101*%

G04:AMPARAMS|DCode=102|XSize=31.62mil|YSize=65.09mil|CornerRadius=0mil|HoleSize=0mil|Usage=FLASHONLY|Rotation=349.000|XOffset=0mil|YOffset=0mil|HoleType=Round|Shape=Rectangle|*
%AMROTATEDRECTD102*
4,1,4,-0.02173,-0.02893,-0.00931,0.03496,0.02173,0.02893,0.00931,-0.03496,-0.02173,-0.02893,0.0*
%
%ADD102ROTATEDRECTD102*%

G04:AMPARAMS|DCode=103|XSize=116.27mil|YSize=130.05mil|CornerRadius=0mil|HoleSize=0mil|Usage=FLASHONLY|Rotation=259.000|XOffset=0mil|YOffset=0mil|HoleType=Round|Shape=Rectangle|*
%AMROTATEDRECTD103*
4,1,4,-0.05274,0.06947,0.07492,0.04466,0.05274,-0.06947,-0.07492,-0.04466,-0.05274,0.06947,0.0*
%
%ADD103ROTATEDRECTD103*%

G04:AMPARAMS|DCode=104|XSize=45.4mil|YSize=37.53mil|CornerRadius=0mil|HoleSize=0mil|Usage=FLASHONLY|Rotation=100.500|XOffset=0mil|YOffset=0mil|HoleType=Round|Shape=Rectangle|*
%AMROTATEDRECTD104*
4,1,4,0.02259,-0.01890,-0.01431,-0.02574,-0.02259,0.01890,0.01431,0.02574,0.02259,-0.01890,0.0*
%
%ADD104ROTATEDRECTD104*%

%ADD105P,0.08648X4X134.5*%
%ADD106C,0.06115*%
G04:AMPARAMS|DCode=107|XSize=47.37mil|YSize=86.74mil|CornerRadius=0mil|HoleSize=0mil|Usage=FLASHONLY|Rotation=320.000|XOffset=0mil|YOffset=0mil|HoleType=Round|Shape=Round|*
%AMOVALD107*
21,1,0.03937,0.04737,0.00000,0.00000,50.0*
1,1,0.04737,-0.01265,-0.01508*
1,1,0.04737,0.01265,0.01508*
%
%ADD107OVALD107*%

G04:AMPARAMS|DCode=108|XSize=47.37mil|YSize=86.74mil|CornerRadius=0mil|HoleSize=0mil|Usage=FLASHONLY|Rotation=46.000|XOffset=0mil|YOffset=0mil|HoleType=Round|Shape=Round|*
%AMOVALD108*
21,1,0.03937,0.04737,0.00000,0.00000,136.0*
1,1,0.04737,0.01416,-0.01367*
1,1,0.04737,-0.01416,0.01367*
%
%ADD108OVALD108*%

G04:AMPARAMS|DCode=109|XSize=47.37mil|YSize=86.74mil|CornerRadius=0mil|HoleSize=0mil|Usage=FLASHONLY|Rotation=40.500|XOffset=0mil|YOffset=0mil|HoleType=Round|Shape=Round|*
%AMOVALD109*
21,1,0.03937,0.04737,0.00000,0.00000,130.5*
1,1,0.04737,0.01278,-0.01497*
1,1,0.04737,-0.01278,0.01497*
%
%ADD109OVALD109*%

G04:AMPARAMS|DCode=110|XSize=47.37mil|YSize=86.74mil|CornerRadius=0mil|HoleSize=0mil|Usage=FLASHONLY|Rotation=342.000|XOffset=0mil|YOffset=0mil|HoleType=Round|Shape=Round|*
%AMOVALD110*
21,1,0.03937,0.04737,0.00000,0.00000,72.0*
1,1,0.04737,-0.00608,-0.01872*
1,1,0.04737,0.00608,0.01872*
%
%ADD110OVALD110*%

G04:AMPARAMS|DCode=111|XSize=47.37mil|YSize=86.74mil|CornerRadius=0mil|HoleSize=0mil|Usage=FLASHONLY|Rotation=14.000|XOffset=0mil|YOffset=0mil|HoleType=Round|Shape=Round|*
%AMOVALD111*
21,1,0.03937,0.04737,0.00000,0.00000,104.0*
1,1,0.04737,0.00476,-0.01910*
1,1,0.04737,-0.00476,0.01910*
%
%ADD111OVALD111*%

G04:AMPARAMS|DCode=112|XSize=47.37mil|YSize=86.74mil|CornerRadius=0mil|HoleSize=0mil|Usage=FLASHONLY|Rotation=6.000|XOffset=0mil|YOffset=0mil|HoleType=Round|Shape=Round|*
%AMOVALD112*
21,1,0.03937,0.04737,0.00000,0.00000,96.0*
1,1,0.04737,0.00206,-0.01958*
1,1,0.04737,-0.00206,0.01958*
%
%ADD112OVALD112*%

%ADD113O,0.10642X0.06706*%
%ADD114O,0.04737X0.08674*%
%ADD115P,0.08648X4X335.0*%
G04:AMPARAMS|DCode=116|XSize=47.37mil|YSize=86.74mil|CornerRadius=0mil|HoleSize=0mil|Usage=FLASHONLY|Rotation=349.000|XOffset=0mil|YOffset=0mil|HoleType=Round|Shape=Round|*
%AMOVALD116*
21,1,0.03937,0.04737,0.00000,0.00000,79.0*
1,1,0.04737,-0.00376,-0.01932*
1,1,0.04737,0.00376,0.01932*
%
%ADD116OVALD116*%

G04:AMPARAMS|DCode=117|XSize=67.06mil|YSize=126.11mil|CornerRadius=0mil|HoleSize=0mil|Usage=FLASHONLY|Rotation=33.500|XOffset=0mil|YOffset=0mil|HoleType=Round|Shape=Round|*
%AMOVALD117*
21,1,0.05906,0.06706,0.00000,0.00000,123.5*
1,1,0.06706,0.01630,-0.02462*
1,1,0.06706,-0.01630,0.02462*
%
%ADD117OVALD117*%

G04:AMPARAMS|DCode=118|XSize=47.37mil|YSize=86.74mil|CornerRadius=0mil|HoleSize=0mil|Usage=FLASHONLY|Rotation=182.000|XOffset=0mil|YOffset=0mil|HoleType=Round|Shape=Round|*
%AMOVALD118*
21,1,0.03937,0.04737,0.00000,0.00000,272.0*
1,1,0.04737,-0.00069,0.01967*
1,1,0.04737,0.00069,-0.01967*
%
%ADD118OVALD118*%

%ADD119C,0.03162*%
%ADD120C,0.03950*%
%ADD121C,0.05131*%
D46*
X759325Y395695D02*
Y394695D01*
X757326Y392696D01*
X755327Y394695D01*
Y395695D01*
X757326Y392696D02*
Y389697D01*
X752327Y393696D02*
X750328D01*
X749328Y392696D01*
Y389697D01*
X752327D01*
X753327Y390697D01*
X752327Y391697D01*
X749328D01*
X746329Y394695D02*
Y393696D01*
X747329D01*
X745330D01*
X746329D01*
Y390697D01*
X745330Y389697D01*
X739332D02*
X741331D01*
X742331Y390697D01*
Y392696D01*
X741331Y393696D01*
X739332D01*
X738332Y392696D01*
Y391697D01*
X742331D01*
X736333Y389697D02*
Y395695D01*
Y391697D02*
X733334Y393696D01*
X736333Y391697D02*
X733334Y389697D01*
X730335D02*
X728335D01*
X729335D01*
Y393696D01*
X730335D01*
X725336Y389697D02*
X723337D01*
X724336D01*
Y393696D01*
X725336D01*
X759199Y400025D02*
Y406023D01*
X756200D01*
X755201Y405024D01*
Y403024D01*
X756200Y402025D01*
X759199D01*
X757200D02*
X755201Y400025D01*
X750202D02*
X752202D01*
X753201Y401025D01*
Y403024D01*
X752202Y404024D01*
X750202D01*
X749202Y403024D01*
Y402025D01*
X753201D01*
X747203Y404024D02*
X745204Y400025D01*
X743204Y404024D01*
X735207Y400025D02*
X733208D01*
X734207D01*
Y406023D01*
X735207Y405024D01*
X756049Y414492D02*
X757048Y415491D01*
X759048D01*
X760047Y414492D01*
Y410493D01*
X759048Y409493D01*
X757048D01*
X756049Y410493D01*
X754049Y413492D02*
Y410493D01*
X753050Y409493D01*
X750051D01*
Y413492D01*
X748051Y407494D02*
Y413492D01*
X745052D01*
X744053Y412492D01*
Y410493D01*
X745052Y409493D01*
X748051D01*
X736055Y415491D02*
Y409493D01*
X733056D01*
X732056Y410493D01*
Y414492D01*
X733056Y415491D01*
X736055D01*
X730057Y409493D02*
X728058D01*
X729057D01*
Y413492D01*
X730057D01*
X725059Y409493D02*
X722060D01*
X721060Y410493D01*
X722060Y411493D01*
X724059D01*
X725059Y412492D01*
X724059Y413492D01*
X721060D01*
X719061Y407494D02*
Y413492D01*
X716062D01*
X715062Y412492D01*
Y410493D01*
X716062Y409493D01*
X719061D01*
X710064D02*
X712063D01*
X713062Y410493D01*
Y412492D01*
X712063Y413492D01*
X710064D01*
X709064Y412492D01*
Y411493D01*
X713062D01*
X707064Y409493D02*
Y413492D01*
X704065D01*
X703066Y412492D01*
Y409493D01*
X701066D02*
X698067D01*
X697068Y410493D01*
X698067Y411493D01*
X700067D01*
X701066Y412492D01*
X700067Y413492D01*
X697068D01*
X692069Y409493D02*
X694069D01*
X695068Y410493D01*
Y412492D01*
X694069Y413492D01*
X692069D01*
X691070Y412492D01*
Y411493D01*
X695068D01*
X689070Y413492D02*
Y409493D01*
Y411493D01*
X688071Y412492D01*
X687071Y413492D01*
X686071D01*
M02*
