%FSLAX25Y25*%
%MOIN*%
G70*
G01*
G75*
G04 Layer_Color=65535*
G04:AMPARAMS|DCode=10|XSize=37.4mil|YSize=29.53mil|CornerRadius=0mil|HoleSize=0mil|Usage=FLASHONLY|Rotation=93.284|XOffset=0mil|YOffset=0mil|HoleType=Round|Shape=Rectangle|*
%AMROTATEDRECTD10*
4,1,4,0.01581,-0.01782,-0.01367,-0.01952,-0.01581,0.01782,0.01367,0.01952,0.01581,-0.01782,0.0*
%
%ADD10ROTATEDRECTD10*%

G04:AMPARAMS|DCode=11|XSize=59.06mil|YSize=118.11mil|CornerRadius=0mil|HoleSize=0mil|Usage=FLASHONLY|Rotation=325.000|XOffset=0mil|YOffset=0mil|HoleType=Round|Shape=Rectangle|*
%AMROTATEDRECTD11*
4,1,4,-0.05806,-0.03144,0.00969,0.06531,0.05806,0.03144,-0.00969,-0.06531,-0.05806,-0.03144,0.0*
%
%ADD11ROTATEDRECTD11*%

G04:AMPARAMS|DCode=12|XSize=37.4mil|YSize=29.53mil|CornerRadius=0mil|HoleSize=0mil|Usage=FLASHONLY|Rotation=214.500|XOffset=0mil|YOffset=0mil|HoleType=Round|Shape=Rectangle|*
%AMROTATEDRECTD12*
4,1,4,0.00705,0.02276,0.02377,-0.00158,-0.00705,-0.02276,-0.02377,0.00158,0.00705,0.02276,0.0*
%
%ADD12ROTATEDRECTD12*%

G04:AMPARAMS|DCode=13|XSize=37.4mil|YSize=29.53mil|CornerRadius=0mil|HoleSize=0mil|Usage=FLASHONLY|Rotation=212.500|XOffset=0mil|YOffset=0mil|HoleType=Round|Shape=Rectangle|*
%AMROTATEDRECTD13*
4,1,4,0.00784,0.02250,0.02371,-0.00240,-0.00784,-0.02250,-0.02371,0.00240,0.00784,0.02250,0.0*
%
%ADD13ROTATEDRECTD13*%

G04:AMPARAMS|DCode=14|XSize=37.4mil|YSize=29.53mil|CornerRadius=0mil|HoleSize=0mil|Usage=FLASHONLY|Rotation=120.243|XOffset=0mil|YOffset=0mil|HoleType=Round|Shape=Rectangle|*
%AMROTATEDRECTD14*
4,1,4,0.02217,-0.00872,-0.00334,-0.02359,-0.02217,0.00872,0.00334,0.02359,0.02217,-0.00872,0.0*
%
%ADD14ROTATEDRECTD14*%

G04:AMPARAMS|DCode=15|XSize=37.4mil|YSize=29.53mil|CornerRadius=0mil|HoleSize=0mil|Usage=FLASHONLY|Rotation=210.500|XOffset=0mil|YOffset=0mil|HoleType=Round|Shape=Rectangle|*
%AMROTATEDRECTD15*
4,1,4,0.00862,0.02221,0.02361,-0.00323,-0.00862,-0.02221,-0.02361,0.00323,0.00862,0.02221,0.0*
%
%ADD15ROTATEDRECTD15*%

G04:AMPARAMS|DCode=16|XSize=37.4mil|YSize=29.53mil|CornerRadius=0mil|HoleSize=0mil|Usage=FLASHONLY|Rotation=213.500|XOffset=0mil|YOffset=0mil|HoleType=Round|Shape=Rectangle|*
%AMROTATEDRECTD16*
4,1,4,0.00745,0.02263,0.02374,-0.00199,-0.00745,-0.02263,-0.02374,0.00199,0.00745,0.02263,0.0*
%
%ADD16ROTATEDRECTD16*%

G04:AMPARAMS|DCode=17|XSize=37.4mil|YSize=29.53mil|CornerRadius=0mil|HoleSize=0mil|Usage=FLASHONLY|Rotation=130.000|XOffset=0mil|YOffset=0mil|HoleType=Round|Shape=Rectangle|*
%AMROTATEDRECTD17*
4,1,4,0.02333,-0.00484,0.00071,-0.02382,-0.02333,0.00484,-0.00071,0.02382,0.02333,-0.00484,0.0*
%
%ADD17ROTATEDRECTD17*%

G04:AMPARAMS|DCode=18|XSize=37.4mil|YSize=29.53mil|CornerRadius=0mil|HoleSize=0mil|Usage=FLASHONLY|Rotation=216.500|XOffset=0mil|YOffset=0mil|HoleType=Round|Shape=Rectangle|*
%AMROTATEDRECTD18*
4,1,4,0.00625,0.02299,0.02382,-0.00074,-0.00625,-0.02299,-0.02382,0.00074,0.00625,0.02299,0.0*
%
%ADD18ROTATEDRECTD18*%

G04:AMPARAMS|DCode=19|XSize=37.4mil|YSize=29.53mil|CornerRadius=0mil|HoleSize=0mil|Usage=FLASHONLY|Rotation=219.500|XOffset=0mil|YOffset=0mil|HoleType=Round|Shape=Rectangle|*
%AMROTATEDRECTD19*
4,1,4,0.00504,0.02329,0.02382,0.00050,-0.00504,-0.02329,-0.02382,-0.00050,0.00504,0.02329,0.0*
%
%ADD19ROTATEDRECTD19*%

G04:AMPARAMS|DCode=20|XSize=37.4mil|YSize=29.53mil|CornerRadius=0mil|HoleSize=0mil|Usage=FLASHONLY|Rotation=222.500|XOffset=0mil|YOffset=0mil|HoleType=Round|Shape=Rectangle|*
%AMROTATEDRECTD20*
4,1,4,0.00381,0.02352,0.02376,0.00175,-0.00381,-0.02352,-0.02376,-0.00175,0.00381,0.02352,0.0*
%
%ADD20ROTATEDRECTD20*%

G04:AMPARAMS|DCode=21|XSize=37.4mil|YSize=29.53mil|CornerRadius=0mil|HoleSize=0mil|Usage=FLASHONLY|Rotation=45.000|XOffset=0mil|YOffset=0mil|HoleType=Round|Shape=Rectangle|*
%AMROTATEDRECTD21*
4,1,4,-0.00278,-0.02366,-0.02366,-0.00278,0.00278,0.02366,0.02366,0.00278,-0.00278,-0.02366,0.0*
%
%ADD21ROTATEDRECTD21*%

G04:AMPARAMS|DCode=22|XSize=37.4mil|YSize=29.53mil|CornerRadius=0mil|HoleSize=0mil|Usage=FLASHONLY|Rotation=259.000|XOffset=0mil|YOffset=0mil|HoleType=Round|Shape=Rectangle|*
%AMROTATEDRECTD22*
4,1,4,-0.01092,0.02117,0.01806,0.01554,0.01092,-0.02117,-0.01806,-0.01554,-0.01092,0.02117,0.0*
%
%ADD22ROTATEDRECTD22*%

G04:AMPARAMS|DCode=23|XSize=37.4mil|YSize=29.53mil|CornerRadius=0mil|HoleSize=0mil|Usage=FLASHONLY|Rotation=262.500|XOffset=0mil|YOffset=0mil|HoleType=Round|Shape=Rectangle|*
%AMROTATEDRECTD23*
4,1,4,-0.01220,0.02047,0.01708,0.01661,0.01220,-0.02047,-0.01708,-0.01661,-0.01220,0.02047,0.0*
%
%ADD23ROTATEDRECTD23*%

G04:AMPARAMS|DCode=24|XSize=37.4mil|YSize=29.53mil|CornerRadius=0mil|HoleSize=0mil|Usage=FLASHONLY|Rotation=358.956|XOffset=0mil|YOffset=0mil|HoleType=Round|Shape=Rectangle|*
%AMROTATEDRECTD24*
4,1,4,-0.01897,-0.01442,-0.01843,0.01510,0.01897,0.01442,0.01843,-0.01510,-0.01897,-0.01442,0.0*
%
%ADD24ROTATEDRECTD24*%

G04:AMPARAMS|DCode=25|XSize=37.4mil|YSize=29.53mil|CornerRadius=0mil|HoleSize=0mil|Usage=FLASHONLY|Rotation=199.000|XOffset=0mil|YOffset=0mil|HoleType=Round|Shape=Rectangle|*
%AMROTATEDRECTD25*
4,1,4,0.01288,0.02005,0.02249,-0.00787,-0.01288,-0.02005,-0.02249,0.00787,0.01288,0.02005,0.0*
%
%ADD25ROTATEDRECTD25*%

G04:AMPARAMS|DCode=26|XSize=37.4mil|YSize=29.53mil|CornerRadius=0mil|HoleSize=0mil|Usage=FLASHONLY|Rotation=182.681|XOffset=0mil|YOffset=0mil|HoleType=Round|Shape=Rectangle|*
%AMROTATEDRECTD26*
4,1,4,0.01799,0.01562,0.01937,-0.01387,-0.01799,-0.01562,-0.01937,0.01387,0.01799,0.01562,0.0*
%
%ADD26ROTATEDRECTD26*%

G04:AMPARAMS|DCode=27|XSize=37.4mil|YSize=29.53mil|CornerRadius=0mil|HoleSize=0mil|Usage=FLASHONLY|Rotation=95.500|XOffset=0mil|YOffset=0mil|HoleType=Round|Shape=Rectangle|*
%AMROTATEDRECTD27*
4,1,4,0.01649,-0.01720,-0.01290,-0.02003,-0.01649,0.01720,0.01290,0.02003,0.01649,-0.01720,0.0*
%
%ADD27ROTATEDRECTD27*%

G04:AMPARAMS|DCode=28|XSize=37.4mil|YSize=29.53mil|CornerRadius=0mil|HoleSize=0mil|Usage=FLASHONLY|Rotation=77.000|XOffset=0mil|YOffset=0mil|HoleType=Round|Shape=Rectangle|*
%AMROTATEDRECTD28*
4,1,4,0.01018,-0.02154,-0.01859,-0.01490,-0.01018,0.02154,0.01859,0.01490,0.01018,-0.02154,0.0*
%
%ADD28ROTATEDRECTD28*%

%ADD29R,0.05709X0.01181*%
%ADD30R,0.01181X0.05709*%
G04:AMPARAMS|DCode=31|XSize=37.4mil|YSize=29.53mil|CornerRadius=0mil|HoleSize=0mil|Usage=FLASHONLY|Rotation=96.500|XOffset=0mil|YOffset=0mil|HoleType=Round|Shape=Rectangle|*
%AMROTATEDRECTD31*
4,1,4,0.01679,-0.01691,-0.01255,-0.02025,-0.01679,0.01691,0.01255,0.02025,0.01679,-0.01691,0.0*
%
%ADD31ROTATEDRECTD31*%

G04:AMPARAMS|DCode=32|XSize=37.4mil|YSize=29.53mil|CornerRadius=0mil|HoleSize=0mil|Usage=FLASHONLY|Rotation=272.280|XOffset=0mil|YOffset=0mil|HoleType=Round|Shape=Rectangle|*
%AMROTATEDRECTD32*
4,1,4,-0.01550,0.01810,0.01401,0.01927,0.01550,-0.01810,-0.01401,-0.01927,-0.01550,0.01810,0.0*
%
%ADD32ROTATEDRECTD32*%

G04:AMPARAMS|DCode=33|XSize=37.4mil|YSize=29.53mil|CornerRadius=0mil|HoleSize=0mil|Usage=FLASHONLY|Rotation=84.948|XOffset=0mil|YOffset=0mil|HoleType=Round|Shape=Rectangle|*
%AMROTATEDRECTD33*
4,1,4,0.01306,-0.01993,-0.01635,-0.01733,-0.01306,0.01993,0.01635,0.01733,0.01306,-0.01993,0.0*
%
%ADD33ROTATEDRECTD33*%

G04:AMPARAMS|DCode=34|XSize=66.93mil|YSize=78.74mil|CornerRadius=0mil|HoleSize=0mil|Usage=FLASHONLY|Rotation=162.000|XOffset=0mil|YOffset=0mil|HoleType=Round|Shape=Rectangle|*
%AMROTATEDRECTD34*
4,1,4,0.04399,0.02710,0.01966,-0.04778,-0.04399,-0.02710,-0.01966,0.04778,0.04399,0.02710,0.0*
%
%ADD34ROTATEDRECTD34*%

G04:AMPARAMS|DCode=35|XSize=37.4mil|YSize=29.53mil|CornerRadius=0mil|HoleSize=0mil|Usage=FLASHONLY|Rotation=77.000|XOffset=0mil|YOffset=0mil|HoleType=Round|Shape=Rectangle|*
%AMROTATEDRECTD35*
4,1,4,0.01018,-0.02154,-0.01859,-0.01490,-0.01018,0.02154,0.01859,0.01490,0.01018,-0.02154,0.0*
%
%ADD35ROTATEDRECTD35*%

G04:AMPARAMS|DCode=36|XSize=37.4mil|YSize=29.53mil|CornerRadius=0mil|HoleSize=0mil|Usage=FLASHONLY|Rotation=352.500|XOffset=0mil|YOffset=0mil|HoleType=Round|Shape=Rectangle|*
%AMROTATEDRECTD36*
4,1,4,-0.02047,-0.01220,-0.01661,0.01708,0.02047,0.01220,0.01661,-0.01708,-0.02047,-0.01220,0.0*
%
%ADD36ROTATEDRECTD36*%

%ADD37P,0.12806X4X213.0*%
G04:AMPARAMS|DCode=38|XSize=37.4mil|YSize=29.53mil|CornerRadius=0mil|HoleSize=0mil|Usage=FLASHONLY|Rotation=96.500|XOffset=0mil|YOffset=0mil|HoleType=Round|Shape=Rectangle|*
%AMROTATEDRECTD38*
4,1,4,0.01679,-0.01691,-0.01255,-0.02025,-0.01679,0.01691,0.01255,0.02025,0.01679,-0.01691,0.0*
%
%ADD38ROTATEDRECTD38*%

G04:AMPARAMS|DCode=39|XSize=37.4mil|YSize=29.53mil|CornerRadius=0mil|HoleSize=0mil|Usage=FLASHONLY|Rotation=74.487|XOffset=0mil|YOffset=0mil|HoleType=Round|Shape=Rectangle|*
%AMROTATEDRECTD39*
4,1,4,0.00922,-0.02197,-0.01923,-0.01407,-0.00922,0.02197,0.01923,0.01407,0.00922,-0.02197,0.0*
%
%ADD39ROTATEDRECTD39*%

G04:AMPARAMS|DCode=40|XSize=59.06mil|YSize=118.11mil|CornerRadius=0mil|HoleSize=0mil|Usage=FLASHONLY|Rotation=33.000|XOffset=0mil|YOffset=0mil|HoleType=Round|Shape=Rectangle|*
%AMROTATEDRECTD40*
4,1,4,0.00740,-0.06561,-0.05693,0.03345,-0.00740,0.06561,0.05693,-0.03345,0.00740,-0.06561,0.0*
%
%ADD40ROTATEDRECTD40*%

G04:AMPARAMS|DCode=41|XSize=37.4mil|YSize=29.53mil|CornerRadius=0mil|HoleSize=0mil|Usage=FLASHONLY|Rotation=215.500|XOffset=0mil|YOffset=0mil|HoleType=Round|Shape=Rectangle|*
%AMROTATEDRECTD41*
4,1,4,0.00665,0.02288,0.02380,-0.00116,-0.00665,-0.02288,-0.02380,0.00116,0.00665,0.02288,0.0*
%
%ADD41ROTATEDRECTD41*%

G04:AMPARAMS|DCode=42|XSize=23.62mil|YSize=57.09mil|CornerRadius=0mil|HoleSize=0mil|Usage=FLASHONLY|Rotation=349.000|XOffset=0mil|YOffset=0mil|HoleType=Round|Shape=Rectangle|*
%AMROTATEDRECTD42*
4,1,4,-0.01704,-0.02577,-0.00615,0.03027,0.01704,0.02577,0.00615,-0.03027,-0.01704,-0.02577,0.0*
%
%ADD42ROTATEDRECTD42*%

G04:AMPARAMS|DCode=43|XSize=108.27mil|YSize=122.05mil|CornerRadius=0mil|HoleSize=0mil|Usage=FLASHONLY|Rotation=259.000|XOffset=0mil|YOffset=0mil|HoleType=Round|Shape=Rectangle|*
%AMROTATEDRECTD43*
4,1,4,-0.04957,0.06478,0.07023,0.04150,0.04957,-0.06478,-0.07023,-0.04150,-0.04957,0.06478,0.0*
%
%ADD43ROTATEDRECTD43*%

G04:AMPARAMS|DCode=44|XSize=37.4mil|YSize=29.53mil|CornerRadius=0mil|HoleSize=0mil|Usage=FLASHONLY|Rotation=100.500|XOffset=0mil|YOffset=0mil|HoleType=Round|Shape=Rectangle|*
%AMROTATEDRECTD44*
4,1,4,0.01792,-0.01570,-0.01111,-0.02108,-0.01792,0.01570,0.01111,0.02108,0.01792,-0.01570,0.0*
%
%ADD44ROTATEDRECTD44*%

%ADD45C,0.03000*%
%ADD46C,0.01000*%
%ADD47C,0.05000*%
%ADD48P,0.07517X4X134.5*%
%ADD49C,0.05315*%
G04:AMPARAMS|DCode=50|XSize=39.37mil|YSize=78.74mil|CornerRadius=0mil|HoleSize=0mil|Usage=FLASHONLY|Rotation=320.000|XOffset=0mil|YOffset=0mil|HoleType=Round|Shape=Round|*
%AMOVALD50*
21,1,0.03937,0.03937,0.00000,0.00000,50.0*
1,1,0.03937,-0.01265,-0.01508*
1,1,0.03937,0.01265,0.01508*
%
%ADD50OVALD50*%

G04:AMPARAMS|DCode=51|XSize=39.37mil|YSize=78.74mil|CornerRadius=0mil|HoleSize=0mil|Usage=FLASHONLY|Rotation=46.000|XOffset=0mil|YOffset=0mil|HoleType=Round|Shape=Round|*
%AMOVALD51*
21,1,0.03937,0.03937,0.00000,0.00000,136.0*
1,1,0.03937,0.01416,-0.01367*
1,1,0.03937,-0.01416,0.01367*
%
%ADD51OVALD51*%

G04:AMPARAMS|DCode=52|XSize=39.37mil|YSize=78.74mil|CornerRadius=0mil|HoleSize=0mil|Usage=FLASHONLY|Rotation=40.500|XOffset=0mil|YOffset=0mil|HoleType=Round|Shape=Round|*
%AMOVALD52*
21,1,0.03937,0.03937,0.00000,0.00000,130.5*
1,1,0.03937,0.01278,-0.01497*
1,1,0.03937,-0.01278,0.01497*
%
%ADD52OVALD52*%

G04:AMPARAMS|DCode=53|XSize=39.37mil|YSize=78.74mil|CornerRadius=0mil|HoleSize=0mil|Usage=FLASHONLY|Rotation=342.000|XOffset=0mil|YOffset=0mil|HoleType=Round|Shape=Round|*
%AMOVALD53*
21,1,0.03937,0.03937,0.00000,0.00000,72.0*
1,1,0.03937,-0.00608,-0.01872*
1,1,0.03937,0.00608,0.01872*
%
%ADD53OVALD53*%

G04:AMPARAMS|DCode=54|XSize=39.37mil|YSize=78.74mil|CornerRadius=0mil|HoleSize=0mil|Usage=FLASHONLY|Rotation=14.000|XOffset=0mil|YOffset=0mil|HoleType=Round|Shape=Round|*
%AMOVALD54*
21,1,0.03937,0.03937,0.00000,0.00000,104.0*
1,1,0.03937,0.00476,-0.01910*
1,1,0.03937,-0.00476,0.01910*
%
%ADD54OVALD54*%

G04:AMPARAMS|DCode=55|XSize=39.37mil|YSize=78.74mil|CornerRadius=0mil|HoleSize=0mil|Usage=FLASHONLY|Rotation=6.000|XOffset=0mil|YOffset=0mil|HoleType=Round|Shape=Round|*
%AMOVALD55*
21,1,0.03937,0.03937,0.00000,0.00000,96.0*
1,1,0.03937,0.00206,-0.01958*
1,1,0.03937,-0.00206,0.01958*
%
%ADD55OVALD55*%

%ADD56O,0.09843X0.05906*%
%ADD57O,0.03937X0.07874*%
%ADD58P,0.07517X4X335.0*%
G04:AMPARAMS|DCode=59|XSize=39.37mil|YSize=78.74mil|CornerRadius=0mil|HoleSize=0mil|Usage=FLASHONLY|Rotation=349.000|XOffset=0mil|YOffset=0mil|HoleType=Round|Shape=Round|*
%AMOVALD59*
21,1,0.03937,0.03937,0.00000,0.00000,79.0*
1,1,0.03937,-0.00376,-0.01932*
1,1,0.03937,0.00376,0.01932*
%
%ADD59OVALD59*%

G04:AMPARAMS|DCode=60|XSize=59.06mil|YSize=118.11mil|CornerRadius=0mil|HoleSize=0mil|Usage=FLASHONLY|Rotation=33.500|XOffset=0mil|YOffset=0mil|HoleType=Round|Shape=Round|*
%AMOVALD60*
21,1,0.05906,0.05906,0.00000,0.00000,123.5*
1,1,0.05906,0.01630,-0.02462*
1,1,0.05906,-0.01630,0.02462*
%
%ADD60OVALD60*%

G04:AMPARAMS|DCode=61|XSize=39.37mil|YSize=78.74mil|CornerRadius=0mil|HoleSize=0mil|Usage=FLASHONLY|Rotation=182.000|XOffset=0mil|YOffset=0mil|HoleType=Round|Shape=Round|*
%AMOVALD61*
21,1,0.03937,0.03937,0.00000,0.00000,272.0*
1,1,0.03937,-0.00069,0.01967*
1,1,0.03937,0.00069,-0.01967*
%
%ADD61OVALD61*%

%ADD62C,0.02362*%
%ADD63C,0.03150*%
%ADD64C,0.04331*%
%ADD65C,0.00787*%
%ADD66C,0.02362*%
%ADD67C,0.00984*%
%ADD68C,0.00394*%
%ADD69C,0.00197*%
D46*
X342615Y321935D02*
X373257Y296224D01*
X366829Y288563D02*
X373257Y296224D01*
X336187Y314275D02*
X366829Y288563D01*
X336187Y314275D02*
X342615Y321935D01*
X365012Y317352D02*
X387602Y340745D01*
X401495Y355132D02*
X424085Y378525D01*
X338391Y343060D02*
X397464Y404232D01*
X424085Y378525D01*
X338391Y343060D02*
X365012Y317352D01*
X702032Y292550D02*
X708526Y284946D01*
X738943Y310924D01*
X732448Y318528D02*
X738943Y310924D01*
X702032Y292550D02*
X732448Y318528D01*
X462809Y331219D02*
X465899Y340729D01*
X462809Y331219D02*
X481830Y325038D01*
X484920Y334549D01*
X465899Y340729D02*
X484920Y334549D01*
X570295Y334597D02*
X589701Y339435D01*
X592121Y329732D01*
X572715Y324894D02*
X592121Y329732D01*
X570295Y334597D02*
X572715Y324894D01*
X572358Y335111D02*
X574520Y326440D01*
X574778Y325408D01*
X543637Y336896D02*
X563528Y338987D01*
X564573Y329042D01*
X544683Y326951D02*
X564573Y329042D01*
X543637Y336896D02*
X544683Y326951D01*
X545752Y337118D02*
X546686Y328230D01*
X546797Y327173D01*
X536469Y317374D02*
X546311D01*
X522689Y289815D02*
X546311D01*
X522689Y299658D02*
Y307532D01*
X546311Y299658D02*
Y307532D01*
X522689Y317374D02*
X534500D01*
X536469D01*
X532531Y254776D02*
X534500D01*
X546311D01*
X522689Y264619D02*
Y272493D01*
X546311Y264619D02*
Y272493D01*
X522689Y282335D02*
X546311D01*
X522689Y254776D02*
X532531D01*
X411027Y270864D02*
X441027Y270864D01*
X411026Y280864D02*
X411027Y270864D01*
X411026Y280864D02*
X441026Y280864D01*
X441027Y270864D01*
X486289Y323885D02*
X488197Y333701D01*
X486289Y323885D02*
X505922Y320069D01*
X507830Y329885D01*
X488197Y333701D02*
X507830Y329885D01*
X679096Y355394D02*
X683265Y358154D01*
X679096Y355394D02*
X681855Y351225D01*
X686025Y353984D01*
X683265Y358154D02*
X686025Y353984D01*
X680565Y380351D02*
X719201Y321979D01*
X644151Y272305D02*
X719201Y321979D01*
X605515Y330677D02*
X644151Y272305D01*
X605515Y330677D02*
X680565Y380351D01*
X320375Y410741D02*
X320725Y400747D01*
X300388Y410043D02*
X320375Y410741D01*
X300388Y410043D02*
X300737Y400049D01*
X320725Y400747D01*
X448609Y356702D02*
X447609Y357702D01*
X445610D01*
X444610Y356702D01*
Y352703D01*
X445610Y351704D01*
X447609D01*
X448609Y352703D01*
X450608Y351704D02*
X452608D01*
X451608D01*
Y357702D01*
X450608Y356702D01*
X455607D02*
X456606Y357702D01*
X458606D01*
X459606Y356702D01*
Y355702D01*
X458606Y354703D01*
X457606D01*
X458606D01*
X459606Y353703D01*
Y352703D01*
X458606Y351704D01*
X456606D01*
X455607Y352703D01*
X431415Y292459D02*
X430424Y291451D01*
X430442Y289452D01*
X431450Y288461D01*
X435449Y288496D01*
X436440Y289504D01*
X436422Y291503D01*
X435414Y292494D01*
X436396Y294502D02*
X436378Y296502D01*
X436387Y295502D01*
X430389Y295450D01*
X431398Y294459D01*
X428778Y329856D02*
X427778Y328856D01*
Y326857D01*
X428778Y325857D01*
X432777D01*
X433777Y326857D01*
Y328856D01*
X432777Y329856D01*
X433777Y335854D02*
Y331855D01*
X429778Y335854D01*
X428778D01*
X427778Y334854D01*
Y332855D01*
X428778Y331855D01*
X378732Y304599D02*
X377733Y305599D01*
X375733D01*
X374734Y304599D01*
Y300600D01*
X375733Y299601D01*
X377733D01*
X378732Y300600D01*
X380732Y304599D02*
X381732Y305599D01*
X383731D01*
X384731Y304599D01*
Y303599D01*
X383731Y302600D01*
X382731D01*
X383731D01*
X384731Y301600D01*
Y300600D01*
X383731Y299601D01*
X381732D01*
X380732Y300600D01*
X406099Y351498D02*
X405099Y352498D01*
X403100D01*
X402100Y351498D01*
Y347500D01*
X403100Y346500D01*
X405099D01*
X406099Y347500D01*
X411097Y346500D02*
Y352498D01*
X408098Y349499D01*
X412097D01*
X419299Y351198D02*
X418299Y352198D01*
X416300D01*
X415300Y351198D01*
Y347200D01*
X416300Y346200D01*
X418299D01*
X419299Y347200D01*
X425297Y352198D02*
X421298D01*
Y349199D01*
X423297Y350199D01*
X424297D01*
X425297Y349199D01*
Y347200D01*
X424297Y346200D01*
X422298D01*
X421298Y347200D01*
X653538Y308142D02*
X652538Y309142D01*
X650538D01*
X649539Y308142D01*
Y304143D01*
X650538Y303144D01*
X652538D01*
X653538Y304143D01*
X659536Y309142D02*
X657536Y308142D01*
X655537Y306142D01*
Y304143D01*
X656536Y303144D01*
X658536D01*
X659536Y304143D01*
Y305143D01*
X658536Y306142D01*
X655537D01*
X679095Y327258D02*
X678096Y328258D01*
X676096D01*
X675097Y327258D01*
Y323259D01*
X676096Y322260D01*
X678096D01*
X679095Y323259D01*
X681095Y328258D02*
X685093D01*
Y327258D01*
X681095Y323259D01*
Y322260D01*
X510617Y283990D02*
X509618Y282990D01*
Y280991D01*
X510617Y279991D01*
X514616D01*
X515616Y280991D01*
Y282990D01*
X514616Y283990D01*
X510617Y285989D02*
X509618Y286989D01*
Y288988D01*
X510617Y289988D01*
X511617D01*
X512616Y288988D01*
X513616Y289988D01*
X514616D01*
X515616Y288988D01*
Y286989D01*
X514616Y285989D01*
X513616D01*
X512616Y286989D01*
X511617Y285989D01*
X510617D01*
X512616Y286989D02*
Y288988D01*
X504293Y269672D02*
X502945Y270097D01*
X501171Y269174D01*
X500746Y267826D01*
X502592Y264279D01*
X503941Y263854D01*
X505714Y264777D01*
X506139Y266125D01*
X507913Y267049D02*
X509261Y266623D01*
X511034Y267547D01*
X511460Y268895D01*
X509613Y272442D01*
X508265Y272867D01*
X506491Y271944D01*
X506066Y270596D01*
X506528Y269709D01*
X507876Y269284D01*
X510536Y270669D01*
X466553Y325034D02*
X465554Y326034D01*
X463554D01*
X462555Y325034D01*
Y321035D01*
X463554Y320036D01*
X465554D01*
X466553Y321035D01*
X468553Y320036D02*
X470552D01*
X469552D01*
Y326034D01*
X468553Y325034D01*
X473551D02*
X474551Y326034D01*
X476550D01*
X477550Y325034D01*
Y321035D01*
X476550Y320036D01*
X474551D01*
X473551Y321035D01*
Y325034D01*
X489332Y282836D02*
X488332Y283835D01*
X486333D01*
X485333Y282836D01*
Y278837D01*
X486333Y277837D01*
X488332D01*
X489332Y278837D01*
X491331Y277837D02*
X493331D01*
X492331D01*
Y283835D01*
X491331Y282836D01*
X496330Y277837D02*
X498329D01*
X497329D01*
Y283835D01*
X496330Y282836D01*
X460264Y328749D02*
X459274Y329758D01*
X457274Y329776D01*
X456266Y328785D01*
X456230Y324787D01*
X457221Y323778D01*
X459220Y323760D01*
X460228Y324751D01*
X462219Y323733D02*
X464218Y323715D01*
X463218Y323724D01*
X463272Y329722D01*
X462264Y328731D01*
X471216Y323653D02*
X467217Y323689D01*
X471251Y327651D01*
X471260Y328651D01*
X470270Y329660D01*
X468270Y329678D01*
X467262Y328687D01*
X457207Y269977D02*
X463160Y270708D01*
X462794Y273685D01*
X461680Y274555D01*
X457712Y274067D01*
X456841Y272954D01*
X457207Y269977D01*
X462429Y276661D02*
X462185Y278646D01*
X462307Y277653D01*
X456354Y276922D01*
X457468Y276052D01*
X644220Y270401D02*
X646219D01*
X645219D01*
Y264403D01*
X644220D01*
X646219D01*
X653217Y269401D02*
X652217Y270401D01*
X650218D01*
X649218Y269401D01*
Y265403D01*
X650218Y264403D01*
X652217D01*
X653217Y265403D01*
X655216Y264403D02*
X657215D01*
X656216D01*
Y270401D01*
X655216Y269401D01*
X512306Y307389D02*
X512445Y305395D01*
X512376Y306392D01*
X506392Y305974D01*
X506322Y306971D01*
X506462Y304977D01*
X511936Y298345D02*
X512864Y299412D01*
X512724Y301406D01*
X511657Y302334D01*
X507668Y302055D01*
X506741Y300988D01*
X506880Y298993D01*
X507947Y298066D01*
X507369Y292013D02*
X507090Y296002D01*
X511357Y292291D01*
X512355Y292361D01*
X513282Y293428D01*
X513143Y295423D01*
X512076Y296350D01*
X628433Y358835D02*
X626434D01*
X627433D01*
Y353837D01*
X626434Y352837D01*
X625434D01*
X624434Y353837D01*
X630433Y352837D02*
X632432D01*
X631432D01*
Y358835D01*
X630433Y357835D01*
X637127Y367229D02*
X635127D01*
X636127D01*
Y362230D01*
X635127Y361231D01*
X634128D01*
X633128Y362230D01*
X643125Y361231D02*
X639126D01*
X643125Y365229D01*
Y366229D01*
X642125Y367229D01*
X640126D01*
X639126Y366229D01*
X646420Y373824D02*
X644420D01*
X645420D01*
Y368825D01*
X644420Y367826D01*
X643421D01*
X642421Y368825D01*
X648419Y372824D02*
X649419Y373824D01*
X651418D01*
X652418Y372824D01*
Y371825D01*
X651418Y370825D01*
X650418D01*
X651418D01*
X652418Y369825D01*
Y368825D01*
X651418Y367826D01*
X649419D01*
X648419Y368825D01*
X658111Y378321D02*
X656112D01*
X657111D01*
Y373322D01*
X656112Y372322D01*
X655112D01*
X654112Y373322D01*
X663109Y372322D02*
Y378321D01*
X660110Y375321D01*
X664109D01*
X670085Y385865D02*
X668086D01*
X669086D01*
Y380866D01*
X668086Y379867D01*
X667086D01*
X666087Y380866D01*
X676083Y385865D02*
X672085D01*
Y382866D01*
X674084Y383865D01*
X675084D01*
X676083Y382866D01*
Y380866D01*
X675084Y379867D01*
X673084D01*
X672085Y380866D01*
X469954Y258319D02*
X467956Y258389D01*
X468955Y258354D01*
X468781Y253359D01*
X467747Y252395D01*
X466748Y252430D01*
X465784Y253464D01*
X475949Y258110D02*
X473916Y257181D01*
X471848Y255253D01*
X471778Y253254D01*
X472742Y252221D01*
X474740Y252151D01*
X475774Y253115D01*
X475809Y254114D01*
X474845Y255148D01*
X471848Y255253D01*
X459973Y304300D02*
X460496Y298324D01*
X464479Y298673D01*
X466471Y298847D02*
X468463Y299022D01*
X467467Y298934D01*
X466944Y304910D01*
X466035Y303827D01*
X556985Y260806D02*
X557037Y266803D01*
X560036Y266777D01*
X561027Y265769D01*
X561010Y263770D01*
X560001Y262779D01*
X557002Y262805D01*
X559001Y262787D02*
X560983Y260771D01*
X562983Y260753D02*
X564982Y260736D01*
X563982Y260745D01*
X564035Y266742D01*
X563026Y265751D01*
X554900Y305400D02*
Y311398D01*
X557899D01*
X558899Y310398D01*
Y308399D01*
X557899Y307399D01*
X554900D01*
X556899D02*
X558899Y305400D01*
X564897D02*
X560898D01*
X564897Y309399D01*
Y310398D01*
X563897Y311398D01*
X561898D01*
X560898Y310398D01*
X697109Y365190D02*
Y371188D01*
X700108D01*
X701108Y370188D01*
Y368189D01*
X700108Y367189D01*
X697109D01*
X699109D02*
X701108Y365190D01*
X703107Y370188D02*
X704107Y371188D01*
X706106D01*
X707106Y370188D01*
Y369188D01*
X706106Y368189D01*
X705107D01*
X706106D01*
X707106Y367189D01*
Y366189D01*
X706106Y365190D01*
X704107D01*
X703107Y366189D01*
X638224Y307871D02*
Y313868D01*
X641223D01*
X642223Y312869D01*
Y310870D01*
X641223Y309870D01*
X638224D01*
X640224D02*
X642223Y307871D01*
X647221D02*
Y313868D01*
X644222Y310870D01*
X648221D01*
X624355Y302571D02*
Y308569D01*
X627354D01*
X628354Y307569D01*
Y305570D01*
X627354Y304570D01*
X624355D01*
X626354D02*
X628354Y302571D01*
X634352Y308569D02*
X630353D01*
Y305570D01*
X632352Y306569D01*
X633352D01*
X634352Y305570D01*
Y303570D01*
X633352Y302571D01*
X631353D01*
X630353Y303570D01*
X562980Y279092D02*
X561939Y284999D01*
X564892Y285520D01*
X566050Y284709D01*
X566397Y282740D01*
X565587Y281582D01*
X562633Y281061D01*
X564602Y281408D02*
X566918Y279786D01*
X571784Y286735D02*
X569988Y285403D01*
X568366Y283087D01*
X568714Y281118D01*
X569872Y280307D01*
X571841Y280654D01*
X572652Y281812D01*
X572478Y282797D01*
X571320Y283608D01*
X568366Y283087D01*
X384150Y397749D02*
X383941Y403743D01*
X386938Y403848D01*
X387972Y402884D01*
X388042Y400886D01*
X387077Y399852D01*
X384080Y399747D01*
X386078Y399817D02*
X388146Y397889D01*
X389935Y403953D02*
X393931Y404092D01*
X393966Y403093D01*
X390110Y398957D01*
X390144Y397958D01*
X594862Y322065D02*
Y328063D01*
X597861D01*
X598861Y327063D01*
Y325064D01*
X597861Y324064D01*
X594862D01*
X596861D02*
X598861Y322065D01*
X600860Y327063D02*
X601860Y328063D01*
X603859D01*
X604859Y327063D01*
Y326064D01*
X603859Y325064D01*
X604859Y324064D01*
Y323064D01*
X603859Y322065D01*
X601860D01*
X600860Y323064D01*
Y324064D01*
X601860Y325064D01*
X600860Y326064D01*
Y327063D01*
X601860Y325064D02*
X603859D01*
X601977Y339025D02*
X601767Y345019D01*
X604765Y345124D01*
X605799Y344160D01*
X605868Y342162D01*
X604904Y341128D01*
X601907Y341023D01*
X603905Y341093D02*
X605973Y339165D01*
X607936Y340233D02*
X608970Y339269D01*
X610968Y339339D01*
X611933Y340373D01*
X611793Y344369D01*
X610759Y345333D01*
X608761Y345264D01*
X607797Y344230D01*
X607832Y343231D01*
X608866Y342266D01*
X611863Y342371D01*
X511119Y320461D02*
Y326459D01*
X514118D01*
X515118Y325460D01*
Y323460D01*
X514118Y322460D01*
X511119D01*
X513118D02*
X515118Y320461D01*
X517117D02*
X519116D01*
X518117D01*
Y326459D01*
X517117Y325460D01*
X522115D02*
X523115Y326459D01*
X525114D01*
X526114Y325460D01*
Y321461D01*
X525114Y320461D01*
X523115D01*
X522115Y321461D01*
Y325460D01*
X548040Y251280D02*
X547040Y252279D01*
X545041D01*
X544041Y251280D01*
Y250280D01*
X545041Y249280D01*
X547040D01*
X548040Y248281D01*
Y247281D01*
X547040Y246281D01*
X545041D01*
X544041Y247281D01*
X550039Y246281D02*
X552038D01*
X551039D01*
Y252279D01*
X550039Y251280D01*
X536756Y324743D02*
X535756Y325742D01*
X533756D01*
X532757Y324743D01*
Y323743D01*
X533756Y322743D01*
X535756D01*
X536756Y321744D01*
Y320744D01*
X535756Y319744D01*
X533756D01*
X532757Y320744D01*
X542754Y319744D02*
X538755D01*
X542754Y323743D01*
Y324743D01*
X541754Y325742D01*
X539754D01*
X538755Y324743D01*
X390800Y342398D02*
Y337400D01*
X391800Y336400D01*
X393799D01*
X394799Y337400D01*
Y342398D01*
X396798Y336400D02*
X398797D01*
X397798D01*
Y342398D01*
X396798Y341398D01*
X680792Y413095D02*
X684791Y407096D01*
Y413095D02*
X680792Y407096D01*
X686791D02*
X688790D01*
X687790D01*
Y413095D01*
X686791Y412095D01*
X303674Y367229D02*
X307672Y361231D01*
Y367229D02*
X303674Y361231D01*
X313670D02*
X309672D01*
X313670Y365229D01*
Y366229D01*
X312671Y367229D01*
X310671D01*
X309672Y366229D01*
X509606Y338142D02*
X513913Y332362D01*
X513599Y338351D02*
X509920Y332152D01*
X515648Y337458D02*
X516594Y338508D01*
X518591Y338613D01*
X519641Y337667D01*
X519694Y336669D01*
X518748Y335618D01*
X517749Y335566D01*
X518748Y335618D01*
X519798Y334672D01*
X519851Y333674D01*
X518905Y332623D01*
X516908Y332519D01*
X515857Y333465D01*
X414566Y266776D02*
X417972Y260422D01*
X418546Y266393D02*
X413991Y260806D01*
X422947Y259943D02*
X423522Y265914D01*
X420249Y263216D01*
X424229Y262833D01*
X415490Y363931D02*
X419489Y357933D01*
Y363931D02*
X415490Y357933D01*
X425487Y363931D02*
X421488D01*
Y360932D01*
X423488Y361932D01*
X424487D01*
X425487Y360932D01*
Y358933D01*
X424487Y357933D01*
X422488D01*
X421488Y358933D01*
X698070Y286234D02*
X702069Y280236D01*
Y286234D02*
X698070Y280236D01*
X708067Y286234D02*
X706068Y285234D01*
X704068Y283235D01*
Y281235D01*
X705068Y280236D01*
X707067D01*
X708067Y281235D01*
Y282235D01*
X707067Y283235D01*
X704068D01*
X360631Y286589D02*
X364630Y280591D01*
Y286589D02*
X360631Y280591D01*
X366629Y286589D02*
X370628D01*
Y285589D01*
X366629Y281591D01*
Y280591D01*
X284848Y409003D02*
X289002Y403112D01*
X288845Y409108D02*
X285005Y403007D01*
X290870Y408161D02*
X291843Y409186D01*
X293842Y409238D01*
X294867Y408265D01*
X294894Y407266D01*
X293920Y406241D01*
X294946Y405267D01*
X294972Y404268D01*
X293999Y403242D01*
X292000Y403190D01*
X290975Y404163D01*
X290949Y405163D01*
X291922Y406188D01*
X290896Y407161D01*
X290870Y408161D01*
X291922Y406188D02*
X293920Y406241D01*
X532158Y343421D02*
X535283Y336924D01*
X536117Y342864D02*
X531323Y337481D01*
X537402Y337636D02*
X538252Y336507D01*
X540232Y336229D01*
X541361Y337080D01*
X541918Y341039D01*
X541067Y342168D01*
X539087Y342447D01*
X537958Y341596D01*
X537819Y340606D01*
X538670Y339477D01*
X541640Y339059D01*
X582090Y350007D02*
X585496Y343653D01*
X586070Y349624D02*
X581515Y344037D01*
X587486Y343462D02*
X589476Y343270D01*
X588481Y343366D01*
X589056Y349336D01*
X587965Y348437D01*
X592940Y347958D02*
X594031Y348857D01*
X596021Y348665D01*
X596920Y347575D01*
X596537Y343594D01*
X595446Y342695D01*
X593456Y342887D01*
X592557Y343978D01*
X592940Y347958D01*
X461067Y348215D02*
X465066Y342217D01*
Y348215D02*
X461067Y342217D01*
X467065D02*
X469065D01*
X468065D01*
Y348215D01*
X467065Y347216D01*
X472064Y342217D02*
X474063D01*
X473063D01*
Y348215D01*
X472064Y347216D01*
X701828Y298951D02*
X706389Y302847D01*
X704441Y305127D01*
X703032Y305238D01*
X702272Y304589D01*
X702161Y303179D01*
X704108Y300899D01*
X702161Y303179D01*
X700751Y303290D01*
X699991Y302641D01*
X699880Y301232D01*
X701828Y298951D01*
X702493Y307407D02*
X701195Y308928D01*
X701844Y308168D01*
X697283Y304272D01*
X698693Y304161D01*
X713993Y309341D02*
X710952Y306744D01*
X708133Y306966D01*
X708355Y309785D01*
X711396Y312382D01*
X709115Y310434D01*
X711712Y307393D01*
X710097Y313902D02*
X708799Y315422D01*
X709448Y314662D01*
X704887Y310767D01*
X706297Y310656D01*
X721597Y315835D02*
X718556Y313239D01*
X715737Y313460D01*
X715959Y316279D01*
X719000Y318876D01*
X716719Y316928D01*
X719316Y313888D01*
X715104Y323437D02*
X717701Y320396D01*
X712064Y320840D01*
X711304Y320191D01*
X711193Y318781D01*
X712491Y317261D01*
X713901Y317150D01*
X724640Y318435D02*
X729201Y322330D01*
X727253Y324610D01*
X725844Y324721D01*
X725084Y324072D01*
X724973Y322663D01*
X726921Y320382D01*
X724973Y322663D01*
X723563Y322774D01*
X722803Y322125D01*
X722692Y320715D01*
X724640Y318435D01*
X722709Y329932D02*
X725306Y326891D01*
X719668Y327335D01*
X718908Y326685D01*
X718797Y325276D01*
X720095Y323756D01*
X721505Y323645D01*
X727025Y363297D02*
X725388Y364444D01*
X723995Y364199D01*
X721702Y360923D01*
X721947Y359531D01*
X723585Y358384D01*
X724977Y358630D01*
X727271Y361905D01*
X727025Y363297D01*
X729482Y361577D02*
X726615Y357483D01*
X726861Y356090D01*
X728498Y354944D01*
X729891Y355189D01*
X732758Y359284D01*
X734395Y358137D02*
X737671Y355843D01*
X736033Y356990D01*
X732593Y352077D01*
X321169Y363301D02*
X322901Y364301D01*
X322035Y363801D01*
X325034Y358607D01*
X324168Y358107D01*
X325900Y359106D01*
X328497Y360606D02*
X325498Y365800D01*
X331960Y362605D01*
X328961Y367800D01*
X357942Y375671D02*
X356528D01*
X355115Y374257D01*
Y372843D01*
X355821Y372136D01*
X357235D01*
X358649Y373550D01*
X360063D01*
X360770Y372843D01*
Y371430D01*
X359356Y370016D01*
X357942D01*
X358649Y377792D02*
X362890Y373550D01*
Y376378D01*
X365718D01*
X361476Y380619D01*
X362890Y382033D02*
X367131Y377792D01*
X369252Y379912D01*
Y381326D01*
X366425Y384154D01*
X365011D01*
X362890Y382033D01*
X550766Y324928D02*
X546767D01*
Y321929D01*
X548767D01*
X546767D01*
Y318930D01*
X552765Y317931D02*
X556764D01*
X558764Y324928D02*
X560763D01*
X559763D01*
Y318930D01*
X558764D01*
X560763D01*
X563762D02*
Y324928D01*
X567761Y318930D01*
Y324928D01*
X576338Y321338D02*
X572339D01*
Y318338D01*
X574338D01*
X572339D01*
Y315339D01*
X578337Y314340D02*
X582336D01*
X587334Y321338D02*
X585335D01*
X584335Y320338D01*
Y316339D01*
X585335Y315339D01*
X587334D01*
X588334Y316339D01*
Y320338D01*
X587334Y321338D01*
X590333D02*
Y316339D01*
X591333Y315339D01*
X593332D01*
X594332Y316339D01*
Y321338D01*
X596331D02*
X600330D01*
X598330D01*
Y315339D01*
X415298Y257765D02*
Y252767D01*
X416297Y251767D01*
X418297D01*
X419296Y252767D01*
Y257765D01*
X421296Y251767D02*
Y255766D01*
X423295Y257765D01*
X425294Y255766D01*
Y251767D01*
Y254766D01*
X421296D01*
X427294Y251767D02*
Y257765D01*
X430293D01*
X431292Y256765D01*
Y254766D01*
X430293Y253766D01*
X427294D01*
X429293D02*
X431292Y251767D01*
X433292Y257765D02*
X437290D01*
X435291D01*
Y251767D01*
D65*
X454528Y328181D02*
G03*
X453690Y341989I-4174J6677D01*
G01*
X447142Y342046D02*
G03*
X446063Y328254I3212J-7189D01*
G01*
X499621Y273005D02*
G03*
X505242Y260364I6248J-4792D01*
G01*
X511396Y262604D02*
G03*
X507576Y275900I-5526J5609D01*
G01*
X398118Y300631D02*
X398119Y325040D01*
X422528Y300630D02*
X422528Y325040D01*
X398118Y300631D02*
X422528Y300630D01*
X398119Y325040D02*
X422528Y325040D01*
X444429Y290703D02*
X453675Y319160D01*
X472886Y281457D02*
X482132Y309913D01*
X444429Y290703D02*
X453977Y287600D01*
X453675Y319160D02*
X463223Y316057D01*
X463338Y284559D02*
X472886Y281457D01*
X472584Y313016D02*
X482132Y309913D01*
X495036Y261879D02*
X497573Y273817D01*
X466782Y278551D02*
X468884Y279915D01*
X464982Y270079D02*
X466346Y267977D01*
X464982Y270079D02*
X466782Y278551D01*
X487561Y275945D02*
X497573Y273817D01*
X485023Y264007D02*
X495036Y261879D01*
X466346Y267977D02*
X475781Y265972D01*
X468884Y279915D02*
X478318Y277910D01*
X500261Y291771D02*
X502665Y304138D01*
X480937Y295527D02*
X483341Y307894D01*
D66*
X419496Y320344D02*
G03*
X419496Y320344I-905J759D01*
G01*
D67*
X424283Y329153D02*
G03*
X424283Y329153I-377J316D01*
G01*
X504987Y308294D02*
G03*
X504987Y308294I-492J0D01*
G01*
D68*
X699912Y415693D02*
X703137Y413435D01*
X688621Y399568D02*
X699912Y415693D01*
X688621Y399568D02*
X695071Y395051D01*
X743446Y361179D02*
X746671Y358921D01*
X751512Y379562D02*
X757962Y375046D01*
X755139Y371014D02*
X757962Y375046D01*
X746671Y358921D02*
X749494Y362952D01*
X305802Y382718D02*
X309104Y384862D01*
X305802Y382718D02*
X316524Y366209D01*
X323127Y370497D01*
X372655Y402661D02*
X375957Y404805D01*
X358632Y417026D02*
X365236Y421314D01*
X367916Y417187D01*
X373277Y408932D02*
X375957Y404805D01*
D69*
X647074Y334205D02*
X655766Y319449D01*
X650678Y316452D02*
X655766Y319449D01*
X641986Y331208D02*
X650678Y316452D01*
X641986Y331208D02*
X647074Y334205D01*
X656835Y340023D02*
X666287Y325742D01*
X661362Y322482D02*
X666287Y325742D01*
X651910Y336763D02*
X661362Y322482D01*
X651910Y336763D02*
X656835Y340023D01*
X666762Y345722D02*
X676949Y331955D01*
X672202Y328442D02*
X676949Y331955D01*
X662015Y342209D02*
X672202Y328442D01*
X662015Y342209D02*
X666762Y345722D01*
X676427Y351971D02*
X687321Y338756D01*
X682764Y334999D02*
X687321Y338756D01*
X671871Y348214D02*
X682764Y334999D01*
X671871Y348214D02*
X676427Y351971D01*
X689256Y354984D02*
X700827Y342357D01*
X696473Y338367D02*
X700827Y342357D01*
X684902Y350994D02*
X696473Y338367D01*
X684902Y350994D02*
X689256Y354984D01*
X466031Y260994D02*
X482718Y257141D01*
X466031Y260994D02*
X467359Y266748D01*
X484046Y262895D01*
X482718Y257141D02*
X484046Y262895D01*
M02*
