M48
;Layer_Color=9474304
;FILE_FORMAT=4:4
METRIC,LZ
;TYPE=PLATED
T1F00S00C0.2000
T2F00S00C0.4000
T3F00S00C0.7000
T4F00S00C0.8000
T5F00S00C0.9000
%
T01
X01237327Y00758274
X01248125Y00756175
X01250224Y00766973
X01261022Y00764874
X01258923Y00754076
X01239426Y00769072
T02
X01605495Y00762816
X01431299Y0075996
X01430319Y00627941
X0135763Y00651131
X01147499Y00665379
X01133166Y00668941
X0112273Y00660991
X0109265Y00664015
X01105697Y00679962
X01039301Y00708026
X01045766Y00720444
X01032124Y00724418
X01031217Y00736408
X0104573Y00768248
X0102668Y00779469
X0103251Y0079121
X01062672Y00786633
X0108204Y0075184
X01137961Y0077583
X00995386Y00750993
X0098091Y00750126
X00965413Y00738044
X00955293Y00775802
X00951343Y00790047
X00903642Y00738452
X00775503Y01003461
X00829769Y00949918
X00874535Y00974941
X00894888Y00989459
X00915368Y01005493
X00964604Y0101795
X0087822Y01037136
X00881433Y00834949
X00956502Y00824178
X01011691Y00853962
X01048325Y00852221
X0104003Y00864403
Y00881934
X01058908Y00884887
X01058669Y00864403
X01062548Y0081858
X0104254Y00816719
X01046065Y00803008
X01026126Y0080765
X01235211Y0080962
X01317898Y00814692
X01486913Y00801005
X01560354Y00853298
X0177157Y00905591
X01797125Y00923807
X01798247Y00983539
X01816505Y00967423
X01835545Y00951411
X01856172Y00936985
X01882652Y00924085
X01898068Y00968565
X01854458Y00996886
X01834461Y01013117
X01754314Y01009607
T03
X01590381Y00700307
X01801066Y00741668
X0182038Y00758164
X01839695Y0077466
X01859009Y00791156
X01566438Y00691829
X01530202Y0067988
X01505556Y00673735
X01107507Y00700695
X01082107Y00700695
X01056707Y00700695
X00930181Y00750843
X00910723Y00767169
X00891266Y00783497
X0077612Y0102926
X00801505Y01030146
X00994497Y00961777
X00976853Y00943506
X00995124Y00925862
X0097748Y0090759
X00959835Y00889319
X00941564Y00906964
X00959209Y00925235
X00942191Y00871048
X0092392Y00888692
X00871808Y00799823
X01012768Y00944133
X01191538Y00849449
X01215695Y008416
X01250064Y00832711
X01274998Y00827865
T04
X01643305Y00726854
X01664485Y00740873
X01685666Y00754892
X01706847Y00768911
X01728027Y0078293
X01276913Y00706422
X01270387Y0065685
X01155453Y00867667
X01110902Y00890367
X01573209Y00832757
X01594389Y00846776
X0161557Y00860796
X01636751Y00874815
X01657932Y00888834
X01679112Y00902853
X01700293Y00916872
X01721474Y00930891
X01749208Y00796949
X01770389Y00810969
X0179157Y00824988
T05
X0132513Y00659631
Y00704631
Y00748631
Y00793631
X0139013
Y00748631
Y00704631
Y00659631
X00951927Y00996819
M30
