%FSLAX25Y25*%
%MOIN*%
G70*
G01*
G75*
G04 Layer_Color=16711935*
G04:AMPARAMS|DCode=10|XSize=37.4mil|YSize=29.53mil|CornerRadius=0mil|HoleSize=0mil|Usage=FLASHONLY|Rotation=215.500|XOffset=0mil|YOffset=0mil|HoleType=Round|Shape=Rectangle|*
%AMROTATEDRECTD10*
4,1,4,0.00665,0.02288,0.02380,-0.00116,-0.00665,-0.02288,-0.02380,0.00116,0.00665,0.02288,0.0*
%
%ADD10ROTATEDRECTD10*%

G04:AMPARAMS|DCode=11|XSize=59.06mil|YSize=118.11mil|CornerRadius=0mil|HoleSize=0mil|Usage=FLASHONLY|Rotation=33.000|XOffset=0mil|YOffset=0mil|HoleType=Round|Shape=Rectangle|*
%AMROTATEDRECTD11*
4,1,4,0.00740,-0.06561,-0.05693,0.03345,-0.00740,0.06561,0.05693,-0.03345,0.00740,-0.06561,0.0*
%
%ADD11ROTATEDRECTD11*%

G04:AMPARAMS|DCode=12|XSize=37.4mil|YSize=29.53mil|CornerRadius=0mil|HoleSize=0mil|Usage=FLASHONLY|Rotation=337.500|XOffset=0mil|YOffset=0mil|HoleType=Round|Shape=Rectangle|*
%AMROTATEDRECTD12*
4,1,4,-0.02293,-0.00648,-0.01163,0.02080,0.02293,0.00648,0.01163,-0.02080,-0.02293,-0.00648,0.0*
%
%ADD12ROTATEDRECTD12*%

G04:AMPARAMS|DCode=13|XSize=37.4mil|YSize=29.53mil|CornerRadius=0mil|HoleSize=0mil|Usage=FLASHONLY|Rotation=96.500|XOffset=0mil|YOffset=0mil|HoleType=Round|Shape=Rectangle|*
%AMROTATEDRECTD13*
4,1,4,0.01679,-0.01691,-0.01255,-0.02025,-0.01679,0.01691,0.01255,0.02025,0.01679,-0.01691,0.0*
%
%ADD13ROTATEDRECTD13*%

%ADD14P,0.12806X4X118.5*%
G04:AMPARAMS|DCode=15|XSize=37.4mil|YSize=29.53mil|CornerRadius=0mil|HoleSize=0mil|Usage=FLASHONLY|Rotation=352.500|XOffset=0mil|YOffset=0mil|HoleType=Round|Shape=Rectangle|*
%AMROTATEDRECTD15*
4,1,4,-0.02047,-0.01220,-0.01661,0.01708,0.02047,0.01220,0.01661,-0.01708,-0.02047,-0.01220,0.0*
%
%ADD15ROTATEDRECTD15*%

G04:AMPARAMS|DCode=16|XSize=37.4mil|YSize=29.53mil|CornerRadius=0mil|HoleSize=0mil|Usage=FLASHONLY|Rotation=78.500|XOffset=0mil|YOffset=0mil|HoleType=Round|Shape=Rectangle|*
%AMROTATEDRECTD16*
4,1,4,0.01074,-0.02127,-0.01820,-0.01538,-0.01074,0.02127,0.01820,0.01538,0.01074,-0.02127,0.0*
%
%ADD16ROTATEDRECTD16*%

G04:AMPARAMS|DCode=17|XSize=108.27mil|YSize=122.05mil|CornerRadius=0mil|HoleSize=0mil|Usage=FLASHONLY|Rotation=259.000|XOffset=0mil|YOffset=0mil|HoleType=Round|Shape=Rectangle|*
%AMROTATEDRECTD17*
4,1,4,-0.04957,0.06478,0.07023,0.04150,0.04957,-0.06478,-0.07023,-0.04150,-0.04957,0.06478,0.0*
%
%ADD17ROTATEDRECTD17*%

G04:AMPARAMS|DCode=18|XSize=23.62mil|YSize=57.09mil|CornerRadius=0mil|HoleSize=0mil|Usage=FLASHONLY|Rotation=349.000|XOffset=0mil|YOffset=0mil|HoleType=Round|Shape=Rectangle|*
%AMROTATEDRECTD18*
4,1,4,-0.01704,-0.02577,-0.00615,0.03027,0.01704,0.02577,0.00615,-0.03027,-0.01704,-0.02577,0.0*
%
%ADD18ROTATEDRECTD18*%

G04:AMPARAMS|DCode=19|XSize=66.93mil|YSize=78.74mil|CornerRadius=0mil|HoleSize=0mil|Usage=FLASHONLY|Rotation=251.000|XOffset=0mil|YOffset=0mil|HoleType=Round|Shape=Rectangle|*
%AMROTATEDRECTD19*
4,1,4,-0.02633,0.04446,0.04812,0.01882,0.02633,-0.04446,-0.04812,-0.01882,-0.02633,0.04446,0.0*
%
%ADD19ROTATEDRECTD19*%

G04:AMPARAMS|DCode=20|XSize=37.4mil|YSize=29.53mil|CornerRadius=0mil|HoleSize=0mil|Usage=FLASHONLY|Rotation=84.948|XOffset=0mil|YOffset=0mil|HoleType=Round|Shape=Rectangle|*
%AMROTATEDRECTD20*
4,1,4,0.01306,-0.01993,-0.01635,-0.01733,-0.01306,0.01993,0.01635,0.01733,0.01306,-0.01993,0.0*
%
%ADD20ROTATEDRECTD20*%

G04:AMPARAMS|DCode=21|XSize=37.4mil|YSize=29.53mil|CornerRadius=0mil|HoleSize=0mil|Usage=FLASHONLY|Rotation=272.280|XOffset=0mil|YOffset=0mil|HoleType=Round|Shape=Rectangle|*
%AMROTATEDRECTD21*
4,1,4,-0.01550,0.01810,0.01401,0.01927,0.01550,-0.01810,-0.01401,-0.01927,-0.01550,0.01810,0.0*
%
%ADD21ROTATEDRECTD21*%

G04:AMPARAMS|DCode=22|XSize=37.4mil|YSize=29.53mil|CornerRadius=0mil|HoleSize=0mil|Usage=FLASHONLY|Rotation=96.500|XOffset=0mil|YOffset=0mil|HoleType=Round|Shape=Rectangle|*
%AMROTATEDRECTD22*
4,1,4,0.01679,-0.01691,-0.01255,-0.02025,-0.01679,0.01691,0.01255,0.02025,0.01679,-0.01691,0.0*
%
%ADD22ROTATEDRECTD22*%

%ADD23R,0.01181X0.05709*%
%ADD24R,0.05709X0.01181*%
G04:AMPARAMS|DCode=25|XSize=37.4mil|YSize=29.53mil|CornerRadius=0mil|HoleSize=0mil|Usage=FLASHONLY|Rotation=103.000|XOffset=0mil|YOffset=0mil|HoleType=Round|Shape=Rectangle|*
%AMROTATEDRECTD25*
4,1,4,0.01859,-0.01490,-0.01018,-0.02154,-0.01859,0.01490,0.01018,0.02154,0.01859,-0.01490,0.0*
%
%ADD25ROTATEDRECTD25*%

G04:AMPARAMS|DCode=26|XSize=37.4mil|YSize=29.53mil|CornerRadius=0mil|HoleSize=0mil|Usage=FLASHONLY|Rotation=77.000|XOffset=0mil|YOffset=0mil|HoleType=Round|Shape=Rectangle|*
%AMROTATEDRECTD26*
4,1,4,0.01018,-0.02154,-0.01859,-0.01490,-0.01018,0.02154,0.01859,0.01490,0.01018,-0.02154,0.0*
%
%ADD26ROTATEDRECTD26*%

G04:AMPARAMS|DCode=27|XSize=37.4mil|YSize=29.53mil|CornerRadius=0mil|HoleSize=0mil|Usage=FLASHONLY|Rotation=95.500|XOffset=0mil|YOffset=0mil|HoleType=Round|Shape=Rectangle|*
%AMROTATEDRECTD27*
4,1,4,0.01649,-0.01720,-0.01290,-0.02003,-0.01649,0.01720,0.01290,0.02003,0.01649,-0.01720,0.0*
%
%ADD27ROTATEDRECTD27*%

G04:AMPARAMS|DCode=28|XSize=37.4mil|YSize=29.53mil|CornerRadius=0mil|HoleSize=0mil|Usage=FLASHONLY|Rotation=182.681|XOffset=0mil|YOffset=0mil|HoleType=Round|Shape=Rectangle|*
%AMROTATEDRECTD28*
4,1,4,0.01799,0.01562,0.01937,-0.01387,-0.01799,-0.01562,-0.01937,0.01387,0.01799,0.01562,0.0*
%
%ADD28ROTATEDRECTD28*%

G04:AMPARAMS|DCode=29|XSize=37.4mil|YSize=29.53mil|CornerRadius=0mil|HoleSize=0mil|Usage=FLASHONLY|Rotation=287.000|XOffset=0mil|YOffset=0mil|HoleType=Round|Shape=Rectangle|*
%AMROTATEDRECTD29*
4,1,4,-0.01959,0.01357,0.00865,0.02220,0.01959,-0.01357,-0.00865,-0.02220,-0.01959,0.01357,0.0*
%
%ADD29ROTATEDRECTD29*%

G04:AMPARAMS|DCode=30|XSize=37.4mil|YSize=29.53mil|CornerRadius=0mil|HoleSize=0mil|Usage=FLASHONLY|Rotation=358.956|XOffset=0mil|YOffset=0mil|HoleType=Round|Shape=Rectangle|*
%AMROTATEDRECTD30*
4,1,4,-0.01897,-0.01442,-0.01843,0.01510,0.01897,0.01442,0.01843,-0.01510,-0.01897,-0.01442,0.0*
%
%ADD30ROTATEDRECTD30*%

G04:AMPARAMS|DCode=31|XSize=37.4mil|YSize=29.53mil|CornerRadius=0mil|HoleSize=0mil|Usage=FLASHONLY|Rotation=262.500|XOffset=0mil|YOffset=0mil|HoleType=Round|Shape=Rectangle|*
%AMROTATEDRECTD31*
4,1,4,-0.01220,0.02047,0.01708,0.01661,0.01220,-0.02047,-0.01708,-0.01661,-0.01220,0.02047,0.0*
%
%ADD31ROTATEDRECTD31*%

G04:AMPARAMS|DCode=32|XSize=37.4mil|YSize=29.53mil|CornerRadius=0mil|HoleSize=0mil|Usage=FLASHONLY|Rotation=259.000|XOffset=0mil|YOffset=0mil|HoleType=Round|Shape=Rectangle|*
%AMROTATEDRECTD32*
4,1,4,-0.01092,0.02117,0.01806,0.01554,0.01092,-0.02117,-0.01806,-0.01554,-0.01092,0.02117,0.0*
%
%ADD32ROTATEDRECTD32*%

G04:AMPARAMS|DCode=33|XSize=37.4mil|YSize=29.53mil|CornerRadius=0mil|HoleSize=0mil|Usage=FLASHONLY|Rotation=45.000|XOffset=0mil|YOffset=0mil|HoleType=Round|Shape=Rectangle|*
%AMROTATEDRECTD33*
4,1,4,-0.00278,-0.02366,-0.02366,-0.00278,0.00278,0.02366,0.02366,0.00278,-0.00278,-0.02366,0.0*
%
%ADD33ROTATEDRECTD33*%

G04:AMPARAMS|DCode=34|XSize=37.4mil|YSize=29.53mil|CornerRadius=0mil|HoleSize=0mil|Usage=FLASHONLY|Rotation=222.500|XOffset=0mil|YOffset=0mil|HoleType=Round|Shape=Rectangle|*
%AMROTATEDRECTD34*
4,1,4,0.00381,0.02352,0.02376,0.00175,-0.00381,-0.02352,-0.02376,-0.00175,0.00381,0.02352,0.0*
%
%ADD34ROTATEDRECTD34*%

G04:AMPARAMS|DCode=35|XSize=37.4mil|YSize=29.53mil|CornerRadius=0mil|HoleSize=0mil|Usage=FLASHONLY|Rotation=219.500|XOffset=0mil|YOffset=0mil|HoleType=Round|Shape=Rectangle|*
%AMROTATEDRECTD35*
4,1,4,0.00504,0.02329,0.02382,0.00050,-0.00504,-0.02329,-0.02382,-0.00050,0.00504,0.02329,0.0*
%
%ADD35ROTATEDRECTD35*%

G04:AMPARAMS|DCode=36|XSize=37.4mil|YSize=29.53mil|CornerRadius=0mil|HoleSize=0mil|Usage=FLASHONLY|Rotation=216.500|XOffset=0mil|YOffset=0mil|HoleType=Round|Shape=Rectangle|*
%AMROTATEDRECTD36*
4,1,4,0.00625,0.02299,0.02382,-0.00074,-0.00625,-0.02299,-0.02382,0.00074,0.00625,0.02299,0.0*
%
%ADD36ROTATEDRECTD36*%

G04:AMPARAMS|DCode=37|XSize=37.4mil|YSize=29.53mil|CornerRadius=0mil|HoleSize=0mil|Usage=FLASHONLY|Rotation=130.000|XOffset=0mil|YOffset=0mil|HoleType=Round|Shape=Rectangle|*
%AMROTATEDRECTD37*
4,1,4,0.02333,-0.00484,0.00071,-0.02382,-0.02333,0.00484,-0.00071,0.02382,0.02333,-0.00484,0.0*
%
%ADD37ROTATEDRECTD37*%

G04:AMPARAMS|DCode=38|XSize=37.4mil|YSize=29.53mil|CornerRadius=0mil|HoleSize=0mil|Usage=FLASHONLY|Rotation=213.500|XOffset=0mil|YOffset=0mil|HoleType=Round|Shape=Rectangle|*
%AMROTATEDRECTD38*
4,1,4,0.00745,0.02263,0.02374,-0.00199,-0.00745,-0.02263,-0.02374,0.00199,0.00745,0.02263,0.0*
%
%ADD38ROTATEDRECTD38*%

G04:AMPARAMS|DCode=39|XSize=37.4mil|YSize=29.53mil|CornerRadius=0mil|HoleSize=0mil|Usage=FLASHONLY|Rotation=210.500|XOffset=0mil|YOffset=0mil|HoleType=Round|Shape=Rectangle|*
%AMROTATEDRECTD39*
4,1,4,0.00862,0.02221,0.02361,-0.00323,-0.00862,-0.02221,-0.02361,0.00323,0.00862,0.02221,0.0*
%
%ADD39ROTATEDRECTD39*%

G04:AMPARAMS|DCode=40|XSize=37.4mil|YSize=29.53mil|CornerRadius=0mil|HoleSize=0mil|Usage=FLASHONLY|Rotation=120.243|XOffset=0mil|YOffset=0mil|HoleType=Round|Shape=Rectangle|*
%AMROTATEDRECTD40*
4,1,4,0.02217,-0.00872,-0.00334,-0.02359,-0.02217,0.00872,0.00334,0.02359,0.02217,-0.00872,0.0*
%
%ADD40ROTATEDRECTD40*%

G04:AMPARAMS|DCode=41|XSize=37.4mil|YSize=29.53mil|CornerRadius=0mil|HoleSize=0mil|Usage=FLASHONLY|Rotation=212.500|XOffset=0mil|YOffset=0mil|HoleType=Round|Shape=Rectangle|*
%AMROTATEDRECTD41*
4,1,4,0.00784,0.02250,0.02371,-0.00240,-0.00784,-0.02250,-0.02371,0.00240,0.00784,0.02250,0.0*
%
%ADD41ROTATEDRECTD41*%

G04:AMPARAMS|DCode=42|XSize=37.4mil|YSize=29.53mil|CornerRadius=0mil|HoleSize=0mil|Usage=FLASHONLY|Rotation=214.500|XOffset=0mil|YOffset=0mil|HoleType=Round|Shape=Rectangle|*
%AMROTATEDRECTD42*
4,1,4,0.00705,0.02276,0.02377,-0.00158,-0.00705,-0.02276,-0.02377,0.00158,0.00705,0.02276,0.0*
%
%ADD42ROTATEDRECTD42*%

G04:AMPARAMS|DCode=43|XSize=59.06mil|YSize=118.11mil|CornerRadius=0mil|HoleSize=0mil|Usage=FLASHONLY|Rotation=325.000|XOffset=0mil|YOffset=0mil|HoleType=Round|Shape=Rectangle|*
%AMROTATEDRECTD43*
4,1,4,-0.05806,-0.03144,0.00969,0.06531,0.05806,0.03144,-0.00969,-0.06531,-0.05806,-0.03144,0.0*
%
%ADD43ROTATEDRECTD43*%

G04:AMPARAMS|DCode=44|XSize=37.4mil|YSize=29.53mil|CornerRadius=0mil|HoleSize=0mil|Usage=FLASHONLY|Rotation=93.284|XOffset=0mil|YOffset=0mil|HoleType=Round|Shape=Rectangle|*
%AMROTATEDRECTD44*
4,1,4,0.01581,-0.01782,-0.01367,-0.01952,-0.01581,0.01782,0.01367,0.01952,0.01581,-0.01782,0.0*
%
%ADD44ROTATEDRECTD44*%

%ADD45C,0.01000*%
G04:AMPARAMS|DCode=46|XSize=39.37mil|YSize=78.74mil|CornerRadius=0mil|HoleSize=0mil|Usage=FLASHONLY|Rotation=182.000|XOffset=0mil|YOffset=0mil|HoleType=Round|Shape=Round|*
%AMOVALD46*
21,1,0.03937,0.03937,0.00000,0.00000,272.0*
1,1,0.03937,-0.00069,0.01967*
1,1,0.03937,0.00069,-0.01967*
%
%ADD46OVALD46*%

G04:AMPARAMS|DCode=47|XSize=59.06mil|YSize=118.11mil|CornerRadius=0mil|HoleSize=0mil|Usage=FLASHONLY|Rotation=33.500|XOffset=0mil|YOffset=0mil|HoleType=Round|Shape=Round|*
%AMOVALD47*
21,1,0.05906,0.05906,0.00000,0.00000,123.5*
1,1,0.05906,0.01630,-0.02462*
1,1,0.05906,-0.01630,0.02462*
%
%ADD47OVALD47*%

G04:AMPARAMS|DCode=48|XSize=39.37mil|YSize=78.74mil|CornerRadius=0mil|HoleSize=0mil|Usage=FLASHONLY|Rotation=349.000|XOffset=0mil|YOffset=0mil|HoleType=Round|Shape=Round|*
%AMOVALD48*
21,1,0.03937,0.03937,0.00000,0.00000,79.0*
1,1,0.03937,-0.00376,-0.01932*
1,1,0.03937,0.00376,0.01932*
%
%ADD48OVALD48*%

%ADD49C,0.05315*%
%ADD50P,0.07517X4X378.0*%
%ADD51P,0.07517X4X307.5*%
%ADD52O,0.03937X0.07874*%
%ADD53O,0.09843X0.05906*%
G04:AMPARAMS|DCode=54|XSize=39.37mil|YSize=78.74mil|CornerRadius=0mil|HoleSize=0mil|Usage=FLASHONLY|Rotation=14.000|XOffset=0mil|YOffset=0mil|HoleType=Round|Shape=Round|*
%AMOVALD54*
21,1,0.03937,0.03937,0.00000,0.00000,104.0*
1,1,0.03937,0.00476,-0.01910*
1,1,0.03937,-0.00476,0.01910*
%
%ADD54OVALD54*%

G04:AMPARAMS|DCode=55|XSize=39.37mil|YSize=78.74mil|CornerRadius=0mil|HoleSize=0mil|Usage=FLASHONLY|Rotation=19.500|XOffset=0mil|YOffset=0mil|HoleType=Round|Shape=Round|*
%AMOVALD55*
21,1,0.03937,0.03937,0.00000,0.00000,109.5*
1,1,0.03937,0.00657,-0.01856*
1,1,0.03937,-0.00657,0.01856*
%
%ADD55OVALD55*%

G04:AMPARAMS|DCode=56|XSize=39.37mil|YSize=78.74mil|CornerRadius=0mil|HoleSize=0mil|Usage=FLASHONLY|Rotation=342.000|XOffset=0mil|YOffset=0mil|HoleType=Round|Shape=Round|*
%AMOVALD56*
21,1,0.03937,0.03937,0.00000,0.00000,72.0*
1,1,0.03937,-0.00608,-0.01872*
1,1,0.03937,0.00608,0.01872*
%
%ADD56OVALD56*%

G04:AMPARAMS|DCode=57|XSize=39.37mil|YSize=78.74mil|CornerRadius=0mil|HoleSize=0mil|Usage=FLASHONLY|Rotation=40.500|XOffset=0mil|YOffset=0mil|HoleType=Round|Shape=Round|*
%AMOVALD57*
21,1,0.03937,0.03937,0.00000,0.00000,130.5*
1,1,0.03937,0.01278,-0.01497*
1,1,0.03937,-0.01278,0.01497*
%
%ADD57OVALD57*%

G04:AMPARAMS|DCode=58|XSize=39.37mil|YSize=78.74mil|CornerRadius=0mil|HoleSize=0mil|Usage=FLASHONLY|Rotation=46.000|XOffset=0mil|YOffset=0mil|HoleType=Round|Shape=Round|*
%AMOVALD58*
21,1,0.03937,0.03937,0.00000,0.00000,136.0*
1,1,0.03937,0.01416,-0.01367*
1,1,0.03937,-0.01416,0.01367*
%
%ADD58OVALD58*%

G04:AMPARAMS|DCode=59|XSize=39.37mil|YSize=78.74mil|CornerRadius=0mil|HoleSize=0mil|Usage=FLASHONLY|Rotation=320.000|XOffset=0mil|YOffset=0mil|HoleType=Round|Shape=Round|*
%AMOVALD59*
21,1,0.03937,0.03937,0.00000,0.00000,50.0*
1,1,0.03937,-0.01265,-0.01508*
1,1,0.03937,0.01265,0.01508*
%
%ADD59OVALD59*%

%ADD60C,0.03150*%
%ADD61C,0.01969*%
%ADD62C,0.04331*%
%ADD63C,0.00984*%
%ADD64C,0.02362*%
%ADD65C,0.00787*%
%ADD66C,0.00394*%
%ADD67C,0.00197*%
G04:AMPARAMS|DCode=68|XSize=45.4mil|YSize=37.53mil|CornerRadius=0mil|HoleSize=0mil|Usage=FLASHONLY|Rotation=215.500|XOffset=0mil|YOffset=0mil|HoleType=Round|Shape=Rectangle|*
%AMROTATEDRECTD68*
4,1,4,0.00759,0.02846,0.02938,-0.00209,-0.00759,-0.02846,-0.02938,0.00209,0.00759,0.02846,0.0*
%
%ADD68ROTATEDRECTD68*%

G04:AMPARAMS|DCode=69|XSize=67.06mil|YSize=126.11mil|CornerRadius=0mil|HoleSize=0mil|Usage=FLASHONLY|Rotation=33.000|XOffset=0mil|YOffset=0mil|HoleType=Round|Shape=Rectangle|*
%AMROTATEDRECTD69*
4,1,4,0.00622,-0.07114,-0.06246,0.03462,-0.00622,0.07114,0.06246,-0.03462,0.00622,-0.07114,0.0*
%
%ADD69ROTATEDRECTD69*%

G04:AMPARAMS|DCode=70|XSize=45.4mil|YSize=37.53mil|CornerRadius=0mil|HoleSize=0mil|Usage=FLASHONLY|Rotation=337.500|XOffset=0mil|YOffset=0mil|HoleType=Round|Shape=Rectangle|*
%AMROTATEDRECTD70*
4,1,4,-0.02815,-0.00865,-0.01379,0.02602,0.02815,0.00865,0.01379,-0.02602,-0.02815,-0.00865,0.0*
%
%ADD70ROTATEDRECTD70*%

G04:AMPARAMS|DCode=71|XSize=45.4mil|YSize=37.53mil|CornerRadius=0mil|HoleSize=0mil|Usage=FLASHONLY|Rotation=96.500|XOffset=0mil|YOffset=0mil|HoleType=Round|Shape=Rectangle|*
%AMROTATEDRECTD71*
4,1,4,0.02121,-0.02043,-0.01607,-0.02468,-0.02121,0.02043,0.01607,0.02468,0.02121,-0.02043,0.0*
%
%ADD71ROTATEDRECTD71*%

%ADD72P,0.13937X4X118.5*%
G04:AMPARAMS|DCode=73|XSize=45.4mil|YSize=37.53mil|CornerRadius=0mil|HoleSize=0mil|Usage=FLASHONLY|Rotation=352.500|XOffset=0mil|YOffset=0mil|HoleType=Round|Shape=Rectangle|*
%AMROTATEDRECTD73*
4,1,4,-0.02496,-0.01564,-0.02006,0.02157,0.02496,0.01564,0.02006,-0.02157,-0.02496,-0.01564,0.0*
%
%ADD73ROTATEDRECTD73*%

G04:AMPARAMS|DCode=74|XSize=45.4mil|YSize=37.53mil|CornerRadius=0mil|HoleSize=0mil|Usage=FLASHONLY|Rotation=78.500|XOffset=0mil|YOffset=0mil|HoleType=Round|Shape=Rectangle|*
%AMROTATEDRECTD74*
4,1,4,0.01386,-0.02599,-0.02291,-0.01850,-0.01386,0.02599,0.02291,0.01850,0.01386,-0.02599,0.0*
%
%ADD74ROTATEDRECTD74*%

G04:AMPARAMS|DCode=75|XSize=116.27mil|YSize=130.05mil|CornerRadius=0mil|HoleSize=0mil|Usage=FLASHONLY|Rotation=259.000|XOffset=0mil|YOffset=0mil|HoleType=Round|Shape=Rectangle|*
%AMROTATEDRECTD75*
4,1,4,-0.05274,0.06947,0.07492,0.04466,0.05274,-0.06947,-0.07492,-0.04466,-0.05274,0.06947,0.0*
%
%ADD75ROTATEDRECTD75*%

G04:AMPARAMS|DCode=76|XSize=31.62mil|YSize=65.09mil|CornerRadius=0mil|HoleSize=0mil|Usage=FLASHONLY|Rotation=349.000|XOffset=0mil|YOffset=0mil|HoleType=Round|Shape=Rectangle|*
%AMROTATEDRECTD76*
4,1,4,-0.02173,-0.02893,-0.00931,0.03496,0.02173,0.02893,0.00931,-0.03496,-0.02173,-0.02893,0.0*
%
%ADD76ROTATEDRECTD76*%

G04:AMPARAMS|DCode=77|XSize=74.93mil|YSize=86.74mil|CornerRadius=0mil|HoleSize=0mil|Usage=FLASHONLY|Rotation=251.000|XOffset=0mil|YOffset=0mil|HoleType=Round|Shape=Rectangle|*
%AMROTATEDRECTD77*
4,1,4,-0.02881,0.04954,0.05321,0.02130,0.02881,-0.04954,-0.05321,-0.02130,-0.02881,0.04954,0.0*
%
%ADD77ROTATEDRECTD77*%

G04:AMPARAMS|DCode=78|XSize=45.4mil|YSize=37.53mil|CornerRadius=0mil|HoleSize=0mil|Usage=FLASHONLY|Rotation=84.948|XOffset=0mil|YOffset=0mil|HoleType=Round|Shape=Rectangle|*
%AMROTATEDRECTD78*
4,1,4,0.01669,-0.02427,-0.02069,-0.02096,-0.01669,0.02427,0.02069,0.02096,0.01669,-0.02427,0.0*
%
%ADD78ROTATEDRECTD78*%

G04:AMPARAMS|DCode=79|XSize=45.4mil|YSize=37.53mil|CornerRadius=0mil|HoleSize=0mil|Usage=FLASHONLY|Rotation=272.280|XOffset=0mil|YOffset=0mil|HoleType=Round|Shape=Rectangle|*
%AMROTATEDRECTD79*
4,1,4,-0.01965,0.02194,0.01785,0.02343,0.01965,-0.02194,-0.01785,-0.02343,-0.01965,0.02194,0.0*
%
%ADD79ROTATEDRECTD79*%

G04:AMPARAMS|DCode=80|XSize=45.4mil|YSize=37.53mil|CornerRadius=0mil|HoleSize=0mil|Usage=FLASHONLY|Rotation=96.500|XOffset=0mil|YOffset=0mil|HoleType=Round|Shape=Rectangle|*
%AMROTATEDRECTD80*
4,1,4,0.02121,-0.02043,-0.01607,-0.02468,-0.02121,0.02043,0.01607,0.02468,0.02121,-0.02043,0.0*
%
%ADD80ROTATEDRECTD80*%

%ADD81R,0.01981X0.06509*%
%ADD82R,0.06509X0.01981*%
G04:AMPARAMS|DCode=83|XSize=45.4mil|YSize=37.53mil|CornerRadius=0mil|HoleSize=0mil|Usage=FLASHONLY|Rotation=103.000|XOffset=0mil|YOffset=0mil|HoleType=Round|Shape=Rectangle|*
%AMROTATEDRECTD83*
4,1,4,0.02339,-0.01790,-0.01318,-0.02634,-0.02339,0.01790,0.01318,0.02634,0.02339,-0.01790,0.0*
%
%ADD83ROTATEDRECTD83*%

G04:AMPARAMS|DCode=84|XSize=45.4mil|YSize=37.53mil|CornerRadius=0mil|HoleSize=0mil|Usage=FLASHONLY|Rotation=77.000|XOffset=0mil|YOffset=0mil|HoleType=Round|Shape=Rectangle|*
%AMROTATEDRECTD84*
4,1,4,0.01318,-0.02634,-0.02339,-0.01790,-0.01318,0.02634,0.02339,0.01790,0.01318,-0.02634,0.0*
%
%ADD84ROTATEDRECTD84*%

G04:AMPARAMS|DCode=85|XSize=45.4mil|YSize=37.53mil|CornerRadius=0mil|HoleSize=0mil|Usage=FLASHONLY|Rotation=95.500|XOffset=0mil|YOffset=0mil|HoleType=Round|Shape=Rectangle|*
%AMROTATEDRECTD85*
4,1,4,0.02085,-0.02080,-0.01650,-0.02440,-0.02085,0.02080,0.01650,0.02440,0.02085,-0.02080,0.0*
%
%ADD85ROTATEDRECTD85*%

G04:AMPARAMS|DCode=86|XSize=45.4mil|YSize=37.53mil|CornerRadius=0mil|HoleSize=0mil|Usage=FLASHONLY|Rotation=182.681|XOffset=0mil|YOffset=0mil|HoleType=Round|Shape=Rectangle|*
%AMROTATEDRECTD86*
4,1,4,0.02180,0.01981,0.02355,-0.01768,-0.02180,-0.01981,-0.02355,0.01768,0.02180,0.01981,0.0*
%
%ADD86ROTATEDRECTD86*%

G04:AMPARAMS|DCode=87|XSize=45.4mil|YSize=37.53mil|CornerRadius=0mil|HoleSize=0mil|Usage=FLASHONLY|Rotation=287.000|XOffset=0mil|YOffset=0mil|HoleType=Round|Shape=Rectangle|*
%AMROTATEDRECTD87*
4,1,4,-0.02458,0.01622,0.01131,0.02720,0.02458,-0.01622,-0.01131,-0.02720,-0.02458,0.01622,0.0*
%
%ADD87ROTATEDRECTD87*%

G04:AMPARAMS|DCode=88|XSize=45.4mil|YSize=37.53mil|CornerRadius=0mil|HoleSize=0mil|Usage=FLASHONLY|Rotation=358.956|XOffset=0mil|YOffset=0mil|HoleType=Round|Shape=Rectangle|*
%AMROTATEDRECTD88*
4,1,4,-0.02304,-0.01835,-0.02236,0.01917,0.02304,0.01835,0.02236,-0.01917,-0.02304,-0.01835,0.0*
%
%ADD88ROTATEDRECTD88*%

G04:AMPARAMS|DCode=89|XSize=45.4mil|YSize=37.53mil|CornerRadius=0mil|HoleSize=0mil|Usage=FLASHONLY|Rotation=262.500|XOffset=0mil|YOffset=0mil|HoleType=Round|Shape=Rectangle|*
%AMROTATEDRECTD89*
4,1,4,-0.01564,0.02496,0.02157,0.02006,0.01564,-0.02496,-0.02157,-0.02006,-0.01564,0.02496,0.0*
%
%ADD89ROTATEDRECTD89*%

G04:AMPARAMS|DCode=90|XSize=45.4mil|YSize=37.53mil|CornerRadius=0mil|HoleSize=0mil|Usage=FLASHONLY|Rotation=259.000|XOffset=0mil|YOffset=0mil|HoleType=Round|Shape=Rectangle|*
%AMROTATEDRECTD90*
4,1,4,-0.01409,0.02586,0.02275,0.01870,0.01409,-0.02586,-0.02275,-0.01870,-0.01409,0.02586,0.0*
%
%ADD90ROTATEDRECTD90*%

G04:AMPARAMS|DCode=91|XSize=45.4mil|YSize=37.53mil|CornerRadius=0mil|HoleSize=0mil|Usage=FLASHONLY|Rotation=45.000|XOffset=0mil|YOffset=0mil|HoleType=Round|Shape=Rectangle|*
%AMROTATEDRECTD91*
4,1,4,-0.00278,-0.02932,-0.02932,-0.00278,0.00278,0.02932,0.02932,0.00278,-0.00278,-0.02932,0.0*
%
%ADD91ROTATEDRECTD91*%

G04:AMPARAMS|DCode=92|XSize=45.4mil|YSize=37.53mil|CornerRadius=0mil|HoleSize=0mil|Usage=FLASHONLY|Rotation=222.500|XOffset=0mil|YOffset=0mil|HoleType=Round|Shape=Rectangle|*
%AMROTATEDRECTD92*
4,1,4,0.00406,0.02917,0.02941,0.00150,-0.00406,-0.02917,-0.02941,-0.00150,0.00406,0.02917,0.0*
%
%ADD92ROTATEDRECTD92*%

G04:AMPARAMS|DCode=93|XSize=45.4mil|YSize=37.53mil|CornerRadius=0mil|HoleSize=0mil|Usage=FLASHONLY|Rotation=219.500|XOffset=0mil|YOffset=0mil|HoleType=Round|Shape=Rectangle|*
%AMROTATEDRECTD93*
4,1,4,0.00558,0.02892,0.02945,-0.00004,-0.00558,-0.02892,-0.02945,0.00004,0.00558,0.02892,0.0*
%
%ADD93ROTATEDRECTD93*%

G04:AMPARAMS|DCode=94|XSize=45.4mil|YSize=37.53mil|CornerRadius=0mil|HoleSize=0mil|Usage=FLASHONLY|Rotation=216.500|XOffset=0mil|YOffset=0mil|HoleType=Round|Shape=Rectangle|*
%AMROTATEDRECTD94*
4,1,4,0.00709,0.02859,0.02941,-0.00158,-0.00709,-0.02859,-0.02941,0.00158,0.00709,0.02859,0.0*
%
%ADD94ROTATEDRECTD94*%

G04:AMPARAMS|DCode=95|XSize=45.4mil|YSize=37.53mil|CornerRadius=0mil|HoleSize=0mil|Usage=FLASHONLY|Rotation=130.000|XOffset=0mil|YOffset=0mil|HoleType=Round|Shape=Rectangle|*
%AMROTATEDRECTD95*
4,1,4,0.02897,-0.00533,0.00022,-0.02945,-0.02897,0.00533,-0.00022,0.02945,0.02897,-0.00533,0.0*
%
%ADD95ROTATEDRECTD95*%

G04:AMPARAMS|DCode=96|XSize=45.4mil|YSize=37.53mil|CornerRadius=0mil|HoleSize=0mil|Usage=FLASHONLY|Rotation=213.500|XOffset=0mil|YOffset=0mil|HoleType=Round|Shape=Rectangle|*
%AMROTATEDRECTD96*
4,1,4,0.00857,0.02818,0.02929,-0.00312,-0.00857,-0.02818,-0.02929,0.00312,0.00857,0.02818,0.0*
%
%ADD96ROTATEDRECTD96*%

G04:AMPARAMS|DCode=97|XSize=45.4mil|YSize=37.53mil|CornerRadius=0mil|HoleSize=0mil|Usage=FLASHONLY|Rotation=210.500|XOffset=0mil|YOffset=0mil|HoleType=Round|Shape=Rectangle|*
%AMROTATEDRECTD97*
4,1,4,0.01004,0.02769,0.02908,-0.00465,-0.01004,-0.02769,-0.02908,0.00465,0.01004,0.02769,0.0*
%
%ADD97ROTATEDRECTD97*%

G04:AMPARAMS|DCode=98|XSize=45.4mil|YSize=37.53mil|CornerRadius=0mil|HoleSize=0mil|Usage=FLASHONLY|Rotation=120.243|XOffset=0mil|YOffset=0mil|HoleType=Round|Shape=Rectangle|*
%AMROTATEDRECTD98*
4,1,4,0.02764,-0.01016,-0.00478,-0.02906,-0.02764,0.01016,0.00478,0.02906,0.02764,-0.01016,0.0*
%
%ADD98ROTATEDRECTD98*%

G04:AMPARAMS|DCode=99|XSize=45.4mil|YSize=37.53mil|CornerRadius=0mil|HoleSize=0mil|Usage=FLASHONLY|Rotation=212.500|XOffset=0mil|YOffset=0mil|HoleType=Round|Shape=Rectangle|*
%AMROTATEDRECTD99*
4,1,4,0.00906,0.02802,0.02923,-0.00363,-0.00906,-0.02802,-0.02923,0.00363,0.00906,0.02802,0.0*
%
%ADD99ROTATEDRECTD99*%

G04:AMPARAMS|DCode=100|XSize=45.4mil|YSize=37.53mil|CornerRadius=0mil|HoleSize=0mil|Usage=FLASHONLY|Rotation=214.500|XOffset=0mil|YOffset=0mil|HoleType=Round|Shape=Rectangle|*
%AMROTATEDRECTD100*
4,1,4,0.00808,0.02832,0.02934,-0.00261,-0.00808,-0.02832,-0.02934,0.00261,0.00808,0.02832,0.0*
%
%ADD100ROTATEDRECTD100*%

G04:AMPARAMS|DCode=101|XSize=67.06mil|YSize=126.11mil|CornerRadius=0mil|HoleSize=0mil|Usage=FLASHONLY|Rotation=325.000|XOffset=0mil|YOffset=0mil|HoleType=Round|Shape=Rectangle|*
%AMROTATEDRECTD101*
4,1,4,-0.06363,-0.03242,0.00870,0.07088,0.06363,0.03242,-0.00870,-0.07088,-0.06363,-0.03242,0.0*
%
%ADD101ROTATEDRECTD101*%

G04:AMPARAMS|DCode=102|XSize=45.4mil|YSize=37.53mil|CornerRadius=0mil|HoleSize=0mil|Usage=FLASHONLY|Rotation=93.284|XOffset=0mil|YOffset=0mil|HoleType=Round|Shape=Rectangle|*
%AMROTATEDRECTD102*
4,1,4,0.02003,-0.02159,-0.01743,-0.02374,-0.02003,0.02159,0.01743,0.02374,0.02003,-0.02159,0.0*
%
%ADD102ROTATEDRECTD102*%

G04:AMPARAMS|DCode=103|XSize=47.37mil|YSize=86.74mil|CornerRadius=0mil|HoleSize=0mil|Usage=FLASHONLY|Rotation=182.000|XOffset=0mil|YOffset=0mil|HoleType=Round|Shape=Round|*
%AMOVALD103*
21,1,0.03937,0.04737,0.00000,0.00000,272.0*
1,1,0.04737,-0.00069,0.01967*
1,1,0.04737,0.00069,-0.01967*
%
%ADD103OVALD103*%

G04:AMPARAMS|DCode=104|XSize=67.06mil|YSize=126.11mil|CornerRadius=0mil|HoleSize=0mil|Usage=FLASHONLY|Rotation=33.500|XOffset=0mil|YOffset=0mil|HoleType=Round|Shape=Round|*
%AMOVALD104*
21,1,0.05906,0.06706,0.00000,0.00000,123.5*
1,1,0.06706,0.01630,-0.02462*
1,1,0.06706,-0.01630,0.02462*
%
%ADD104OVALD104*%

G04:AMPARAMS|DCode=105|XSize=47.37mil|YSize=86.74mil|CornerRadius=0mil|HoleSize=0mil|Usage=FLASHONLY|Rotation=349.000|XOffset=0mil|YOffset=0mil|HoleType=Round|Shape=Round|*
%AMOVALD105*
21,1,0.03937,0.04737,0.00000,0.00000,79.0*
1,1,0.04737,-0.00376,-0.01932*
1,1,0.04737,0.00376,0.01932*
%
%ADD105OVALD105*%

%ADD106C,0.06115*%
%ADD107P,0.08648X4X378.0*%
%ADD108P,0.08648X4X307.5*%
%ADD109O,0.04737X0.08674*%
%ADD110O,0.10642X0.06706*%
G04:AMPARAMS|DCode=111|XSize=47.37mil|YSize=86.74mil|CornerRadius=0mil|HoleSize=0mil|Usage=FLASHONLY|Rotation=14.000|XOffset=0mil|YOffset=0mil|HoleType=Round|Shape=Round|*
%AMOVALD111*
21,1,0.03937,0.04737,0.00000,0.00000,104.0*
1,1,0.04737,0.00476,-0.01910*
1,1,0.04737,-0.00476,0.01910*
%
%ADD111OVALD111*%

G04:AMPARAMS|DCode=112|XSize=47.37mil|YSize=86.74mil|CornerRadius=0mil|HoleSize=0mil|Usage=FLASHONLY|Rotation=19.500|XOffset=0mil|YOffset=0mil|HoleType=Round|Shape=Round|*
%AMOVALD112*
21,1,0.03937,0.04737,0.00000,0.00000,109.5*
1,1,0.04737,0.00657,-0.01856*
1,1,0.04737,-0.00657,0.01856*
%
%ADD112OVALD112*%

G04:AMPARAMS|DCode=113|XSize=47.37mil|YSize=86.74mil|CornerRadius=0mil|HoleSize=0mil|Usage=FLASHONLY|Rotation=342.000|XOffset=0mil|YOffset=0mil|HoleType=Round|Shape=Round|*
%AMOVALD113*
21,1,0.03937,0.04737,0.00000,0.00000,72.0*
1,1,0.04737,-0.00608,-0.01872*
1,1,0.04737,0.00608,0.01872*
%
%ADD113OVALD113*%

G04:AMPARAMS|DCode=114|XSize=47.37mil|YSize=86.74mil|CornerRadius=0mil|HoleSize=0mil|Usage=FLASHONLY|Rotation=40.500|XOffset=0mil|YOffset=0mil|HoleType=Round|Shape=Round|*
%AMOVALD114*
21,1,0.03937,0.04737,0.00000,0.00000,130.5*
1,1,0.04737,0.01278,-0.01497*
1,1,0.04737,-0.01278,0.01497*
%
%ADD114OVALD114*%

G04:AMPARAMS|DCode=115|XSize=47.37mil|YSize=86.74mil|CornerRadius=0mil|HoleSize=0mil|Usage=FLASHONLY|Rotation=46.000|XOffset=0mil|YOffset=0mil|HoleType=Round|Shape=Round|*
%AMOVALD115*
21,1,0.03937,0.04737,0.00000,0.00000,136.0*
1,1,0.04737,0.01416,-0.01367*
1,1,0.04737,-0.01416,0.01367*
%
%ADD115OVALD115*%

G04:AMPARAMS|DCode=116|XSize=47.37mil|YSize=86.74mil|CornerRadius=0mil|HoleSize=0mil|Usage=FLASHONLY|Rotation=320.000|XOffset=0mil|YOffset=0mil|HoleType=Round|Shape=Round|*
%AMOVALD116*
21,1,0.03937,0.04737,0.00000,0.00000,50.0*
1,1,0.04737,-0.01265,-0.01508*
1,1,0.04737,0.01265,0.01508*
%
%ADD116OVALD116*%

%ADD117C,0.03950*%
%ADD118C,0.02769*%
%ADD119C,0.05131*%
D103*
X305559Y405220D02*
D03*
X315553Y405569D02*
D03*
D104*
X644390Y344415D02*
D03*
X636051Y338896D02*
D03*
X627712Y333377D02*
D03*
X652729Y349935D02*
D03*
X661068Y355454D02*
D03*
X669407Y360973D02*
D03*
X677745Y366493D02*
D03*
X619374Y327857D02*
D03*
X646970Y286163D02*
D03*
X655309Y291682D02*
D03*
X663648Y297202D02*
D03*
X671987Y302721D02*
D03*
X680326Y308240D02*
D03*
X688664Y313760D02*
D03*
X697003Y319279D02*
D03*
X705342Y324798D02*
D03*
D105*
X501968Y325931D02*
D03*
X492151Y327839D02*
D03*
D106*
X454903Y341601D02*
D03*
X500152Y258602D02*
D03*
D107*
X437363Y350538D02*
D03*
D108*
X502722Y278119D02*
D03*
D109*
X436026Y275864D02*
D03*
X426026Y275864D02*
D03*
X416026Y275864D02*
D03*
D110*
X547295Y277414D02*
D03*
Y259697D02*
D03*
X521705D02*
D03*
Y277414D02*
D03*
X547295Y294737D02*
D03*
Y312453D02*
D03*
X521705D02*
D03*
Y294737D02*
D03*
D111*
X592739Y265250D02*
D03*
X602442Y267669D02*
D03*
D112*
X616708Y272374D02*
D03*
X626134Y275712D02*
D03*
D113*
X478620Y331339D02*
D03*
X469109Y334429D02*
D03*
D114*
X709081Y291995D02*
D03*
X731893Y311479D02*
D03*
X724289Y304984D02*
D03*
X716685Y298490D02*
D03*
D115*
X370941Y342932D02*
D03*
X377888Y350126D02*
D03*
X384835Y357319D02*
D03*
X391781Y364512D02*
D03*
X398728Y371706D02*
D03*
X391534Y378653D02*
D03*
X384588Y371459D02*
D03*
X363748Y349879D02*
D03*
X370695Y357072D02*
D03*
X377641Y364266D02*
D03*
D116*
X350892Y308463D02*
D03*
X358553Y302035D02*
D03*
X366213Y295607D02*
D03*
X343232Y314891D02*
D03*
D117*
X707529Y363703D02*
D03*
X374545Y311042D02*
D03*
X376099Y305434D02*
D03*
X355765Y290729D02*
D03*
X379765Y400768D02*
D03*
X305316Y395063D02*
D03*
X347021Y328720D02*
D03*
X376576Y324480D02*
D03*
X412726Y335520D02*
D03*
X411704Y302460D02*
D03*
X345756Y408321D02*
D03*
X326681Y373984D02*
D03*
X344305Y383835D02*
D03*
X352318Y389551D02*
D03*
X360381Y395864D02*
D03*
X406500Y311500D02*
D03*
X404205Y306877D02*
D03*
X486304Y318748D02*
D03*
X563504Y299197D02*
D03*
X435314Y267702D02*
D03*
X534500Y256351D02*
D03*
X563118Y247221D02*
D03*
X715159Y380875D02*
D03*
X722656Y374571D02*
D03*
X730777Y368892D02*
D03*
X747271Y381325D02*
D03*
X741202Y363813D02*
D03*
X418375Y309698D02*
D03*
X418326Y322275D02*
D03*
X386185Y295325D02*
D03*
X380084Y290569D02*
D03*
X409460Y340316D02*
D03*
Y347218D02*
D03*
X416799Y340316D02*
D03*
X416893Y348381D02*
D03*
X426000Y296000D02*
D03*
X448016Y305445D02*
D03*
X391884Y295666D02*
D03*
X614313Y335944D02*
D03*
X518858Y320745D02*
D03*
X585399Y315356D02*
D03*
X632085Y300321D02*
D03*
X722229Y398865D02*
D03*
X690675Y397483D02*
D03*
X730101Y392475D02*
D03*
X707971Y387220D02*
D03*
X697468Y356532D02*
D03*
X409174Y278750D02*
D03*
X411719Y283639D02*
D03*
X406348Y285204D02*
D03*
X430177Y261423D02*
D03*
X398304Y336206D02*
D03*
X403987Y317972D02*
D03*
X410449Y321543D02*
D03*
X442020Y260233D02*
D03*
X446128Y263362D02*
D03*
X451771Y261960D02*
D03*
X411837Y316145D02*
D03*
X405991Y289925D02*
D03*
D118*
X487137Y298533D02*
D03*
X487963Y302784D02*
D03*
X491388Y297707D02*
D03*
X492214Y301958D02*
D03*
X495639Y296881D02*
D03*
X496465Y301132D02*
D03*
D119*
X374774Y392448D02*
D03*
M02*
