M48
;DRILL file {Pcbnew (2013-07-07 BZR 4022)-stable} date 24.06.2015 19:17:02
;FORMAT={-:-/ absolute / inch / decimal}
FMAT,2
INCH,TZ
T1C0.032
T2C0.040
T3C0.047
T4C0.051
T5C0.126
%
G90
G05
M72
T1
X3.75Y-2.45
X3.75Y-2.85
X3.85Y-2.45
X3.85Y-2.85
X3.85Y-2.95
X3.85Y-3.35
X3.95Y-2.45
X3.95Y-2.85
X3.95Y-2.95
X3.95Y-3.35
T2
X3.75Y-2.25
X3.75Y-2.35
X3.85Y-2.25
X3.85Y-2.35
X3.95Y-2.25
X3.95Y-2.35
T3
X4.1Y-2.55
X4.1Y-2.65
X4.1Y-2.75
X4.1Y-2.85
X4.1Y-2.95
X4.1Y-3.05
X4.1Y-3.15
X4.1Y-3.25
X4.6Y-2.55
X4.6Y-2.65
X4.6Y-2.75
X4.6Y-2.85
X4.6Y-2.95
X4.6Y-3.05
X4.6Y-3.15
X4.6Y-3.25
T4
X4.0713Y-3.45
X4.2287Y-3.45
X4.4213Y-2.35
X4.4713Y-3.45
X4.5787Y-2.35
X4.6287Y-3.45
X4.8Y-2.6888
X4.8Y-2.8463
X4.8Y-3.0037
X4.8Y-3.1612
T5
X3.8Y-3.6
X4.9Y-2.3
T0
M30
