M48
;Layer_Color=9474304
;FILE_FORMAT=2:5
INCH,LZ
;TYPE=PLATED
T1F00S00C0.01575
T2F00S00C0.02756
T3F00S00C0.03150
T4F00S00C0.03543
%
T01
X0632085Y0300321
X0603456Y0270853
X0572604Y02918
X0567069Y0286343
X0563504Y0299197
X0572604Y0303006
X0578458Y030886
X0555883Y0306817
X0496229Y030198
X0495666Y0299081
X0495102Y0296183
X0492204Y0296746
X0489305Y0297309
X0489869Y0300208
X0492767Y0299645
X049333Y0302543
X0490432Y0303106
X0487534Y030367
X048697Y0300771
X0486407Y0297873
X0494642Y0280993
X0494057Y0278145
X0487631Y0259685
X0500152Y0258602
X05345Y0256351
X0563118Y0247221
X0451771Y026196
X0446128Y0263362
X044202Y0260233
X0430177Y0261423
X0435314Y0267702
X0409174Y027875
X0411719Y0283639
X0406348Y0285204
X0405991Y0289925
X0411704Y030246
X0404205Y0306877
X04065Y03115
X0418375Y0309698
X0426Y0296
X0441559Y0312169
X0391884Y0295666
X0386185Y0295325
X0380084Y0290569
X0376099Y0305434
X0374545Y0311042
X0355765Y0290729
X0305316Y0395063
X0326681Y0373984
X0344305Y0383835
X0352318Y0389551
X0360381Y0395864
X0379765Y0400768
X0345756Y0408321
X0347021Y032872
X0376576Y032448
X0398304Y0336206
X0412726Y033552
X040946Y0340316
X0416799
X0417393Y0350912
X0409587Y035069
X0410449Y0321543
X0411837Y0316145
X0403987Y0317972
X0418326Y0322275
X0486304Y0318748
X0518858Y0320745
X0557738Y0315544
X0585399Y0315356
X0614313Y0335944
X0655805Y0372345
X0663422Y0385998
X0690675Y0397483
X0707971Y038722
X0715159Y0380875
X0722656Y0374571
X0730777Y0368892
X0741202Y0363813
X0747271Y0381325
X0730101Y0392475
X0722229Y0398865
X0707357Y0371866
X0697468Y0356532
T02
X0709081Y0291995
X0716685Y029849
X0724289Y0304984
X0731893Y0311479
X0436026Y0275864
X0426026Y0275864
X0416026Y0275864
X0366213Y0295607
X0358553Y0302035
X0350892Y0308463
X0305559Y040522
X0315553Y0405569
X0391534Y0378653
X0384588Y0371459
X0391781Y0364512
X0384835Y0357319
X0377888Y0350126
X0370695Y0357072
X0377641Y0364266
X0370941Y0342932
X0363748Y0349879
X0343232Y0314891
X0398728Y0371706
X0469109Y0334429
X047862Y0331339
X0492151Y0327839
X0501968Y0325931
X0549133Y0332446
X0559078Y0333491
X0576357Y0330955
X058606Y0333374
T03
X064697Y0286163
X0655309Y0291682
X0663648Y0297202
X0671987Y0302721
X0680326Y030824
X0502503Y0277462
X0509236Y0258964
X0450267Y0325015
X0450439Y0344699
X0619374Y0327857
X0627712Y0333377
X0636051Y0338896
X064439Y0344415
X0652729Y0349935
X0661068Y0355454
X0669407Y0360973
X0677745Y0366493
X0688664Y031376
X0697003Y0319279
X0705342Y0324798
T04
X0521705Y0259697
Y0277414
Y0294737
Y0312453
X0547295
Y0294737
Y0277414
Y0259697
X0374774Y0392448
M30
