%FSLAX25Y25*%
%MOIN*%
G70*
G01*
G75*
G04 Layer_Physical_Order=1*
G04 Layer_Color=255*
G04:AMPARAMS|DCode=10|XSize=37.4mil|YSize=29.53mil|CornerRadius=0mil|HoleSize=0mil|Usage=FLASHONLY|Rotation=93.284|XOffset=0mil|YOffset=0mil|HoleType=Round|Shape=Rectangle|*
%AMROTATEDRECTD10*
4,1,4,0.01581,-0.01782,-0.01367,-0.01952,-0.01581,0.01782,0.01367,0.01952,0.01581,-0.01782,0.0*
%
%ADD10ROTATEDRECTD10*%

G04:AMPARAMS|DCode=11|XSize=59.06mil|YSize=118.11mil|CornerRadius=0mil|HoleSize=0mil|Usage=FLASHONLY|Rotation=325.000|XOffset=0mil|YOffset=0mil|HoleType=Round|Shape=Rectangle|*
%AMROTATEDRECTD11*
4,1,4,-0.05806,-0.03144,0.00969,0.06531,0.05806,0.03144,-0.00969,-0.06531,-0.05806,-0.03144,0.0*
%
%ADD11ROTATEDRECTD11*%

G04:AMPARAMS|DCode=12|XSize=37.4mil|YSize=29.53mil|CornerRadius=0mil|HoleSize=0mil|Usage=FLASHONLY|Rotation=214.500|XOffset=0mil|YOffset=0mil|HoleType=Round|Shape=Rectangle|*
%AMROTATEDRECTD12*
4,1,4,0.00705,0.02276,0.02377,-0.00158,-0.00705,-0.02276,-0.02377,0.00158,0.00705,0.02276,0.0*
%
%ADD12ROTATEDRECTD12*%

G04:AMPARAMS|DCode=13|XSize=37.4mil|YSize=29.53mil|CornerRadius=0mil|HoleSize=0mil|Usage=FLASHONLY|Rotation=212.500|XOffset=0mil|YOffset=0mil|HoleType=Round|Shape=Rectangle|*
%AMROTATEDRECTD13*
4,1,4,0.00784,0.02250,0.02371,-0.00240,-0.00784,-0.02250,-0.02371,0.00240,0.00784,0.02250,0.0*
%
%ADD13ROTATEDRECTD13*%

G04:AMPARAMS|DCode=14|XSize=37.4mil|YSize=29.53mil|CornerRadius=0mil|HoleSize=0mil|Usage=FLASHONLY|Rotation=120.243|XOffset=0mil|YOffset=0mil|HoleType=Round|Shape=Rectangle|*
%AMROTATEDRECTD14*
4,1,4,0.02217,-0.00872,-0.00334,-0.02359,-0.02217,0.00872,0.00334,0.02359,0.02217,-0.00872,0.0*
%
%ADD14ROTATEDRECTD14*%

G04:AMPARAMS|DCode=15|XSize=37.4mil|YSize=29.53mil|CornerRadius=0mil|HoleSize=0mil|Usage=FLASHONLY|Rotation=210.500|XOffset=0mil|YOffset=0mil|HoleType=Round|Shape=Rectangle|*
%AMROTATEDRECTD15*
4,1,4,0.00862,0.02221,0.02361,-0.00323,-0.00862,-0.02221,-0.02361,0.00323,0.00862,0.02221,0.0*
%
%ADD15ROTATEDRECTD15*%

G04:AMPARAMS|DCode=16|XSize=37.4mil|YSize=29.53mil|CornerRadius=0mil|HoleSize=0mil|Usage=FLASHONLY|Rotation=213.500|XOffset=0mil|YOffset=0mil|HoleType=Round|Shape=Rectangle|*
%AMROTATEDRECTD16*
4,1,4,0.00745,0.02263,0.02374,-0.00199,-0.00745,-0.02263,-0.02374,0.00199,0.00745,0.02263,0.0*
%
%ADD16ROTATEDRECTD16*%

G04:AMPARAMS|DCode=17|XSize=37.4mil|YSize=29.53mil|CornerRadius=0mil|HoleSize=0mil|Usage=FLASHONLY|Rotation=130.000|XOffset=0mil|YOffset=0mil|HoleType=Round|Shape=Rectangle|*
%AMROTATEDRECTD17*
4,1,4,0.02333,-0.00484,0.00071,-0.02382,-0.02333,0.00484,-0.00071,0.02382,0.02333,-0.00484,0.0*
%
%ADD17ROTATEDRECTD17*%

G04:AMPARAMS|DCode=18|XSize=37.4mil|YSize=29.53mil|CornerRadius=0mil|HoleSize=0mil|Usage=FLASHONLY|Rotation=216.500|XOffset=0mil|YOffset=0mil|HoleType=Round|Shape=Rectangle|*
%AMROTATEDRECTD18*
4,1,4,0.00625,0.02299,0.02382,-0.00074,-0.00625,-0.02299,-0.02382,0.00074,0.00625,0.02299,0.0*
%
%ADD18ROTATEDRECTD18*%

G04:AMPARAMS|DCode=19|XSize=37.4mil|YSize=29.53mil|CornerRadius=0mil|HoleSize=0mil|Usage=FLASHONLY|Rotation=219.500|XOffset=0mil|YOffset=0mil|HoleType=Round|Shape=Rectangle|*
%AMROTATEDRECTD19*
4,1,4,0.00504,0.02329,0.02382,0.00050,-0.00504,-0.02329,-0.02382,-0.00050,0.00504,0.02329,0.0*
%
%ADD19ROTATEDRECTD19*%

G04:AMPARAMS|DCode=20|XSize=37.4mil|YSize=29.53mil|CornerRadius=0mil|HoleSize=0mil|Usage=FLASHONLY|Rotation=222.500|XOffset=0mil|YOffset=0mil|HoleType=Round|Shape=Rectangle|*
%AMROTATEDRECTD20*
4,1,4,0.00381,0.02352,0.02376,0.00175,-0.00381,-0.02352,-0.02376,-0.00175,0.00381,0.02352,0.0*
%
%ADD20ROTATEDRECTD20*%

G04:AMPARAMS|DCode=21|XSize=37.4mil|YSize=29.53mil|CornerRadius=0mil|HoleSize=0mil|Usage=FLASHONLY|Rotation=45.000|XOffset=0mil|YOffset=0mil|HoleType=Round|Shape=Rectangle|*
%AMROTATEDRECTD21*
4,1,4,-0.00278,-0.02366,-0.02366,-0.00278,0.00278,0.02366,0.02366,0.00278,-0.00278,-0.02366,0.0*
%
%ADD21ROTATEDRECTD21*%

G04:AMPARAMS|DCode=22|XSize=37.4mil|YSize=29.53mil|CornerRadius=0mil|HoleSize=0mil|Usage=FLASHONLY|Rotation=259.000|XOffset=0mil|YOffset=0mil|HoleType=Round|Shape=Rectangle|*
%AMROTATEDRECTD22*
4,1,4,-0.01092,0.02117,0.01806,0.01554,0.01092,-0.02117,-0.01806,-0.01554,-0.01092,0.02117,0.0*
%
%ADD22ROTATEDRECTD22*%

G04:AMPARAMS|DCode=23|XSize=37.4mil|YSize=29.53mil|CornerRadius=0mil|HoleSize=0mil|Usage=FLASHONLY|Rotation=262.500|XOffset=0mil|YOffset=0mil|HoleType=Round|Shape=Rectangle|*
%AMROTATEDRECTD23*
4,1,4,-0.01220,0.02047,0.01708,0.01661,0.01220,-0.02047,-0.01708,-0.01661,-0.01220,0.02047,0.0*
%
%ADD23ROTATEDRECTD23*%

G04:AMPARAMS|DCode=24|XSize=37.4mil|YSize=29.53mil|CornerRadius=0mil|HoleSize=0mil|Usage=FLASHONLY|Rotation=358.956|XOffset=0mil|YOffset=0mil|HoleType=Round|Shape=Rectangle|*
%AMROTATEDRECTD24*
4,1,4,-0.01897,-0.01442,-0.01843,0.01510,0.01897,0.01442,0.01843,-0.01510,-0.01897,-0.01442,0.0*
%
%ADD24ROTATEDRECTD24*%

G04:AMPARAMS|DCode=25|XSize=37.4mil|YSize=29.53mil|CornerRadius=0mil|HoleSize=0mil|Usage=FLASHONLY|Rotation=199.000|XOffset=0mil|YOffset=0mil|HoleType=Round|Shape=Rectangle|*
%AMROTATEDRECTD25*
4,1,4,0.01288,0.02005,0.02249,-0.00787,-0.01288,-0.02005,-0.02249,0.00787,0.01288,0.02005,0.0*
%
%ADD25ROTATEDRECTD25*%

G04:AMPARAMS|DCode=26|XSize=37.4mil|YSize=29.53mil|CornerRadius=0mil|HoleSize=0mil|Usage=FLASHONLY|Rotation=182.681|XOffset=0mil|YOffset=0mil|HoleType=Round|Shape=Rectangle|*
%AMROTATEDRECTD26*
4,1,4,0.01799,0.01562,0.01937,-0.01387,-0.01799,-0.01562,-0.01937,0.01387,0.01799,0.01562,0.0*
%
%ADD26ROTATEDRECTD26*%

G04:AMPARAMS|DCode=27|XSize=37.4mil|YSize=29.53mil|CornerRadius=0mil|HoleSize=0mil|Usage=FLASHONLY|Rotation=95.500|XOffset=0mil|YOffset=0mil|HoleType=Round|Shape=Rectangle|*
%AMROTATEDRECTD27*
4,1,4,0.01649,-0.01720,-0.01290,-0.02003,-0.01649,0.01720,0.01290,0.02003,0.01649,-0.01720,0.0*
%
%ADD27ROTATEDRECTD27*%

G04:AMPARAMS|DCode=28|XSize=37.4mil|YSize=29.53mil|CornerRadius=0mil|HoleSize=0mil|Usage=FLASHONLY|Rotation=77.000|XOffset=0mil|YOffset=0mil|HoleType=Round|Shape=Rectangle|*
%AMROTATEDRECTD28*
4,1,4,0.01018,-0.02154,-0.01859,-0.01490,-0.01018,0.02154,0.01859,0.01490,0.01018,-0.02154,0.0*
%
%ADD28ROTATEDRECTD28*%

%ADD29R,0.05709X0.01181*%
%ADD30R,0.01181X0.05709*%
G04:AMPARAMS|DCode=31|XSize=37.4mil|YSize=29.53mil|CornerRadius=0mil|HoleSize=0mil|Usage=FLASHONLY|Rotation=96.500|XOffset=0mil|YOffset=0mil|HoleType=Round|Shape=Rectangle|*
%AMROTATEDRECTD31*
4,1,4,0.01679,-0.01691,-0.01255,-0.02025,-0.01679,0.01691,0.01255,0.02025,0.01679,-0.01691,0.0*
%
%ADD31ROTATEDRECTD31*%

G04:AMPARAMS|DCode=32|XSize=37.4mil|YSize=29.53mil|CornerRadius=0mil|HoleSize=0mil|Usage=FLASHONLY|Rotation=272.280|XOffset=0mil|YOffset=0mil|HoleType=Round|Shape=Rectangle|*
%AMROTATEDRECTD32*
4,1,4,-0.01550,0.01810,0.01401,0.01927,0.01550,-0.01810,-0.01401,-0.01927,-0.01550,0.01810,0.0*
%
%ADD32ROTATEDRECTD32*%

G04:AMPARAMS|DCode=33|XSize=37.4mil|YSize=29.53mil|CornerRadius=0mil|HoleSize=0mil|Usage=FLASHONLY|Rotation=84.948|XOffset=0mil|YOffset=0mil|HoleType=Round|Shape=Rectangle|*
%AMROTATEDRECTD33*
4,1,4,0.01306,-0.01993,-0.01635,-0.01733,-0.01306,0.01993,0.01635,0.01733,0.01306,-0.01993,0.0*
%
%ADD33ROTATEDRECTD33*%

G04:AMPARAMS|DCode=34|XSize=66.93mil|YSize=78.74mil|CornerRadius=0mil|HoleSize=0mil|Usage=FLASHONLY|Rotation=162.000|XOffset=0mil|YOffset=0mil|HoleType=Round|Shape=Rectangle|*
%AMROTATEDRECTD34*
4,1,4,0.04399,0.02710,0.01966,-0.04778,-0.04399,-0.02710,-0.01966,0.04778,0.04399,0.02710,0.0*
%
%ADD34ROTATEDRECTD34*%

G04:AMPARAMS|DCode=35|XSize=37.4mil|YSize=29.53mil|CornerRadius=0mil|HoleSize=0mil|Usage=FLASHONLY|Rotation=77.000|XOffset=0mil|YOffset=0mil|HoleType=Round|Shape=Rectangle|*
%AMROTATEDRECTD35*
4,1,4,0.01018,-0.02154,-0.01859,-0.01490,-0.01018,0.02154,0.01859,0.01490,0.01018,-0.02154,0.0*
%
%ADD35ROTATEDRECTD35*%

G04:AMPARAMS|DCode=36|XSize=37.4mil|YSize=29.53mil|CornerRadius=0mil|HoleSize=0mil|Usage=FLASHONLY|Rotation=352.500|XOffset=0mil|YOffset=0mil|HoleType=Round|Shape=Rectangle|*
%AMROTATEDRECTD36*
4,1,4,-0.02047,-0.01220,-0.01661,0.01708,0.02047,0.01220,0.01661,-0.01708,-0.02047,-0.01220,0.0*
%
%ADD36ROTATEDRECTD36*%

%ADD37P,0.12806X4X213.0*%
G04:AMPARAMS|DCode=38|XSize=37.4mil|YSize=29.53mil|CornerRadius=0mil|HoleSize=0mil|Usage=FLASHONLY|Rotation=96.500|XOffset=0mil|YOffset=0mil|HoleType=Round|Shape=Rectangle|*
%AMROTATEDRECTD38*
4,1,4,0.01679,-0.01691,-0.01255,-0.02025,-0.01679,0.01691,0.01255,0.02025,0.01679,-0.01691,0.0*
%
%ADD38ROTATEDRECTD38*%

G04:AMPARAMS|DCode=39|XSize=37.4mil|YSize=29.53mil|CornerRadius=0mil|HoleSize=0mil|Usage=FLASHONLY|Rotation=74.487|XOffset=0mil|YOffset=0mil|HoleType=Round|Shape=Rectangle|*
%AMROTATEDRECTD39*
4,1,4,0.00922,-0.02197,-0.01923,-0.01407,-0.00922,0.02197,0.01923,0.01407,0.00922,-0.02197,0.0*
%
%ADD39ROTATEDRECTD39*%

G04:AMPARAMS|DCode=40|XSize=59.06mil|YSize=118.11mil|CornerRadius=0mil|HoleSize=0mil|Usage=FLASHONLY|Rotation=33.000|XOffset=0mil|YOffset=0mil|HoleType=Round|Shape=Rectangle|*
%AMROTATEDRECTD40*
4,1,4,0.00740,-0.06561,-0.05693,0.03345,-0.00740,0.06561,0.05693,-0.03345,0.00740,-0.06561,0.0*
%
%ADD40ROTATEDRECTD40*%

G04:AMPARAMS|DCode=41|XSize=37.4mil|YSize=29.53mil|CornerRadius=0mil|HoleSize=0mil|Usage=FLASHONLY|Rotation=215.500|XOffset=0mil|YOffset=0mil|HoleType=Round|Shape=Rectangle|*
%AMROTATEDRECTD41*
4,1,4,0.00665,0.02288,0.02380,-0.00116,-0.00665,-0.02288,-0.02380,0.00116,0.00665,0.02288,0.0*
%
%ADD41ROTATEDRECTD41*%

G04:AMPARAMS|DCode=42|XSize=23.62mil|YSize=57.09mil|CornerRadius=0mil|HoleSize=0mil|Usage=FLASHONLY|Rotation=349.000|XOffset=0mil|YOffset=0mil|HoleType=Round|Shape=Rectangle|*
%AMROTATEDRECTD42*
4,1,4,-0.01704,-0.02577,-0.00615,0.03027,0.01704,0.02577,0.00615,-0.03027,-0.01704,-0.02577,0.0*
%
%ADD42ROTATEDRECTD42*%

G04:AMPARAMS|DCode=43|XSize=108.27mil|YSize=122.05mil|CornerRadius=0mil|HoleSize=0mil|Usage=FLASHONLY|Rotation=259.000|XOffset=0mil|YOffset=0mil|HoleType=Round|Shape=Rectangle|*
%AMROTATEDRECTD43*
4,1,4,-0.04957,0.06478,0.07023,0.04150,0.04957,-0.06478,-0.07023,-0.04150,-0.04957,0.06478,0.0*
%
%ADD43ROTATEDRECTD43*%

G04:AMPARAMS|DCode=44|XSize=37.4mil|YSize=29.53mil|CornerRadius=0mil|HoleSize=0mil|Usage=FLASHONLY|Rotation=100.500|XOffset=0mil|YOffset=0mil|HoleType=Round|Shape=Rectangle|*
%AMROTATEDRECTD44*
4,1,4,0.01792,-0.01570,-0.01111,-0.02108,-0.01792,0.01570,0.01111,0.02108,0.01792,-0.01570,0.0*
%
%ADD44ROTATEDRECTD44*%

%ADD45C,0.03000*%
%ADD46C,0.01000*%
%ADD47C,0.05000*%
%ADD48P,0.07517X4X134.5*%
%ADD49C,0.05315*%
G04:AMPARAMS|DCode=50|XSize=39.37mil|YSize=78.74mil|CornerRadius=0mil|HoleSize=0mil|Usage=FLASHONLY|Rotation=320.000|XOffset=0mil|YOffset=0mil|HoleType=Round|Shape=Round|*
%AMOVALD50*
21,1,0.03937,0.03937,0.00000,0.00000,50.0*
1,1,0.03937,-0.01265,-0.01508*
1,1,0.03937,0.01265,0.01508*
%
%ADD50OVALD50*%

G04:AMPARAMS|DCode=51|XSize=39.37mil|YSize=78.74mil|CornerRadius=0mil|HoleSize=0mil|Usage=FLASHONLY|Rotation=46.000|XOffset=0mil|YOffset=0mil|HoleType=Round|Shape=Round|*
%AMOVALD51*
21,1,0.03937,0.03937,0.00000,0.00000,136.0*
1,1,0.03937,0.01416,-0.01367*
1,1,0.03937,-0.01416,0.01367*
%
%ADD51OVALD51*%

G04:AMPARAMS|DCode=52|XSize=39.37mil|YSize=78.74mil|CornerRadius=0mil|HoleSize=0mil|Usage=FLASHONLY|Rotation=40.500|XOffset=0mil|YOffset=0mil|HoleType=Round|Shape=Round|*
%AMOVALD52*
21,1,0.03937,0.03937,0.00000,0.00000,130.5*
1,1,0.03937,0.01278,-0.01497*
1,1,0.03937,-0.01278,0.01497*
%
%ADD52OVALD52*%

G04:AMPARAMS|DCode=53|XSize=39.37mil|YSize=78.74mil|CornerRadius=0mil|HoleSize=0mil|Usage=FLASHONLY|Rotation=342.000|XOffset=0mil|YOffset=0mil|HoleType=Round|Shape=Round|*
%AMOVALD53*
21,1,0.03937,0.03937,0.00000,0.00000,72.0*
1,1,0.03937,-0.00608,-0.01872*
1,1,0.03937,0.00608,0.01872*
%
%ADD53OVALD53*%

G04:AMPARAMS|DCode=54|XSize=39.37mil|YSize=78.74mil|CornerRadius=0mil|HoleSize=0mil|Usage=FLASHONLY|Rotation=14.000|XOffset=0mil|YOffset=0mil|HoleType=Round|Shape=Round|*
%AMOVALD54*
21,1,0.03937,0.03937,0.00000,0.00000,104.0*
1,1,0.03937,0.00476,-0.01910*
1,1,0.03937,-0.00476,0.01910*
%
%ADD54OVALD54*%

G04:AMPARAMS|DCode=55|XSize=39.37mil|YSize=78.74mil|CornerRadius=0mil|HoleSize=0mil|Usage=FLASHONLY|Rotation=6.000|XOffset=0mil|YOffset=0mil|HoleType=Round|Shape=Round|*
%AMOVALD55*
21,1,0.03937,0.03937,0.00000,0.00000,96.0*
1,1,0.03937,0.00206,-0.01958*
1,1,0.03937,-0.00206,0.01958*
%
%ADD55OVALD55*%

%ADD56O,0.09843X0.05906*%
%ADD57O,0.03937X0.07874*%
%ADD58P,0.07517X4X335.0*%
G04:AMPARAMS|DCode=59|XSize=39.37mil|YSize=78.74mil|CornerRadius=0mil|HoleSize=0mil|Usage=FLASHONLY|Rotation=349.000|XOffset=0mil|YOffset=0mil|HoleType=Round|Shape=Round|*
%AMOVALD59*
21,1,0.03937,0.03937,0.00000,0.00000,79.0*
1,1,0.03937,-0.00376,-0.01932*
1,1,0.03937,0.00376,0.01932*
%
%ADD59OVALD59*%

G04:AMPARAMS|DCode=60|XSize=59.06mil|YSize=118.11mil|CornerRadius=0mil|HoleSize=0mil|Usage=FLASHONLY|Rotation=33.500|XOffset=0mil|YOffset=0mil|HoleType=Round|Shape=Round|*
%AMOVALD60*
21,1,0.05906,0.05906,0.00000,0.00000,123.5*
1,1,0.05906,0.01630,-0.02462*
1,1,0.05906,-0.01630,0.02462*
%
%ADD60OVALD60*%

G04:AMPARAMS|DCode=61|XSize=39.37mil|YSize=78.74mil|CornerRadius=0mil|HoleSize=0mil|Usage=FLASHONLY|Rotation=182.000|XOffset=0mil|YOffset=0mil|HoleType=Round|Shape=Round|*
%AMOVALD61*
21,1,0.03937,0.03937,0.00000,0.00000,272.0*
1,1,0.03937,-0.00069,0.01967*
1,1,0.03937,0.00069,-0.01967*
%
%ADD61OVALD61*%

%ADD62C,0.02362*%
%ADD63C,0.03150*%
%ADD64C,0.04331*%
G36*
X529909Y301181D02*
X529230Y300502D01*
X517548D01*
X517045Y300402D01*
X516620Y300117D01*
X513596Y297094D01*
X513312Y296668D01*
X513212Y296166D01*
Y283074D01*
X507131Y276994D01*
X506707Y277277D01*
X506939Y277837D01*
X507052Y278695D01*
Y285828D01*
X506949Y286609D01*
X508957Y288616D01*
X509241Y289042D01*
X509341Y289544D01*
Y294024D01*
X516961Y301643D01*
X529717D01*
X529909Y301181D01*
D02*
G37*
G36*
X408402Y309329D02*
Y306402D01*
X406533Y304532D01*
X406249Y304106D01*
X406148Y303604D01*
Y299843D01*
X404024D01*
Y299843D01*
X402843D01*
Y299843D01*
X400875D01*
Y299843D01*
X398119D01*
Y292560D01*
X398184D01*
Y287748D01*
X397722Y287557D01*
X392685Y292593D01*
X392863Y293061D01*
X394296Y293143D01*
X394183Y295116D01*
X394293Y295666D01*
X394109Y296588D01*
X394098Y296605D01*
X393992Y298449D01*
X393560Y298424D01*
X393197Y298768D01*
Y299660D01*
X394168Y300631D01*
X397331D01*
Y302386D01*
X397544D01*
Y302477D01*
X397331D01*
Y303387D01*
X393689D01*
Y304568D01*
X397331D01*
Y305477D01*
X397544D01*
Y305568D01*
X397331D01*
Y307324D01*
X397331D01*
Y308505D01*
X397331D01*
Y308570D01*
X401964D01*
X402200Y308129D01*
X401980Y307799D01*
X401796Y306877D01*
X401980Y305956D01*
X402502Y305174D01*
X403283Y304652D01*
X404205Y304469D01*
X405126Y304652D01*
X405908Y305174D01*
X406430Y305956D01*
X406613Y306877D01*
X406430Y307799D01*
X405908Y308580D01*
X405871Y308605D01*
X405879Y308715D01*
X406402Y309111D01*
X406500Y309091D01*
X407422Y309275D01*
X407902Y309596D01*
X408402Y309329D01*
D02*
G37*
G36*
X488288Y286976D02*
X482352Y281040D01*
X481625D01*
Y283721D01*
X486184Y288280D01*
X487165Y288687D01*
X488288Y288687D01*
Y286976D01*
D02*
G37*
G36*
X420486Y340787D02*
Y339480D01*
Y338806D01*
X420329Y337033D01*
X420486Y337019D01*
Y333800D01*
X420546Y333498D01*
X420205Y333111D01*
X418591D01*
Y333111D01*
X415835D01*
Y333111D01*
X414272D01*
X414121Y333611D01*
X414430Y333817D01*
X414952Y334598D01*
X415135Y335520D01*
X414952Y336442D01*
X414703Y336815D01*
X414985Y337292D01*
X415299Y337264D01*
Y340316D01*
X418299D01*
Y339880D01*
X418626Y339851D01*
X418373Y336992D01*
X419346Y336906D01*
X419698Y340884D01*
X420155Y341060D01*
X420486Y340787D01*
D02*
G37*
G36*
X327343Y366428D02*
X333616Y370502D01*
X332827Y371717D01*
X333215Y372032D01*
X340889Y364359D01*
Y318745D01*
X340988Y318243D01*
X341273Y317817D01*
X341358Y317760D01*
X341464Y317108D01*
X339910Y315257D01*
X339595Y315318D01*
X339410Y315431D01*
Y338954D01*
X339310Y339456D01*
X339026Y339882D01*
X321167Y357741D01*
Y375058D01*
X321646Y375200D01*
X327343Y366428D01*
D02*
G37*
G36*
X355582Y355865D02*
Y349636D01*
X355760Y348744D01*
X356265Y347987D01*
X361807Y342445D01*
X362385Y342059D01*
X362389Y342040D01*
X362740Y341514D01*
Y338029D01*
X355763Y331052D01*
X347404D01*
X347021Y331128D01*
X346099Y330945D01*
X345318Y330423D01*
X344796Y329642D01*
X344612Y328720D01*
X344796Y327798D01*
X345318Y327017D01*
X346099Y326495D01*
X347021Y326311D01*
X347404Y326388D01*
X356729D01*
X357622Y326565D01*
X358378Y327071D01*
X366721Y335414D01*
X369491Y338183D01*
X370683Y339376D01*
X371010Y339134D01*
X371685Y338868D01*
X372406Y338786D01*
X373124Y338893D01*
X373789Y339182D01*
X374357Y339634D01*
X374789Y340217D01*
X374939Y340600D01*
X399947D01*
X401534Y339014D01*
X401600Y337344D01*
X402083Y337363D01*
X402444Y337016D01*
Y334971D01*
X402405Y334924D01*
X401442D01*
X400620Y335745D01*
X400712Y336206D01*
X400529Y337127D01*
X400007Y337909D01*
X399225Y338431D01*
X398304Y338614D01*
X397382Y338431D01*
X396601Y337909D01*
X396078Y337127D01*
X395895Y336206D01*
X396078Y335284D01*
X396601Y334503D01*
X397382Y333980D01*
X398304Y333797D01*
X398737Y333883D01*
X399055Y333542D01*
X398876Y333111D01*
X398119D01*
Y325828D01*
X400875D01*
Y325828D01*
X402056D01*
Y325827D01*
X402117D01*
X402130Y325760D01*
X402415Y325335D01*
X402596Y325153D01*
X403022Y324869D01*
X403524Y324769D01*
X404026Y324869D01*
X404452Y325153D01*
X404737Y325579D01*
X404786Y325827D01*
X404812D01*
Y325828D01*
X405780D01*
Y325615D01*
X405871D01*
Y325827D01*
X406780D01*
Y329469D01*
X407961D01*
Y325827D01*
X408871D01*
Y325615D01*
X408961D01*
Y325827D01*
X411898D01*
Y325827D01*
X414654D01*
Y325827D01*
X416623D01*
Y325828D01*
X417804D01*
Y325828D01*
X419772D01*
Y325827D01*
X422528D01*
Y330139D01*
X422990Y330330D01*
X427818Y325502D01*
X427627Y325040D01*
X423315D01*
Y323284D01*
X423103D01*
Y323194D01*
X423315D01*
Y322284D01*
X426957D01*
Y321103D01*
X423315D01*
Y320194D01*
X423103D01*
Y320103D01*
X423315D01*
Y318347D01*
X423315D01*
Y316379D01*
X423315D01*
Y315197D01*
X423315D01*
Y314038D01*
X422815Y313830D01*
X417255Y319391D01*
X417538Y319815D01*
X417654Y319767D01*
X418326Y319678D01*
X418998Y319767D01*
X419624Y320026D01*
X420162Y320439D01*
X420420Y320776D01*
X418326D01*
Y322275D01*
X416826D01*
Y324370D01*
X416490Y324112D01*
X416077Y323574D01*
X415817Y322948D01*
X415729Y322275D01*
X415817Y321603D01*
X415865Y321488D01*
X415441Y321205D01*
X414175Y322471D01*
X413749Y322756D01*
X413247Y322855D01*
X412413D01*
X412152Y323246D01*
X411371Y323768D01*
X410449Y323951D01*
X409527Y323768D01*
X408746Y323246D01*
X408224Y322465D01*
X408041Y321543D01*
X408224Y320621D01*
X408746Y319840D01*
X409527Y319318D01*
X410449Y319134D01*
X411371Y319318D01*
X412152Y319840D01*
X412283Y320036D01*
X412854Y320079D01*
X420774Y312160D01*
Y311623D01*
X420273Y311453D01*
X420211Y311534D01*
X419875Y311792D01*
Y309698D01*
Y307604D01*
X420211Y307862D01*
X420273Y307943D01*
X420774Y307773D01*
Y303539D01*
X420873Y303037D01*
X421158Y302611D01*
X422689Y301080D01*
X423114Y300796D01*
X423315Y300756D01*
Y300631D01*
X430599D01*
Y302599D01*
X430599D01*
Y304568D01*
X430599D01*
Y304633D01*
X432336D01*
X433253Y303716D01*
Y289406D01*
X433353Y288904D01*
X433451Y288758D01*
X433183Y288258D01*
X429375D01*
X429367Y288431D01*
X426500Y288296D01*
X426430Y289795D01*
X424931Y289725D01*
X424815Y292198D01*
X423447Y292134D01*
X423611Y288619D01*
X423266Y288258D01*
X421748D01*
X418120Y291885D01*
X418312Y292347D01*
X420772D01*
Y292560D01*
X422528D01*
Y294184D01*
X423564D01*
X423614Y293111D01*
X428923Y293360D01*
X428711Y297883D01*
X427518Y297827D01*
X426922Y298225D01*
X426000Y298409D01*
X425078Y298225D01*
X424297Y297703D01*
X424278Y297675D01*
X423402Y297634D01*
X423424Y297171D01*
X423079Y296810D01*
X422528D01*
Y299843D01*
X420772D01*
Y300056D01*
X418435D01*
Y301408D01*
X418335Y301910D01*
X418051Y302336D01*
X415150Y305237D01*
Y315392D01*
X415050Y315894D01*
X414765Y316320D01*
X414073Y317013D01*
X414062Y317066D01*
X413540Y317848D01*
X412758Y318370D01*
X411837Y318553D01*
X410915Y318370D01*
X410134Y317848D01*
X409637Y317105D01*
X409277Y317008D01*
X409093Y317020D01*
X408957Y317223D01*
X407279Y318901D01*
X406854Y319185D01*
X406351Y319285D01*
X405951D01*
X405690Y319676D01*
X404909Y320198D01*
X403987Y320381D01*
X403065Y320198D01*
X402284Y319676D01*
X401762Y318894D01*
X401578Y317972D01*
X401762Y317051D01*
X402284Y316269D01*
X403065Y315747D01*
X403987Y315564D01*
X404909Y315747D01*
X405690Y316269D01*
X406152Y316315D01*
X406718Y315750D01*
X406817Y315252D01*
X407101Y314826D01*
X407961Y313966D01*
X407643Y313578D01*
X407422Y313725D01*
X406500Y313909D01*
X405578Y313725D01*
X404830Y313225D01*
X397331D01*
Y314410D01*
X397331D01*
Y317166D01*
X397331D01*
Y319135D01*
X397331D01*
Y320316D01*
X397331D01*
Y323072D01*
X397331D01*
Y325040D01*
X390048D01*
Y323006D01*
X378962D01*
X378727Y323447D01*
X378801Y323558D01*
X378984Y324480D01*
X378801Y325401D01*
X378279Y326183D01*
X377497Y326705D01*
X376576Y326888D01*
X375654Y326705D01*
X374872Y326183D01*
X374350Y325401D01*
X374167Y324480D01*
X374350Y323558D01*
X374872Y322777D01*
X375263Y322516D01*
Y322421D01*
X375363Y321919D01*
X375618Y321538D01*
X375550Y321258D01*
X375459Y321038D01*
X362154D01*
X361652Y320938D01*
X361226Y320653D01*
X353128Y312555D01*
X352640Y312709D01*
X351915Y312740D01*
X351207Y312583D01*
X350563Y312248D01*
X350028Y311758D01*
X350004Y311729D01*
X349504Y311707D01*
X348397Y312815D01*
Y313315D01*
X348472Y313390D01*
X348757Y313816D01*
X348856Y314319D01*
Y314367D01*
X349119Y314761D01*
X349219Y315263D01*
Y317811D01*
X349119Y318314D01*
X348835Y318740D01*
X346837Y320737D01*
X346412Y321022D01*
X345909Y321122D01*
X343514D01*
Y364903D01*
X343414Y365405D01*
X343129Y365831D01*
X336833Y372127D01*
X336885Y372625D01*
X338060Y373387D01*
X355582Y355865D01*
D02*
G37*
G36*
X353855Y399046D02*
X360889Y388213D01*
X363444Y389872D01*
X369608Y383708D01*
X370034Y383424D01*
X370536Y383324D01*
X409278D01*
X444523Y348078D01*
X444949Y347793D01*
X445452Y347693D01*
X447557D01*
X447747Y347193D01*
X447261Y346571D01*
X447115Y346228D01*
X450452Y346199D01*
X453790Y346170D01*
X453650Y346516D01*
X453139Y347193D01*
X453287Y347693D01*
X477446D01*
X477553Y347537D01*
X477638Y347193D01*
X474522Y344077D01*
X474237Y343651D01*
X474137Y343148D01*
Y338616D01*
X474237Y338114D01*
X474522Y337688D01*
X477168Y335042D01*
X476897Y334725D01*
X476585Y334070D01*
X475368Y330325D01*
X475236Y329612D01*
X475293Y328888D01*
X475535Y328204D01*
X475946Y327606D01*
X476498Y327135D01*
X477153Y326823D01*
X477866Y326691D01*
X478590Y326747D01*
X479274Y326990D01*
X479872Y327401D01*
X480343Y327952D01*
X480655Y328607D01*
X481872Y332352D01*
X481959Y332821D01*
X482215Y333078D01*
X482500Y333504D01*
X482600Y334006D01*
X482500Y334508D01*
X482215Y334934D01*
X481790Y335219D01*
X481287Y335319D01*
X481179D01*
X481072Y335453D01*
X481356Y335898D01*
X491980Y333314D01*
X491980Y333314D01*
X494318Y332745D01*
X494318Y332745D01*
X498812Y331652D01*
X498819Y331650D01*
X498923Y331602D01*
X498966Y331600D01*
X499008Y331586D01*
X499943Y331463D01*
X500048Y331469D01*
X500153Y331463D01*
X501181Y331598D01*
X501280Y331632D01*
X501383Y331652D01*
X502341Y332049D01*
X502428Y332107D01*
X502523Y332154D01*
X503345Y332785D01*
X503414Y332864D01*
X503493Y332933D01*
X504124Y333755D01*
X504171Y333850D01*
X504229Y333937D01*
X504626Y334895D01*
X504646Y334998D01*
X504680Y335097D01*
X504815Y336125D01*
X504808Y336230D01*
X504815Y336334D01*
X504769Y336682D01*
X505243Y336916D01*
X514453Y327706D01*
X514262Y327244D01*
X505542D01*
X505097Y327744D01*
X505116Y328057D01*
X504971Y328768D01*
X504648Y329418D01*
X504167Y329961D01*
X503562Y330362D01*
X502874Y330592D01*
X502149Y330636D01*
X501438Y330492D01*
X500789Y330168D01*
X500245Y329687D01*
X499845Y329082D01*
X499615Y328394D01*
X498863Y324529D01*
X498819Y323805D01*
X498964Y323094D01*
X499288Y322444D01*
X499768Y321901D01*
X500373Y321500D01*
X501062Y321270D01*
X501786Y321226D01*
X502497Y321370D01*
X503146Y321694D01*
X503690Y322175D01*
X504090Y322780D01*
X504321Y323468D01*
X504544Y324618D01*
X517560D01*
X517802Y324118D01*
X517645Y323884D01*
X517545Y323381D01*
Y322709D01*
X517155Y322448D01*
X516633Y321667D01*
X516449Y320745D01*
X516633Y319823D01*
X517155Y319042D01*
X517936Y318520D01*
X518858Y318336D01*
X519779Y318520D01*
X520561Y319042D01*
X521083Y319823D01*
X521266Y320745D01*
X521083Y321667D01*
X520561Y322448D01*
X520513Y322480D01*
X520454Y323121D01*
X521407Y324075D01*
X533187Y312295D01*
Y307288D01*
X530168Y304268D01*
X516417D01*
X515915Y304169D01*
X515489Y303884D01*
X507100Y295495D01*
X506816Y295070D01*
X506716Y294567D01*
Y294070D01*
X506340Y293741D01*
X506292Y293747D01*
X505969Y291292D01*
X502994Y291684D01*
X503318Y294139D01*
X501959Y294318D01*
X501418Y290202D01*
X499968D01*
X499650Y290588D01*
X499743Y291069D01*
X495879Y291821D01*
X495417Y289444D01*
X494961Y288763D01*
X494784Y287870D01*
X494856Y287508D01*
X494548Y287303D01*
X494370Y287124D01*
X493928Y287359D01*
X494835Y292023D01*
X490971Y292775D01*
X489581Y285625D01*
X489696Y285602D01*
X489842Y285124D01*
X485024Y280306D01*
X484586Y280548D01*
X485064Y282617D01*
X488318Y285870D01*
X488537Y285828D01*
X488601Y286153D01*
X488855Y286408D01*
X489029Y286669D01*
X489090Y286976D01*
Y288674D01*
X489927Y292977D01*
X486062Y293729D01*
X484992Y288224D01*
X484603Y287835D01*
X484141Y288026D01*
Y288726D01*
X484080Y289033D01*
X484070Y289049D01*
X485019Y293931D01*
X481154Y294683D01*
X480403Y290820D01*
X480205Y290396D01*
X479898Y290335D01*
X479638Y290161D01*
X479638Y290161D01*
X475794Y286317D01*
X475432Y286400D01*
X475298Y285821D01*
X475223Y285747D01*
X475049Y285486D01*
X474988Y285179D01*
Y284479D01*
X474236Y281221D01*
X476896Y280607D01*
X477034Y280127D01*
X475055Y278147D01*
X464014Y289188D01*
X465022Y292291D01*
X457159Y294846D01*
X454239Y285859D01*
X459757Y284067D01*
X468177Y275646D01*
X466702Y268706D01*
X476285Y266670D01*
X476427Y266190D01*
X474933Y264696D01*
X473431Y265043D01*
X472475Y260904D01*
X471918Y260714D01*
X471715Y260879D01*
Y262671D01*
X471695Y262774D01*
X472280Y265309D01*
X467868Y266327D01*
X466673Y261149D01*
X469090Y260591D01*
Y260117D01*
X469190Y259614D01*
X469474Y259189D01*
X472066Y256597D01*
X471874Y256135D01*
X469311D01*
X468808Y256035D01*
X468382Y255751D01*
X459306Y246675D01*
X452300D01*
X441571Y257404D01*
X441818Y257864D01*
X442020Y257824D01*
X442942Y258008D01*
X443723Y258530D01*
X444245Y259311D01*
X444428Y260233D01*
X444245Y261154D01*
X444216Y261198D01*
X444576Y261558D01*
X445207Y261137D01*
X446128Y260954D01*
X447050Y261137D01*
X447831Y261659D01*
X448353Y262441D01*
X448537Y263362D01*
X448353Y264284D01*
X447831Y265065D01*
X447441Y265326D01*
Y279834D01*
X447941Y280041D01*
X450459Y277523D01*
Y263924D01*
X450068Y263663D01*
X449546Y262882D01*
X449363Y261960D01*
X449546Y261039D01*
X450068Y260257D01*
X450850Y259735D01*
X451771Y259552D01*
X452693Y259735D01*
X453474Y260257D01*
X453997Y261039D01*
X454180Y261960D01*
X453997Y262882D01*
X453474Y263663D01*
X453084Y263924D01*
Y277143D01*
X453213Y277336D01*
X453313Y277838D01*
X453229Y278257D01*
X453213Y278341D01*
X452928Y278766D01*
X439453Y292242D01*
Y307413D01*
X439353Y307915D01*
X439069Y308341D01*
X436599Y310811D01*
X436173Y311095D01*
X435671Y311195D01*
X430599D01*
Y311261D01*
X430599D01*
Y312442D01*
Y314410D01*
X430599D01*
Y317166D01*
X430599D01*
Y319135D01*
X430599D01*
Y320103D01*
X430812D01*
Y322503D01*
X431222Y322839D01*
X431503Y322783D01*
X435593D01*
X435943Y322426D01*
X435940Y322267D01*
X437913Y322231D01*
X439227Y320917D01*
Y312552D01*
X439151Y312169D01*
X439334Y311247D01*
X439856Y310466D01*
X440638Y309944D01*
X441559Y309760D01*
X442481Y309944D01*
X443262Y310466D01*
X443784Y311247D01*
X443968Y312169D01*
X443891Y312552D01*
Y320917D01*
X446158Y323184D01*
X446730Y323147D01*
X446805Y323071D01*
X446793Y321600D01*
X453682Y321540D01*
X453689Y322368D01*
X454152Y322558D01*
X458323Y318387D01*
X459080Y317881D01*
X459972Y317704D01*
X464186D01*
X464423Y317203D01*
X461539Y308325D01*
X469402Y305770D01*
X472074Y313996D01*
X472217Y314435D01*
X472322Y314757D01*
X472787Y314726D01*
X473117Y314635D01*
X473885Y317400D01*
X476775Y316598D01*
X476008Y313832D01*
X476949Y313571D01*
X477784Y316583D01*
X478280Y316515D01*
Y315691D01*
X478377Y315200D01*
Y315098D01*
X477939Y313517D01*
X479068Y313204D01*
X479817Y312703D01*
X480422Y312583D01*
X482859Y310145D01*
X483616Y309640D01*
X484045Y309555D01*
X483859Y308595D01*
X487723Y307844D01*
X488185Y310221D01*
X488640Y310902D01*
X488818Y311795D01*
X488653Y312626D01*
X489113Y314994D01*
X485248Y315745D01*
X485123Y315102D01*
X484645Y314956D01*
X483685Y315916D01*
X483892Y316416D01*
X485920D01*
X486304Y316340D01*
X487225Y316523D01*
X488007Y317045D01*
X488529Y317826D01*
X488712Y318748D01*
X488529Y319670D01*
X488007Y320451D01*
X487225Y320973D01*
X486304Y321157D01*
X485920Y321080D01*
X482977D01*
X482261Y321796D01*
X480863Y323195D01*
X480106Y323700D01*
X479213Y323878D01*
X466647D01*
X465754Y323700D01*
X464997Y323195D01*
X464171Y322368D01*
X460938D01*
X455899Y327408D01*
X455142Y327913D01*
X454250Y328091D01*
X454078D01*
X453742Y328430D01*
Y328430D01*
X446853Y328490D01*
X446849Y328091D01*
X445434D01*
X444542Y327913D01*
X443785Y327408D01*
X441814Y325436D01*
X441318Y325647D01*
X441337Y326697D01*
X440020Y326721D01*
X439976Y326764D01*
X439321Y327203D01*
X439422Y327701D01*
X441567Y327662D01*
X441585Y328638D01*
X438715Y328690D01*
X435846Y328743D01*
X435831Y327947D01*
X435828Y327766D01*
X435539Y327518D01*
X435457Y327448D01*
X432469D01*
X425150Y334766D01*
Y339480D01*
Y340155D01*
X425307Y341928D01*
X425118Y341945D01*
X424973Y342673D01*
X424467Y343430D01*
X421027Y346870D01*
X420271Y347376D01*
X419378Y347553D01*
X407771D01*
X406878Y347376D01*
X406122Y346870D01*
X403974Y344723D01*
X403635Y344215D01*
X403028Y344116D01*
X402562Y344581D01*
X401806Y345087D01*
X400913Y345265D01*
X372528D01*
X371456Y346299D01*
X370873Y346731D01*
X370198Y346997D01*
X369477Y347079D01*
X368759Y346972D01*
X368094Y346682D01*
X367895Y346728D01*
X367781Y346894D01*
X367648Y347297D01*
X367861Y347839D01*
X367943Y348560D01*
X367836Y349278D01*
X367547Y349943D01*
X367095Y350511D01*
X364263Y353246D01*
X363680Y353678D01*
X363004Y353943D01*
X362283Y354026D01*
X361566Y353918D01*
X360900Y353629D01*
X360746Y353507D01*
X360246Y353748D01*
Y356831D01*
X360069Y357724D01*
X359563Y358480D01*
X341832Y376212D01*
X336534Y384370D01*
Y386879D01*
X337087Y387432D01*
X337584Y387379D01*
X344116Y377321D01*
X350390Y381395D01*
X343099Y392621D01*
X342700Y392362D01*
X342386Y392751D01*
X348473Y398838D01*
X352489D01*
X352991Y398938D01*
X353227Y399095D01*
X353855Y399046D01*
D02*
G37*
G36*
X418055Y280655D02*
X418480Y280370D01*
X418983Y280270D01*
X421644D01*
X423348Y278567D01*
X423342Y278552D01*
X423247Y277833D01*
Y273896D01*
X423342Y273176D01*
X423619Y272506D01*
X424061Y271930D01*
X424637Y271489D01*
X425307Y271211D01*
X426026Y271116D01*
X426746Y271211D01*
X427416Y271489D01*
X427992Y271930D01*
X428434Y272506D01*
X428711Y273176D01*
X428806Y273896D01*
Y277833D01*
X428711Y278552D01*
X428434Y279223D01*
X427992Y279798D01*
X427416Y280240D01*
X426746Y280518D01*
X426026Y280613D01*
X425307Y280518D01*
X425167Y280460D01*
X424032Y281596D01*
X424223Y282058D01*
X429681D01*
X433323Y278416D01*
X433247Y277833D01*
Y273896D01*
X433342Y273176D01*
X433619Y272506D01*
X434061Y271930D01*
X434637Y271489D01*
X435307Y271211D01*
X436026Y271116D01*
X436632Y271196D01*
X437132Y270901D01*
Y269929D01*
X436632Y269662D01*
X436236Y269927D01*
X435314Y270110D01*
X434392Y269927D01*
X433611Y269405D01*
X433350Y269014D01*
X421600D01*
X421577Y269019D01*
X415286D01*
X408299Y276006D01*
X408545Y276467D01*
X409174Y276342D01*
X410095Y276525D01*
X410877Y277047D01*
X411399Y277829D01*
X411582Y278750D01*
X411399Y279672D01*
X410877Y280453D01*
X410095Y280976D01*
X409639Y281066D01*
X409474Y281609D01*
X409821Y281956D01*
X410016Y281936D01*
X410797Y281414D01*
X411719Y281231D01*
X412640Y281414D01*
X413422Y281936D01*
X413944Y282718D01*
X414127Y283639D01*
X414069Y283934D01*
X414530Y284180D01*
X418055Y280655D01*
D02*
G37*
G36*
X669353Y355135D02*
X670284Y354814D01*
X671267Y354746D01*
X672233Y354934D01*
X673118Y355365D01*
X673140Y355384D01*
X676785Y351739D01*
X676528Y351288D01*
X673998Y349202D01*
X672968D01*
X668429Y353742D01*
Y355155D01*
X668929Y355421D01*
X669353Y355135D01*
D02*
G37*
G36*
X389835Y302386D02*
X390048D01*
Y300631D01*
X390262D01*
X390580Y300244D01*
X390571Y300203D01*
Y298253D01*
X389472Y298190D01*
X389585Y296216D01*
X389476Y295666D01*
X389659Y294745D01*
X389670Y294727D01*
X389725Y293776D01*
X389382Y293413D01*
X388776D01*
X388752Y293825D01*
X386185D01*
Y293837D01*
X384629Y293747D01*
Y296752D01*
X384685Y296756D01*
Y298436D01*
X384629Y298489D01*
Y299716D01*
X386497Y301584D01*
X386781Y302010D01*
X386881Y302512D01*
Y304633D01*
X389835D01*
Y302386D01*
D02*
G37*
G36*
X365519Y317951D02*
X350383Y302814D01*
X348909D01*
X341582Y310141D01*
X341798Y310632D01*
X342209Y310614D01*
X342917Y310771D01*
X343561Y311106D01*
X344096Y311596D01*
X344667Y312277D01*
X345291Y312243D01*
X345362Y312137D01*
X345362Y312137D01*
X348072Y309427D01*
X347497Y308742D01*
X347108Y308130D01*
X346889Y307438D01*
X346858Y306713D01*
X347015Y306005D01*
X347350Y305361D01*
X347840Y304826D01*
X348452Y304436D01*
X349144Y304218D01*
X349869Y304186D01*
X350577Y304343D01*
X351221Y304678D01*
X351756Y305169D01*
X354287Y308185D01*
X354677Y308797D01*
X354895Y309489D01*
X354926Y310213D01*
X354849Y310564D01*
X362698Y318412D01*
X365327D01*
X365519Y317951D01*
D02*
G37*
G36*
X336785Y338410D02*
Y311769D01*
X336885Y311267D01*
X337170Y310841D01*
X347437Y300574D01*
X347863Y300289D01*
X348365Y300189D01*
X350926D01*
X351429Y300289D01*
X351854Y300574D01*
X367725Y316444D01*
X370452D01*
X370643Y315982D01*
X360788Y306127D01*
X360300Y306281D01*
X359576Y306312D01*
X358867Y306155D01*
X358224Y305820D01*
X357688Y305330D01*
X355158Y302314D01*
X354768Y301702D01*
X354550Y301010D01*
X354518Y300285D01*
X354596Y299935D01*
X353381Y298721D01*
X346725D01*
X335511Y309934D01*
Y338530D01*
X335411Y339033D01*
X335321Y339167D01*
X335709Y339486D01*
X336785Y338410D01*
D02*
G37*
G36*
X483339Y288726D02*
Y287230D01*
X479637Y283528D01*
X476295D01*
X475791Y284032D01*
Y285179D01*
X480205Y289593D01*
X482471D01*
X483339Y288726D01*
D02*
G37*
G36*
X500421Y280370D02*
X498088Y279521D01*
X500444Y273046D01*
X503666Y274219D01*
X503935Y273797D01*
X495727Y265590D01*
X495288Y265828D01*
X496892Y273374D01*
X492952Y274212D01*
X491803Y268805D01*
X490654Y263398D01*
X492518Y263002D01*
X492660Y262523D01*
X490601Y260464D01*
X490036Y260606D01*
X489880Y260983D01*
X489467Y261521D01*
X489131Y261779D01*
Y259685D01*
X487631D01*
Y258185D01*
X485536D01*
X485698Y257974D01*
X485519Y257474D01*
X482702D01*
X482304Y257974D01*
X483405Y262740D01*
X482764Y262889D01*
Y271805D01*
X485306Y274348D01*
X485746Y274110D01*
X483780Y264859D01*
X487719Y264022D01*
X488868Y269429D01*
X490018Y274835D01*
X487047Y275467D01*
X486905Y275946D01*
X491588Y280630D01*
X492114Y280451D01*
X492117Y280441D01*
X492133Y280321D01*
X492184Y280198D01*
X492240Y279996D01*
X492221Y279981D01*
X491962Y279645D01*
X494642D01*
Y282493D01*
X496736D01*
X496478Y282829D01*
X495940Y283242D01*
X495314Y283502D01*
X495184Y283519D01*
X495005Y284047D01*
X495443Y284485D01*
X498353Y283920D01*
X498668Y285538D01*
X500421D01*
Y280370D01*
D02*
G37*
G36*
X672485Y369897D02*
X672419Y369707D01*
X672350Y368725D01*
X672538Y367758D01*
X672970Y366873D01*
X676229Y361948D01*
X676876Y361205D01*
X677692Y360654D01*
X678623Y360334D01*
X679605Y360265D01*
X680572Y360453D01*
X681457Y360885D01*
X681479Y360903D01*
X682811Y359571D01*
X683237Y359286D01*
X683739Y359186D01*
X691056D01*
X692634Y357607D01*
X688701Y353674D01*
X687720Y352775D01*
X687359Y352534D01*
X687204Y352302D01*
X685519Y350758D01*
X687638Y348446D01*
X687436Y347988D01*
X684248D01*
X674668Y357569D01*
X674733Y357759D01*
X674802Y358741D01*
X674614Y359708D01*
X674182Y360593D01*
X670923Y365518D01*
X670277Y366261D01*
X669460Y366812D01*
X668529Y367132D01*
X667547Y367201D01*
X666580Y367013D01*
X665695Y366581D01*
X664952Y365935D01*
X664401Y365119D01*
X664080Y364188D01*
X664011Y363205D01*
X664199Y362239D01*
X664631Y361353D01*
X664248Y361041D01*
X661288Y364000D01*
X661536Y364371D01*
X661714Y365263D01*
Y368769D01*
X661536Y369661D01*
X661030Y370418D01*
X657726Y373723D01*
X657508Y374048D01*
X656727Y374570D01*
X655805Y374753D01*
X654884Y374570D01*
X654102Y374048D01*
X653580Y373267D01*
X653397Y372345D01*
X653580Y371423D01*
X654102Y370642D01*
X654427Y370425D01*
X657049Y367803D01*
Y366229D01*
X656872Y366052D01*
X655272D01*
X654379Y365875D01*
X653623Y365369D01*
X648932Y360679D01*
X648835Y360533D01*
X646933D01*
X646040Y360355D01*
X645284Y359850D01*
X642770Y357336D01*
X642265Y356580D01*
X642087Y355687D01*
Y355014D01*
X638594D01*
X637702Y354836D01*
X636945Y354331D01*
X632938Y350323D01*
X619515D01*
X618622Y350146D01*
X617866Y349640D01*
X607685Y339459D01*
X607179Y338702D01*
X607002Y337810D01*
Y321427D01*
X607179Y320535D01*
X607685Y319778D01*
X622963Y304500D01*
X623719Y303994D01*
X624612Y303817D01*
X633931D01*
Y302530D01*
X633431Y302263D01*
X633006Y302547D01*
X632085Y302730D01*
X631163Y302547D01*
X630381Y302025D01*
X630121Y301634D01*
X620746D01*
X606096Y316284D01*
X605670Y316569D01*
X605167Y316669D01*
X587363D01*
X587102Y317059D01*
X586320Y317581D01*
X585399Y317765D01*
X584477Y317581D01*
X583696Y317059D01*
X583174Y316278D01*
X582990Y315356D01*
X583174Y314435D01*
X583696Y313653D01*
X584477Y313131D01*
X585399Y312948D01*
X586320Y313131D01*
X587102Y313653D01*
X587363Y314044D01*
X604624D01*
X619274Y299393D01*
X619427Y299291D01*
X619275Y298791D01*
X617557D01*
X615653Y300696D01*
X614896Y301202D01*
X614003Y301379D01*
X574888D01*
X574653Y301820D01*
X574829Y302084D01*
X575012Y303006D01*
X574921Y303467D01*
X577997Y306543D01*
X578458Y306451D01*
X579380Y306635D01*
X580161Y307157D01*
X580683Y307938D01*
X580866Y308860D01*
X580683Y309782D01*
X580161Y310563D01*
X579380Y311085D01*
X578458Y311268D01*
X578036Y311185D01*
X577669Y311513D01*
Y326412D01*
X578180Y326614D01*
X578764Y327045D01*
X579215Y327613D01*
X579505Y328279D01*
X579612Y328996D01*
X579530Y329717D01*
X578577Y333537D01*
X578311Y334213D01*
X577880Y334796D01*
X577312Y335248D01*
X576646Y335537D01*
X575929Y335644D01*
X575208Y335562D01*
X574533Y335296D01*
X573949Y334864D01*
X573498Y334297D01*
X573208Y333631D01*
X573101Y332913D01*
X573183Y332192D01*
X574136Y328372D01*
X574402Y327697D01*
X574833Y327114D01*
X575044Y326946D01*
Y310961D01*
X575144Y310459D01*
X575428Y310033D01*
X576141Y309320D01*
X576049Y308860D01*
X576141Y308399D01*
X573064Y305323D01*
X572604Y305414D01*
X571682Y305231D01*
X570901Y304709D01*
X570379Y303928D01*
X570195Y303006D01*
X570379Y302084D01*
X570555Y301820D01*
X570319Y301379D01*
X564503D01*
X564439Y301944D01*
X559940Y301431D01*
X560192Y299219D01*
X560158Y299047D01*
X560284Y298414D01*
X560542Y296150D01*
X560632Y296161D01*
X561005Y295828D01*
Y294024D01*
X560787Y293999D01*
X561005Y292087D01*
Y291615D01*
X561131Y290982D01*
X561389Y288718D01*
X561651Y288748D01*
X562024Y288415D01*
Y274693D01*
X558696Y274372D01*
X559206Y269082D01*
X563713Y269516D01*
X563442Y272325D01*
X564265Y273148D01*
X564550Y273574D01*
X564650Y274077D01*
Y284811D01*
X565150Y284963D01*
X565366Y284640D01*
X566147Y284118D01*
X567069Y283934D01*
X567990Y284118D01*
X568772Y284640D01*
X569033Y285030D01*
X587971D01*
X601230Y271771D01*
X601047Y270853D01*
X601231Y269932D01*
X601567Y269429D01*
X595856Y263718D01*
X583990D01*
X583487Y263618D01*
X583062Y263333D01*
X565830Y246102D01*
X565370Y246297D01*
X565348Y246328D01*
X565526Y247221D01*
X565343Y248143D01*
X564821Y248924D01*
X564039Y249446D01*
X563118Y249629D01*
X562196Y249446D01*
X561415Y248924D01*
X560893Y248143D01*
X560709Y247221D01*
X560801Y246760D01*
X557128Y243088D01*
X549619D01*
X536817Y255890D01*
X536908Y256351D01*
X536725Y257273D01*
X536203Y258054D01*
X535422Y258576D01*
X534500Y258759D01*
X533578Y258576D01*
X532797Y258054D01*
X532275Y257273D01*
X532092Y256351D01*
X532275Y255429D01*
X532797Y254648D01*
X533578Y254126D01*
X534500Y253942D01*
X534961Y254034D01*
X536348Y252646D01*
X536091Y252217D01*
X535929Y252266D01*
X535851Y252274D01*
X535775Y252297D01*
X534579Y252415D01*
X534500Y252407D01*
X534421Y252415D01*
X533225Y252297D01*
X533149Y252274D01*
X533071Y252266D01*
X531920Y251918D01*
X531851Y251880D01*
X531775Y251857D01*
X530715Y251291D01*
X530654Y251240D01*
X530584Y251203D01*
X529655Y250441D01*
X529605Y250379D01*
X529543Y250329D01*
X528781Y249400D01*
X528744Y249330D01*
X528693Y249269D01*
X528127Y248209D01*
X528104Y248133D01*
X528067Y248064D01*
X527718Y246913D01*
X527710Y246835D01*
X527687Y246759D01*
X527569Y245563D01*
X527577Y245484D01*
X527569Y245405D01*
X527687Y244209D01*
X527710Y244133D01*
X527718Y244055D01*
X528067Y242904D01*
X528104Y242835D01*
X528127Y242759D01*
X528693Y241699D01*
X528744Y241638D01*
X528781Y241568D01*
X529543Y240639D01*
X529605Y240589D01*
X529655Y240528D01*
X530447Y239877D01*
X530270Y239377D01*
X513744D01*
X497370Y255751D01*
X496945Y256035D01*
X496442Y256135D01*
X490638D01*
X490447Y256597D01*
X515453Y281603D01*
X515737Y282029D01*
X515837Y282531D01*
Y293070D01*
X516337Y293169D01*
X516469Y292850D01*
X517069Y292069D01*
X517850Y291470D01*
X518760Y291093D01*
X519736Y290964D01*
X523673D01*
X524650Y291093D01*
X525559Y291470D01*
X526341Y292069D01*
X526940Y292850D01*
X527317Y293760D01*
X527446Y294737D01*
X527317Y295713D01*
X526940Y296623D01*
X526362Y297377D01*
X526392Y297554D01*
X526501Y297877D01*
X529773D01*
X530276Y297977D01*
X530701Y298261D01*
X537428Y304988D01*
X537713Y305414D01*
X537813Y305916D01*
Y313667D01*
X537713Y314169D01*
X537428Y314595D01*
X532120Y319903D01*
X531694Y320188D01*
X531495Y320228D01*
X523076Y328646D01*
X522650Y328931D01*
X522148Y329031D01*
X516840D01*
X504602Y341269D01*
X504794Y341731D01*
X567919D01*
X568130Y341286D01*
X568130Y341286D01*
X568130Y341286D01*
X568608Y338708D01*
X568328Y338289D01*
X568228Y337786D01*
Y337022D01*
X567728Y336976D01*
X566969Y341071D01*
X562517Y340246D01*
X562995Y337669D01*
X561916Y336591D01*
X561325Y336707D01*
X561121Y337083D01*
X560621Y337609D01*
X560003Y337988D01*
X559307Y338195D01*
X558581Y338214D01*
X557876Y338044D01*
X557238Y337698D01*
X556712Y337198D01*
X556333Y336580D01*
X556127Y335884D01*
X556108Y335159D01*
X556519Y331243D01*
X556689Y330538D01*
X557035Y329900D01*
X557534Y329374D01*
X558153Y328994D01*
X558849Y328788D01*
X559574Y328769D01*
X560280Y328939D01*
X560918Y329285D01*
X561444Y329784D01*
X561823Y330403D01*
X562029Y331099D01*
X562048Y331824D01*
X561935Y332897D01*
X564189Y335151D01*
X567728Y335806D01*
X568228Y335483D01*
Y321019D01*
X556343Y309134D01*
X555883Y309226D01*
X554961Y309043D01*
X554180Y308521D01*
X553658Y307739D01*
X553474Y306817D01*
X553658Y305896D01*
X554180Y305114D01*
X554961Y304592D01*
X555883Y304409D01*
X556804Y304592D01*
X557586Y305114D01*
X558108Y305896D01*
X558291Y306817D01*
X558200Y307278D01*
X570469Y319547D01*
X570753Y319973D01*
X570853Y320476D01*
Y336386D01*
X573551Y336886D01*
X573457Y337389D01*
X573777Y337773D01*
X583474D01*
X583638Y337322D01*
X583644Y337274D01*
X583201Y336716D01*
X582911Y336050D01*
X582804Y335333D01*
X582886Y334612D01*
X583839Y330792D01*
X584105Y330117D01*
X584536Y329533D01*
X585104Y329081D01*
X585770Y328792D01*
X586487Y328685D01*
X587208Y328767D01*
X587883Y329033D01*
X588467Y329465D01*
X588918Y330032D01*
X589208Y330698D01*
X589315Y331416D01*
X589284Y331688D01*
X589617Y332062D01*
X596230D01*
X597280Y329010D01*
X602306Y330741D01*
X600832Y335022D01*
X598656Y334272D01*
X598626Y334302D01*
X598200Y334587D01*
X597742Y334678D01*
X597731Y334694D01*
X597823Y335235D01*
X600447Y336138D01*
X598973Y340419D01*
X596797Y339670D01*
X596453Y340014D01*
X596027Y340299D01*
X595525Y340399D01*
X572900D01*
X572724Y341346D01*
X573044Y341731D01*
X601307D01*
X601810Y341831D01*
X602236Y342115D01*
X628450Y368330D01*
X635569D01*
X636071Y368429D01*
X636497Y368714D01*
X645124Y377341D01*
X665041D01*
X672485Y369897D01*
D02*
G37*
G36*
X548148Y240847D02*
X548573Y240563D01*
X549076Y240462D01*
X557672D01*
X558174Y240563D01*
X558600Y240847D01*
X562657Y244904D01*
X563118Y244812D01*
X564011Y244990D01*
X564042Y244968D01*
X564237Y244509D01*
X559105Y239377D01*
X538730D01*
X538553Y239877D01*
X539345Y240528D01*
X539395Y240589D01*
X539457Y240639D01*
X540219Y241568D01*
X540256Y241638D01*
X540307Y241699D01*
X540873Y242759D01*
X540896Y242835D01*
X540933Y242904D01*
X541282Y244055D01*
X541290Y244133D01*
X541313Y244209D01*
X541431Y245405D01*
X541423Y245484D01*
X541431Y245563D01*
X541313Y246759D01*
X541290Y246835D01*
X541282Y246913D01*
X541233Y247076D01*
X541662Y247333D01*
X548148Y240847D01*
D02*
G37*
G36*
X355434Y405795D02*
X355833Y406054D01*
X356147Y405665D01*
X351945Y401463D01*
X349643D01*
X349501Y401942D01*
X353321Y404423D01*
X347039Y414095D01*
X347278Y414534D01*
X349758D01*
X355434Y405795D01*
D02*
G37*
G36*
X378556Y441324D02*
X378560Y441308D01*
X378560D01*
X382091Y434609D01*
X386174Y427661D01*
X390574Y420908D01*
X395281Y414367D01*
X400285Y408049D01*
X405575Y401970D01*
X411141Y396141D01*
X416970Y390575D01*
X423049Y385285D01*
X429367Y380281D01*
X435909Y375574D01*
X442661Y371174D01*
X449609Y367091D01*
X456738Y363333D01*
X464034Y359909D01*
X471479Y356824D01*
X479059Y354088D01*
X486758Y351704D01*
X494558Y349678D01*
X502444Y348014D01*
X510398Y346717D01*
X518403Y345788D01*
X526443Y345230D01*
X534500Y345044D01*
X542557Y345230D01*
X550597Y345788D01*
X558602Y346717D01*
X566556Y348014D01*
X574442Y349678D01*
X582242Y351704D01*
X589941Y354088D01*
X597521Y356824D01*
X604966Y359909D01*
X612262Y363333D01*
X619391Y367091D01*
X626339Y371174D01*
X633091Y375574D01*
X639633Y380281D01*
X645951Y385285D01*
X652030Y390575D01*
X657859Y396141D01*
X663425Y401970D01*
X668715Y408049D01*
X673719Y414367D01*
X678426Y420908D01*
X682826Y427661D01*
X686909Y434609D01*
X690440Y441308D01*
X809207Y441323D01*
X809249Y440823D01*
X808924Y440768D01*
X806374Y440033D01*
X803923Y439018D01*
X801601Y437735D01*
X799437Y436199D01*
X797459Y434432D01*
X795691Y432453D01*
X794155Y430289D01*
X792872Y427967D01*
X791857Y425516D01*
X791122Y422966D01*
X790678Y420351D01*
X790529Y417702D01*
X790678Y415053D01*
X791122Y412437D01*
X791857Y409888D01*
X792872Y407436D01*
X794155Y405114D01*
X795691Y402950D01*
X797459Y400972D01*
X799437Y399204D01*
X801601Y397669D01*
X803923Y396386D01*
X804815Y396016D01*
X805066Y395380D01*
X805066Y395380D01*
X800698Y386251D01*
X795772Y376835D01*
X790514Y367600D01*
X784929Y358559D01*
X779025Y349723D01*
X777264Y347281D01*
X776970Y346882D01*
X775091Y348215D01*
X772769Y349498D01*
X770318Y350514D01*
X767769Y351248D01*
X765153Y351693D01*
X762504Y351841D01*
X759855Y351693D01*
X757239Y351248D01*
X754690Y350514D01*
X752239Y349498D01*
X749916Y348215D01*
X747753Y346680D01*
X745774Y344912D01*
X744006Y342933D01*
X742471Y340770D01*
X741188Y338447D01*
X740172Y335996D01*
X739438Y333447D01*
X738993Y330831D01*
X738845Y328182D01*
X738993Y325533D01*
X739438Y322917D01*
X740172Y320368D01*
X741188Y317917D01*
X742471Y315595D01*
X744006Y313431D01*
X745774Y311452D01*
X746251Y311026D01*
X746277Y310333D01*
X744995Y309005D01*
X737348Y301626D01*
X729443Y294524D01*
X721288Y287710D01*
X712896Y281191D01*
X704277Y274975D01*
X703746Y274620D01*
X703320Y274370D01*
X701817Y276489D01*
X700049Y278468D01*
X698070Y280236D01*
X695906Y281771D01*
X693584Y283054D01*
X691133Y284070D01*
X688584Y284804D01*
X685968Y285248D01*
X683319Y285397D01*
X680670Y285248D01*
X678054Y284804D01*
X675505Y284070D01*
X673054Y283054D01*
X670731Y281771D01*
X668568Y280236D01*
X666589Y278468D01*
X664821Y276489D01*
X663286Y274325D01*
X662003Y272003D01*
X660987Y269552D01*
X660253Y267003D01*
X659808Y264387D01*
X659660Y261738D01*
X659808Y259089D01*
X660253Y256473D01*
X660987Y253924D01*
X662003Y251473D01*
X662162Y251184D01*
X661953Y250529D01*
X658163Y248716D01*
X648419Y244475D01*
X638530Y240584D01*
X628509Y237048D01*
X618368Y233873D01*
X609780Y231517D01*
X609250Y231648D01*
X608516Y234198D01*
X607501Y236649D01*
X606217Y238971D01*
X604682Y241135D01*
X602914Y243113D01*
X600936Y244881D01*
X598772Y246417D01*
X596450Y247700D01*
X593998Y248715D01*
X591449Y249450D01*
X588833Y249894D01*
X586184Y250043D01*
X583535Y249894D01*
X580920Y249450D01*
X578370Y248715D01*
X575919Y247700D01*
X573597Y246417D01*
X571860Y245184D01*
X571536Y245568D01*
X585274Y259305D01*
X597268D01*
X597770Y259405D01*
X598196Y259690D01*
X607246Y268740D01*
X607531Y269166D01*
X607631Y269668D01*
Y272039D01*
X607531Y272541D01*
X607246Y272967D01*
X591155Y289058D01*
X590729Y289343D01*
X590227Y289443D01*
X576818D01*
X574921Y291340D01*
X575012Y291800D01*
X574829Y292722D01*
X574307Y293503D01*
X573525Y294026D01*
X572604Y294209D01*
X571682Y294026D01*
X570901Y293503D01*
X570379Y292722D01*
X570195Y291800D01*
X570379Y290879D01*
X570901Y290097D01*
X571682Y289575D01*
X572604Y289392D01*
X573064Y289484D01*
X574431Y288117D01*
X574239Y287655D01*
X569033D01*
X568772Y288046D01*
X567990Y288568D01*
X567069Y288751D01*
X566147Y288568D01*
X565366Y288046D01*
X565150Y287723D01*
X564650Y287874D01*
Y289090D01*
X565887Y289231D01*
X565635Y291443D01*
X565669Y291615D01*
Y296715D01*
X613037D01*
X614942Y294810D01*
X615699Y294305D01*
X616591Y294127D01*
X633684D01*
X634577Y294305D01*
X635333Y294810D01*
X637912Y297389D01*
X638285Y297947D01*
X638853Y297965D01*
X639178Y297408D01*
X641317Y298655D01*
X642073Y297359D01*
X643368Y298115D01*
X644814Y295635D01*
X645658Y296127D01*
X643970Y299022D01*
X644366Y299327D01*
X645355Y298338D01*
X645678Y298015D01*
X646387Y296799D01*
X646708Y296986D01*
X649947Y293746D01*
X650102Y292948D01*
X650534Y292062D01*
X653793Y287138D01*
X654439Y286395D01*
X655256Y285844D01*
X656187Y285523D01*
X657169Y285455D01*
X658136Y285643D01*
X659021Y286074D01*
X659764Y286720D01*
X660315Y287537D01*
X660636Y288468D01*
X660704Y289450D01*
X660516Y290417D01*
X660085Y291302D01*
X656825Y296227D01*
X656179Y296970D01*
X655363Y297521D01*
X654431Y297841D01*
X653449Y297910D01*
X652554Y297736D01*
X649023Y301267D01*
X647621Y303671D01*
X646988Y303301D01*
X642491Y307798D01*
X641735Y308304D01*
X640842Y308481D01*
X625578D01*
X611666Y322393D01*
Y334772D01*
X612166Y334904D01*
X612609Y334241D01*
X613391Y333719D01*
X614313Y333535D01*
X614707Y333614D01*
X615279Y333219D01*
X615292Y333144D01*
X614918Y332819D01*
X614368Y332003D01*
X614047Y331071D01*
X613978Y330089D01*
X614166Y329122D01*
X614598Y328237D01*
X617857Y323313D01*
X618504Y322569D01*
X619320Y322019D01*
X620251Y321698D01*
X621234Y321630D01*
X622200Y321817D01*
X623085Y322249D01*
X623107Y322268D01*
X624207Y321167D01*
Y320425D01*
X622047Y318941D01*
X624612Y315209D01*
X628992Y318220D01*
X626832Y321362D01*
Y321711D01*
X626732Y322213D01*
X626448Y322639D01*
X624634Y324452D01*
X624700Y324643D01*
X624769Y325625D01*
X624581Y326592D01*
X624149Y327477D01*
X620890Y332401D01*
X620243Y333145D01*
X619427Y333695D01*
X618496Y334016D01*
X617513Y334085D01*
X616547Y333897D01*
X616006Y333633D01*
X615756Y334068D01*
X616015Y334241D01*
X616276Y334631D01*
X622412D01*
X622604Y334440D01*
X622937Y333757D01*
X626196Y328832D01*
X626842Y328089D01*
X627659Y327538D01*
X628590Y327218D01*
X629572Y327149D01*
X630539Y327337D01*
X631424Y327768D01*
X631446Y327787D01*
X632663Y326570D01*
X632608Y326073D01*
X631930Y325640D01*
X634362Y321822D01*
X638845Y324678D01*
X636412Y328496D01*
X635213Y327732D01*
X632973Y329972D01*
X633039Y330162D01*
X633108Y331144D01*
X632920Y332111D01*
X632488Y332996D01*
X629228Y337921D01*
X628582Y338664D01*
X627766Y339215D01*
X626835Y339535D01*
X625852Y339604D01*
X624886Y339416D01*
X624001Y338984D01*
X623257Y338338D01*
X622707Y337522D01*
X622615Y337257D01*
X616276D01*
X616015Y337647D01*
X615234Y338169D01*
X614313Y338352D01*
X613775Y338245D01*
X613528Y338706D01*
X620481Y345659D01*
X633904D01*
X633958Y345670D01*
X634015Y345599D01*
X633811Y345050D01*
X633224Y344936D01*
X632339Y344504D01*
X631596Y343858D01*
X631045Y343041D01*
X630725Y342110D01*
X630656Y341128D01*
X630844Y340161D01*
X631276Y339276D01*
X634535Y334351D01*
X635181Y333608D01*
X635998Y333058D01*
X636623Y332842D01*
X643655Y325811D01*
X644081Y325526D01*
X644583Y325426D01*
X645734D01*
X647735Y322029D01*
X652315Y324727D01*
X650017Y328628D01*
X648390Y327670D01*
X648148Y327913D01*
X647826Y328128D01*
X647771Y328512D01*
X647798Y328692D01*
X649417Y329645D01*
X647119Y333547D01*
X645893Y332824D01*
X645393Y333110D01*
Y337746D01*
X645474Y337950D01*
X645656Y338156D01*
X646180Y338154D01*
X654011Y330324D01*
X654436Y330040D01*
X654939Y329940D01*
X656780D01*
X658132Y327898D01*
X662564Y330831D01*
X660065Y334607D01*
X656980Y332565D01*
X655746D01*
X655596Y333065D01*
X659413Y335592D01*
X656914Y339367D01*
X653829Y337325D01*
X653250D01*
X651752Y338824D01*
Y344116D01*
X652252Y344382D01*
X652675Y344096D01*
X653607Y343776D01*
X654589Y343707D01*
X655556Y343895D01*
X656441Y344327D01*
X656462Y344345D01*
X664653Y336154D01*
X665079Y335869D01*
X665582Y335769D01*
X667148D01*
X668693Y333681D01*
X672965Y336843D01*
X670272Y340482D01*
X667451Y338394D01*
X666305D01*
X666150Y338867D01*
X666152Y338903D01*
X669569Y341432D01*
X668776Y342504D01*
X668831Y342558D01*
X669115Y342984D01*
X669215Y343486D01*
X669115Y343989D01*
X668831Y344415D01*
X668830Y344415D01*
X664226Y349020D01*
X664327Y349625D01*
X664780Y349846D01*
X664801Y349864D01*
X672109Y342557D01*
X672535Y342272D01*
X673037Y342172D01*
X677234D01*
X678985Y340048D01*
X683086Y343428D01*
X680206Y346922D01*
X677629Y344797D01*
X676512D01*
X676343Y345268D01*
X679455Y347833D01*
X676977Y350839D01*
X677348Y351176D01*
X682776Y345747D01*
X683202Y345463D01*
X683704Y345363D01*
X690463D01*
X692435Y343211D01*
X696353Y346802D01*
X693294Y350140D01*
X690946Y347988D01*
X690182D01*
X689922Y348488D01*
X690085Y348726D01*
X690102Y348730D01*
X690859Y349235D01*
X695624Y354001D01*
X696241D01*
X697260Y352982D01*
X698766Y354489D01*
X699058Y354684D01*
X699110Y354761D01*
X699187Y354813D01*
X701955Y357581D01*
X702461Y358338D01*
X702638Y359230D01*
Y364467D01*
X702461Y365359D01*
X701955Y366116D01*
X680424Y387647D01*
X679668Y388152D01*
X678775Y388330D01*
X663805D01*
X663422Y388406D01*
X662500Y388223D01*
X661719Y387701D01*
X661197Y386919D01*
X661013Y385998D01*
X661197Y385076D01*
X661719Y384295D01*
X662500Y383772D01*
X663422Y383589D01*
X663805Y383665D01*
X677809D01*
X697974Y363500D01*
Y360196D01*
X696510Y358732D01*
X696409Y358665D01*
X695522D01*
X695331Y359127D01*
X696981Y360777D01*
X693780Y363979D01*
X691612Y361811D01*
X684283D01*
X683006Y363088D01*
X683072Y363278D01*
X683141Y364261D01*
X682953Y365227D01*
X682521Y366113D01*
X679261Y371037D01*
X678615Y371780D01*
X677799Y372331D01*
X676868Y372652D01*
X675885Y372720D01*
X674919Y372532D01*
X674034Y372101D01*
X674012Y372082D01*
X666512Y379582D01*
X666087Y379867D01*
X665584Y379966D01*
X644581D01*
X644078Y379867D01*
X643653Y379582D01*
X635026Y370955D01*
X627906D01*
X627404Y370855D01*
X626978Y370570D01*
X600764Y344356D01*
X504043D01*
X500777Y347622D01*
X500351Y347907D01*
X499849Y348007D01*
X491777D01*
X489850Y349934D01*
X489424Y350219D01*
X488922Y350319D01*
X445995D01*
X410749Y385565D01*
X410324Y385849D01*
X409821Y385949D01*
X371080D01*
X365976Y391053D01*
X366028Y391550D01*
X367163Y392287D01*
X359873Y403514D01*
X355705Y400808D01*
X355391Y401196D01*
X365177Y410983D01*
X377290D01*
X378658Y409064D01*
X382833Y412042D01*
X383321Y411554D01*
X383267Y410901D01*
X379344Y408103D01*
X380194Y406911D01*
X380152Y406848D01*
X380052Y406346D01*
Y403412D01*
X379765Y403176D01*
X378843Y402993D01*
X378062Y402471D01*
X377540Y401689D01*
X377357Y400768D01*
X377540Y399846D01*
X378062Y399065D01*
X378843Y398543D01*
X379765Y398359D01*
X380687Y398543D01*
X381468Y399065D01*
X381990Y399846D01*
X382174Y400768D01*
X382082Y401228D01*
X382293Y401439D01*
X382577Y401865D01*
X382677Y402367D01*
Y404919D01*
X386300Y407503D01*
X385994Y407932D01*
X386321Y408259D01*
X386606Y408685D01*
X386705Y409188D01*
Y411339D01*
X386606Y411841D01*
X386321Y412267D01*
X380604Y417984D01*
X380178Y418268D01*
X379675Y418368D01*
X358536D01*
X358034Y418268D01*
X357608Y417984D01*
X357179Y417555D01*
X356682Y417607D01*
X354417Y421095D01*
X348357Y417160D01*
X332334D01*
X331831Y417060D01*
X331406Y416775D01*
X321512Y406882D01*
X318289D01*
X318262Y407634D01*
X318143Y408349D01*
X317842Y409010D01*
X317380Y409570D01*
X316789Y409991D01*
X316110Y410245D01*
X315387Y410315D01*
X314672Y410195D01*
X314011Y409894D01*
X313451Y409433D01*
X313030Y408842D01*
X312776Y408162D01*
X312706Y407440D01*
X312844Y403505D01*
X312964Y402789D01*
X313264Y402129D01*
X313726Y401569D01*
X314317Y401148D01*
X314997Y400894D01*
X315719Y400824D01*
X316435Y400944D01*
X317095Y401245D01*
X317655Y401706D01*
X318076Y402297D01*
X318330Y402977D01*
X318400Y403699D01*
X318393Y403897D01*
X318740Y404257D01*
X322056D01*
X322558Y404357D01*
X322984Y404641D01*
X332877Y414534D01*
X343434D01*
X343576Y414055D01*
X339757Y411575D01*
X341867Y408325D01*
X341866Y408321D01*
X341966Y407819D01*
X342250Y407393D01*
X342642Y407132D01*
X346742Y400819D01*
X345201Y399278D01*
X344704Y399331D01*
X337643Y410203D01*
X331370Y406129D01*
X336839Y397706D01*
Y394638D01*
X336496Y394316D01*
X335999Y394373D01*
X329257Y404756D01*
X322983Y400682D01*
X327046Y394426D01*
Y390680D01*
X326567Y390538D01*
X320870Y399310D01*
X314597Y395236D01*
X320066Y386813D01*
Y383496D01*
X319566Y383348D01*
X317124Y387108D01*
X313809Y384955D01*
X310494Y382802D01*
X313438Y378269D01*
X317162Y380687D01*
X317476Y380299D01*
X317139Y379961D01*
X316854Y379535D01*
X316754Y379033D01*
Y354662D01*
X316854Y354160D01*
X317139Y353734D01*
X318926Y351946D01*
X318926Y351946D01*
X332886Y337987D01*
Y309391D01*
X332985Y308889D01*
X333270Y308463D01*
X345253Y296480D01*
X345679Y296195D01*
X346181Y296095D01*
X353925D01*
X354427Y296195D01*
X354853Y296480D01*
X356317Y297943D01*
X356804Y297790D01*
X357529Y297758D01*
X358238Y297915D01*
X358881Y298250D01*
X359417Y298741D01*
X361947Y301757D01*
X362337Y302368D01*
X362555Y303061D01*
X362587Y303785D01*
X362509Y304136D01*
X372849Y314475D01*
X375468D01*
X375660Y314014D01*
X375005Y313359D01*
X374545Y313451D01*
X373623Y313267D01*
X372842Y312745D01*
X372320Y311964D01*
X372136Y311042D01*
X372320Y310120D01*
X372842Y309339D01*
X373623Y308817D01*
X374545Y308634D01*
X375466Y308817D01*
X376248Y309339D01*
X376770Y310120D01*
X376953Y311042D01*
X376862Y311503D01*
X377866Y312507D01*
X380663D01*
X380854Y312045D01*
X376560Y307751D01*
X376099Y307842D01*
X375178Y307659D01*
X374396Y307137D01*
X373874Y306356D01*
X373691Y305434D01*
X373874Y304512D01*
X374396Y303731D01*
X374764Y303485D01*
X374613Y302985D01*
X366708D01*
X366206Y302885D01*
X365780Y302601D01*
X356225Y293046D01*
X355765Y293138D01*
X354843Y292954D01*
X354062Y292432D01*
X353539Y291651D01*
X353356Y290729D01*
X353539Y289807D01*
X354062Y289026D01*
X354843Y288504D01*
X355765Y288321D01*
X356686Y288504D01*
X357468Y289026D01*
X357990Y289807D01*
X358173Y290729D01*
X358082Y291190D01*
X361498Y294606D01*
X361989Y294390D01*
X361965Y293839D01*
X362133Y293079D01*
X365064Y296572D01*
X366213Y295607D01*
X367177Y296757D01*
X369471Y294832D01*
X369772Y295191D01*
X370192Y295850D01*
X370427Y296596D01*
X370461Y297376D01*
X370292Y298139D01*
X369931Y298833D01*
X369403Y299409D01*
X368744Y299829D01*
X368646Y299860D01*
X368723Y300360D01*
X377819D01*
X378321Y300460D01*
X378747Y300744D01*
X383756Y305753D01*
X384256Y305546D01*
Y303056D01*
X382388Y301188D01*
X382104Y300762D01*
X382004Y300260D01*
Y293069D01*
X382027Y292953D01*
X381584Y292678D01*
Y290569D01*
Y288474D01*
X381920Y288732D01*
X382333Y289270D01*
X382592Y289896D01*
X382681Y290569D01*
X382594Y291227D01*
X382615Y291255D01*
X383024Y291504D01*
X383357Y291172D01*
X383782Y290887D01*
X384285Y290788D01*
X390778D01*
X398598Y282968D01*
Y282538D01*
X398688Y282086D01*
X398580Y281958D01*
X398282Y281762D01*
X398269Y281771D01*
X395946Y283054D01*
X393495Y284070D01*
X390946Y284804D01*
X388330Y285248D01*
X385681Y285397D01*
X383032Y285248D01*
X380416Y284804D01*
X377867Y284070D01*
X375416Y283054D01*
X373094Y281771D01*
X370930Y280236D01*
X368951Y278468D01*
X367183Y276489D01*
X365680Y274370D01*
X365254Y274620D01*
X364723Y274975D01*
X356104Y281191D01*
X347712Y287710D01*
X339558Y294524D01*
X331652Y301626D01*
X324005Y309005D01*
X322723Y310333D01*
X322749Y311026D01*
X323226Y311452D01*
X324994Y313431D01*
X326529Y315595D01*
X327812Y317917D01*
X328828Y320368D01*
X329562Y322917D01*
X330007Y325533D01*
X330155Y328182D01*
X330007Y330831D01*
X329562Y333447D01*
X328828Y335996D01*
X327812Y338447D01*
X326529Y340770D01*
X324994Y342933D01*
X323226Y344912D01*
X321247Y346680D01*
X319084Y348215D01*
X316761Y349498D01*
X314310Y350514D01*
X311761Y351248D01*
X309145Y351693D01*
X306496Y351841D01*
X303847Y351693D01*
X301231Y351248D01*
X298682Y350514D01*
X296231Y349498D01*
X293909Y348215D01*
X292030Y346882D01*
X291736Y347281D01*
X289975Y349723D01*
X284071Y358559D01*
X278486Y367600D01*
X273228Y376835D01*
X268302Y386251D01*
X263934Y395380D01*
X264185Y396016D01*
X265077Y396386D01*
X267399Y397669D01*
X269563Y399204D01*
X271541Y400972D01*
X273309Y402950D01*
X274845Y405114D01*
X276128Y407436D01*
X277143Y409888D01*
X277878Y412437D01*
X278322Y415053D01*
X278471Y417702D01*
X278322Y420351D01*
X277878Y422966D01*
X277143Y425516D01*
X276128Y427967D01*
X274845Y430289D01*
X273309Y432453D01*
X271541Y434432D01*
X269563Y436199D01*
X267399Y437735D01*
X265077Y439018D01*
X262626Y440033D01*
X260076Y440768D01*
X259536Y440860D01*
X259579Y441360D01*
X378556Y441324D01*
D02*
G37*
G36*
X379113Y415501D02*
X379056Y414910D01*
X377231Y413608D01*
X364634D01*
X364131Y413508D01*
X363705Y413224D01*
X361454Y410972D01*
X360957Y411025D01*
X358360Y415023D01*
X359080Y415743D01*
X378887D01*
X379113Y415501D01*
D02*
G37*
G36*
X413814Y266778D02*
X414240Y266493D01*
X414743Y266393D01*
X421550D01*
X421573Y266389D01*
X433350D01*
X433611Y265999D01*
X434392Y265476D01*
X435314Y265293D01*
X436236Y265476D01*
X436632Y265742D01*
X437132Y265474D01*
Y263777D01*
X436442Y263087D01*
X436158Y262661D01*
X436058Y262159D01*
Y255910D01*
X436158Y255408D01*
X436442Y254982D01*
X448777Y242647D01*
X449203Y242362D01*
X449705Y242262D01*
X460591D01*
X461093Y242362D01*
X461519Y242647D01*
X470575Y251703D01*
X471905D01*
X471949Y251659D01*
X472375Y251374D01*
X472877Y251274D01*
X489636D01*
X490138Y251374D01*
X490564Y251659D01*
X490608Y251703D01*
X495178D01*
X511532Y235349D01*
X511957Y235065D01*
X512460Y234965D01*
X560390D01*
X560892Y235065D01*
X561318Y235349D01*
X567000Y241032D01*
X567384Y240708D01*
X566151Y238971D01*
X564868Y236649D01*
X563853Y234198D01*
X563118Y231648D01*
X562674Y229033D01*
X562525Y226384D01*
X562674Y223735D01*
X562680Y223696D01*
X562265Y223157D01*
X555737Y222573D01*
X545125Y222004D01*
X534500Y221815D01*
X523875Y222004D01*
X513263Y222573D01*
X506735Y223157D01*
X506320Y223696D01*
X506326Y223735D01*
X506475Y226384D01*
X506326Y229033D01*
X505882Y231648D01*
X505147Y234198D01*
X504132Y236649D01*
X502849Y238971D01*
X501313Y241135D01*
X499545Y243113D01*
X497567Y244881D01*
X495403Y246417D01*
X493081Y247700D01*
X490630Y248715D01*
X488080Y249450D01*
X485465Y249894D01*
X482816Y250043D01*
X480167Y249894D01*
X477551Y249450D01*
X475002Y248715D01*
X472550Y247700D01*
X470228Y246417D01*
X468064Y244881D01*
X466086Y243113D01*
X464318Y241135D01*
X462783Y238971D01*
X461499Y236649D01*
X460484Y234198D01*
X459750Y231648D01*
X459220Y231517D01*
X450632Y233873D01*
X440491Y237048D01*
X430470Y240584D01*
X420581Y244475D01*
X410837Y248716D01*
X407047Y250529D01*
X406838Y251184D01*
X406997Y251473D01*
X408013Y253924D01*
X408747Y256473D01*
X409192Y259089D01*
X409340Y261738D01*
X409192Y264387D01*
X408747Y267003D01*
X408013Y269552D01*
X406997Y272003D01*
X405904Y273981D01*
X406308Y274285D01*
X413814Y266778D01*
D02*
G37*
%LPC*%
G36*
X552921Y310953D02*
X548795D01*
Y308466D01*
X549264D01*
X550296Y308602D01*
X551257Y309000D01*
X552083Y309634D01*
X552716Y310460D01*
X552921Y310953D01*
D02*
G37*
G36*
X635859Y321627D02*
X634703Y320891D01*
X635228Y320067D01*
X636383Y320803D01*
X635859Y321627D01*
D02*
G37*
G36*
X641681Y320621D02*
X640525Y319885D01*
X641050Y319062D01*
X642205Y319798D01*
X641681Y320621D01*
D02*
G37*
G36*
X628367Y311790D02*
X627237Y311014D01*
X627790Y310209D01*
X628920Y310985D01*
X628367Y311790D01*
D02*
G37*
G36*
X695130Y325721D02*
X694109Y325522D01*
X693173Y325066D01*
X692388Y324383D01*
X691806Y323520D01*
X691467Y322536D01*
X691394Y321498D01*
X691593Y320476D01*
X692049Y319541D01*
X692851Y318329D01*
X696175Y320530D01*
X699500Y322730D01*
X698698Y323942D01*
X698015Y324727D01*
X697153Y325309D01*
X696169Y325648D01*
X695130Y325721D01*
D02*
G37*
G36*
X655007Y320574D02*
X653827Y319879D01*
X654322Y319037D01*
X655503Y319733D01*
X655007Y320574D01*
D02*
G37*
G36*
X639544Y323975D02*
X638389Y323239D01*
X638913Y322415D01*
X640069Y323151D01*
X639544Y323975D01*
D02*
G37*
G36*
X649224Y321782D02*
X648043Y321087D01*
X648539Y320246D01*
X649719Y320941D01*
X649224Y321782D01*
D02*
G37*
G36*
X388493Y298346D02*
X387685Y298300D01*
Y296825D01*
X388580D01*
X388493Y298346D01*
D02*
G37*
G36*
X652989Y324000D02*
X651809Y323305D01*
X652304Y322463D01*
X653485Y323159D01*
X652989Y324000D01*
D02*
G37*
G36*
X527330Y310953D02*
X523205D01*
Y308466D01*
X523673D01*
X524705Y308602D01*
X525667Y309000D01*
X526492Y309634D01*
X527126Y310460D01*
X527330Y310953D01*
D02*
G37*
G36*
X545795D02*
X541670D01*
X541874Y310460D01*
X542508Y309634D01*
X543333Y309000D01*
X544295Y308602D01*
X545327Y308466D01*
X545795D01*
Y310953D01*
D02*
G37*
G36*
X416875Y308198D02*
X416281D01*
X416539Y307862D01*
X416875Y307604D01*
Y308198D01*
D02*
G37*
G36*
X520205Y310953D02*
X516079D01*
X516284Y310460D01*
X516917Y309634D01*
X517743Y309000D01*
X518704Y308602D01*
X519736Y308466D01*
X520205D01*
Y310953D01*
D02*
G37*
G36*
X416875Y311792D02*
X416539Y311534D01*
X416281Y311198D01*
X416875D01*
Y311792D01*
D02*
G37*
G36*
X523673Y316440D02*
X523205D01*
Y313953D01*
X527330D01*
X527126Y314447D01*
X526492Y315272D01*
X525667Y315906D01*
X524705Y316304D01*
X523673Y316440D01*
D02*
G37*
G36*
X545795D02*
X545327D01*
X544295Y316304D01*
X543333Y315906D01*
X542508Y315272D01*
X541874Y314447D01*
X541670Y313953D01*
X545795D01*
Y316440D01*
D02*
G37*
G36*
X701156Y320229D02*
X697831Y318028D01*
X694507Y315828D01*
X695309Y314616D01*
X695574Y314311D01*
X695346Y313811D01*
X693154D01*
X690181Y318304D01*
X689535Y319047D01*
X688718Y319598D01*
X687787Y319919D01*
X686804Y319987D01*
X685838Y319799D01*
X684953Y319368D01*
X684209Y318722D01*
X683659Y317905D01*
X683338Y316974D01*
X683269Y315992D01*
X683457Y315025D01*
X683889Y314140D01*
X687149Y309215D01*
X687795Y308472D01*
X688611Y307921D01*
X688915Y307816D01*
X688832Y307316D01*
X685366D01*
X685101Y307860D01*
X681842Y312785D01*
X681196Y313528D01*
X680379Y314079D01*
X679448Y314399D01*
X678466Y314468D01*
X677499Y314280D01*
X676614Y313848D01*
X675871Y313202D01*
X675320Y312386D01*
X674999Y311455D01*
X674931Y310472D01*
X675118Y309506D01*
X675550Y308620D01*
X678810Y303696D01*
X679456Y302953D01*
X680272Y302402D01*
X681203Y302081D01*
X682186Y302013D01*
X683152Y302201D01*
X684038Y302632D01*
X684060Y302652D01*
X713533D01*
X713681Y302152D01*
X713601Y302100D01*
X713116Y301561D01*
X712786Y300914D01*
X712767Y300822D01*
X677317D01*
X677194Y301456D01*
X676762Y302341D01*
X673503Y307265D01*
X672857Y308009D01*
X672040Y308559D01*
X671109Y308880D01*
X670127Y308949D01*
X669160Y308761D01*
X668275Y308329D01*
X667532Y307683D01*
X666981Y306866D01*
X666660Y305935D01*
X666592Y304953D01*
X666780Y303986D01*
X667211Y303101D01*
X670471Y298177D01*
X671117Y297433D01*
X671933Y296883D01*
X672864Y296562D01*
X673847Y296493D01*
X674809Y296680D01*
X675326Y296335D01*
X676218Y296157D01*
X705929D01*
X706077Y295657D01*
X705998Y295606D01*
X705512Y295066D01*
X705183Y294420D01*
X705163Y294327D01*
X672023D01*
X666510Y299840D01*
X666359Y299941D01*
X665164Y301746D01*
X664518Y302489D01*
X663702Y303040D01*
X662770Y303361D01*
X661788Y303429D01*
X660821Y303241D01*
X659936Y302810D01*
X659193Y302164D01*
X658642Y301347D01*
X658322Y300416D01*
X658253Y299433D01*
X658441Y298467D01*
X658873Y297582D01*
X662132Y292657D01*
X662778Y291914D01*
X663594Y291363D01*
X664526Y291043D01*
X665508Y290974D01*
X666475Y291162D01*
X667360Y291594D01*
X667788Y291966D01*
X669408Y290346D01*
X670164Y289841D01*
X671057Y289663D01*
X707418D01*
X708246Y288693D01*
X708785Y288208D01*
X709432Y287878D01*
X710142Y287727D01*
X710866Y287765D01*
X711556Y287989D01*
X712165Y288385D01*
X712650Y288924D01*
X712980Y289570D01*
X713131Y290280D01*
X713093Y291005D01*
X712868Y291695D01*
X712473Y292303D01*
X709916Y295297D01*
X709516Y295657D01*
X709703Y296157D01*
X715022D01*
X715850Y295187D01*
X716389Y294702D01*
X717036Y294373D01*
X717745Y294222D01*
X718470Y294260D01*
X719160Y294484D01*
X719769Y294879D01*
X720254Y295418D01*
X720584Y296065D01*
X720735Y296775D01*
X720697Y297499D01*
X720472Y298189D01*
X720077Y298798D01*
X717520Y301792D01*
X717120Y302152D01*
X717307Y302652D01*
X722626D01*
X723454Y301682D01*
X723993Y301197D01*
X724640Y300867D01*
X725350Y300716D01*
X726074Y300754D01*
X726764Y300978D01*
X727373Y301374D01*
X727859Y301913D01*
X728188Y302559D01*
X728339Y303269D01*
X728301Y303994D01*
X728077Y304684D01*
X727681Y305293D01*
X725125Y308286D01*
X724725Y308646D01*
X724911Y309146D01*
X730230D01*
X731058Y308177D01*
X731597Y307691D01*
X732244Y307362D01*
X732954Y307211D01*
X733678Y307249D01*
X734368Y307473D01*
X734977Y307868D01*
X735463Y308407D01*
X735792Y309054D01*
X735943Y309764D01*
X735905Y310488D01*
X735681Y311178D01*
X735285Y311787D01*
X732728Y314781D01*
X732189Y315266D01*
X731543Y315596D01*
X730833Y315747D01*
X730108Y315709D01*
X729418Y315484D01*
X728810Y315089D01*
X728324Y314550D01*
X727995Y313903D01*
X727975Y313811D01*
X701906D01*
X701711Y314311D01*
X702201Y315038D01*
X702540Y316022D01*
X702613Y317060D01*
X702414Y318082D01*
X701958Y319017D01*
X701156Y320229D01*
D02*
G37*
G36*
X520205Y316440D02*
X519736D01*
X518704Y316304D01*
X517743Y315906D01*
X516917Y315272D01*
X516284Y314447D01*
X516079Y313953D01*
X520205D01*
Y316440D01*
D02*
G37*
G36*
X629716Y317542D02*
X628587Y316766D01*
X629140Y315961D01*
X630269Y316737D01*
X629716Y317542D01*
D02*
G37*
G36*
X512295Y317477D02*
X512116Y316119D01*
X513084Y315992D01*
X513263Y317350D01*
X512295Y317477D01*
D02*
G37*
G36*
X549264Y316440D02*
X548795D01*
Y313953D01*
X552921D01*
X552716Y314447D01*
X552083Y315272D01*
X551257Y315906D01*
X550296Y316304D01*
X549264Y316440D01*
D02*
G37*
G36*
X490739Y321195D02*
X489725Y315978D01*
X490081Y315909D01*
Y314405D01*
X488767Y307641D01*
X492631Y306890D01*
X494021Y314040D01*
X492707Y314295D01*
Y315005D01*
X493092Y315323D01*
X494170Y315114D01*
X495184Y320331D01*
X490739Y321195D01*
D02*
G37*
G36*
X626114Y315067D02*
X624985Y314291D01*
X625538Y313486D01*
X626667Y314262D01*
X626114Y315067D01*
D02*
G37*
G36*
X507782Y313664D02*
X507604Y312305D01*
X508571Y312178D01*
X508750Y313536D01*
X507782Y313664D01*
D02*
G37*
G36*
X496343Y320106D02*
X495329Y314889D01*
X499774Y314025D01*
X500109Y315753D01*
X502135D01*
X502464Y315377D01*
X502182Y313234D01*
X506671Y312643D01*
X507365Y317912D01*
X502876Y318503D01*
X502859Y318378D01*
X501013D01*
X500695Y318764D01*
X500788Y319242D01*
X496343Y320106D01*
D02*
G37*
G36*
X651242Y318356D02*
X650062Y317661D01*
X650557Y316819D01*
X651738Y317515D01*
X651242Y318356D01*
D02*
G37*
G36*
X511725Y313145D02*
X511546Y311786D01*
X512514Y311659D01*
X512693Y313017D01*
X511725Y313145D01*
D02*
G37*
G36*
X637995Y318273D02*
X636840Y317537D01*
X637364Y316714D01*
X638520Y317450D01*
X637995Y318273D01*
D02*
G37*
G36*
X508353Y317997D02*
X508174Y316638D01*
X509142Y316511D01*
X509321Y317869D01*
X508353Y317997D01*
D02*
G37*
G36*
X631968Y314265D02*
X630839Y313489D01*
X631392Y312684D01*
X632521Y313460D01*
X631968Y314265D01*
D02*
G37*
G36*
X548636Y337168D02*
X547931Y336999D01*
X547293Y336653D01*
X546767Y336153D01*
X546387Y335535D01*
X546181Y334839D01*
X546162Y334113D01*
X546574Y330198D01*
X546743Y329492D01*
X547090Y328855D01*
X547589Y328328D01*
X547820Y328187D01*
Y324149D01*
X547920Y323647D01*
X548204Y323221D01*
X555421Y316005D01*
X555329Y315544D01*
X555513Y314623D01*
X556035Y313841D01*
X556816Y313319D01*
X557738Y313136D01*
X558660Y313319D01*
X559441Y313841D01*
X559963Y314623D01*
X560146Y315544D01*
X559963Y316466D01*
X559441Y317247D01*
X558660Y317770D01*
X557738Y317953D01*
X557277Y317861D01*
X550445Y324693D01*
Y327954D01*
X550972Y328240D01*
X551499Y328739D01*
X551878Y329358D01*
X552084Y330054D01*
X552103Y330779D01*
X551691Y334694D01*
X551522Y335400D01*
X551176Y336038D01*
X550676Y336564D01*
X550057Y336943D01*
X549362Y337149D01*
X548636Y337168D01*
D02*
G37*
G36*
X501652Y260697D02*
Y260102D01*
X502247D01*
X501989Y260438D01*
X501652Y260697D01*
D02*
G37*
G36*
X509504Y262613D02*
X510132Y260887D01*
X511859Y261515D01*
X511607Y261790D01*
X510795Y262307D01*
X509876Y262597D01*
X509504Y262613D01*
D02*
G37*
G36*
X432271Y259923D02*
X431677D01*
Y259329D01*
X432013Y259587D01*
X432271Y259923D01*
D02*
G37*
G36*
X498652Y260697D02*
X498316Y260438D01*
X498058Y260102D01*
X498652D01*
Y260697D01*
D02*
G37*
G36*
X486131Y261779D02*
X485794Y261521D01*
X485536Y261185D01*
X486131D01*
Y261779D01*
D02*
G37*
G36*
X545795Y263684D02*
X545327D01*
X544295Y263548D01*
X543333Y263150D01*
X542508Y262516D01*
X541874Y261691D01*
X541670Y261197D01*
X545795D01*
Y263684D01*
D02*
G37*
G36*
X549264D02*
X548795D01*
Y261197D01*
X552921D01*
X552716Y261691D01*
X552083Y262516D01*
X551257Y263150D01*
X550296Y263548D01*
X549264Y263684D01*
D02*
G37*
G36*
X520205D02*
X519736D01*
X518704Y263548D01*
X517743Y263150D01*
X516917Y262516D01*
X516284Y261691D01*
X516079Y261197D01*
X520205D01*
Y263684D01*
D02*
G37*
G36*
X523673D02*
X523205D01*
Y261197D01*
X527330D01*
X527126Y261691D01*
X526492Y262516D01*
X525667Y263150D01*
X524705Y263548D01*
X523673Y263684D01*
D02*
G37*
G36*
X428677Y259923D02*
X428083D01*
X428341Y259587D01*
X428677Y259329D01*
Y259923D01*
D02*
G37*
G36*
X527330Y258197D02*
X523205D01*
Y255711D01*
X523673D01*
X524705Y255846D01*
X525667Y256245D01*
X526492Y256878D01*
X527126Y257704D01*
X527330Y258197D01*
D02*
G37*
G36*
X545795D02*
X541670D01*
X541874Y257704D01*
X542508Y256878D01*
X543333Y256245D01*
X544295Y255846D01*
X545327Y255711D01*
X545795D01*
Y258197D01*
D02*
G37*
G36*
X508339Y257041D02*
X506613Y256413D01*
X506865Y256138D01*
X507677Y255621D01*
X508595Y255331D01*
X508968Y255315D01*
X508339Y257041D01*
D02*
G37*
G36*
X520205Y258197D02*
X516079D01*
X516284Y257704D01*
X516917Y256878D01*
X517743Y256245D01*
X518704Y255846D01*
X519736Y255711D01*
X520205D01*
Y258197D01*
D02*
G37*
G36*
X552921D02*
X548795D01*
Y255711D01*
X549264D01*
X550296Y255846D01*
X551257Y256245D01*
X552083Y256878D01*
X552716Y257704D01*
X552921Y258197D01*
D02*
G37*
G36*
X502247Y257102D02*
X501652D01*
Y256508D01*
X501989Y256766D01*
X502247Y257102D01*
D02*
G37*
G36*
X506685Y261587D02*
X506410Y261335D01*
X505892Y260523D01*
X505603Y259605D01*
X505587Y259232D01*
X507313Y259860D01*
X506685Y261587D01*
D02*
G37*
G36*
X512885Y258696D02*
X511158Y258067D01*
X511787Y256341D01*
X512062Y256593D01*
X512579Y257405D01*
X512869Y258323D01*
X512885Y258696D01*
D02*
G37*
G36*
X498652Y257102D02*
X498058D01*
X498316Y256766D01*
X498652Y256508D01*
Y257102D01*
D02*
G37*
G36*
X428677Y263517D02*
X428341Y263259D01*
X428083Y262923D01*
X428677D01*
Y263517D01*
D02*
G37*
G36*
X645097Y292604D02*
X644573Y292503D01*
X647393Y288242D01*
X649467Y289614D01*
X648665Y290826D01*
X647982Y291611D01*
X647120Y292193D01*
X646135Y292532D01*
X645097Y292604D01*
D02*
G37*
G36*
X378584Y289069D02*
X377989D01*
X378247Y288732D01*
X378584Y288474D01*
Y289069D01*
D02*
G37*
G36*
X651123Y287112D02*
X649049Y285740D01*
X651869Y281479D01*
X652168Y281922D01*
X652507Y282906D01*
X652579Y283944D01*
X652381Y284966D01*
X651925Y285901D01*
X651123Y287112D01*
D02*
G37*
G36*
X642071Y290847D02*
X641773Y290404D01*
X641434Y289420D01*
X641361Y288382D01*
X641560Y287360D01*
X642016Y286425D01*
X642818Y285213D01*
X644892Y286586D01*
X642071Y290847D01*
D02*
G37*
G36*
X366398Y293494D02*
X364431Y291151D01*
X365209Y291117D01*
X365972Y291286D01*
X366665Y291647D01*
X367241Y292175D01*
X367543Y292534D01*
X366398Y293494D01*
D02*
G37*
G36*
X641532Y295308D02*
X640689Y294816D01*
X641379Y293633D01*
X642222Y294124D01*
X641532Y295308D01*
D02*
G37*
G36*
X558767Y301298D02*
X554268Y300785D01*
X554583Y298022D01*
X553040Y296479D01*
X552621Y296563D01*
X552507Y296653D01*
X551931Y297404D01*
X551150Y298004D01*
X550240Y298380D01*
X549264Y298509D01*
X545327D01*
X544350Y298380D01*
X543441Y298004D01*
X542659Y297404D01*
X542060Y296623D01*
X541683Y295713D01*
X541554Y294737D01*
X541683Y293760D01*
X542060Y292850D01*
X542659Y292069D01*
X543441Y291470D01*
X544350Y291093D01*
X545327Y290964D01*
X549264D01*
X550240Y291093D01*
X551150Y291470D01*
X551931Y292069D01*
X552507Y292820D01*
X552621Y292911D01*
X553040Y292994D01*
X555428Y290606D01*
X555717Y288072D01*
X560215Y288585D01*
X559613Y293865D01*
X556263Y293484D01*
X555260Y294487D01*
Y294987D01*
X555895Y295621D01*
X559368Y296017D01*
X558767Y301298D01*
D02*
G37*
G36*
X429181Y292403D02*
X427812Y292339D01*
X427858Y291363D01*
X429226Y291427D01*
X429181Y292403D01*
D02*
G37*
G36*
X378584Y292663D02*
X378247Y292405D01*
X377989Y292069D01*
X378584D01*
Y292663D01*
D02*
G37*
G36*
X646547Y284084D02*
X644474Y282712D01*
X645275Y281500D01*
X645958Y280715D01*
X646821Y280133D01*
X647805Y279794D01*
X648843Y279721D01*
X649368Y279823D01*
X646547Y284084D01*
D02*
G37*
G36*
X414526Y274364D02*
X413032D01*
Y273896D01*
X413134Y273121D01*
X413433Y272399D01*
X413909Y271779D01*
X414526Y271305D01*
Y274364D01*
D02*
G37*
G36*
X419021D02*
X417526D01*
Y271305D01*
X418144Y271779D01*
X418619Y272399D01*
X418919Y273121D01*
X419021Y273896D01*
Y274364D01*
D02*
G37*
G36*
X431677Y263517D02*
Y262923D01*
X432271D01*
X432013Y263259D01*
X431677Y263517D01*
D02*
G37*
G36*
X523673Y281186D02*
X519736D01*
X518760Y281058D01*
X517850Y280681D01*
X517069Y280081D01*
X516469Y279300D01*
X516092Y278390D01*
X515964Y277414D01*
X516092Y276437D01*
X516469Y275528D01*
X517069Y274746D01*
X517850Y274147D01*
X518760Y273770D01*
X519736Y273641D01*
X523621D01*
X526794Y270468D01*
X527220Y270184D01*
X527722Y270084D01*
X553374D01*
X553523Y268534D01*
X558030Y268968D01*
X557521Y274259D01*
X553014Y273825D01*
X553086Y273079D01*
X552750Y272709D01*
X528266D01*
X526334Y274641D01*
X526341Y274746D01*
X526940Y275528D01*
X527317Y276437D01*
X527446Y277414D01*
X527317Y278390D01*
X526940Y279300D01*
X526341Y280081D01*
X525559Y280681D01*
X524650Y281058D01*
X523673Y281186D01*
D02*
G37*
G36*
X549264D02*
X545327D01*
X544350Y281058D01*
X543441Y280681D01*
X542659Y280081D01*
X542060Y279300D01*
X541683Y278390D01*
X541554Y277414D01*
X541683Y276437D01*
X542060Y275528D01*
X542659Y274746D01*
X543441Y274147D01*
X544350Y273770D01*
X545327Y273641D01*
X549264D01*
X550240Y273770D01*
X551150Y274147D01*
X551931Y274746D01*
X552531Y275528D01*
X552908Y276437D01*
X553036Y277414D01*
X552908Y278390D01*
X552531Y279300D01*
X551931Y280081D01*
X551150Y280681D01*
X550240Y281058D01*
X549264Y281186D01*
D02*
G37*
G36*
X414526Y280424D02*
X413909Y279950D01*
X413433Y279330D01*
X413134Y278608D01*
X413032Y277833D01*
Y277364D01*
X414526D01*
Y280424D01*
D02*
G37*
G36*
X417526D02*
Y277364D01*
X419021D01*
Y277833D01*
X418919Y278608D01*
X418619Y279330D01*
X418144Y279950D01*
X417526Y280424D01*
D02*
G37*
G36*
X492557Y276645D02*
X491962D01*
X492221Y276309D01*
X492557Y276050D01*
Y276645D01*
D02*
G37*
G36*
X496151D02*
X495557D01*
Y276050D01*
X495893Y276309D01*
X496151Y276645D01*
D02*
G37*
G36*
X401887Y372818D02*
X400849Y371743D01*
X403049Y369618D01*
X403137Y370391D01*
X403022Y371164D01*
X402710Y371881D01*
X402224Y372492D01*
X401887Y372818D01*
D02*
G37*
G36*
X394406Y373794D02*
X394318Y373021D01*
X394434Y372248D01*
X394745Y371531D01*
X395232Y370920D01*
X395569Y370594D01*
X396607Y371669D01*
X394406Y373794D01*
D02*
G37*
G36*
X398765Y369585D02*
X397727Y368510D01*
X398064Y368185D01*
X398692Y367720D01*
X399419Y367433D01*
X400196Y367345D01*
X400965Y367460D01*
X398765Y369585D01*
D02*
G37*
G36*
X733321Y377641D02*
X725643Y366676D01*
X731771Y362385D01*
X739448Y373350D01*
X733321Y377641D01*
D02*
G37*
G36*
X383123Y375606D02*
X382406Y375499D01*
X381740Y375209D01*
X381172Y374758D01*
X380741Y374174D01*
X380475Y373499D01*
X380393Y372778D01*
X380500Y372060D01*
X380789Y371395D01*
X381241Y370827D01*
X384073Y368092D01*
X384656Y367660D01*
X385331Y367394D01*
X386052Y367312D01*
X386770Y367420D01*
X387435Y367709D01*
X388003Y368161D01*
X388435Y368744D01*
X388701Y369419D01*
X388783Y370140D01*
X388676Y370858D01*
X388387Y371523D01*
X387935Y372091D01*
X385103Y374826D01*
X384519Y375258D01*
X383844Y375524D01*
X383123Y375606D01*
D02*
G37*
G36*
X351486Y398067D02*
X345212Y393993D01*
X352503Y382767D01*
X358776Y386841D01*
X351486Y398067D01*
D02*
G37*
G36*
X307973Y391188D02*
X305916Y389852D01*
X308860Y385318D01*
X310917Y386654D01*
X307973Y391188D01*
D02*
G37*
G36*
X390070Y382799D02*
X389352Y382692D01*
X388687Y382403D01*
X388119Y381951D01*
X387687Y381368D01*
X387421Y380692D01*
X387339Y379972D01*
X387446Y379254D01*
X387736Y378588D01*
X388187Y378020D01*
X391019Y375286D01*
X391603Y374854D01*
X392278Y374588D01*
X392999Y374506D01*
X393717Y374613D01*
X394335Y374882D01*
X394336Y374882D01*
X394382Y374902D01*
X394950Y375354D01*
X395382Y375937D01*
X395400Y375985D01*
X395400Y375985D01*
X395648Y376613D01*
X395730Y377334D01*
X395622Y378051D01*
X395333Y378717D01*
X394881Y379285D01*
X392049Y382019D01*
X391466Y382451D01*
X390791Y382717D01*
X390070Y382799D01*
D02*
G37*
G36*
X397259Y376067D02*
X396490Y375952D01*
X398691Y373827D01*
X399729Y374902D01*
X399392Y375227D01*
X398763Y375692D01*
X398036Y375979D01*
X397259Y376067D01*
D02*
G37*
G36*
X747578Y389285D02*
X739901Y378320D01*
X746028Y374030D01*
X753706Y384995D01*
X747578Y389285D01*
D02*
G37*
G36*
X376177Y368412D02*
X375459Y368305D01*
X374794Y368016D01*
X374226Y367564D01*
X373794Y366981D01*
X373528Y366306D01*
X373446Y365585D01*
X373553Y364867D01*
X373843Y364201D01*
X374294Y363634D01*
X377126Y360899D01*
X377710Y360467D01*
X378385Y360201D01*
X379106Y360119D01*
X379823Y360226D01*
X380442Y360495D01*
X380442Y360495D01*
X380489Y360515D01*
X381057Y360967D01*
X381488Y361551D01*
X381507Y361598D01*
X381507Y361598D01*
X381754Y362226D01*
X381837Y362947D01*
X381729Y363665D01*
X381440Y364330D01*
X380988Y364898D01*
X378156Y367633D01*
X377573Y368064D01*
X376898Y368330D01*
X376177Y368412D01*
D02*
G37*
G36*
X384872Y355198D02*
X383834Y354123D01*
X384171Y353798D01*
X384799Y353333D01*
X385526Y353046D01*
X386303Y352958D01*
X387072Y353073D01*
X384872Y355198D01*
D02*
G37*
G36*
X369230Y361219D02*
X368512Y361112D01*
X367847Y360822D01*
X367279Y360371D01*
X366847Y359787D01*
X366582Y359112D01*
X366499Y358391D01*
X366607Y357674D01*
X366896Y357008D01*
X367348Y356440D01*
X370180Y353705D01*
X370763Y353274D01*
X371438Y353008D01*
X372159Y352926D01*
X372877Y353033D01*
X373496Y353302D01*
X373496Y353302D01*
X373542Y353322D01*
X374110Y353774D01*
X374542Y354357D01*
X374561Y354404D01*
X374560Y354405D01*
X374808Y355032D01*
X374890Y355753D01*
X374783Y356471D01*
X374493Y357137D01*
X374042Y357704D01*
X371210Y360439D01*
X370626Y360871D01*
X369951Y361137D01*
X369230Y361219D01*
D02*
G37*
G36*
X418893Y353006D02*
Y352412D01*
X419487D01*
X419229Y352748D01*
X418893Y353006D01*
D02*
G37*
G36*
X376420Y354487D02*
X375650Y354372D01*
X377851Y352247D01*
X378889Y353322D01*
X378552Y353647D01*
X377923Y354112D01*
X377196Y354398D01*
X376420Y354487D01*
D02*
G37*
G36*
X415893Y353006D02*
X415556Y352748D01*
X415298Y352412D01*
X415893D01*
Y353006D01*
D02*
G37*
G36*
X383366Y361680D02*
X382597Y361565D01*
X384798Y359440D01*
X385835Y360515D01*
X385498Y360840D01*
X384870Y361305D01*
X384143Y361592D01*
X383366Y361680D01*
D02*
G37*
G36*
X390317Y368659D02*
X389599Y368552D01*
X388933Y368263D01*
X388366Y367811D01*
X387934Y367228D01*
X387668Y366552D01*
X387586Y365831D01*
X387693Y365114D01*
X387983Y364448D01*
X388434Y363880D01*
X391266Y361145D01*
X391849Y360714D01*
X392525Y360448D01*
X393246Y360366D01*
X393963Y360473D01*
X394629Y360762D01*
X395197Y361214D01*
X395628Y361797D01*
X395894Y362473D01*
X395976Y363194D01*
X395869Y363911D01*
X395580Y364577D01*
X395128Y365145D01*
X392296Y367880D01*
X391713Y368311D01*
X391038Y368577D01*
X390317Y368659D01*
D02*
G37*
G36*
X741512Y371905D02*
X733835Y360940D01*
X739962Y356649D01*
X747640Y367614D01*
X741512Y371905D01*
D02*
G37*
G36*
X387994Y358431D02*
X386956Y357356D01*
X389156Y355231D01*
X389244Y356004D01*
X389129Y356777D01*
X388817Y357494D01*
X388331Y358105D01*
X387994Y358431D01*
D02*
G37*
G36*
X380513Y359407D02*
X380425Y358634D01*
X380540Y357861D01*
X380852Y357144D01*
X381339Y356533D01*
X381676Y356207D01*
X382714Y357282D01*
X380513Y359407D01*
D02*
G37*
G36*
X306899Y409829D02*
X307006Y406772D01*
X308499Y406824D01*
X308483Y407292D01*
X308354Y408063D01*
X308030Y408774D01*
X307532Y409377D01*
X306899Y409829D01*
D02*
G37*
G36*
X711035Y415133D02*
X707935Y410705D01*
X709944Y409298D01*
X713045Y413726D01*
X711035Y415133D01*
D02*
G37*
G36*
X303901Y409725D02*
X303301Y409230D01*
X302847Y408593D01*
X302573Y407861D01*
X302498Y407083D01*
X302515Y406615D01*
X304008Y406667D01*
X303901Y409725D01*
D02*
G37*
G36*
X714813Y412228D02*
X707712Y402087D01*
X705720D01*
X705335Y402388D01*
X705337Y402719D01*
D01*
X705337Y402719D01*
X708223Y406840D01*
X706214Y408247D01*
X703114Y403819D01*
X704781Y402652D01*
Y402652D01*
X704801Y402356D01*
X704418Y402087D01*
X693918D01*
X693415Y401987D01*
X692989Y401703D01*
X691095Y399808D01*
X690675Y399891D01*
X689753Y399708D01*
X688972Y399186D01*
X688450Y398405D01*
X688266Y397483D01*
X688450Y396561D01*
X688972Y395780D01*
X689753Y395258D01*
X690675Y395074D01*
X691596Y395258D01*
X692378Y395780D01*
X692900Y396561D01*
X693083Y397483D01*
X692984Y397984D01*
X694461Y399462D01*
X699228D01*
X699459Y399018D01*
X692877Y389619D01*
X698467Y385704D01*
Y374254D01*
X698567Y373752D01*
X698852Y373326D01*
X705719Y366459D01*
Y344232D01*
X696481Y334994D01*
X695982Y335016D01*
X695486Y335607D01*
X692018Y332697D01*
X695434Y328625D01*
X696337Y329383D01*
X700617Y325102D01*
X703826Y320254D01*
X704472Y319511D01*
X705289Y318960D01*
X706220Y318639D01*
X707202Y318571D01*
X708169Y318759D01*
X709054Y319190D01*
X709797Y319836D01*
X710348Y320653D01*
X710669Y321584D01*
X710738Y322566D01*
X710549Y323533D01*
X710118Y324418D01*
X706858Y329343D01*
X706212Y330086D01*
X705396Y330637D01*
X704465Y330957D01*
X703482Y331026D01*
X702516Y330838D01*
X701630Y330406D01*
X700887Y329760D01*
X700618Y329360D01*
X700120Y329312D01*
X698617Y330815D01*
X698639Y331315D01*
X698902Y331536D01*
X697914Y332714D01*
X707960Y342760D01*
X708244Y343186D01*
X708344Y343688D01*
Y367002D01*
X708244Y367505D01*
X707960Y367931D01*
X706840Y369051D01*
X707086Y369511D01*
X707357Y369457D01*
X708279Y369641D01*
X709060Y370163D01*
X709321Y370553D01*
X715692D01*
X716194Y370653D01*
X716620Y370938D01*
X717829Y372147D01*
X723579Y368121D01*
X731257Y379086D01*
X726228Y382607D01*
X726184Y383105D01*
X727077Y383998D01*
X729985D01*
X730487Y384098D01*
X730913Y384382D01*
X732295Y385764D01*
X732679Y385441D01*
X731709Y384056D01*
X737837Y379766D01*
X745515Y390731D01*
X739387Y395021D01*
X734965Y388706D01*
X732500D01*
X732239Y389206D01*
X737323Y396466D01*
X731195Y400757D01*
X723518Y389792D01*
X727362Y387100D01*
X727212Y386623D01*
X726533D01*
X726031Y386523D01*
X725605Y386239D01*
X722473Y383106D01*
X722090Y383428D01*
X723066Y384822D01*
X716938Y389112D01*
X709260Y378147D01*
X715129Y374038D01*
X715213Y373498D01*
X714943Y373179D01*
X709321D01*
X709060Y373569D01*
X708279Y374091D01*
X707357Y374274D01*
X706436Y374091D01*
X705654Y373569D01*
X705132Y372788D01*
X704949Y371866D01*
X705003Y371595D01*
X704542Y371348D01*
X701092Y374798D01*
Y383325D01*
X701536Y383556D01*
X707196Y379592D01*
X714874Y390557D01*
X708746Y394848D01*
X701569Y384598D01*
X701092Y384748D01*
Y388310D01*
X706682Y396293D01*
X702838Y398985D01*
X702988Y399462D01*
X709707D01*
X713262Y396973D01*
X720940Y407938D01*
X714813Y412228D01*
D02*
G37*
G36*
X701748Y411375D02*
X698647Y406947D01*
X700656Y405540D01*
X703757Y409968D01*
X701748Y411375D01*
D02*
G37*
G36*
X349016Y433642D02*
X294870Y433613D01*
X294814Y433619D01*
X294699Y433642D01*
X294659Y433634D01*
X294620Y433638D01*
X293462Y433524D01*
X293387Y433501D01*
X293308Y433493D01*
X292195Y433155D01*
X292125Y433118D01*
X292049Y433095D01*
X291023Y432547D01*
X290962Y432497D01*
X290893Y432459D01*
X289993Y431721D01*
X289943Y431660D01*
X289882Y431610D01*
X289144Y430711D01*
X289107Y430641D01*
X289057Y430580D01*
X288508Y429554D01*
X288485Y429478D01*
X288448Y429409D01*
X288110Y428295D01*
X288103Y428217D01*
X288080Y428141D01*
X287965Y426983D01*
X287973Y426905D01*
X287965Y426826D01*
X288080Y425668D01*
X288103Y425593D01*
X288110Y425514D01*
X288448Y424401D01*
X288485Y424331D01*
X288508Y424255D01*
X289057Y423230D01*
X289107Y423168D01*
X289144Y423099D01*
X289882Y422199D01*
X289943Y422149D01*
X289993Y422088D01*
X290893Y421350D01*
X290962Y421313D01*
X291023Y421263D01*
X292049Y420714D01*
X292125Y420691D01*
X292195Y420654D01*
X293308Y420316D01*
X293387Y420309D01*
X293462Y420286D01*
X294620Y420172D01*
X294660Y420176D01*
X294699Y420168D01*
X348845Y420196D01*
X348901Y420191D01*
X349016Y420168D01*
X349056Y420176D01*
X349095Y420172D01*
X350253Y420286D01*
X350328Y420309D01*
X350407Y420316D01*
X351520Y420654D01*
X351590Y420691D01*
X351666Y420714D01*
X352692Y421263D01*
X352753Y421313D01*
X352823Y421350D01*
X353722Y422088D01*
X353772Y422149D01*
X353833Y422199D01*
X354571Y423099D01*
X354608Y423168D01*
X354659Y423230D01*
X355207Y424255D01*
X355230Y424331D01*
X355267Y424401D01*
X355605Y425514D01*
X355613Y425593D01*
X355636Y425668D01*
X355750Y426826D01*
X355742Y426905D01*
X355750Y426983D01*
X355636Y428141D01*
X355613Y428217D01*
X355605Y428295D01*
X355267Y429409D01*
X355230Y429478D01*
X355207Y429554D01*
X354659Y430580D01*
X354608Y430641D01*
X354571Y430711D01*
X353833Y431610D01*
X353772Y431660D01*
X353722Y431721D01*
X352823Y432459D01*
X352753Y432497D01*
X352692Y432547D01*
X351666Y433095D01*
X351590Y433118D01*
X351520Y433155D01*
X350407Y433493D01*
X350328Y433501D01*
X350253Y433524D01*
X349095Y433638D01*
X349055Y433634D01*
X349016Y433642D01*
D02*
G37*
G36*
X774301D02*
X720155Y433613D01*
X720099Y433619D01*
X719983Y433642D01*
X719944Y433634D01*
X719905Y433638D01*
X718747Y433524D01*
X718672Y433501D01*
X718593Y433493D01*
X717480Y433155D01*
X717410Y433118D01*
X717334Y433095D01*
X716308Y432547D01*
X716247Y432497D01*
X716177Y432459D01*
X715278Y431721D01*
X715228Y431660D01*
X715167Y431610D01*
X714429Y430711D01*
X714392Y430641D01*
X714341Y430580D01*
X713793Y429554D01*
X713770Y429478D01*
X713733Y429409D01*
X713395Y428295D01*
X713387Y428217D01*
X713365Y428141D01*
X713250Y426983D01*
X713258Y426905D01*
X713250Y426826D01*
X713365Y425668D01*
X713387Y425593D01*
X713395Y425514D01*
X713733Y424401D01*
X713770Y424331D01*
X713793Y424255D01*
X714341Y423230D01*
X714392Y423168D01*
X714429Y423099D01*
X715167Y422199D01*
X715228Y422149D01*
X715278Y422088D01*
X716177Y421350D01*
X716247Y421313D01*
X716308Y421263D01*
X717334Y420714D01*
X717410Y420691D01*
X717480Y420654D01*
X718593Y420316D01*
X718672Y420309D01*
X718747Y420286D01*
X719905Y420172D01*
X719945Y420176D01*
X719984Y420168D01*
X774130Y420196D01*
X774186Y420191D01*
X774301Y420168D01*
X774340Y420176D01*
X774380Y420172D01*
X775538Y420286D01*
X775613Y420309D01*
X775692Y420316D01*
X776805Y420654D01*
X776875Y420691D01*
X776951Y420714D01*
X777977Y421263D01*
X778038Y421313D01*
X778108Y421350D01*
X779007Y422088D01*
X779057Y422149D01*
X779118Y422199D01*
X779856Y423099D01*
X779893Y423168D01*
X779944Y423230D01*
X780492Y424255D01*
X780515Y424331D01*
X780552Y424401D01*
X780890Y425514D01*
X780898Y425593D01*
X780920Y425668D01*
X781035Y426826D01*
X781027Y426905D01*
X781035Y426983D01*
X780920Y428141D01*
X780898Y428217D01*
X780890Y428295D01*
X780552Y429409D01*
X780515Y429478D01*
X780492Y429554D01*
X779944Y430580D01*
X779893Y430641D01*
X779856Y430711D01*
X779118Y431610D01*
X779057Y431660D01*
X779007Y431721D01*
X778108Y432459D01*
X778038Y432497D01*
X777977Y432547D01*
X776951Y433095D01*
X776875Y433118D01*
X776805Y433155D01*
X775692Y433493D01*
X775613Y433501D01*
X775538Y433524D01*
X774380Y433638D01*
X774340Y433634D01*
X774301Y433642D01*
D02*
G37*
G36*
X695850Y433321D02*
X695772Y433313D01*
X695693Y433321D01*
X694497Y433203D01*
X694421Y433180D01*
X694342Y433172D01*
X693192Y432823D01*
X693122Y432786D01*
X693047Y432763D01*
X691987Y432196D01*
X691925Y432146D01*
X691856Y432109D01*
X690927Y431346D01*
X690876Y431285D01*
X690815Y431235D01*
X690053Y430306D01*
X690015Y430236D01*
X689965Y430175D01*
X689399Y429115D01*
X689376Y429039D01*
X689338Y428969D01*
X688989Y427819D01*
X688982Y427740D01*
X688959Y427665D01*
X688841Y426468D01*
X688849Y426390D01*
X688841Y426311D01*
X688959Y425115D01*
X688982Y425039D01*
X688989Y424960D01*
X689338Y423810D01*
X689376Y423740D01*
X689399Y423665D01*
X689965Y422605D01*
X690015Y422543D01*
X690053Y422474D01*
X690815Y421545D01*
X690876Y421494D01*
X690927Y421433D01*
X691856Y420671D01*
X691925Y420633D01*
X691987Y420583D01*
X693047Y420016D01*
X693122Y419994D01*
X693192Y419956D01*
X694342Y419607D01*
X694421Y419600D01*
X694497Y419577D01*
X695693Y419459D01*
X695772Y419467D01*
X695850Y419459D01*
X697047Y419577D01*
X697122Y419600D01*
X697201Y419607D01*
X698351Y419956D01*
X698421Y419994D01*
X698497Y420016D01*
X699557Y420583D01*
X699618Y420633D01*
X699688Y420671D01*
X700617Y421433D01*
X700667Y421494D01*
X700728Y421545D01*
X701491Y422474D01*
X701528Y422543D01*
X701578Y422605D01*
X702145Y423665D01*
X702168Y423740D01*
X702205Y423810D01*
X702554Y424960D01*
X702562Y425039D01*
X702585Y425115D01*
X702703Y426311D01*
X702695Y426390D01*
X702703Y426468D01*
X702585Y427665D01*
X702562Y427740D01*
X702554Y427819D01*
X702205Y428969D01*
X702168Y429039D01*
X702145Y429115D01*
X701578Y430175D01*
X701528Y430236D01*
X701491Y430306D01*
X700728Y431235D01*
X700667Y431285D01*
X700617Y431346D01*
X699688Y432109D01*
X699618Y432146D01*
X699557Y432196D01*
X698497Y432763D01*
X698421Y432786D01*
X698351Y432823D01*
X697201Y433172D01*
X697122Y433180D01*
X697047Y433203D01*
X695850Y433321D01*
D02*
G37*
G36*
X706569Y418260D02*
X703468Y413832D01*
X705478Y412425D01*
X708578Y416853D01*
X706569Y418260D01*
D02*
G37*
G36*
X373307Y433321D02*
X373228Y433313D01*
X373150Y433321D01*
X371953Y433203D01*
X371878Y433180D01*
X371799Y433172D01*
X370649Y432823D01*
X370579Y432786D01*
X370503Y432763D01*
X369443Y432196D01*
X369382Y432146D01*
X369312Y432109D01*
X368383Y431346D01*
X368333Y431285D01*
X368272Y431235D01*
X367509Y430306D01*
X367472Y430236D01*
X367422Y430175D01*
X366855Y429115D01*
X366832Y429039D01*
X366795Y428969D01*
X366446Y427819D01*
X366438Y427740D01*
X366415Y427665D01*
X366297Y426468D01*
X366305Y426390D01*
X366297Y426311D01*
X366415Y425115D01*
X366438Y425039D01*
X366446Y424960D01*
X366795Y423810D01*
X366832Y423740D01*
X366855Y423665D01*
X367422Y422605D01*
X367472Y422543D01*
X367509Y422474D01*
X368272Y421545D01*
X368333Y421494D01*
X368383Y421433D01*
X369312Y420671D01*
X369382Y420633D01*
X369443Y420583D01*
X370503Y420016D01*
X370579Y419994D01*
X370649Y419956D01*
X371799Y419607D01*
X371878Y419600D01*
X371953Y419577D01*
X373150Y419459D01*
X373228Y419467D01*
X373307Y419459D01*
X374503Y419577D01*
X374579Y419600D01*
X374658Y419607D01*
X375808Y419956D01*
X375878Y419994D01*
X375953Y420016D01*
X377013Y420583D01*
X377075Y420633D01*
X377144Y420671D01*
X378074Y421433D01*
X378124Y421494D01*
X378185Y421545D01*
X378947Y422474D01*
X378985Y422543D01*
X379035Y422605D01*
X379601Y423665D01*
X379624Y423740D01*
X379662Y423810D01*
X380011Y424960D01*
X380018Y425039D01*
X380041Y425115D01*
X380159Y426311D01*
X380151Y426390D01*
X380159Y426468D01*
X380041Y427665D01*
X380018Y427740D01*
X380011Y427819D01*
X379662Y428969D01*
X379624Y429039D01*
X379601Y429115D01*
X379035Y430175D01*
X378985Y430236D01*
X378947Y430306D01*
X378185Y431235D01*
X378124Y431285D01*
X378074Y431346D01*
X377144Y432109D01*
X377075Y432146D01*
X377013Y432196D01*
X375953Y432763D01*
X375878Y432786D01*
X375808Y432823D01*
X374658Y433172D01*
X374579Y433180D01*
X374503Y433203D01*
X373307Y433321D01*
D02*
G37*
G36*
X308604Y403826D02*
X307111Y403774D01*
X307217Y400716D01*
X307818Y401211D01*
X308272Y401847D01*
X308545Y402579D01*
X308620Y403358D01*
X308604Y403826D01*
D02*
G37*
G36*
X368259Y408960D02*
X361986Y404886D01*
X369276Y393660D01*
X370750Y394617D01*
X371971Y393396D01*
X371898Y393219D01*
X371796Y392448D01*
X371898Y391678D01*
X372195Y390959D01*
X372668Y390342D01*
X373285Y389869D01*
X374004Y389572D01*
X374774Y389470D01*
X375545Y389572D01*
X376263Y389869D01*
X376880Y390342D01*
X377354Y390959D01*
X377651Y391678D01*
X377752Y392448D01*
X377651Y393219D01*
X377354Y393938D01*
X376880Y394554D01*
X376263Y395028D01*
X375545Y395325D01*
X374774Y395427D01*
X374004Y395325D01*
X373827Y395252D01*
X373282Y395797D01*
X373334Y396295D01*
X375550Y397734D01*
X368259Y408960D01*
D02*
G37*
G36*
X723004Y406493D02*
X715326Y395528D01*
X721454Y391237D01*
X729132Y402202D01*
X723004Y406493D01*
D02*
G37*
G36*
X771883Y389423D02*
X771805Y389415D01*
X771726Y389423D01*
X770530Y389305D01*
X770454Y389282D01*
X770375Y389274D01*
X769225Y388926D01*
X769155Y388888D01*
X769080Y388865D01*
X768020Y388299D01*
X767958Y388248D01*
X767889Y388211D01*
X766959Y387449D01*
X766909Y387387D01*
X766848Y387337D01*
X766086Y386408D01*
X766048Y386338D01*
X765998Y386277D01*
X765432Y385217D01*
X765409Y385141D01*
X765371Y385072D01*
X765022Y383921D01*
X765015Y383843D01*
X764992Y383767D01*
X764874Y382571D01*
X764882Y382492D01*
X764874Y382413D01*
X764992Y381217D01*
X765015Y381141D01*
X765022Y381063D01*
X765371Y379912D01*
X765409Y379843D01*
X765432Y379767D01*
X765998Y378707D01*
X766048Y378646D01*
X766086Y378576D01*
X766848Y377647D01*
X766909Y377597D01*
X766959Y377536D01*
X767889Y376773D01*
X767958Y376736D01*
X768020Y376686D01*
X769080Y376119D01*
X769155Y376096D01*
X769225Y376059D01*
X770375Y375710D01*
X770454Y375702D01*
X770530Y375679D01*
X771726Y375561D01*
X771805Y375569D01*
X771883Y375561D01*
X773080Y375679D01*
X773155Y375702D01*
X773234Y375710D01*
X774384Y376059D01*
X774454Y376096D01*
X774530Y376119D01*
X775590Y376686D01*
X775651Y376736D01*
X775721Y376773D01*
X776650Y377536D01*
X776700Y377597D01*
X776761Y377647D01*
X777524Y378576D01*
X777561Y378646D01*
X777611Y378707D01*
X778178Y379767D01*
X778201Y379843D01*
X778238Y379912D01*
X778587Y381063D01*
X778595Y381141D01*
X778618Y381217D01*
X778736Y382413D01*
X778728Y382492D01*
X778736Y382571D01*
X778618Y383767D01*
X778595Y383843D01*
X778587Y383921D01*
X778238Y385072D01*
X778201Y385141D01*
X778178Y385217D01*
X777611Y386277D01*
X777561Y386338D01*
X777524Y386408D01*
X776761Y387337D01*
X776700Y387387D01*
X776650Y387449D01*
X775721Y388211D01*
X775651Y388248D01*
X775590Y388299D01*
X774530Y388865D01*
X774454Y388888D01*
X774384Y388926D01*
X773234Y389274D01*
X773155Y389282D01*
X773080Y389305D01*
X771883Y389423D01*
D02*
G37*
G36*
X312546Y394157D02*
X310489Y392822D01*
X313433Y388288D01*
X315490Y389624D01*
X312546Y394157D01*
D02*
G37*
G36*
X297274Y389423D02*
X297195Y389415D01*
X297117Y389423D01*
X295920Y389305D01*
X295845Y389282D01*
X295766Y389274D01*
X294616Y388926D01*
X294546Y388888D01*
X294470Y388865D01*
X293410Y388299D01*
X293349Y388248D01*
X293279Y388211D01*
X292350Y387449D01*
X292300Y387387D01*
X292239Y387337D01*
X291476Y386408D01*
X291439Y386338D01*
X291389Y386277D01*
X290822Y385217D01*
X290799Y385141D01*
X290762Y385072D01*
X290413Y383921D01*
X290405Y383843D01*
X290382Y383767D01*
X290264Y382571D01*
X290272Y382492D01*
X290264Y382413D01*
X290382Y381217D01*
X290405Y381141D01*
X290413Y381063D01*
X290762Y379912D01*
X290799Y379843D01*
X290822Y379767D01*
X291389Y378707D01*
X291439Y378646D01*
X291476Y378576D01*
X292239Y377647D01*
X292300Y377597D01*
X292350Y377536D01*
X293279Y376773D01*
X293349Y376736D01*
X293410Y376686D01*
X294470Y376119D01*
X294546Y376096D01*
X294616Y376059D01*
X295766Y375710D01*
X295845Y375702D01*
X295920Y375679D01*
X297117Y375561D01*
X297195Y375569D01*
X297274Y375561D01*
X298470Y375679D01*
X298546Y375702D01*
X298625Y375710D01*
X299775Y376059D01*
X299845Y376096D01*
X299920Y376119D01*
X300980Y376686D01*
X301042Y376736D01*
X301111Y376773D01*
X302041Y377536D01*
X302091Y377597D01*
X302152Y377647D01*
X302914Y378576D01*
X302952Y378646D01*
X303002Y378707D01*
X303568Y379767D01*
X303591Y379843D01*
X303629Y379912D01*
X303978Y381063D01*
X303985Y381141D01*
X304008Y381217D01*
X304126Y382413D01*
X304118Y382492D01*
X304126Y382571D01*
X304008Y383767D01*
X303985Y383843D01*
X303978Y383921D01*
X303629Y385072D01*
X303591Y385141D01*
X303568Y385217D01*
X303002Y386277D01*
X302952Y386338D01*
X302914Y386408D01*
X302152Y387337D01*
X302091Y387387D01*
X302041Y387449D01*
X301111Y388211D01*
X301042Y388248D01*
X300980Y388299D01*
X299920Y388865D01*
X299845Y388888D01*
X299775Y388926D01*
X298625Y389274D01*
X298546Y389282D01*
X298470Y389305D01*
X297274Y389423D01*
D02*
G37*
G36*
X306816Y397158D02*
Y396563D01*
X307411D01*
X307152Y396900D01*
X306816Y397158D01*
D02*
G37*
G36*
X304112Y403669D02*
X302619Y403617D01*
X302636Y403149D01*
X302765Y402378D01*
X303089Y401666D01*
X303586Y401063D01*
X304219Y400612D01*
X304112Y403669D01*
D02*
G37*
G36*
X303816Y397158D02*
X303480Y396900D01*
X303222Y396563D01*
X303816D01*
Y397158D01*
D02*
G37*
G36*
Y393563D02*
X303222D01*
X303480Y393227D01*
X303816Y392969D01*
Y393563D01*
D02*
G37*
G36*
X307411D02*
X306816D01*
Y392969D01*
X307152Y393227D01*
X307411Y393563D01*
D02*
G37*
G36*
X691139Y332237D02*
X690391Y331609D01*
X691272Y330560D01*
X692020Y331187D01*
X691139Y332237D01*
D02*
G37*
G36*
X676077Y332994D02*
X674976Y332179D01*
X675557Y331394D01*
X676658Y332209D01*
X676077Y332994D01*
D02*
G37*
G36*
X465798Y333927D02*
X465654Y333482D01*
X465511Y332713D01*
X465572Y331934D01*
X465833Y331197D01*
X466274Y330556D01*
X467219Y333466D01*
X465798Y333927D01*
D02*
G37*
G36*
X491549Y332601D02*
X490853Y332254D01*
X490267Y331736D01*
X489836Y331084D01*
X489588Y330343D01*
X489498Y329883D01*
X490965Y329598D01*
X491549Y332601D01*
D02*
G37*
G36*
X470072Y332539D02*
X469127Y329629D01*
X469860Y329889D01*
X470505Y330331D01*
X471012Y330926D01*
X471349Y331631D01*
X471493Y332077D01*
X470072Y332539D01*
D02*
G37*
G36*
X673712Y336191D02*
X672611Y335376D01*
X673192Y334591D01*
X674293Y335406D01*
X673712Y336191D01*
D02*
G37*
G36*
X471945Y338301D02*
X470999Y335392D01*
X472421Y334930D01*
X472565Y335376D01*
X472708Y336144D01*
X472646Y336923D01*
X472385Y337660D01*
X471945Y338301D01*
D02*
G37*
G36*
X670199Y333591D02*
X669098Y332776D01*
X669679Y331991D01*
X670780Y332806D01*
X670199Y333591D01*
D02*
G37*
G36*
X440287Y332639D02*
X440270Y331662D01*
X441640Y331637D01*
X441657Y332614D01*
X440287Y332639D01*
D02*
G37*
G36*
X435918Y332718D02*
X435900Y331742D01*
X437270Y331717D01*
X437288Y332693D01*
X435918Y332718D01*
D02*
G37*
G36*
X672565Y330395D02*
X671463Y329580D01*
X672044Y328795D01*
X673145Y329610D01*
X672565Y330395D01*
D02*
G37*
G36*
X419826Y324370D02*
Y323776D01*
X420420D01*
X420162Y324112D01*
X419826Y324370D01*
D02*
G37*
G36*
X693948Y328889D02*
X692051Y327297D01*
X690154Y325706D01*
X691035Y324656D01*
X694829Y327840D01*
X693948Y328889D01*
D02*
G37*
G36*
X488926Y326938D02*
X488837Y326478D01*
X488789Y325698D01*
X488945Y324932D01*
X489293Y324232D01*
X489809Y323650D01*
X490393Y326653D01*
X488926Y326938D01*
D02*
G37*
G36*
X661826Y324413D02*
X660684Y323657D01*
X661223Y322843D01*
X662365Y323599D01*
X661826Y324413D01*
D02*
G37*
G36*
X493337Y326080D02*
X492754Y323077D01*
X493450Y323425D01*
X494035Y323942D01*
X494467Y324594D01*
X494715Y325335D01*
X494804Y325795D01*
X493337Y326080D01*
D02*
G37*
G36*
X663276Y330141D02*
X662133Y329385D01*
X662672Y328571D01*
X663815Y329327D01*
X663276Y330141D01*
D02*
G37*
G36*
X494494Y332028D02*
X493910Y329025D01*
X495377Y328740D01*
X495466Y329200D01*
X495514Y329980D01*
X495358Y330746D01*
X495009Y331446D01*
X494494Y332028D01*
D02*
G37*
G36*
X688093Y329681D02*
X687345Y329053D01*
X688226Y328004D01*
X688974Y328631D01*
X688093Y329681D01*
D02*
G37*
G36*
X665471Y326825D02*
X664328Y326069D01*
X664867Y325255D01*
X666009Y326011D01*
X665471Y326825D01*
D02*
G37*
G36*
X659632Y327729D02*
X658489Y326973D01*
X659028Y326159D01*
X660171Y326915D01*
X659632Y327729D01*
D02*
G37*
G36*
X408087Y349190D02*
X407493D01*
X407751Y348854D01*
X408087Y348596D01*
Y349190D01*
D02*
G37*
G36*
X411682D02*
X411087D01*
Y348596D01*
X411424Y348854D01*
X411682Y349190D01*
D02*
G37*
G36*
X381047Y351238D02*
X380009Y350163D01*
X382210Y348038D01*
X382298Y348811D01*
X382182Y349584D01*
X381870Y350300D01*
X381384Y350912D01*
X381047Y351238D01*
D02*
G37*
G36*
X697164Y346232D02*
X696154Y345306D01*
X696814Y344586D01*
X697824Y345512D01*
X697164Y346232D01*
D02*
G37*
G36*
X377925Y348005D02*
X376887Y346930D01*
X377224Y346604D01*
X377852Y346140D01*
X378580Y345853D01*
X379356Y345765D01*
X380126Y345880D01*
X377925Y348005D01*
D02*
G37*
G36*
X408087Y352785D02*
X407751Y352527D01*
X407493Y352190D01*
X408087D01*
Y352785D01*
D02*
G37*
G36*
X411087D02*
Y352190D01*
X411682D01*
X411424Y352527D01*
X411087Y352785D01*
D02*
G37*
G36*
X373566Y352214D02*
X373478Y351441D01*
X373594Y350668D01*
X373905Y349951D01*
X374392Y349339D01*
X374729Y349014D01*
X375767Y350089D01*
X373566Y352214D01*
D02*
G37*
G36*
X415893Y349412D02*
X415298D01*
X415556Y349075D01*
X415893Y348817D01*
Y349412D01*
D02*
G37*
G36*
X419487D02*
X418893D01*
Y348817D01*
X419229Y349075D01*
X419487Y349412D01*
D02*
G37*
G36*
X680494Y340037D02*
X679437Y339165D01*
X680058Y338412D01*
X681115Y339283D01*
X680494Y340037D01*
D02*
G37*
G36*
X696629Y340347D02*
X695618Y339422D01*
X696278Y338702D01*
X697288Y339628D01*
X696629Y340347D01*
D02*
G37*
G36*
X686396Y339748D02*
X685338Y338877D01*
X685959Y338123D01*
X687017Y338995D01*
X686396Y339748D01*
D02*
G37*
G36*
X683024Y336968D02*
X681966Y336097D01*
X682587Y335344D01*
X683644Y336215D01*
X683024Y336968D01*
D02*
G37*
G36*
X469092Y339228D02*
X468358Y338969D01*
X467714Y338526D01*
X467207Y337932D01*
X466870Y337226D01*
X466725Y336781D01*
X468146Y336319D01*
X469092Y339228D01*
D02*
G37*
G36*
X683866Y342816D02*
X682809Y341945D01*
X683430Y341191D01*
X684487Y342063D01*
X683866Y342816D01*
D02*
G37*
G36*
X699851Y343300D02*
X698841Y342374D01*
X699500Y341654D01*
X700510Y342580D01*
X699851Y343300D01*
D02*
G37*
G36*
X693942Y343279D02*
X692932Y342354D01*
X693592Y341634D01*
X694602Y342559D01*
X693942Y343279D01*
D02*
G37*
G36*
X451926Y343186D02*
X451910Y341349D01*
X452256Y341488D01*
X453025Y342068D01*
X453618Y342827D01*
X453764Y343170D01*
X451926Y343186D01*
D02*
G37*
G36*
X447089Y343228D02*
X447228Y342883D01*
X447808Y342113D01*
X448567Y341521D01*
X448910Y341375D01*
X448926Y343212D01*
X447089Y343228D01*
D02*
G37*
%LPD*%
G36*
X721285Y308646D02*
X721206Y308595D01*
X720720Y308055D01*
X720391Y307409D01*
X720371Y307316D01*
X691805D01*
X691689Y307816D01*
X692376Y308152D01*
X693120Y308798D01*
X693355Y309146D01*
X721137D01*
X721285Y308646D01*
D02*
G37*
D10*
X391884Y295666D02*
D03*
X386185Y295339D02*
D03*
D11*
X699780Y392956D02*
D03*
X707971Y387220D02*
D03*
X716163Y381484D02*
D03*
X724354Y375749D02*
D03*
X732546Y370013D02*
D03*
X740737Y364277D02*
D03*
X746803Y381658D02*
D03*
X738612Y387393D02*
D03*
X730420Y393129D02*
D03*
X705846Y410336D02*
D03*
X714037Y404600D02*
D03*
X722229Y398865D02*
D03*
D12*
X625520Y318580D02*
D03*
X628753Y313876D02*
D03*
D13*
X635387Y325159D02*
D03*
X638454Y320344D02*
D03*
D14*
X647004Y300235D02*
D03*
X642073Y297359D02*
D03*
D15*
X645978Y330247D02*
D03*
X648876Y325328D02*
D03*
X651773Y320410D02*
D03*
D16*
X655948Y336013D02*
D03*
X659098Y331252D02*
D03*
X662249Y326492D02*
D03*
D17*
X695460Y332116D02*
D03*
X691087Y328447D02*
D03*
D18*
X666087Y341671D02*
D03*
X669482Y337082D02*
D03*
X672878Y332493D02*
D03*
D19*
X675964Y347890D02*
D03*
X679596Y343485D02*
D03*
X683227Y339080D02*
D03*
D20*
X689008Y350884D02*
D03*
X692864Y346676D02*
D03*
X696721Y342467D02*
D03*
D21*
X697538Y356462D02*
D03*
X693501Y360499D02*
D03*
D22*
X492455Y318155D02*
D03*
X498058Y317065D02*
D03*
D23*
X504774Y315573D02*
D03*
X510433Y314828D02*
D03*
D24*
X438639Y324482D02*
D03*
X438742Y330190D02*
D03*
D25*
X597197Y337414D02*
D03*
X599056Y332016D02*
D03*
D26*
X426163Y295497D02*
D03*
X426430Y289795D02*
D03*
D27*
X561204Y271944D02*
D03*
X555522Y271397D02*
D03*
D28*
X482602Y282017D02*
D03*
X477040Y283301D02*
D03*
D29*
X426957Y323662D02*
D03*
X426957Y321694D02*
D03*
X426957Y319725D02*
D03*
X426957Y317757D02*
D03*
X426957Y315788D02*
D03*
X426957Y313820D02*
D03*
Y311851D02*
D03*
X426957Y309883D02*
D03*
X426957Y307914D02*
D03*
X426957Y305946D02*
D03*
X426957Y303977D02*
D03*
X426957Y302009D02*
D03*
X393689D02*
D03*
X393689Y303977D02*
D03*
X393689Y305946D02*
D03*
X393689Y307914D02*
D03*
X393689Y309883D02*
D03*
X393689Y311851D02*
D03*
Y313820D02*
D03*
X393689Y315788D02*
D03*
X393689Y317757D02*
D03*
X393689Y319725D02*
D03*
X393689Y321694D02*
D03*
X393689Y323662D02*
D03*
D30*
X421150Y296201D02*
D03*
X419182Y296201D02*
D03*
X417213Y296201D02*
D03*
X415245D02*
D03*
X413276Y296201D02*
D03*
X411307Y296201D02*
D03*
X409339D02*
D03*
X407371Y296201D02*
D03*
X405402Y296201D02*
D03*
X403434Y296201D02*
D03*
X401465Y296201D02*
D03*
X399497Y296201D02*
D03*
Y329469D02*
D03*
X401465Y329469D02*
D03*
X403434Y329469D02*
D03*
X405402Y329469D02*
D03*
X407371Y329469D02*
D03*
X409339Y329469D02*
D03*
X411308D02*
D03*
X413276Y329469D02*
D03*
X415245Y329469D02*
D03*
X417213Y329469D02*
D03*
X419182Y329469D02*
D03*
X421150Y329469D02*
D03*
D31*
X562490Y299047D02*
D03*
X556818Y298401D02*
D03*
D32*
X403756Y340089D02*
D03*
X409460Y340316D02*
D03*
D33*
X422818Y339480D02*
D03*
X417132Y339983D02*
D03*
D34*
X459630Y289075D02*
D03*
X466930Y311541D02*
D03*
D35*
X480601Y260660D02*
D03*
X475039Y261945D02*
D03*
X469476Y263229D02*
D03*
D36*
X503736Y285828D02*
D03*
X504482Y291488D02*
D03*
D37*
X490336Y269117D02*
D03*
X473006Y272800D02*
D03*
D38*
X563337Y291615D02*
D03*
X557665Y290969D02*
D03*
D39*
X480831Y315472D02*
D03*
X475330Y316999D02*
D03*
D40*
X326834Y374078D02*
D03*
X335221Y379524D02*
D03*
X343608Y384971D02*
D03*
X351994Y390417D02*
D03*
X360381Y395864D02*
D03*
X368768Y401310D02*
D03*
X354925Y413445D02*
D03*
X346538Y407999D02*
D03*
X338152Y402552D02*
D03*
X312992Y386213D02*
D03*
X321378Y391659D02*
D03*
X329765Y397106D02*
D03*
D41*
X379507Y412451D02*
D03*
X382822Y407803D02*
D03*
D42*
X501210Y308932D02*
D03*
X496302Y309887D02*
D03*
X491394Y310841D02*
D03*
X486486Y311795D02*
D03*
X497116Y287870D02*
D03*
X492208Y288824D02*
D03*
X487300Y289778D02*
D03*
X482392Y290732D02*
D03*
D43*
X491801Y299832D02*
D03*
D44*
X570841Y339086D02*
D03*
X565228Y338046D02*
D03*
D45*
X480710Y314858D02*
Y317447D01*
X480831Y315472D02*
X484508Y311795D01*
X486486D01*
X454250Y325758D02*
X459972Y320036D01*
X400913Y342932D02*
X403756Y340089D01*
X370941Y342932D02*
X400913D01*
X347021Y328720D02*
X356729D01*
X422818Y339480D02*
Y341781D01*
X441559Y321883D02*
X445434Y325758D01*
X454250D01*
X441559Y312169D02*
Y321883D01*
X438327Y325115D02*
X441559Y321883D01*
X431503Y325115D02*
X438327D01*
X563337Y291615D02*
Y298200D01*
X633904Y347991D02*
X638594Y352681D01*
X644419D01*
X650581Y359030D02*
X655272Y363720D01*
X644419Y352681D02*
Y355687D01*
X646933Y358201D01*
X650500D01*
X647004Y299987D02*
X655309Y291682D01*
X676218Y298490D02*
X716685D01*
X683582Y304984D02*
X724289D01*
X459972Y320036D02*
X465137D01*
X473006Y272800D02*
X482223Y282017D01*
X497116Y287870D02*
X501694D01*
X503736Y285828D01*
X422818Y333800D02*
X431503Y325115D01*
X422818Y333800D02*
Y339480D01*
X419378Y345221D02*
X422818Y341781D01*
X403756Y340089D02*
X405623Y341956D01*
Y343074D01*
X407771Y345221D01*
X419378D01*
X465137Y320036D02*
X465172Y320000D01*
X466930D01*
X335221Y379524D02*
X357914Y356831D01*
Y349636D02*
Y356831D01*
Y349636D02*
X363457Y344094D01*
X369780D01*
X370941Y342932D01*
X364544D02*
X370941D01*
X364544D02*
X365072Y342404D01*
Y337063D02*
Y342404D01*
X367841Y339832D02*
Y340297D01*
X366097Y342041D02*
X367841Y340297D01*
X356729Y328720D02*
X365072Y337063D01*
X367841Y339832D01*
X370941Y342932D01*
X689008Y350884D02*
X689210D01*
X694658Y356333D01*
X697409D01*
X655272Y363720D02*
X657838D01*
X659381Y365263D01*
X619515Y347991D02*
X633904D01*
X609334Y337810D02*
X619515Y347991D01*
X609334Y321427D02*
Y337810D01*
Y321427D02*
X624612Y306149D01*
X640842D02*
X647004Y299987D01*
X616591Y296459D02*
X633684D01*
X636263Y299038D01*
Y306149D01*
X562490Y299047D02*
X614003D01*
X624612Y306149D02*
X636263D01*
X640842D01*
X659381Y365263D02*
Y368769D01*
X655805Y372345D02*
X659381Y368769D01*
X663422Y385998D02*
X678775D01*
X700306Y364467D01*
Y359230D02*
Y364467D01*
X697538Y356462D02*
X700306Y359230D01*
X690945Y311479D02*
X731893D01*
X671987Y302721D02*
X676218Y298490D01*
X664861Y298191D02*
X671057Y291995D01*
X709081D01*
X466930Y321546D02*
X479213D01*
X466647D02*
X466930D01*
X465137Y320036D02*
X466647Y321546D01*
X466930Y311541D02*
Y320000D01*
Y321546D01*
X482011Y318748D02*
X486304D01*
X480710Y317447D02*
X482011Y318748D01*
X480612Y315691D02*
Y320147D01*
X479213Y321546D02*
X480612Y320147D01*
X482011Y318748D01*
X614003Y299047D02*
X616591Y296459D01*
D46*
X683704Y346676D02*
X692864D01*
X669407Y360973D02*
X683704Y346676D01*
X401341Y291850D02*
X401465Y291974D01*
X401341Y287484D02*
X401465Y287361D01*
X403129Y288225D02*
X406149Y285204D01*
X403129Y288225D02*
Y291110D01*
X401341Y287484D02*
Y291850D01*
X403253Y291234D02*
Y292699D01*
X403129Y291110D02*
X403253Y291234D01*
X405991Y289925D02*
X406500Y290434D01*
X401465Y291974D02*
Y296201D01*
X399497Y286801D02*
Y296201D01*
X403253Y292699D02*
X403434Y292880D01*
Y296201D01*
X405991Y289925D02*
X406702Y290636D01*
X405402Y291936D02*
X406702Y290636D01*
X399497Y286801D02*
X401698Y284599D01*
X411837Y316145D02*
X413084D01*
X411511Y316470D02*
X411837Y316145D01*
X451771Y261960D02*
Y277610D01*
X452000Y277838D01*
X438140Y291698D02*
X452000Y277838D01*
X439158Y257961D02*
X451756Y245362D01*
X437370Y255910D02*
X449705Y243575D01*
X439158Y257961D02*
Y261418D01*
X437370Y255910D02*
Y262159D01*
X441070Y271578D02*
Y280374D01*
X442857Y278147D02*
X444341Y279631D01*
X442020Y260233D02*
Y270000D01*
X433535Y285158D02*
X439282Y279411D01*
X442857Y270837D02*
Y278147D01*
X442020Y270000D02*
X442857Y270837D01*
X440232Y270740D02*
X441070Y271578D01*
X440232Y262493D02*
Y270740D01*
X439282Y272318D02*
Y279411D01*
X438445Y271480D02*
X439282Y272318D01*
X438445Y263233D02*
Y271480D01*
X437370Y262159D02*
X438445Y263233D01*
X439158Y261418D02*
X440232Y262493D01*
X451756Y245362D02*
X459850D01*
X410449Y321543D02*
X413247D01*
X422086Y312703D01*
X413084Y316145D02*
X413837Y315392D01*
Y304693D02*
Y315392D01*
X408029Y315754D02*
X409715Y314069D01*
Y305858D02*
Y314069D01*
X408029Y315754D02*
Y316295D01*
X406351Y317972D02*
X408029Y316295D01*
X403987Y317972D02*
X406351D01*
X398304Y336206D02*
X400898Y333611D01*
X418983Y281583D02*
X422188D01*
X409402Y291163D02*
Y292171D01*
X421204Y286945D02*
X434499D01*
X415335Y292814D02*
X421204Y286945D01*
X415335Y292814D02*
Y296201D01*
X420464Y285158D02*
X433535D01*
X413367Y292255D02*
X420464Y285158D01*
X413367Y292255D02*
Y296201D01*
X419723Y283370D02*
X430225D01*
X411307Y291786D02*
X419723Y283370D01*
X411307Y291786D02*
Y296201D01*
X409402Y291163D02*
X418983Y281583D01*
X419182Y291620D02*
Y296201D01*
Y291620D02*
X421007Y289795D01*
X426430D01*
X409339Y292234D02*
X409402Y292171D01*
X409339Y292234D02*
Y296201D01*
X414743Y267706D02*
X421577D01*
X406226Y278750D02*
X409174D01*
X408351Y282342D02*
X410147Y284138D01*
X405162Y282342D02*
X408351D01*
X401698Y283278D02*
X406226Y278750D01*
X399911Y282538D02*
X414743Y267706D01*
X399911Y282538D02*
Y283511D01*
X391322Y292100D02*
X399911Y283511D01*
X401698Y283278D02*
Y284599D01*
X403486Y284018D02*
X405162Y282342D01*
X403486Y284018D02*
Y285340D01*
X401556Y287270D02*
X403486Y285340D01*
X406149Y285204D02*
X406348D01*
X410147Y284138D02*
X411220D01*
X411719Y283639D01*
X695460Y332116D02*
X707032Y343688D01*
X693918Y400774D02*
X710211D01*
X690626Y397483D02*
X693918Y400774D01*
X690626Y397483D02*
X690675D01*
X710211Y400774D02*
X714037Y404600D01*
X697409Y356333D02*
X697538Y356462D01*
X518858Y320745D02*
Y323381D01*
X521407Y325931D01*
X614313Y335944D02*
X622956D01*
X625524Y333377D01*
X421854Y295497D02*
X426163D01*
X426171Y295489D02*
Y295829D01*
X426000Y296000D02*
X426171Y295829D01*
X426163Y295497D02*
X426171Y295489D01*
X386185Y295325D02*
Y295339D01*
X418375Y309698D02*
Y310005D01*
X422086Y303539D02*
Y312703D01*
Y303539D02*
X423617Y302009D01*
X426957D01*
X740737Y364277D02*
X741202Y363813D01*
X715159Y380875D02*
X715768Y381484D01*
X557672Y241775D02*
X563118Y247221D01*
X549076Y241775D02*
X557672D01*
X534500Y256351D02*
X549076Y241775D01*
X438140Y291698D02*
Y307413D01*
X446128Y263362D02*
Y280371D01*
X436353Y290147D02*
X446128Y280371D01*
X434565Y289406D02*
X444341Y279631D01*
X434565Y289406D02*
Y304260D01*
X434499Y286945D02*
X441070Y280374D01*
X421573Y267702D02*
X435314D01*
X421573D02*
X421577Y267706D01*
X432880Y305946D02*
X434565Y304260D01*
X426957Y305946D02*
X432880D01*
X436353Y290147D02*
Y306555D01*
X434994Y307914D02*
X436353Y306555D01*
X426957Y307914D02*
X434994D01*
X435671Y309883D02*
X438140Y307413D01*
X426957Y309883D02*
X435671D01*
X421150Y296201D02*
X421854Y295497D01*
X413837Y304693D02*
X417123Y301408D01*
X384285Y292100D02*
X391322D01*
X383316Y293069D02*
X384285Y292100D01*
X383316Y293069D02*
Y300260D01*
X385569Y302512D01*
Y305946D01*
X401465Y296201D02*
X401556Y296111D01*
X405402Y291936D02*
Y296201D01*
X424708Y275864D02*
Y279063D01*
X422188Y281583D02*
X424708Y279063D01*
X430225Y283370D02*
X436026Y277569D01*
Y275864D02*
Y277569D01*
X389562Y303977D02*
X393689D01*
X386185Y300600D02*
X389562Y303977D01*
X386185Y295339D02*
Y300600D01*
X391884Y300203D02*
X393689Y302009D01*
X391884Y295666D02*
Y300203D01*
X385569Y305946D02*
X393689D01*
X562490Y299047D02*
X563337Y298200D01*
X486304Y318748D02*
X486486Y318566D01*
X521705Y277414D02*
X527722Y271397D01*
X555522D01*
X625524Y333377D02*
X627712D01*
X404205Y306877D02*
Y309043D01*
X403365Y309883D02*
X404205Y309043D01*
X393689Y309883D02*
X403365D01*
X393751Y311913D02*
X407290D01*
X406500Y311500D02*
X406878D01*
X407290Y311913D01*
X393689Y311851D02*
X393751Y311913D01*
X338152Y394062D02*
Y402552D01*
X328241Y384151D02*
X338152Y394062D01*
X336628Y388849D02*
X347929Y400150D01*
X318067Y354662D02*
X319854Y352875D01*
X318067Y354662D02*
Y379033D01*
X321378Y382345D01*
Y391659D01*
X328241Y380313D02*
Y384151D01*
X328359Y386797D02*
Y395700D01*
X319854Y378292D02*
X328359Y386797D01*
X319854Y357198D02*
Y378292D01*
Y357198D02*
X338098Y338954D01*
X330598Y376506D02*
Y377956D01*
X328241Y380313D02*
X330598Y377956D01*
X361882Y393290D02*
Y394362D01*
Y393290D02*
X370536Y384636D01*
X409821D01*
X351994Y390417D02*
X352861Y389551D01*
X352318D02*
X352861D01*
X343608Y384971D02*
X344743Y383835D01*
X344305D02*
X344743D01*
X332334Y415847D02*
X352523D01*
X322056Y405569D02*
X332334Y415847D01*
X316199Y405569D02*
X322056D01*
X352523Y415847D02*
X354925Y413445D01*
X343179Y408321D02*
X345756D01*
X491233Y346694D02*
X499849D01*
X488922Y349006D02*
X491233Y346694D01*
X445452Y349006D02*
X488922D01*
X409821Y384636D02*
X445452Y349006D01*
X379675Y417056D02*
X385393Y411339D01*
X382822Y407803D02*
X384008D01*
X385393Y409188D01*
Y411339D01*
X381365Y406346D02*
X382822Y407803D01*
X381365Y402367D02*
Y406346D01*
X411704Y302460D02*
X413314D01*
X415245Y300529D01*
Y296201D02*
Y300529D01*
X417123Y296292D02*
Y301408D01*
X407461Y303604D02*
X409715Y305858D01*
X405312Y329560D02*
Y333416D01*
X400898Y333611D02*
X402589D01*
X403343Y326263D02*
X403524Y326082D01*
X403756Y334971D02*
X405312Y333416D01*
X403756Y334971D02*
Y340089D01*
X403343Y326263D02*
Y332857D01*
X402589Y333611D02*
X403343Y332857D01*
X411737Y335520D02*
X412726D01*
X407461Y296292D02*
Y303604D01*
X368768Y398455D02*
X374774Y392448D01*
X368768Y398455D02*
Y401310D01*
X360381Y395864D02*
X361882Y394362D01*
X376576Y322421D02*
Y324480D01*
Y322421D02*
X377303Y321694D01*
X362154Y319725D02*
X393689D01*
X367181Y317757D02*
X393689D01*
X372305Y315788D02*
X393689D01*
X377322Y313820D02*
X393689D01*
X374545Y311042D02*
X377322Y313820D01*
X377303Y321694D02*
X393689D01*
X342201Y318745D02*
X343265Y319809D01*
X345909D01*
X347907Y317811D01*
Y315263D02*
Y317811D01*
X347544Y314900D02*
X347907Y315263D01*
X347544Y314319D02*
Y314900D01*
X346290Y313065D02*
X347544Y314319D01*
X346290Y313065D02*
X346290D01*
X350892Y308463D01*
X379765Y400768D02*
X381365Y402367D01*
X305316Y395063D02*
X312992Y387387D01*
Y386213D02*
Y387387D01*
X335221Y379524D02*
Y387422D01*
X336628Y388829D01*
Y388849D01*
X347929Y400150D02*
X352489D01*
X364634Y412295D01*
X377703D01*
X330598Y376506D02*
X342201Y364903D01*
Y318745D02*
Y364903D01*
X328359Y395700D02*
X329765Y397106D01*
X409339Y333122D02*
X411737Y335520D01*
X403434Y329469D02*
X403524Y329379D01*
Y326082D02*
Y329379D01*
X409339Y329469D02*
Y333122D01*
X409460Y336991D02*
Y340316D01*
X407461Y334992D02*
X409460Y336991D01*
X407461Y329560D02*
Y334992D01*
X417213Y296201D02*
X417304Y296111D01*
X426957Y302009D02*
Y302099D01*
X393599Y303887D02*
X393689Y303977D01*
X391515Y302009D02*
X393689D01*
X416799Y340316D02*
X417132Y339983D01*
X465713Y331033D02*
X469109Y334429D01*
X456434Y331033D02*
X465713D01*
X454903Y332564D02*
X456434Y331033D01*
X454903Y332564D02*
Y341601D01*
X455592Y330190D02*
X456434Y331033D01*
X438742Y330190D02*
X455592D01*
X430050Y323662D02*
X431503Y325115D01*
X426957Y323662D02*
X430050D01*
X426957Y321694D02*
X427048Y321603D01*
X405312Y329560D02*
X405402Y329469D01*
X407371Y329469D02*
X407461Y329560D01*
X419182Y296201D02*
X419272Y296111D01*
X553154Y294737D02*
X556922Y290969D01*
X557665D01*
X553154Y294737D02*
X556818Y298401D01*
X547295Y294737D02*
X553154D01*
X482392Y288653D02*
Y290732D01*
X514524Y282531D02*
Y296166D01*
X517548Y299189D01*
X529773D01*
X536500Y305916D01*
Y313667D01*
X496814Y343113D02*
X500902D01*
X495256Y344672D02*
X496814Y343113D01*
X488852Y344672D02*
X495256D01*
X487171Y346353D02*
X488852Y344672D01*
X478655Y346353D02*
X487171D01*
X475450Y343148D02*
X478655Y346353D01*
X475450Y338616D02*
Y343148D01*
Y338616D02*
X480060Y334006D01*
X481287D01*
X478620Y331339D02*
X481287Y334006D01*
X481253Y289593D02*
X482392Y290732D01*
X491394Y310841D02*
Y317094D01*
X492455Y318155D01*
X498058Y317065D02*
X503281D01*
X504774Y315573D01*
X500256Y309887D02*
X501210Y308932D01*
X518309Y312453D02*
X521705D01*
X520610Y258602D02*
X521705Y259697D01*
X502722Y284813D02*
X503736Y285828D01*
X521407Y325931D02*
X534500Y312838D01*
Y306745D02*
Y312838D01*
X530711Y302956D02*
X534500Y306745D01*
X516417Y302956D02*
X530711D01*
X508028Y294567D02*
X516417Y302956D01*
X508028Y289544D02*
Y294567D01*
X504312Y285828D02*
X508028Y289544D01*
X503736Y285828D02*
X504312D01*
X417123Y296292D02*
X417213Y296201D01*
X350892Y308463D02*
X362154Y319725D01*
X358553Y302035D02*
X372305Y315788D01*
X319854Y352875D02*
X334198Y338530D01*
Y309391D02*
Y338530D01*
Y309391D02*
X346181Y297408D01*
X353925D01*
X358553Y302035D01*
X350926Y301502D02*
X367181Y317757D01*
X348365Y301502D02*
X350926D01*
X338098Y311769D02*
X348365Y301502D01*
X338098Y311769D02*
Y338954D01*
X338152Y402552D02*
X341776Y398928D01*
X358536Y417056D02*
X379675D01*
X354925Y413445D02*
X358536Y417056D01*
X355765Y290729D02*
X366708Y301672D01*
X377819D01*
X386029Y309883D01*
X393689D01*
X382517Y311851D02*
X393689D01*
X376099Y305434D02*
X382517Y311851D01*
X683739Y360499D02*
X693501D01*
X677745Y366493D02*
X683739Y360499D01*
X673037Y343485D02*
X679596D01*
X661068Y355454D02*
X673037Y343485D01*
X665582Y337082D02*
X669482D01*
X652729Y349935D02*
X665582Y337082D01*
X654939Y331252D02*
X659098D01*
X644390Y341801D02*
X654939Y331252D01*
X644390Y341801D02*
Y344415D01*
X647220Y326985D02*
X648876Y325328D01*
X647220Y326739D02*
Y326985D01*
X644583Y326739D02*
X647220D01*
X636051Y335271D02*
X644583Y326739D01*
X636051Y335271D02*
Y338896D01*
X635387Y325159D02*
Y325702D01*
X627712Y333377D02*
X635387Y325702D01*
X625520Y318580D02*
Y321711D01*
X619374Y327857D02*
X625520Y321711D01*
X644419Y351297D02*
X650439Y345277D01*
Y338280D02*
Y345277D01*
Y338280D02*
X652706Y336013D01*
X655948D01*
X666087Y341671D02*
X667902Y343486D01*
X661038Y348572D02*
X662816D01*
X650581Y359030D02*
X661038Y348572D01*
X659381Y364051D02*
X667117Y356316D01*
Y353198D02*
Y356316D01*
Y353198D02*
X672425Y347890D01*
X675964D01*
X662816Y348572D02*
X667902Y343486D01*
X644080Y332146D02*
X645978Y330247D01*
X644080Y332146D02*
Y337814D01*
X633904Y347991D02*
X644080Y337814D01*
X702777Y324798D02*
X705342D01*
X695460Y332116D02*
X702777Y324798D01*
X697003Y319279D02*
Y322530D01*
X691087Y328447D02*
X697003Y322530D01*
X647004Y299987D02*
Y300235D01*
X646970Y286163D02*
Y292462D01*
X642073Y297359D02*
X646970Y292462D01*
X655309Y291682D02*
X657645Y289347D01*
X459850Y245362D02*
X469311Y254823D01*
X424708Y275864D02*
X426026D01*
X449705Y243575D02*
X460591D01*
X470031Y253015D01*
X495722D02*
X512460Y236277D01*
X407371Y296201D02*
X407461Y296292D01*
X413276Y296201D02*
X413367D01*
X415245Y296201D02*
X415335D01*
X717261Y373435D02*
Y375199D01*
X719869Y377807D01*
Y378646D01*
X726533Y385311D01*
X729985D01*
X732068Y387393D01*
X738612D01*
X501968Y325931D02*
X521407D01*
X516297Y327718D02*
X522148D01*
X500902Y343113D02*
X516297Y327718D01*
X530891Y318975D02*
X531191D01*
X536500Y313667D01*
X522148Y327718D02*
X530891Y318975D01*
X499849Y346694D02*
X503499Y343043D01*
X601307D01*
X627906Y369642D01*
X549133Y324149D02*
X557738Y315544D01*
X549133Y324149D02*
Y332446D01*
X576357Y310961D02*
X578458Y308860D01*
X576357Y310961D02*
Y330955D01*
X559078Y333491D02*
X560673D01*
X565228Y338046D01*
X570841Y339086D02*
X595525D01*
X597197Y337414D01*
X586060Y333374D02*
X597698D01*
X599056Y332016D01*
X567069Y286343D02*
X588515D01*
X603666Y271191D01*
Y269672D02*
Y271191D01*
X596399Y262405D02*
X603666Y269672D01*
X597268Y260618D02*
X606318Y269668D01*
Y272039D01*
X590227Y288130D02*
X606318Y272039D01*
X576274Y288130D02*
X590227D01*
X572604Y291800D02*
X576274Y288130D01*
X572604Y303006D02*
X578458Y308860D01*
X555883Y306817D02*
X569541Y320476D01*
Y337786D01*
X570841Y339086D01*
X459630Y288882D02*
Y289075D01*
X492208Y285634D02*
Y288824D01*
X481451Y261611D02*
Y272349D01*
X487542Y259596D02*
X487631Y259685D01*
X489895Y325583D02*
X492151Y327839D01*
X482223Y282017D02*
X482602D01*
X479664Y273090D02*
X492208Y285634D01*
X481451Y272349D02*
X495476Y286374D01*
X494057Y277822D02*
Y278145D01*
X494577Y280928D02*
X494642Y280993D01*
X502503Y277462D02*
X503736Y278695D01*
X421150Y329469D02*
X421150D01*
X421150Y332132D02*
X422818Y333800D01*
X421150Y329469D02*
Y332132D01*
X561204Y271944D02*
X563337Y274077D01*
Y291615D01*
X659381Y364051D02*
Y365263D01*
X585399Y315356D02*
X605167D01*
X620202Y300321D01*
X632085D01*
X665584Y378654D02*
X677745Y366493D01*
X627906Y369642D02*
X635569D01*
X644581Y378654D01*
X665584D01*
X715692Y371866D02*
X717261Y373435D01*
X707357Y371866D02*
X715692D01*
X699780Y374254D02*
Y392956D01*
Y374254D02*
X707032Y367002D01*
Y343688D02*
Y367002D01*
X664637Y298191D02*
X664861D01*
X663648Y297202D02*
X664637Y298191D01*
X470402Y260117D02*
Y262671D01*
X475466Y261517D02*
Y263373D01*
X479664Y267570D01*
Y273090D01*
X470402Y260117D02*
X474358Y256162D01*
X488155D01*
X514524Y282531D01*
X469311Y254823D02*
X473169D01*
X473617Y254374D01*
X488896D01*
X489344Y254823D01*
X496442D01*
X470031Y253015D02*
X472449D01*
X472877Y252587D01*
X489636D01*
X490064Y253015D01*
X495722D01*
X496442Y254823D02*
X513200Y238065D01*
X512460Y236277D02*
X560390D01*
X584730Y260618D01*
X597268D01*
X513200Y238065D02*
X559649D01*
X583990Y262405D01*
X596399D01*
D47*
X459630Y288882D02*
X473006Y275506D01*
Y272800D02*
Y275506D01*
X503736Y278695D02*
Y285828D01*
D48*
X450267Y325015D02*
D03*
D49*
X450439Y344699D02*
D03*
X509236Y258964D02*
D03*
D50*
X343232Y314891D02*
D03*
X366213Y295607D02*
D03*
X358553Y302035D02*
D03*
X350892Y308463D02*
D03*
D51*
X377641Y364266D02*
D03*
X370695Y357072D02*
D03*
X363748Y349879D02*
D03*
X384588Y371459D02*
D03*
X391534Y378653D02*
D03*
X398728Y371706D02*
D03*
X391781Y364512D02*
D03*
X384835Y357319D02*
D03*
X377888Y350126D02*
D03*
X370941Y342932D02*
D03*
D52*
X716685Y298490D02*
D03*
X724289Y304984D02*
D03*
X731893Y311479D02*
D03*
X709081Y291995D02*
D03*
D53*
X469109Y334429D02*
D03*
X478620Y331339D02*
D03*
D54*
X586060Y333374D02*
D03*
X576357Y330955D02*
D03*
D55*
X559078Y333491D02*
D03*
X549133Y332446D02*
D03*
D56*
X521705Y294737D02*
D03*
Y312453D02*
D03*
X547295D02*
D03*
Y294737D02*
D03*
X521705Y277414D02*
D03*
Y259697D02*
D03*
X547295D02*
D03*
Y277414D02*
D03*
D57*
X416026Y275864D02*
D03*
X426026Y275864D02*
D03*
X436026Y275864D02*
D03*
D58*
X502503Y277462D02*
D03*
D59*
X492151Y327839D02*
D03*
X501968Y325931D02*
D03*
D60*
X705342Y324798D02*
D03*
X697003Y319279D02*
D03*
X688664Y313760D02*
D03*
X680326Y308240D02*
D03*
X671987Y302721D02*
D03*
X663648Y297202D02*
D03*
X655309Y291682D02*
D03*
X646970Y286163D02*
D03*
X619374Y327857D02*
D03*
X677745Y366493D02*
D03*
X669407Y360973D02*
D03*
X661068Y355454D02*
D03*
X652729Y349935D02*
D03*
X627712Y333377D02*
D03*
X636051Y338896D02*
D03*
X644390Y344415D02*
D03*
D61*
X315553Y405569D02*
D03*
X305559Y405220D02*
D03*
D62*
X496229Y301980D02*
D03*
X495666Y299081D02*
D03*
X495102Y296183D02*
D03*
X492204Y296746D02*
D03*
X492767Y299645D02*
D03*
X493330Y302543D02*
D03*
X490432Y303106D02*
D03*
X489869Y300208D02*
D03*
X489305Y297309D02*
D03*
X486407Y297873D02*
D03*
X486970Y300771D02*
D03*
X487534Y303670D02*
D03*
D63*
X405991Y289925D02*
D03*
X411837Y316145D02*
D03*
X451771Y261960D02*
D03*
X446128Y263362D02*
D03*
X442020Y260233D02*
D03*
X410449Y321543D02*
D03*
X403987Y317972D02*
D03*
X398304Y336206D02*
D03*
X430177Y261423D02*
D03*
X406348Y285204D02*
D03*
X411719Y283639D02*
D03*
X409174Y278750D02*
D03*
X697468Y356532D02*
D03*
X707971Y387220D02*
D03*
X730101Y392475D02*
D03*
X690675Y397483D02*
D03*
X722229Y398865D02*
D03*
X632085Y300321D02*
D03*
X585399Y315356D02*
D03*
X518858Y320745D02*
D03*
X614313Y335944D02*
D03*
X391884Y295666D02*
D03*
X426000Y296000D02*
D03*
X416799Y340316D02*
D03*
X409460D02*
D03*
X380084Y290569D02*
D03*
X386185Y295325D02*
D03*
X418326Y322275D02*
D03*
X418375Y309698D02*
D03*
X741202Y363813D02*
D03*
X747271Y381325D02*
D03*
X730777Y368892D02*
D03*
X722656Y374571D02*
D03*
X715159Y380875D02*
D03*
X563118Y247221D02*
D03*
X534500Y256351D02*
D03*
X435314Y267702D02*
D03*
X563504Y299197D02*
D03*
X486304Y318748D02*
D03*
X404205Y306877D02*
D03*
X406500Y311500D02*
D03*
X360381Y395864D02*
D03*
X352318Y389551D02*
D03*
X344305Y383835D02*
D03*
X326681Y373984D02*
D03*
X345756Y408321D02*
D03*
X411704Y302460D02*
D03*
X412726Y335520D02*
D03*
X376576Y324480D02*
D03*
X347021Y328720D02*
D03*
X305316Y395063D02*
D03*
X379765Y400768D02*
D03*
X355765Y290729D02*
D03*
X376099Y305434D02*
D03*
X374545Y311042D02*
D03*
X567069Y286343D02*
D03*
X557738Y315544D02*
D03*
X603456Y270853D02*
D03*
X572604Y291800D02*
D03*
Y303006D02*
D03*
X555883Y306817D02*
D03*
X441559Y312169D02*
D03*
X487631Y259685D02*
D03*
X500152Y258602D02*
D03*
X494057Y278145D02*
D03*
X494642Y280993D02*
D03*
X409587Y350690D02*
D03*
X417393Y350912D02*
D03*
X655805Y372345D02*
D03*
X663422Y385998D02*
D03*
X707357Y371866D02*
D03*
X578458Y308860D02*
D03*
D64*
X374774Y392448D02*
D03*
M02*
