%FSLAX25Y25*%
%MOIN*%
G70*
G01*
G75*
G04 Layer_Physical_Order=2*
G04 Layer_Color=16711680*
%ADD10R,0.03543X0.03150*%
%ADD11R,0.02756X0.03543*%
%ADD12R,0.05512X0.01772*%
%ADD13C,0.02362*%
%ADD14C,0.01575*%
%ADD15C,0.01181*%
%ADD16C,0.00394*%
%ADD17C,0.05906*%
%ADD18R,0.05906X0.05906*%
%ADD19C,0.05000*%
G36*
X200787Y118110D02*
X118110D01*
X118110Y118110D01*
X118110Y118110D01*
X98425D01*
Y271654D01*
X200787D01*
Y118110D01*
D02*
G37*
%LPC*%
G36*
X105000Y158772D02*
X104024Y158644D01*
X103114Y158267D01*
X102332Y157668D01*
X101733Y156886D01*
X101356Y155976D01*
X101228Y155000D01*
X101356Y154024D01*
X101733Y153114D01*
X102332Y152332D01*
X103114Y151733D01*
X104024Y151356D01*
X105000Y151228D01*
X105976Y151356D01*
X106886Y151733D01*
X107668Y152332D01*
X108267Y153114D01*
X108644Y154024D01*
X108772Y155000D01*
X108644Y155976D01*
X108267Y156886D01*
X107668Y157668D01*
X106886Y158267D01*
X105976Y158644D01*
X105000Y158772D01*
D02*
G37*
G36*
X144500Y156500D02*
X141047D01*
Y153047D01*
X144500D01*
Y156500D01*
D02*
G37*
G36*
Y150921D02*
X143968Y150851D01*
X143007Y150453D01*
X142181Y149819D01*
X141547Y148993D01*
X141149Y148032D01*
X141079Y147500D01*
X144500D01*
Y150921D01*
D02*
G37*
G36*
X145500D02*
Y147500D01*
X148921D01*
X148851Y148032D01*
X148453Y148993D01*
X147819Y149819D01*
X146993Y150453D01*
X146032Y150851D01*
X145500Y150921D01*
D02*
G37*
G36*
X148953Y160953D02*
X145500D01*
Y157500D01*
X148953D01*
Y160953D01*
D02*
G37*
G36*
X105000Y218772D02*
X104024Y218644D01*
X103114Y218267D01*
X102332Y217668D01*
X101733Y216886D01*
X101356Y215976D01*
X101228Y215000D01*
X101356Y214024D01*
X101733Y213114D01*
X102332Y212333D01*
X103114Y211733D01*
X104024Y211356D01*
X105000Y211228D01*
X105976Y211356D01*
X106886Y211733D01*
X107668Y212333D01*
X108174Y212993D01*
X110169D01*
X112993Y210169D01*
Y197604D01*
X112655Y197345D01*
X112128Y196658D01*
X111797Y195858D01*
X111684Y195000D01*
X111797Y194142D01*
X112128Y193342D01*
X112655Y192655D01*
X112993Y192396D01*
Y180000D01*
X113146Y179232D01*
X113581Y178581D01*
X115740Y176422D01*
X115684Y176000D01*
X115797Y175142D01*
X116129Y174342D01*
X116655Y173655D01*
X116993Y173396D01*
Y166604D01*
X116655Y166345D01*
X116129Y165658D01*
X115797Y164858D01*
X115684Y164000D01*
X115797Y163142D01*
X116129Y162342D01*
X116655Y161655D01*
X117342Y161128D01*
X118142Y160797D01*
X119000Y160684D01*
X119858Y160797D01*
X120658Y161128D01*
X121345Y161655D01*
X121871Y162342D01*
X122203Y163142D01*
X122316Y164000D01*
X122203Y164858D01*
X121871Y165658D01*
X121345Y166345D01*
X121007Y166604D01*
Y173396D01*
X121345Y173655D01*
X121871Y174342D01*
X122203Y175142D01*
X122316Y176000D01*
X122203Y176858D01*
X121871Y177658D01*
X121345Y178345D01*
X120658Y178872D01*
X119858Y179203D01*
X119000Y179316D01*
X118578Y179260D01*
X117007Y180831D01*
Y192396D01*
X117345Y192655D01*
X117871Y193342D01*
X118203Y194142D01*
X118316Y195000D01*
X118203Y195858D01*
X117871Y196658D01*
X117345Y197345D01*
X117007Y197604D01*
Y211000D01*
X116880Y211641D01*
X116854Y211768D01*
X116419Y212419D01*
X112419Y216419D01*
X111768Y216854D01*
X111000Y217007D01*
X108174D01*
X107668Y217668D01*
X106886Y218267D01*
X105976Y218644D01*
X105000Y218772D01*
D02*
G37*
G36*
X148953Y156500D02*
X145500D01*
Y153047D01*
X148953D01*
Y156500D01*
D02*
G37*
G36*
X144500Y160953D02*
X141047D01*
Y157500D01*
X144500D01*
Y160953D01*
D02*
G37*
G36*
X108921Y134500D02*
X105500D01*
Y131079D01*
X106032Y131149D01*
X106993Y131547D01*
X107819Y132181D01*
X108453Y133007D01*
X108851Y133968D01*
X108921Y134500D01*
D02*
G37*
G36*
X104500Y138921D02*
X103968Y138851D01*
X103007Y138453D01*
X102181Y137819D01*
X101547Y136993D01*
X101149Y136032D01*
X101079Y135500D01*
X104500D01*
Y138921D01*
D02*
G37*
G36*
X105000Y128772D02*
X104024Y128644D01*
X103114Y128267D01*
X102332Y127667D01*
X101733Y126886D01*
X101356Y125976D01*
X101228Y125000D01*
X101356Y124024D01*
X101733Y123114D01*
X102332Y122333D01*
X103114Y121733D01*
X104024Y121356D01*
X105000Y121228D01*
X105976Y121356D01*
X106886Y121733D01*
X107668Y122333D01*
X108267Y123114D01*
X108644Y124024D01*
X108772Y125000D01*
X108644Y125976D01*
X108267Y126886D01*
X107668Y127667D01*
X106886Y128267D01*
X105976Y128644D01*
X105000Y128772D01*
D02*
G37*
G36*
X104500Y134500D02*
X101079D01*
X101149Y133968D01*
X101547Y133007D01*
X102181Y132181D01*
X103007Y131547D01*
X103968Y131149D01*
X104500Y131079D01*
Y134500D01*
D02*
G37*
G36*
X144500Y146500D02*
X141079D01*
X141149Y145968D01*
X141547Y145007D01*
X142181Y144181D01*
X143007Y143547D01*
X143968Y143149D01*
X144500Y143079D01*
Y146500D01*
D02*
G37*
G36*
X148921D02*
X145500D01*
Y143079D01*
X146032Y143149D01*
X146993Y143547D01*
X147819Y144181D01*
X148453Y145007D01*
X148851Y145968D01*
X148921Y146500D01*
D02*
G37*
G36*
X105500Y138921D02*
Y135500D01*
X108921D01*
X108851Y136032D01*
X108453Y136993D01*
X107819Y137819D01*
X106993Y138453D01*
X106032Y138851D01*
X105500Y138921D01*
D02*
G37*
G36*
X105000Y148772D02*
X104024Y148644D01*
X103114Y148267D01*
X102332Y147668D01*
X101733Y146886D01*
X101356Y145976D01*
X101228Y145000D01*
X101356Y144024D01*
X101733Y143114D01*
X102332Y142332D01*
X103114Y141733D01*
X104024Y141356D01*
X105000Y141228D01*
X105976Y141356D01*
X106886Y141733D01*
X107668Y142332D01*
X108267Y143114D01*
X108644Y144024D01*
X108772Y145000D01*
X108644Y145976D01*
X108267Y146886D01*
X107668Y147668D01*
X106886Y148267D01*
X105976Y148644D01*
X105000Y148772D01*
D02*
G37*
G36*
Y168772D02*
X104024Y168644D01*
X103114Y168267D01*
X102332Y167667D01*
X101733Y166886D01*
X101356Y165976D01*
X101228Y165000D01*
X101356Y164024D01*
X101733Y163114D01*
X102332Y162332D01*
X103114Y161733D01*
X104024Y161356D01*
X105000Y161228D01*
X105976Y161356D01*
X106886Y161733D01*
X107668Y162332D01*
X108267Y163114D01*
X108644Y164024D01*
X108772Y165000D01*
X108644Y165976D01*
X108267Y166886D01*
X107668Y167667D01*
X106886Y168267D01*
X105976Y168644D01*
X105000Y168772D01*
D02*
G37*
G36*
X104500Y228921D02*
X103968Y228851D01*
X103007Y228453D01*
X102181Y227819D01*
X101547Y226993D01*
X101149Y226032D01*
X101079Y225500D01*
X104500D01*
Y228921D01*
D02*
G37*
G36*
X105500D02*
Y225500D01*
X108921D01*
X108851Y226032D01*
X108453Y226993D01*
X107819Y227819D01*
X106993Y228453D01*
X106032Y228851D01*
X105500Y228921D01*
D02*
G37*
G36*
X104500Y224500D02*
X101079D01*
X101149Y223968D01*
X101547Y223007D01*
X102181Y222181D01*
X103007Y221547D01*
X103968Y221149D01*
X104500Y221079D01*
Y224500D01*
D02*
G37*
G36*
X108921D02*
X105500D01*
Y221079D01*
X106032Y221149D01*
X106993Y221547D01*
X107819Y222181D01*
X108453Y223007D01*
X108851Y223968D01*
X108921Y224500D01*
D02*
G37*
G36*
X105000Y258772D02*
X104024Y258644D01*
X103114Y258267D01*
X102332Y257667D01*
X101733Y256886D01*
X101356Y255976D01*
X101228Y255000D01*
X101356Y254024D01*
X101733Y253114D01*
X102332Y252332D01*
X103114Y251733D01*
X104024Y251356D01*
X105000Y251228D01*
X105976Y251356D01*
X106886Y251733D01*
X107668Y252332D01*
X108267Y253114D01*
X108644Y254024D01*
X108772Y255000D01*
X108644Y255976D01*
X108267Y256886D01*
X107668Y257667D01*
X106886Y258267D01*
X105976Y258644D01*
X105000Y258772D01*
D02*
G37*
G36*
X108740Y268740D02*
X101260D01*
Y261260D01*
X108740D01*
Y268740D01*
D02*
G37*
G36*
X105000Y238772D02*
X104024Y238644D01*
X103114Y238267D01*
X102332Y237667D01*
X101733Y236886D01*
X101356Y235976D01*
X101228Y235000D01*
X101356Y234024D01*
X101733Y233114D01*
X102332Y232332D01*
X103114Y231733D01*
X104024Y231356D01*
X105000Y231228D01*
X105976Y231356D01*
X106886Y231733D01*
X107668Y232332D01*
X108267Y233114D01*
X108644Y234024D01*
X108772Y235000D01*
X108644Y235976D01*
X108267Y236886D01*
X107668Y237667D01*
X106886Y238267D01*
X105976Y238644D01*
X105000Y238772D01*
D02*
G37*
G36*
Y248772D02*
X104024Y248644D01*
X103114Y248267D01*
X102332Y247668D01*
X101733Y246886D01*
X101356Y245976D01*
X101228Y245000D01*
X101356Y244024D01*
X101733Y243114D01*
X102332Y242333D01*
X103114Y241733D01*
X104024Y241356D01*
X105000Y241228D01*
X105976Y241356D01*
X106886Y241733D01*
X107668Y242333D01*
X108267Y243114D01*
X108644Y244024D01*
X108772Y245000D01*
X108644Y245976D01*
X108267Y246886D01*
X107668Y247668D01*
X106886Y248267D01*
X105976Y248644D01*
X105000Y248772D01*
D02*
G37*
G36*
X190000Y219772D02*
X189024Y219644D01*
X188114Y219267D01*
X187332Y218668D01*
X186733Y217886D01*
X186356Y216976D01*
X186228Y216000D01*
X186356Y215024D01*
X186733Y214114D01*
X187332Y213333D01*
X188114Y212733D01*
X189024Y212356D01*
X190000Y212228D01*
X190976Y212356D01*
X191886Y212733D01*
X192667Y213333D01*
X193267Y214114D01*
X193644Y215024D01*
X193772Y216000D01*
X193644Y216976D01*
X193267Y217886D01*
X192667Y218668D01*
X191886Y219267D01*
X190976Y219644D01*
X190000Y219772D01*
D02*
G37*
G36*
X122059Y185941D02*
X119095D01*
X119149Y185527D01*
X119502Y184676D01*
X120063Y183945D01*
X120794Y183384D01*
X121645Y183031D01*
X122059Y182977D01*
Y185941D01*
D02*
G37*
G36*
X126023D02*
X123059D01*
Y182977D01*
X123473Y183031D01*
X124324Y183384D01*
X125055Y183945D01*
X125616Y184676D01*
X125969Y185527D01*
X126023Y185941D01*
D02*
G37*
G36*
X108740Y178740D02*
X101260D01*
Y171260D01*
X108740D01*
Y178740D01*
D02*
G37*
G36*
X193740Y186740D02*
X186260D01*
Y179260D01*
X193740D01*
Y186740D01*
D02*
G37*
G36*
X190000Y196772D02*
X189024Y196644D01*
X188114Y196267D01*
X187332Y195668D01*
X186733Y194886D01*
X186356Y193976D01*
X186228Y193000D01*
X186356Y192024D01*
X186733Y191114D01*
X187332Y190332D01*
X188114Y189733D01*
X189024Y189356D01*
X190000Y189228D01*
X190976Y189356D01*
X191886Y189733D01*
X192667Y190332D01*
X193267Y191114D01*
X193644Y192024D01*
X193772Y193000D01*
X193644Y193976D01*
X193267Y194886D01*
X192667Y195668D01*
X191886Y196267D01*
X190976Y196644D01*
X190000Y196772D01*
D02*
G37*
G36*
X193740Y209740D02*
X186260D01*
Y202260D01*
X193740D01*
Y209740D01*
D02*
G37*
G36*
X122059Y189905D02*
X121645Y189851D01*
X120794Y189498D01*
X120063Y188937D01*
X119502Y188206D01*
X119149Y187355D01*
X119095Y186941D01*
X122059D01*
Y189905D01*
D02*
G37*
G36*
X123059D02*
Y186941D01*
X126023D01*
X125969Y187355D01*
X125616Y188206D01*
X125055Y188937D01*
X124324Y189498D01*
X123473Y189851D01*
X123059Y189905D01*
D02*
G37*
%LPD*%
D13*
X115000Y180000D02*
X119000Y176000D01*
X115000Y180000D02*
Y195000D01*
X119000Y164000D02*
Y176000D01*
X115000Y195000D02*
Y211000D01*
X111000Y215000D02*
X115000Y211000D01*
X105000Y215000D02*
X111000D01*
X122559Y186441D02*
Y217441D01*
X115000Y225000D02*
X122559Y217441D01*
X105000Y225000D02*
X115000D01*
X122559Y186441D02*
X126000Y183000D01*
Y149000D02*
Y183000D01*
X112000Y135000D02*
X126000Y149000D01*
X105000Y135000D02*
X112000D01*
D16*
X98425Y118110D02*
Y271654D01*
Y118110D02*
X118110D01*
X137795Y137795D01*
X153543D01*
X177165Y161417D01*
X192913D01*
X200787Y169291D01*
Y232283D01*
X192913Y240158D02*
X200787Y232283D01*
X157480Y240158D02*
X192913D01*
X125984Y271654D02*
X157480Y240158D01*
X98425Y271654D02*
X125984D01*
D17*
X145000Y147000D02*
D03*
X190000Y216000D02*
D03*
X105000Y125000D02*
D03*
Y135000D02*
D03*
Y145000D02*
D03*
Y155000D02*
D03*
X190000Y193000D02*
D03*
X105000Y215000D02*
D03*
Y225000D02*
D03*
Y235000D02*
D03*
Y245000D02*
D03*
Y255000D02*
D03*
Y165000D02*
D03*
D18*
X145000Y157000D02*
D03*
X190000Y206000D02*
D03*
Y183000D02*
D03*
X105000Y265000D02*
D03*
Y175000D02*
D03*
D19*
X119000Y164000D02*
D03*
Y176000D02*
D03*
X115000Y195000D02*
D03*
X122559Y186441D02*
D03*
M02*
