%FSLAX25Y25*%
%MOIN*%
G70*
G01*
G75*
G04 Layer_Physical_Order=2*
G04 Layer_Color=16711680*
G04:AMPARAMS|DCode=10|XSize=37.4mil|YSize=29.53mil|CornerRadius=0mil|HoleSize=0mil|Usage=FLASHONLY|Rotation=215.500|XOffset=0mil|YOffset=0mil|HoleType=Round|Shape=Rectangle|*
%AMROTATEDRECTD10*
4,1,4,0.00665,0.02288,0.02380,-0.00116,-0.00665,-0.02288,-0.02380,0.00116,0.00665,0.02288,0.0*
%
%ADD10ROTATEDRECTD10*%

G04:AMPARAMS|DCode=11|XSize=59.06mil|YSize=118.11mil|CornerRadius=0mil|HoleSize=0mil|Usage=FLASHONLY|Rotation=33.000|XOffset=0mil|YOffset=0mil|HoleType=Round|Shape=Rectangle|*
%AMROTATEDRECTD11*
4,1,4,0.00740,-0.06561,-0.05693,0.03345,-0.00740,0.06561,0.05693,-0.03345,0.00740,-0.06561,0.0*
%
%ADD11ROTATEDRECTD11*%

G04:AMPARAMS|DCode=12|XSize=37.4mil|YSize=29.53mil|CornerRadius=0mil|HoleSize=0mil|Usage=FLASHONLY|Rotation=337.500|XOffset=0mil|YOffset=0mil|HoleType=Round|Shape=Rectangle|*
%AMROTATEDRECTD12*
4,1,4,-0.02293,-0.00648,-0.01163,0.02080,0.02293,0.00648,0.01163,-0.02080,-0.02293,-0.00648,0.0*
%
%ADD12ROTATEDRECTD12*%

G04:AMPARAMS|DCode=13|XSize=37.4mil|YSize=29.53mil|CornerRadius=0mil|HoleSize=0mil|Usage=FLASHONLY|Rotation=96.500|XOffset=0mil|YOffset=0mil|HoleType=Round|Shape=Rectangle|*
%AMROTATEDRECTD13*
4,1,4,0.01679,-0.01691,-0.01255,-0.02025,-0.01679,0.01691,0.01255,0.02025,0.01679,-0.01691,0.0*
%
%ADD13ROTATEDRECTD13*%

%ADD14P,0.12806X4X118.5*%
G04:AMPARAMS|DCode=15|XSize=37.4mil|YSize=29.53mil|CornerRadius=0mil|HoleSize=0mil|Usage=FLASHONLY|Rotation=352.500|XOffset=0mil|YOffset=0mil|HoleType=Round|Shape=Rectangle|*
%AMROTATEDRECTD15*
4,1,4,-0.02047,-0.01220,-0.01661,0.01708,0.02047,0.01220,0.01661,-0.01708,-0.02047,-0.01220,0.0*
%
%ADD15ROTATEDRECTD15*%

G04:AMPARAMS|DCode=16|XSize=37.4mil|YSize=29.53mil|CornerRadius=0mil|HoleSize=0mil|Usage=FLASHONLY|Rotation=78.500|XOffset=0mil|YOffset=0mil|HoleType=Round|Shape=Rectangle|*
%AMROTATEDRECTD16*
4,1,4,0.01074,-0.02127,-0.01820,-0.01538,-0.01074,0.02127,0.01820,0.01538,0.01074,-0.02127,0.0*
%
%ADD16ROTATEDRECTD16*%

G04:AMPARAMS|DCode=17|XSize=108.27mil|YSize=122.05mil|CornerRadius=0mil|HoleSize=0mil|Usage=FLASHONLY|Rotation=259.000|XOffset=0mil|YOffset=0mil|HoleType=Round|Shape=Rectangle|*
%AMROTATEDRECTD17*
4,1,4,-0.04957,0.06478,0.07023,0.04150,0.04957,-0.06478,-0.07023,-0.04150,-0.04957,0.06478,0.0*
%
%ADD17ROTATEDRECTD17*%

G04:AMPARAMS|DCode=18|XSize=23.62mil|YSize=57.09mil|CornerRadius=0mil|HoleSize=0mil|Usage=FLASHONLY|Rotation=349.000|XOffset=0mil|YOffset=0mil|HoleType=Round|Shape=Rectangle|*
%AMROTATEDRECTD18*
4,1,4,-0.01704,-0.02577,-0.00615,0.03027,0.01704,0.02577,0.00615,-0.03027,-0.01704,-0.02577,0.0*
%
%ADD18ROTATEDRECTD18*%

G04:AMPARAMS|DCode=19|XSize=66.93mil|YSize=78.74mil|CornerRadius=0mil|HoleSize=0mil|Usage=FLASHONLY|Rotation=251.000|XOffset=0mil|YOffset=0mil|HoleType=Round|Shape=Rectangle|*
%AMROTATEDRECTD19*
4,1,4,-0.02633,0.04446,0.04812,0.01882,0.02633,-0.04446,-0.04812,-0.01882,-0.02633,0.04446,0.0*
%
%ADD19ROTATEDRECTD19*%

G04:AMPARAMS|DCode=20|XSize=37.4mil|YSize=29.53mil|CornerRadius=0mil|HoleSize=0mil|Usage=FLASHONLY|Rotation=84.948|XOffset=0mil|YOffset=0mil|HoleType=Round|Shape=Rectangle|*
%AMROTATEDRECTD20*
4,1,4,0.01306,-0.01993,-0.01635,-0.01733,-0.01306,0.01993,0.01635,0.01733,0.01306,-0.01993,0.0*
%
%ADD20ROTATEDRECTD20*%

G04:AMPARAMS|DCode=21|XSize=37.4mil|YSize=29.53mil|CornerRadius=0mil|HoleSize=0mil|Usage=FLASHONLY|Rotation=272.280|XOffset=0mil|YOffset=0mil|HoleType=Round|Shape=Rectangle|*
%AMROTATEDRECTD21*
4,1,4,-0.01550,0.01810,0.01401,0.01927,0.01550,-0.01810,-0.01401,-0.01927,-0.01550,0.01810,0.0*
%
%ADD21ROTATEDRECTD21*%

G04:AMPARAMS|DCode=22|XSize=37.4mil|YSize=29.53mil|CornerRadius=0mil|HoleSize=0mil|Usage=FLASHONLY|Rotation=96.500|XOffset=0mil|YOffset=0mil|HoleType=Round|Shape=Rectangle|*
%AMROTATEDRECTD22*
4,1,4,0.01679,-0.01691,-0.01255,-0.02025,-0.01679,0.01691,0.01255,0.02025,0.01679,-0.01691,0.0*
%
%ADD22ROTATEDRECTD22*%

%ADD23R,0.01181X0.05709*%
%ADD24R,0.05709X0.01181*%
G04:AMPARAMS|DCode=25|XSize=37.4mil|YSize=29.53mil|CornerRadius=0mil|HoleSize=0mil|Usage=FLASHONLY|Rotation=103.000|XOffset=0mil|YOffset=0mil|HoleType=Round|Shape=Rectangle|*
%AMROTATEDRECTD25*
4,1,4,0.01859,-0.01490,-0.01018,-0.02154,-0.01859,0.01490,0.01018,0.02154,0.01859,-0.01490,0.0*
%
%ADD25ROTATEDRECTD25*%

G04:AMPARAMS|DCode=26|XSize=37.4mil|YSize=29.53mil|CornerRadius=0mil|HoleSize=0mil|Usage=FLASHONLY|Rotation=77.000|XOffset=0mil|YOffset=0mil|HoleType=Round|Shape=Rectangle|*
%AMROTATEDRECTD26*
4,1,4,0.01018,-0.02154,-0.01859,-0.01490,-0.01018,0.02154,0.01859,0.01490,0.01018,-0.02154,0.0*
%
%ADD26ROTATEDRECTD26*%

G04:AMPARAMS|DCode=27|XSize=37.4mil|YSize=29.53mil|CornerRadius=0mil|HoleSize=0mil|Usage=FLASHONLY|Rotation=95.500|XOffset=0mil|YOffset=0mil|HoleType=Round|Shape=Rectangle|*
%AMROTATEDRECTD27*
4,1,4,0.01649,-0.01720,-0.01290,-0.02003,-0.01649,0.01720,0.01290,0.02003,0.01649,-0.01720,0.0*
%
%ADD27ROTATEDRECTD27*%

G04:AMPARAMS|DCode=28|XSize=37.4mil|YSize=29.53mil|CornerRadius=0mil|HoleSize=0mil|Usage=FLASHONLY|Rotation=182.681|XOffset=0mil|YOffset=0mil|HoleType=Round|Shape=Rectangle|*
%AMROTATEDRECTD28*
4,1,4,0.01799,0.01562,0.01937,-0.01387,-0.01799,-0.01562,-0.01937,0.01387,0.01799,0.01562,0.0*
%
%ADD28ROTATEDRECTD28*%

G04:AMPARAMS|DCode=29|XSize=37.4mil|YSize=29.53mil|CornerRadius=0mil|HoleSize=0mil|Usage=FLASHONLY|Rotation=287.000|XOffset=0mil|YOffset=0mil|HoleType=Round|Shape=Rectangle|*
%AMROTATEDRECTD29*
4,1,4,-0.01959,0.01357,0.00865,0.02220,0.01959,-0.01357,-0.00865,-0.02220,-0.01959,0.01357,0.0*
%
%ADD29ROTATEDRECTD29*%

G04:AMPARAMS|DCode=30|XSize=37.4mil|YSize=29.53mil|CornerRadius=0mil|HoleSize=0mil|Usage=FLASHONLY|Rotation=358.956|XOffset=0mil|YOffset=0mil|HoleType=Round|Shape=Rectangle|*
%AMROTATEDRECTD30*
4,1,4,-0.01897,-0.01442,-0.01843,0.01510,0.01897,0.01442,0.01843,-0.01510,-0.01897,-0.01442,0.0*
%
%ADD30ROTATEDRECTD30*%

G04:AMPARAMS|DCode=31|XSize=37.4mil|YSize=29.53mil|CornerRadius=0mil|HoleSize=0mil|Usage=FLASHONLY|Rotation=262.500|XOffset=0mil|YOffset=0mil|HoleType=Round|Shape=Rectangle|*
%AMROTATEDRECTD31*
4,1,4,-0.01220,0.02047,0.01708,0.01661,0.01220,-0.02047,-0.01708,-0.01661,-0.01220,0.02047,0.0*
%
%ADD31ROTATEDRECTD31*%

G04:AMPARAMS|DCode=32|XSize=37.4mil|YSize=29.53mil|CornerRadius=0mil|HoleSize=0mil|Usage=FLASHONLY|Rotation=259.000|XOffset=0mil|YOffset=0mil|HoleType=Round|Shape=Rectangle|*
%AMROTATEDRECTD32*
4,1,4,-0.01092,0.02117,0.01806,0.01554,0.01092,-0.02117,-0.01806,-0.01554,-0.01092,0.02117,0.0*
%
%ADD32ROTATEDRECTD32*%

G04:AMPARAMS|DCode=33|XSize=37.4mil|YSize=29.53mil|CornerRadius=0mil|HoleSize=0mil|Usage=FLASHONLY|Rotation=45.000|XOffset=0mil|YOffset=0mil|HoleType=Round|Shape=Rectangle|*
%AMROTATEDRECTD33*
4,1,4,-0.00278,-0.02366,-0.02366,-0.00278,0.00278,0.02366,0.02366,0.00278,-0.00278,-0.02366,0.0*
%
%ADD33ROTATEDRECTD33*%

G04:AMPARAMS|DCode=34|XSize=37.4mil|YSize=29.53mil|CornerRadius=0mil|HoleSize=0mil|Usage=FLASHONLY|Rotation=222.500|XOffset=0mil|YOffset=0mil|HoleType=Round|Shape=Rectangle|*
%AMROTATEDRECTD34*
4,1,4,0.00381,0.02352,0.02376,0.00175,-0.00381,-0.02352,-0.02376,-0.00175,0.00381,0.02352,0.0*
%
%ADD34ROTATEDRECTD34*%

G04:AMPARAMS|DCode=35|XSize=37.4mil|YSize=29.53mil|CornerRadius=0mil|HoleSize=0mil|Usage=FLASHONLY|Rotation=219.500|XOffset=0mil|YOffset=0mil|HoleType=Round|Shape=Rectangle|*
%AMROTATEDRECTD35*
4,1,4,0.00504,0.02329,0.02382,0.00050,-0.00504,-0.02329,-0.02382,-0.00050,0.00504,0.02329,0.0*
%
%ADD35ROTATEDRECTD35*%

G04:AMPARAMS|DCode=36|XSize=37.4mil|YSize=29.53mil|CornerRadius=0mil|HoleSize=0mil|Usage=FLASHONLY|Rotation=216.500|XOffset=0mil|YOffset=0mil|HoleType=Round|Shape=Rectangle|*
%AMROTATEDRECTD36*
4,1,4,0.00625,0.02299,0.02382,-0.00074,-0.00625,-0.02299,-0.02382,0.00074,0.00625,0.02299,0.0*
%
%ADD36ROTATEDRECTD36*%

G04:AMPARAMS|DCode=37|XSize=37.4mil|YSize=29.53mil|CornerRadius=0mil|HoleSize=0mil|Usage=FLASHONLY|Rotation=130.000|XOffset=0mil|YOffset=0mil|HoleType=Round|Shape=Rectangle|*
%AMROTATEDRECTD37*
4,1,4,0.02333,-0.00484,0.00071,-0.02382,-0.02333,0.00484,-0.00071,0.02382,0.02333,-0.00484,0.0*
%
%ADD37ROTATEDRECTD37*%

G04:AMPARAMS|DCode=38|XSize=37.4mil|YSize=29.53mil|CornerRadius=0mil|HoleSize=0mil|Usage=FLASHONLY|Rotation=213.500|XOffset=0mil|YOffset=0mil|HoleType=Round|Shape=Rectangle|*
%AMROTATEDRECTD38*
4,1,4,0.00745,0.02263,0.02374,-0.00199,-0.00745,-0.02263,-0.02374,0.00199,0.00745,0.02263,0.0*
%
%ADD38ROTATEDRECTD38*%

G04:AMPARAMS|DCode=39|XSize=37.4mil|YSize=29.53mil|CornerRadius=0mil|HoleSize=0mil|Usage=FLASHONLY|Rotation=210.500|XOffset=0mil|YOffset=0mil|HoleType=Round|Shape=Rectangle|*
%AMROTATEDRECTD39*
4,1,4,0.00862,0.02221,0.02361,-0.00323,-0.00862,-0.02221,-0.02361,0.00323,0.00862,0.02221,0.0*
%
%ADD39ROTATEDRECTD39*%

G04:AMPARAMS|DCode=40|XSize=37.4mil|YSize=29.53mil|CornerRadius=0mil|HoleSize=0mil|Usage=FLASHONLY|Rotation=120.243|XOffset=0mil|YOffset=0mil|HoleType=Round|Shape=Rectangle|*
%AMROTATEDRECTD40*
4,1,4,0.02217,-0.00872,-0.00334,-0.02359,-0.02217,0.00872,0.00334,0.02359,0.02217,-0.00872,0.0*
%
%ADD40ROTATEDRECTD40*%

G04:AMPARAMS|DCode=41|XSize=37.4mil|YSize=29.53mil|CornerRadius=0mil|HoleSize=0mil|Usage=FLASHONLY|Rotation=212.500|XOffset=0mil|YOffset=0mil|HoleType=Round|Shape=Rectangle|*
%AMROTATEDRECTD41*
4,1,4,0.00784,0.02250,0.02371,-0.00240,-0.00784,-0.02250,-0.02371,0.00240,0.00784,0.02250,0.0*
%
%ADD41ROTATEDRECTD41*%

G04:AMPARAMS|DCode=42|XSize=37.4mil|YSize=29.53mil|CornerRadius=0mil|HoleSize=0mil|Usage=FLASHONLY|Rotation=214.500|XOffset=0mil|YOffset=0mil|HoleType=Round|Shape=Rectangle|*
%AMROTATEDRECTD42*
4,1,4,0.00705,0.02276,0.02377,-0.00158,-0.00705,-0.02276,-0.02377,0.00158,0.00705,0.02276,0.0*
%
%ADD42ROTATEDRECTD42*%

G04:AMPARAMS|DCode=43|XSize=59.06mil|YSize=118.11mil|CornerRadius=0mil|HoleSize=0mil|Usage=FLASHONLY|Rotation=325.000|XOffset=0mil|YOffset=0mil|HoleType=Round|Shape=Rectangle|*
%AMROTATEDRECTD43*
4,1,4,-0.05806,-0.03144,0.00969,0.06531,0.05806,0.03144,-0.00969,-0.06531,-0.05806,-0.03144,0.0*
%
%ADD43ROTATEDRECTD43*%

G04:AMPARAMS|DCode=44|XSize=37.4mil|YSize=29.53mil|CornerRadius=0mil|HoleSize=0mil|Usage=FLASHONLY|Rotation=93.284|XOffset=0mil|YOffset=0mil|HoleType=Round|Shape=Rectangle|*
%AMROTATEDRECTD44*
4,1,4,0.01581,-0.01782,-0.01367,-0.01952,-0.01581,0.01782,0.01367,0.01952,0.01581,-0.01782,0.0*
%
%ADD44ROTATEDRECTD44*%

%ADD45C,0.01000*%
G04:AMPARAMS|DCode=46|XSize=39.37mil|YSize=78.74mil|CornerRadius=0mil|HoleSize=0mil|Usage=FLASHONLY|Rotation=182.000|XOffset=0mil|YOffset=0mil|HoleType=Round|Shape=Round|*
%AMOVALD46*
21,1,0.03937,0.03937,0.00000,0.00000,272.0*
1,1,0.03937,-0.00069,0.01967*
1,1,0.03937,0.00069,-0.01967*
%
%ADD46OVALD46*%

G04:AMPARAMS|DCode=47|XSize=59.06mil|YSize=118.11mil|CornerRadius=0mil|HoleSize=0mil|Usage=FLASHONLY|Rotation=33.500|XOffset=0mil|YOffset=0mil|HoleType=Round|Shape=Round|*
%AMOVALD47*
21,1,0.05906,0.05906,0.00000,0.00000,123.5*
1,1,0.05906,0.01630,-0.02462*
1,1,0.05906,-0.01630,0.02462*
%
%ADD47OVALD47*%

G04:AMPARAMS|DCode=48|XSize=39.37mil|YSize=78.74mil|CornerRadius=0mil|HoleSize=0mil|Usage=FLASHONLY|Rotation=349.000|XOffset=0mil|YOffset=0mil|HoleType=Round|Shape=Round|*
%AMOVALD48*
21,1,0.03937,0.03937,0.00000,0.00000,79.0*
1,1,0.03937,-0.00376,-0.01932*
1,1,0.03937,0.00376,0.01932*
%
%ADD48OVALD48*%

%ADD49C,0.05315*%
%ADD50P,0.07517X4X378.0*%
%ADD51P,0.07517X4X307.5*%
%ADD52O,0.03937X0.07874*%
%ADD53O,0.09843X0.05906*%
G04:AMPARAMS|DCode=54|XSize=39.37mil|YSize=78.74mil|CornerRadius=0mil|HoleSize=0mil|Usage=FLASHONLY|Rotation=14.000|XOffset=0mil|YOffset=0mil|HoleType=Round|Shape=Round|*
%AMOVALD54*
21,1,0.03937,0.03937,0.00000,0.00000,104.0*
1,1,0.03937,0.00476,-0.01910*
1,1,0.03937,-0.00476,0.01910*
%
%ADD54OVALD54*%

G04:AMPARAMS|DCode=55|XSize=39.37mil|YSize=78.74mil|CornerRadius=0mil|HoleSize=0mil|Usage=FLASHONLY|Rotation=19.500|XOffset=0mil|YOffset=0mil|HoleType=Round|Shape=Round|*
%AMOVALD55*
21,1,0.03937,0.03937,0.00000,0.00000,109.5*
1,1,0.03937,0.00657,-0.01856*
1,1,0.03937,-0.00657,0.01856*
%
%ADD55OVALD55*%

G04:AMPARAMS|DCode=56|XSize=39.37mil|YSize=78.74mil|CornerRadius=0mil|HoleSize=0mil|Usage=FLASHONLY|Rotation=342.000|XOffset=0mil|YOffset=0mil|HoleType=Round|Shape=Round|*
%AMOVALD56*
21,1,0.03937,0.03937,0.00000,0.00000,72.0*
1,1,0.03937,-0.00608,-0.01872*
1,1,0.03937,0.00608,0.01872*
%
%ADD56OVALD56*%

G04:AMPARAMS|DCode=57|XSize=39.37mil|YSize=78.74mil|CornerRadius=0mil|HoleSize=0mil|Usage=FLASHONLY|Rotation=40.500|XOffset=0mil|YOffset=0mil|HoleType=Round|Shape=Round|*
%AMOVALD57*
21,1,0.03937,0.03937,0.00000,0.00000,130.5*
1,1,0.03937,0.01278,-0.01497*
1,1,0.03937,-0.01278,0.01497*
%
%ADD57OVALD57*%

G04:AMPARAMS|DCode=58|XSize=39.37mil|YSize=78.74mil|CornerRadius=0mil|HoleSize=0mil|Usage=FLASHONLY|Rotation=46.000|XOffset=0mil|YOffset=0mil|HoleType=Round|Shape=Round|*
%AMOVALD58*
21,1,0.03937,0.03937,0.00000,0.00000,136.0*
1,1,0.03937,0.01416,-0.01367*
1,1,0.03937,-0.01416,0.01367*
%
%ADD58OVALD58*%

G04:AMPARAMS|DCode=59|XSize=39.37mil|YSize=78.74mil|CornerRadius=0mil|HoleSize=0mil|Usage=FLASHONLY|Rotation=320.000|XOffset=0mil|YOffset=0mil|HoleType=Round|Shape=Round|*
%AMOVALD59*
21,1,0.03937,0.03937,0.00000,0.00000,50.0*
1,1,0.03937,-0.01265,-0.01508*
1,1,0.03937,0.01265,0.01508*
%
%ADD59OVALD59*%

%ADD60C,0.03150*%
%ADD61C,0.01969*%
%ADD62C,0.04331*%
G36*
X378556Y441324D02*
X378560Y441308D01*
X378560D01*
X382091Y434609D01*
X386174Y427661D01*
X390574Y420908D01*
X395281Y414367D01*
X400285Y408049D01*
X405575Y401970D01*
X411141Y396141D01*
X416970Y390575D01*
X423049Y385285D01*
X429367Y380281D01*
X435909Y375574D01*
X442661Y371174D01*
X449609Y367091D01*
X456738Y363333D01*
X464034Y359909D01*
X471479Y356824D01*
X479059Y354088D01*
X486758Y351704D01*
X494558Y349678D01*
X502444Y348014D01*
X510398Y346717D01*
X518403Y345788D01*
X526443Y345230D01*
X534500Y345044D01*
X542557Y345230D01*
X550597Y345788D01*
X558602Y346717D01*
X566556Y348014D01*
X574442Y349678D01*
X582242Y351704D01*
X589941Y354088D01*
X597521Y356824D01*
X604966Y359909D01*
X612262Y363333D01*
X619391Y367091D01*
X626339Y371174D01*
X633091Y375574D01*
X639633Y380281D01*
X645951Y385285D01*
X652030Y390575D01*
X657859Y396141D01*
X663425Y401970D01*
X668715Y408049D01*
X673719Y414367D01*
X678426Y420908D01*
X682826Y427661D01*
X686909Y434609D01*
X690440Y441308D01*
X809207Y441323D01*
X809249Y440823D01*
X808924Y440768D01*
X806374Y440033D01*
X803923Y439018D01*
X801601Y437735D01*
X799437Y436199D01*
X797459Y434432D01*
X795691Y432453D01*
X794155Y430289D01*
X792872Y427967D01*
X791857Y425516D01*
X791122Y422966D01*
X790678Y420351D01*
X790529Y417702D01*
X790678Y415053D01*
X791122Y412437D01*
X791857Y409888D01*
X792872Y407436D01*
X794155Y405114D01*
X795691Y402950D01*
X797459Y400972D01*
X799437Y399204D01*
X801601Y397669D01*
X803923Y396386D01*
X804815Y396016D01*
X805066Y395380D01*
X805066Y395380D01*
X800698Y386251D01*
X795772Y376835D01*
X790514Y367600D01*
X784929Y358559D01*
X779025Y349723D01*
X777264Y347281D01*
X776970Y346882D01*
X775091Y348215D01*
X772769Y349498D01*
X770318Y350514D01*
X767769Y351248D01*
X765153Y351693D01*
X762504Y351841D01*
X759855Y351693D01*
X757239Y351248D01*
X754690Y350514D01*
X752239Y349498D01*
X749916Y348215D01*
X747753Y346680D01*
X745774Y344912D01*
X744006Y342933D01*
X742471Y340770D01*
X741188Y338447D01*
X740172Y335996D01*
X739438Y333447D01*
X738993Y330831D01*
X738845Y328182D01*
X738993Y325533D01*
X739438Y322917D01*
X740172Y320368D01*
X741188Y317917D01*
X742471Y315595D01*
X744006Y313431D01*
X745774Y311452D01*
X746251Y311026D01*
X746277Y310333D01*
X744995Y309005D01*
X737348Y301626D01*
X729443Y294524D01*
X721288Y287710D01*
X712896Y281191D01*
X704277Y274975D01*
X703746Y274620D01*
X703320Y274370D01*
X701817Y276489D01*
X700049Y278468D01*
X698070Y280236D01*
X695906Y281771D01*
X693584Y283054D01*
X691133Y284070D01*
X688584Y284804D01*
X685968Y285248D01*
X683319Y285397D01*
X680670Y285248D01*
X678054Y284804D01*
X675505Y284070D01*
X673054Y283054D01*
X670731Y281771D01*
X668568Y280236D01*
X666589Y278468D01*
X664821Y276489D01*
X663286Y274325D01*
X662003Y272003D01*
X660987Y269552D01*
X660253Y267003D01*
X659808Y264387D01*
X659660Y261738D01*
X659808Y259089D01*
X660253Y256473D01*
X660987Y253924D01*
X662003Y251473D01*
X662162Y251184D01*
X661953Y250529D01*
X658163Y248716D01*
X648419Y244475D01*
X638530Y240584D01*
X628509Y237048D01*
X618368Y233873D01*
X609780Y231517D01*
X609250Y231648D01*
X608516Y234198D01*
X607501Y236649D01*
X606217Y238971D01*
X604682Y241135D01*
X602914Y243113D01*
X600936Y244881D01*
X598772Y246417D01*
X596450Y247700D01*
X593998Y248715D01*
X591449Y249450D01*
X588833Y249894D01*
X586184Y250043D01*
X583535Y249894D01*
X580920Y249450D01*
X578370Y248715D01*
X575919Y247700D01*
X573597Y246417D01*
X571433Y244881D01*
X569455Y243113D01*
X567687Y241135D01*
X566151Y238971D01*
X564868Y236649D01*
X563853Y234198D01*
X563118Y231648D01*
X562674Y229033D01*
X562525Y226384D01*
X562674Y223735D01*
X562680Y223696D01*
X562265Y223157D01*
X555737Y222573D01*
X545125Y222004D01*
X534500Y221815D01*
X523875Y222004D01*
X513263Y222573D01*
X506735Y223157D01*
X506320Y223696D01*
X506326Y223735D01*
X506475Y226384D01*
X506326Y229033D01*
X505882Y231648D01*
X505147Y234198D01*
X504132Y236649D01*
X502849Y238971D01*
X501313Y241135D01*
X499545Y243113D01*
X497567Y244881D01*
X495403Y246417D01*
X493081Y247700D01*
X490630Y248715D01*
X488080Y249450D01*
X485465Y249894D01*
X482816Y250043D01*
X480167Y249894D01*
X477551Y249450D01*
X475002Y248715D01*
X472550Y247700D01*
X470228Y246417D01*
X468064Y244881D01*
X466086Y243113D01*
X464318Y241135D01*
X462783Y238971D01*
X461499Y236649D01*
X460484Y234198D01*
X459750Y231648D01*
X459220Y231517D01*
X450632Y233873D01*
X440491Y237048D01*
X430470Y240584D01*
X420581Y244475D01*
X410837Y248716D01*
X407047Y250529D01*
X406838Y251184D01*
X406997Y251473D01*
X408013Y253924D01*
X408747Y256473D01*
X409192Y259089D01*
X409340Y261738D01*
X409192Y264387D01*
X408747Y267003D01*
X408013Y269552D01*
X406997Y272003D01*
X405714Y274325D01*
X404179Y276489D01*
X402411Y278468D01*
X400432Y280236D01*
X398269Y281771D01*
X395946Y283054D01*
X393495Y284070D01*
X390946Y284804D01*
X388330Y285248D01*
X385681Y285397D01*
X383032Y285248D01*
X380416Y284804D01*
X377867Y284070D01*
X375416Y283054D01*
X373094Y281771D01*
X370930Y280236D01*
X368951Y278468D01*
X367183Y276489D01*
X365680Y274370D01*
X365254Y274620D01*
X364723Y274975D01*
X356104Y281191D01*
X347712Y287710D01*
X339558Y294524D01*
X331652Y301626D01*
X324005Y309005D01*
X322723Y310333D01*
X322749Y311026D01*
X323226Y311452D01*
X324994Y313431D01*
X326529Y315595D01*
X327812Y317917D01*
X328828Y320368D01*
X329562Y322917D01*
X330007Y325533D01*
X330155Y328182D01*
X330007Y330831D01*
X329562Y333447D01*
X328828Y335996D01*
X327812Y338447D01*
X326529Y340770D01*
X324994Y342933D01*
X323226Y344912D01*
X321247Y346680D01*
X319084Y348215D01*
X316761Y349498D01*
X314310Y350514D01*
X311761Y351248D01*
X309145Y351693D01*
X306496Y351841D01*
X303847Y351693D01*
X301231Y351248D01*
X298682Y350514D01*
X296231Y349498D01*
X293909Y348215D01*
X292030Y346882D01*
X291736Y347281D01*
X289975Y349723D01*
X284071Y358559D01*
X278486Y367600D01*
X273228Y376835D01*
X268302Y386251D01*
X263934Y395380D01*
X264185Y396016D01*
X265077Y396386D01*
X267399Y397669D01*
X269563Y399204D01*
X271541Y400972D01*
X273309Y402950D01*
X274845Y405114D01*
X276128Y407436D01*
X277143Y409888D01*
X277878Y412437D01*
X278322Y415053D01*
X278471Y417702D01*
X278322Y420351D01*
X277878Y422966D01*
X277143Y425516D01*
X276128Y427967D01*
X274845Y430289D01*
X273309Y432453D01*
X271541Y434432D01*
X269563Y436199D01*
X267399Y437735D01*
X265077Y439018D01*
X262626Y440033D01*
X260076Y440768D01*
X259536Y440860D01*
X259579Y441360D01*
X378556Y441324D01*
D02*
G37*
%LPC*%
G36*
X670127Y308949D02*
X669160Y308761D01*
X668275Y308329D01*
X667532Y307683D01*
X666981Y306866D01*
X666660Y305935D01*
X666592Y304953D01*
X666780Y303986D01*
X667211Y303101D01*
X670471Y298177D01*
X671117Y297433D01*
X671933Y296883D01*
X672864Y296562D01*
X673847Y296493D01*
X674814Y296681D01*
X675699Y297113D01*
X676442Y297759D01*
X676993Y298575D01*
X677313Y299507D01*
X677382Y300489D01*
X677194Y301456D01*
X676762Y302341D01*
X673503Y307265D01*
X672857Y308009D01*
X672040Y308559D01*
X671109Y308880D01*
X670127Y308949D01*
D02*
G37*
G36*
X367217Y300098D02*
X366454Y299929D01*
X365761Y299568D01*
X365185Y299040D01*
X364241Y297915D01*
X366151Y296312D01*
X368978Y299680D01*
X368744Y299829D01*
X367998Y300064D01*
X367217Y300098D01*
D02*
G37*
G36*
X487137Y300340D02*
X486445Y300202D01*
X485859Y299810D01*
X485468Y299224D01*
X485330Y298533D01*
X485468Y297842D01*
X485859Y297256D01*
X486445Y296864D01*
X487137Y296727D01*
X487828Y296864D01*
X488414Y297256D01*
X488805Y297842D01*
X488943Y298533D01*
X488805Y299224D01*
X488414Y299810D01*
X487828Y300202D01*
X487137Y300340D01*
D02*
G37*
G36*
X359576Y306312D02*
X358867Y306155D01*
X358224Y305820D01*
X357688Y305330D01*
X355158Y302314D01*
X354768Y301702D01*
X354550Y301010D01*
X354518Y300285D01*
X354675Y299577D01*
X355010Y298933D01*
X355500Y298398D01*
X356112Y298008D01*
X356804Y297790D01*
X357529Y297758D01*
X358238Y297915D01*
X358881Y298250D01*
X359417Y298741D01*
X361947Y301757D01*
X362337Y302368D01*
X362555Y303061D01*
X362587Y303785D01*
X362430Y304494D01*
X362095Y305138D01*
X361605Y305673D01*
X360993Y306063D01*
X360300Y306281D01*
X359576Y306312D01*
D02*
G37*
G36*
X496465Y302938D02*
X495774Y302800D01*
X495188Y302409D01*
X494796Y301823D01*
X494659Y301132D01*
X494796Y300440D01*
X495188Y299854D01*
X495774Y299463D01*
X496465Y299325D01*
X497156Y299463D01*
X497743Y299854D01*
X498134Y300440D01*
X498272Y301132D01*
X498134Y301823D01*
X497743Y302409D01*
X497156Y302800D01*
X496465Y302938D01*
D02*
G37*
G36*
X491388Y299513D02*
X490696Y299376D01*
X490110Y298984D01*
X489719Y298398D01*
X489581Y297707D01*
X489719Y297016D01*
X490110Y296429D01*
X490696Y296038D01*
X491388Y295900D01*
X492079Y296038D01*
X492665Y296429D01*
X493057Y297016D01*
X493194Y297707D01*
X493057Y298398D01*
X492665Y298984D01*
X492079Y299376D01*
X491388Y299513D01*
D02*
G37*
G36*
X369744Y299037D02*
X366917Y295669D01*
X368828Y294066D01*
X369772Y295191D01*
X370192Y295850D01*
X370427Y296596D01*
X370461Y297376D01*
X370292Y298139D01*
X369931Y298833D01*
X369744Y299037D01*
D02*
G37*
G36*
X388716Y294825D02*
X386685D01*
Y292794D01*
X386857Y292817D01*
X387483Y293076D01*
X388021Y293489D01*
X388434Y294027D01*
X388693Y294653D01*
X388716Y294825D01*
D02*
G37*
G36*
X715625Y302758D02*
X714900Y302720D01*
X714210Y302495D01*
X713601Y302100D01*
X713116Y301561D01*
X712786Y300914D01*
X712636Y300205D01*
X712674Y299480D01*
X712898Y298790D01*
X713293Y298181D01*
X715850Y295187D01*
X716389Y294702D01*
X717036Y294373D01*
X717745Y294222D01*
X718470Y294260D01*
X719160Y294484D01*
X719769Y294879D01*
X720254Y295418D01*
X720584Y296065D01*
X720735Y296775D01*
X720697Y297499D01*
X720472Y298189D01*
X720077Y298798D01*
X717520Y301792D01*
X716981Y302277D01*
X716335Y302607D01*
X715625Y302758D01*
D02*
G37*
G36*
X385685Y297856D02*
X385513Y297834D01*
X384886Y297574D01*
X384349Y297162D01*
X383936Y296624D01*
X383676Y295997D01*
X383654Y295825D01*
X385685D01*
Y297856D01*
D02*
G37*
G36*
X495639Y298687D02*
X494948Y298549D01*
X494362Y298158D01*
X493970Y297572D01*
X493832Y296881D01*
X493970Y296189D01*
X494362Y295603D01*
X494948Y295212D01*
X495639Y295074D01*
X496330Y295212D01*
X496916Y295603D01*
X497308Y296189D01*
X497445Y296881D01*
X497308Y297572D01*
X496916Y298158D01*
X496330Y298549D01*
X495639Y298687D01*
D02*
G37*
G36*
X492214Y303764D02*
X491523Y303627D01*
X490937Y303235D01*
X490545Y302649D01*
X490408Y301958D01*
X490545Y301267D01*
X490937Y300681D01*
X491523Y300289D01*
X492214Y300151D01*
X492905Y300289D01*
X493491Y300681D01*
X493883Y301267D01*
X494020Y301958D01*
X493883Y302649D01*
X493491Y303235D01*
X492905Y303627D01*
X492214Y303764D01*
D02*
G37*
G36*
X417875Y312229D02*
X417703Y312207D01*
X417076Y311947D01*
X416539Y311534D01*
X416126Y310997D01*
X415866Y310370D01*
X415844Y310198D01*
X417875D01*
Y312229D01*
D02*
G37*
G36*
X686804Y319987D02*
X685838Y319799D01*
X684953Y319368D01*
X684209Y318722D01*
X683659Y317905D01*
X683338Y316974D01*
X683269Y315992D01*
X683457Y315025D01*
X683889Y314140D01*
X687149Y309215D01*
X687795Y308472D01*
X688611Y307921D01*
X689542Y307601D01*
X690525Y307532D01*
X691491Y307720D01*
X692376Y308152D01*
X693120Y308798D01*
X693670Y309614D01*
X693991Y310545D01*
X694060Y311528D01*
X693872Y312494D01*
X693440Y313380D01*
X690181Y318304D01*
X689535Y319047D01*
X688718Y319598D01*
X687787Y319919D01*
X686804Y319987D01*
D02*
G37*
G36*
X730833Y315747D02*
X730108Y315709D01*
X729418Y315484D01*
X728810Y315089D01*
X728324Y314550D01*
X727995Y313903D01*
X727844Y313194D01*
X727882Y312469D01*
X728106Y311779D01*
X728501Y311170D01*
X731058Y308177D01*
X731597Y307691D01*
X732244Y307362D01*
X732954Y307211D01*
X733678Y307249D01*
X734368Y307473D01*
X734977Y307868D01*
X735463Y308407D01*
X735792Y309054D01*
X735943Y309764D01*
X735905Y310488D01*
X735681Y311178D01*
X735285Y311787D01*
X732728Y314781D01*
X732189Y315266D01*
X731543Y315596D01*
X730833Y315747D01*
D02*
G37*
G36*
X521205Y316440D02*
X519736D01*
X518704Y316304D01*
X517743Y315906D01*
X516917Y315272D01*
X516284Y314447D01*
X515885Y313485D01*
X515815Y312953D01*
X521205D01*
Y316440D01*
D02*
G37*
G36*
X696862Y318586D02*
X693955Y316662D01*
X695309Y314616D01*
X695991Y313831D01*
X696854Y313249D01*
X697838Y312910D01*
X698877Y312837D01*
X699898Y313036D01*
X700380Y313271D01*
X696862Y318586D01*
D02*
G37*
G36*
X418875Y312229D02*
Y310198D01*
X420906D01*
X420884Y310370D01*
X420624Y310997D01*
X420211Y311534D01*
X419673Y311947D01*
X419047Y312207D01*
X418875Y312229D01*
D02*
G37*
G36*
X678466Y314468D02*
X677499Y314280D01*
X676614Y313848D01*
X675871Y313202D01*
X675320Y312386D01*
X674999Y311455D01*
X674931Y310472D01*
X675118Y309506D01*
X675550Y308620D01*
X678810Y303696D01*
X679456Y302953D01*
X680272Y302402D01*
X681203Y302081D01*
X682186Y302013D01*
X683152Y302201D01*
X684038Y302632D01*
X684781Y303278D01*
X685331Y304095D01*
X685652Y305026D01*
X685721Y306008D01*
X685533Y306975D01*
X685101Y307860D01*
X681842Y312785D01*
X681196Y313528D01*
X680379Y314079D01*
X679448Y314399D01*
X678466Y314468D01*
D02*
G37*
G36*
X487963Y304591D02*
X487272Y304453D01*
X486686Y304062D01*
X486294Y303475D01*
X486157Y302784D01*
X486294Y302093D01*
X486686Y301507D01*
X487272Y301115D01*
X487963Y300978D01*
X488654Y301115D01*
X489240Y301507D01*
X489632Y302093D01*
X489769Y302784D01*
X489632Y303475D01*
X489240Y304062D01*
X488654Y304453D01*
X487963Y304591D01*
D02*
G37*
G36*
X723229Y309252D02*
X722504Y309214D01*
X721814Y308990D01*
X721206Y308595D01*
X720720Y308055D01*
X720391Y307409D01*
X720240Y306699D01*
X720278Y305975D01*
X720502Y305284D01*
X720897Y304676D01*
X723454Y301682D01*
X723993Y301197D01*
X724640Y300867D01*
X725350Y300716D01*
X726074Y300754D01*
X726764Y300978D01*
X727373Y301374D01*
X727859Y301913D01*
X728188Y302559D01*
X728339Y303269D01*
X728301Y303994D01*
X728077Y304684D01*
X727681Y305293D01*
X725125Y308286D01*
X724585Y308772D01*
X723939Y309101D01*
X723229Y309252D01*
D02*
G37*
G36*
X420906Y309198D02*
X418875D01*
Y307167D01*
X419047Y307189D01*
X419673Y307449D01*
X420211Y307862D01*
X420624Y308399D01*
X420884Y309026D01*
X420906Y309198D01*
D02*
G37*
G36*
X417875D02*
X415844D01*
X415866Y309026D01*
X416126Y308399D01*
X416539Y307862D01*
X417076Y307449D01*
X417703Y307189D01*
X417875Y307167D01*
Y309198D01*
D02*
G37*
G36*
X351915Y312740D02*
X351207Y312583D01*
X350563Y312248D01*
X350028Y311758D01*
X347497Y308742D01*
X347108Y308130D01*
X346889Y307438D01*
X346858Y306713D01*
X347015Y306005D01*
X347350Y305361D01*
X347840Y304826D01*
X348452Y304436D01*
X349144Y304218D01*
X349869Y304186D01*
X350577Y304343D01*
X351221Y304678D01*
X351756Y305169D01*
X354287Y308185D01*
X354677Y308797D01*
X354895Y309489D01*
X354926Y310213D01*
X354769Y310922D01*
X354434Y311565D01*
X353944Y312101D01*
X353332Y312490D01*
X352640Y312709D01*
X351915Y312740D01*
D02*
G37*
G36*
X385685Y294825D02*
X383654D01*
X383676Y294653D01*
X383936Y294027D01*
X384349Y293489D01*
X384886Y293076D01*
X385513Y292817D01*
X385685Y292794D01*
Y294825D01*
D02*
G37*
G36*
X625259Y280338D02*
X624549Y280188D01*
X623903Y279858D01*
X623363Y279373D01*
X622968Y278764D01*
X622744Y278074D01*
X622706Y277349D01*
X622857Y276639D01*
X624171Y272928D01*
X624501Y272282D01*
X624986Y271742D01*
X625595Y271347D01*
X626285Y271123D01*
X627009Y271085D01*
X627719Y271236D01*
X628366Y271565D01*
X628905Y272051D01*
X629300Y272659D01*
X629525Y273349D01*
X629563Y274074D01*
X629412Y274784D01*
X628097Y278495D01*
X627768Y279142D01*
X627282Y279681D01*
X626674Y280076D01*
X625984Y280300D01*
X625259Y280338D01*
D02*
G37*
G36*
X419021Y275364D02*
X416526D01*
Y270968D01*
X416801Y271004D01*
X417523Y271303D01*
X418144Y271779D01*
X418619Y272399D01*
X418919Y273121D01*
X419021Y273896D01*
Y275364D01*
D02*
G37*
G36*
X415526D02*
X413032D01*
Y273896D01*
X413134Y273121D01*
X413433Y272399D01*
X413909Y271779D01*
X414529Y271303D01*
X415251Y271004D01*
X415526Y270968D01*
Y275364D01*
D02*
G37*
G36*
X646829Y285470D02*
X643922Y283545D01*
X645275Y281500D01*
X645958Y280715D01*
X646821Y280133D01*
X647805Y279794D01*
X648843Y279721D01*
X649865Y279920D01*
X650347Y280155D01*
X646829Y285470D01*
D02*
G37*
G36*
X436026Y280613D02*
X435307Y280518D01*
X434637Y280240D01*
X434061Y279798D01*
X433619Y279223D01*
X433342Y278552D01*
X433247Y277833D01*
Y273896D01*
X433342Y273176D01*
X433619Y272506D01*
X434061Y271930D01*
X434637Y271489D01*
X435307Y271211D01*
X436026Y271116D01*
X436746Y271211D01*
X437416Y271489D01*
X437992Y271930D01*
X438434Y272506D01*
X438711Y273176D01*
X438806Y273896D01*
Y277833D01*
X438711Y278552D01*
X438434Y279223D01*
X437992Y279798D01*
X437416Y280240D01*
X436746Y280518D01*
X436026Y280613D01*
D02*
G37*
G36*
X426026Y280613D02*
X425307Y280518D01*
X424637Y280240D01*
X424061Y279798D01*
X423619Y279223D01*
X423342Y278552D01*
X423247Y277833D01*
Y273896D01*
X423342Y273176D01*
X423619Y272506D01*
X424061Y271930D01*
X424637Y271489D01*
X425307Y271211D01*
X426026Y271116D01*
X426746Y271211D01*
X427416Y271489D01*
X427992Y271930D01*
X428434Y272506D01*
X428711Y273176D01*
X428806Y273896D01*
Y277833D01*
X428711Y278552D01*
X428434Y279223D01*
X427992Y279798D01*
X427416Y280240D01*
X426746Y280518D01*
X426026Y280613D01*
D02*
G37*
G36*
X429677Y263954D02*
X429505Y263932D01*
X428878Y263672D01*
X428341Y263259D01*
X427928Y262722D01*
X427669Y262095D01*
X427646Y261923D01*
X429677D01*
Y263954D01*
D02*
G37*
G36*
X432708Y260923D02*
X430677D01*
Y258892D01*
X430849Y258914D01*
X431476Y259174D01*
X432013Y259587D01*
X432426Y260124D01*
X432686Y260751D01*
X432708Y260923D01*
D02*
G37*
G36*
X429677D02*
X427646D01*
X427669Y260751D01*
X427928Y260124D01*
X428341Y259587D01*
X428878Y259174D01*
X429505Y258914D01*
X429677Y258892D01*
Y260923D01*
D02*
G37*
G36*
X615833Y277000D02*
X615123Y276849D01*
X614476Y276520D01*
X613937Y276034D01*
X613542Y275426D01*
X613318Y274736D01*
X613280Y274011D01*
X613431Y273301D01*
X614745Y269590D01*
X615074Y268944D01*
X615560Y268404D01*
X616168Y268009D01*
X616858Y267785D01*
X617583Y267747D01*
X618293Y267898D01*
X618939Y268227D01*
X619479Y268713D01*
X619874Y269321D01*
X620098Y270011D01*
X620136Y270736D01*
X619985Y271446D01*
X618671Y275157D01*
X618341Y275803D01*
X617856Y276343D01*
X617247Y276738D01*
X616557Y276962D01*
X615833Y277000D01*
D02*
G37*
G36*
X602014Y272358D02*
X601293Y272276D01*
X600618Y272010D01*
X600034Y271579D01*
X599583Y271011D01*
X599293Y270345D01*
X599186Y269628D01*
X599268Y268907D01*
X600221Y265087D01*
X600487Y264411D01*
X600918Y263828D01*
X601486Y263376D01*
X602152Y263087D01*
X602869Y262980D01*
X603590Y263062D01*
X604265Y263328D01*
X604849Y263760D01*
X605300Y264328D01*
X605590Y264993D01*
X605697Y265711D01*
X605615Y266432D01*
X604662Y270252D01*
X604396Y270927D01*
X603965Y271510D01*
X603397Y271962D01*
X602732Y272251D01*
X602014Y272358D01*
D02*
G37*
G36*
X430677Y263954D02*
Y261923D01*
X432708D01*
X432686Y262095D01*
X432426Y262722D01*
X432013Y263259D01*
X431476Y263672D01*
X430849Y263932D01*
X430677Y263954D01*
D02*
G37*
G36*
X650571Y287946D02*
X647663Y286022D01*
X651181Y280707D01*
X651586Y281059D01*
X652168Y281922D01*
X652507Y282906D01*
X652579Y283944D01*
X652381Y284966D01*
X651925Y285901D01*
X650571Y287946D01*
D02*
G37*
G36*
X379584Y293100D02*
X379412Y293077D01*
X378785Y292818D01*
X378247Y292405D01*
X377835Y291867D01*
X377575Y291241D01*
X377553Y291069D01*
X379584D01*
Y293100D01*
D02*
G37*
G36*
X661788Y303429D02*
X660821Y303241D01*
X659936Y302810D01*
X659193Y302164D01*
X658642Y301347D01*
X658322Y300416D01*
X658253Y299433D01*
X658441Y298467D01*
X658873Y297582D01*
X662132Y292657D01*
X662778Y291914D01*
X663594Y291363D01*
X664526Y291043D01*
X665508Y290974D01*
X666475Y291162D01*
X667360Y291594D01*
X668103Y292240D01*
X668654Y293056D01*
X668974Y293987D01*
X669043Y294970D01*
X668855Y295936D01*
X668424Y296821D01*
X665164Y301746D01*
X664518Y302489D01*
X663702Y303040D01*
X662770Y303361D01*
X661788Y303429D01*
D02*
G37*
G36*
X523673Y298509D02*
X519736D01*
X518760Y298380D01*
X517850Y298004D01*
X517069Y297404D01*
X516469Y296623D01*
X516092Y295713D01*
X515964Y294737D01*
X516092Y293760D01*
X516469Y292850D01*
X517069Y292069D01*
X517850Y291470D01*
X518760Y291093D01*
X519736Y290964D01*
X523673D01*
X524650Y291093D01*
X525559Y291470D01*
X526341Y292069D01*
X526940Y292850D01*
X527317Y293760D01*
X527446Y294737D01*
X527317Y295713D01*
X526940Y296623D01*
X526341Y297404D01*
X525559Y298004D01*
X524650Y298380D01*
X523673Y298509D01*
D02*
G37*
G36*
X363598Y297149D02*
X362654Y296024D01*
X362234Y295365D01*
X361999Y294619D01*
X361965Y293839D01*
X362134Y293075D01*
X362495Y292382D01*
X362682Y292178D01*
X365509Y295546D01*
X363598Y297149D01*
D02*
G37*
G36*
X366275Y294903D02*
X363448Y291535D01*
X363682Y291386D01*
X364428Y291151D01*
X365209Y291117D01*
X365972Y291286D01*
X366665Y291647D01*
X367241Y292175D01*
X368185Y293300D01*
X366275Y294903D01*
D02*
G37*
G36*
X380584Y293100D02*
Y291069D01*
X382615D01*
X382592Y291241D01*
X382333Y291867D01*
X381920Y292405D01*
X381382Y292818D01*
X380756Y293077D01*
X380584Y293100D01*
D02*
G37*
G36*
X645097Y292604D02*
X644075Y292406D01*
X643593Y292171D01*
X647111Y286856D01*
X650019Y288780D01*
X648665Y290826D01*
X647982Y291611D01*
X647120Y292193D01*
X646135Y292532D01*
X645097Y292604D01*
D02*
G37*
G36*
X653449Y297910D02*
X652482Y297722D01*
X651597Y297290D01*
X650854Y296644D01*
X650303Y295828D01*
X649983Y294897D01*
X649914Y293914D01*
X650102Y292948D01*
X650534Y292062D01*
X653793Y287138D01*
X654439Y286395D01*
X655256Y285844D01*
X656187Y285523D01*
X657169Y285455D01*
X658136Y285643D01*
X659021Y286074D01*
X659764Y286720D01*
X660315Y287537D01*
X660636Y288468D01*
X660704Y289450D01*
X660516Y290417D01*
X660085Y291302D01*
X656825Y296227D01*
X656179Y296970D01*
X655363Y297521D01*
X654431Y297841D01*
X653449Y297910D01*
D02*
G37*
G36*
X642760Y291619D02*
X642355Y291267D01*
X641773Y290404D01*
X641434Y289420D01*
X641361Y288382D01*
X641560Y287360D01*
X642016Y286425D01*
X643370Y284379D01*
X646277Y286304D01*
X642760Y291619D01*
D02*
G37*
G36*
X382615Y290069D02*
X380584D01*
Y288037D01*
X380756Y288060D01*
X381382Y288319D01*
X381920Y288732D01*
X382333Y289270D01*
X382592Y289896D01*
X382615Y290069D01*
D02*
G37*
G36*
X379584D02*
X377553D01*
X377575Y289896D01*
X377835Y289270D01*
X378247Y288732D01*
X378785Y288319D01*
X379412Y288060D01*
X379584Y288037D01*
Y290069D01*
D02*
G37*
G36*
X708021Y296263D02*
X707296Y296225D01*
X706606Y296001D01*
X705998Y295606D01*
X705512Y295066D01*
X705183Y294420D01*
X705032Y293710D01*
X705070Y292985D01*
X705294Y292295D01*
X705689Y291687D01*
X708246Y288693D01*
X708785Y288208D01*
X709432Y287878D01*
X710142Y287727D01*
X710866Y287765D01*
X711556Y287989D01*
X712165Y288385D01*
X712650Y288924D01*
X712980Y289570D01*
X713131Y290280D01*
X713093Y291005D01*
X712868Y291695D01*
X712473Y292303D01*
X709916Y295297D01*
X709377Y295783D01*
X708731Y296112D01*
X708021Y296263D01*
D02*
G37*
G36*
X401167Y373512D02*
X399435Y371718D01*
X402598Y368664D01*
X402763Y368887D01*
X403049Y369614D01*
X403137Y370391D01*
X403022Y371164D01*
X402710Y371881D01*
X402224Y372492D01*
X401167Y373512D01*
D02*
G37*
G36*
X398740Y370999D02*
X397007Y369205D01*
X398064Y368185D01*
X398692Y367720D01*
X399419Y367433D01*
X400196Y367345D01*
X400969Y367460D01*
X401686Y367772D01*
X401903Y367945D01*
X398740Y370999D01*
D02*
G37*
G36*
X383123Y375606D02*
X382406Y375499D01*
X381740Y375209D01*
X381172Y374758D01*
X380741Y374174D01*
X380475Y373499D01*
X380393Y372778D01*
X380500Y372060D01*
X380789Y371395D01*
X381241Y370827D01*
X384073Y368092D01*
X384656Y367660D01*
X385331Y367394D01*
X386052Y367312D01*
X386770Y367420D01*
X387435Y367709D01*
X388003Y368161D01*
X388435Y368744D01*
X388701Y369419D01*
X388783Y370140D01*
X388676Y370858D01*
X388387Y371523D01*
X387935Y372091D01*
X385103Y374826D01*
X384519Y375258D01*
X383844Y375524D01*
X383123Y375606D01*
D02*
G37*
G36*
X304816Y394563D02*
X302785D01*
X302807Y394391D01*
X303067Y393765D01*
X303480Y393227D01*
X304017Y392814D01*
X304644Y392555D01*
X304816Y392532D01*
Y394563D01*
D02*
G37*
G36*
X771883Y389423D02*
X771805Y389415D01*
X771726Y389423D01*
X770530Y389305D01*
X770454Y389282D01*
X770375Y389274D01*
X769225Y388926D01*
X769155Y388888D01*
X769080Y388865D01*
X768020Y388299D01*
X767958Y388248D01*
X767889Y388211D01*
X766959Y387449D01*
X766909Y387387D01*
X766848Y387337D01*
X766086Y386408D01*
X766048Y386338D01*
X765998Y386277D01*
X765432Y385217D01*
X765409Y385141D01*
X765371Y385072D01*
X765022Y383921D01*
X765015Y383843D01*
X764992Y383767D01*
X764874Y382571D01*
X764882Y382492D01*
X764874Y382413D01*
X764992Y381217D01*
X765015Y381141D01*
X765022Y381063D01*
X765371Y379912D01*
X765409Y379843D01*
X765432Y379767D01*
X765998Y378707D01*
X766048Y378646D01*
X766086Y378576D01*
X766848Y377647D01*
X766909Y377597D01*
X766959Y377536D01*
X767889Y376773D01*
X767958Y376736D01*
X768020Y376686D01*
X769080Y376119D01*
X769155Y376096D01*
X769225Y376059D01*
X770375Y375710D01*
X770454Y375702D01*
X770530Y375679D01*
X771726Y375561D01*
X771805Y375569D01*
X771883Y375561D01*
X773080Y375679D01*
X773155Y375702D01*
X773234Y375710D01*
X774384Y376059D01*
X774454Y376096D01*
X774530Y376119D01*
X775590Y376686D01*
X775651Y376736D01*
X775721Y376773D01*
X776650Y377536D01*
X776700Y377597D01*
X776761Y377647D01*
X777524Y378576D01*
X777561Y378646D01*
X777611Y378707D01*
X778178Y379767D01*
X778201Y379843D01*
X778238Y379912D01*
X778587Y381063D01*
X778595Y381141D01*
X778618Y381217D01*
X778736Y382413D01*
X778728Y382492D01*
X778736Y382571D01*
X778618Y383767D01*
X778595Y383843D01*
X778587Y383921D01*
X778238Y385072D01*
X778201Y385141D01*
X778178Y385217D01*
X777611Y386277D01*
X777561Y386338D01*
X777524Y386408D01*
X776761Y387337D01*
X776700Y387387D01*
X776650Y387449D01*
X775721Y388211D01*
X775651Y388248D01*
X775590Y388299D01*
X774530Y388865D01*
X774454Y388888D01*
X774384Y388926D01*
X773234Y389274D01*
X773155Y389282D01*
X773080Y389305D01*
X771883Y389423D01*
D02*
G37*
G36*
X297274D02*
X297195Y389415D01*
X297117Y389423D01*
X295920Y389305D01*
X295845Y389282D01*
X295766Y389274D01*
X294616Y388926D01*
X294546Y388888D01*
X294470Y388865D01*
X293410Y388299D01*
X293349Y388248D01*
X293279Y388211D01*
X292350Y387449D01*
X292300Y387387D01*
X292239Y387337D01*
X291476Y386408D01*
X291439Y386338D01*
X291389Y386277D01*
X290822Y385217D01*
X290799Y385141D01*
X290762Y385072D01*
X290413Y383921D01*
X290405Y383843D01*
X290382Y383767D01*
X290264Y382571D01*
X290272Y382492D01*
X290264Y382413D01*
X290382Y381217D01*
X290405Y381141D01*
X290413Y381063D01*
X290762Y379912D01*
X290799Y379843D01*
X290822Y379767D01*
X291389Y378707D01*
X291439Y378646D01*
X291476Y378576D01*
X292239Y377647D01*
X292300Y377597D01*
X292350Y377536D01*
X293279Y376773D01*
X293349Y376736D01*
X293410Y376686D01*
X294470Y376119D01*
X294546Y376096D01*
X294616Y376059D01*
X295766Y375710D01*
X295845Y375702D01*
X295920Y375679D01*
X297117Y375561D01*
X297195Y375569D01*
X297274Y375561D01*
X298470Y375679D01*
X298546Y375702D01*
X298625Y375710D01*
X299775Y376059D01*
X299845Y376096D01*
X299920Y376119D01*
X300980Y376686D01*
X301042Y376736D01*
X301111Y376773D01*
X302041Y377536D01*
X302091Y377597D01*
X302152Y377647D01*
X302914Y378576D01*
X302952Y378646D01*
X303002Y378707D01*
X303568Y379767D01*
X303591Y379843D01*
X303629Y379912D01*
X303978Y381063D01*
X303985Y381141D01*
X304008Y381217D01*
X304126Y382413D01*
X304118Y382492D01*
X304126Y382571D01*
X304008Y383767D01*
X303985Y383843D01*
X303978Y383921D01*
X303629Y385072D01*
X303591Y385141D01*
X303568Y385217D01*
X303002Y386277D01*
X302952Y386338D01*
X302914Y386408D01*
X302152Y387337D01*
X302091Y387387D01*
X302041Y387449D01*
X301111Y388211D01*
X301042Y388248D01*
X300980Y388299D01*
X299920Y388865D01*
X299845Y388888D01*
X299775Y388926D01*
X298625Y389274D01*
X298546Y389282D01*
X298470Y389305D01*
X297274Y389423D01*
D02*
G37*
G36*
X387274Y359126D02*
X385542Y357331D01*
X388704Y354277D01*
X388869Y354500D01*
X389156Y355227D01*
X389244Y356004D01*
X389129Y356777D01*
X388817Y357494D01*
X388331Y358105D01*
X387274Y359126D01*
D02*
G37*
G36*
X384847Y356612D02*
X383114Y354818D01*
X384171Y353798D01*
X384799Y353333D01*
X385526Y353046D01*
X386303Y352958D01*
X387076Y353074D01*
X387793Y353385D01*
X388010Y353558D01*
X384847Y356612D01*
D02*
G37*
G36*
X747271Y383733D02*
X746349Y383550D01*
X745568Y383028D01*
X745046Y382247D01*
X744863Y381325D01*
X745046Y380403D01*
X745568Y379622D01*
X745958Y379361D01*
Y352709D01*
X742976Y349727D01*
X742514Y349918D01*
Y361849D01*
X742905Y362110D01*
X743427Y362891D01*
X743610Y363813D01*
X743427Y364735D01*
X742905Y365516D01*
X742123Y366038D01*
X741202Y366221D01*
X740280Y366038D01*
X739499Y365516D01*
X738976Y364735D01*
X738793Y363813D01*
X738976Y362891D01*
X739499Y362110D01*
X739889Y361849D01*
Y349167D01*
X728513Y337791D01*
X728228Y337365D01*
X728128Y336863D01*
Y327105D01*
X692447Y291424D01*
X672848D01*
X672345Y291324D01*
X671919Y291039D01*
X640826Y259946D01*
X599899D01*
X595922Y263923D01*
X595912Y264012D01*
X594959Y267832D01*
X594694Y268508D01*
X594262Y269091D01*
X593694Y269543D01*
X593028Y269832D01*
X592311Y269939D01*
X591590Y269857D01*
X590915Y269591D01*
X590331Y269160D01*
X589880Y268592D01*
X589590Y267926D01*
X589483Y267209D01*
X589565Y266488D01*
X590518Y262667D01*
X590784Y261992D01*
X591215Y261409D01*
X591783Y260957D01*
X592449Y260668D01*
X593166Y260561D01*
X593887Y260643D01*
X594562Y260909D01*
X594942Y261190D01*
X598427Y257705D01*
X598853Y257421D01*
X599355Y257321D01*
X640075D01*
X640267Y256859D01*
X639392Y255984D01*
X570569D01*
X570066Y255885D01*
X569641Y255600D01*
X563578Y249538D01*
X563118Y249629D01*
X562196Y249446D01*
X561415Y248924D01*
X560893Y248143D01*
X560709Y247221D01*
X560893Y246299D01*
X561415Y245518D01*
X562196Y244996D01*
X563118Y244812D01*
X564039Y244996D01*
X564821Y245518D01*
X565343Y246299D01*
X565526Y247221D01*
X565435Y247681D01*
X571112Y253359D01*
X639936D01*
X640438Y253459D01*
X640864Y253744D01*
X674131Y287011D01*
X694006D01*
X694508Y287111D01*
X694934Y287396D01*
X732156Y324618D01*
X732441Y325044D01*
X732541Y325546D01*
Y335579D01*
X748199Y351237D01*
X748484Y351663D01*
X748584Y352165D01*
Y379361D01*
X748974Y379622D01*
X749496Y380403D01*
X749679Y381325D01*
X749496Y382247D01*
X748974Y383028D01*
X748193Y383550D01*
X747271Y383733D01*
D02*
G37*
G36*
X390317Y368659D02*
X389599Y368552D01*
X388933Y368263D01*
X388366Y367811D01*
X387934Y367228D01*
X387668Y366552D01*
X387586Y365831D01*
X387693Y365114D01*
X387983Y364448D01*
X388434Y363880D01*
X391266Y361145D01*
X391849Y360714D01*
X392525Y360448D01*
X393246Y360366D01*
X393963Y360473D01*
X394629Y360762D01*
X395197Y361214D01*
X395628Y361797D01*
X395894Y362473D01*
X395976Y363194D01*
X395869Y363911D01*
X395580Y364577D01*
X395128Y365145D01*
X392296Y367880D01*
X391713Y368311D01*
X391038Y368577D01*
X390317Y368659D01*
D02*
G37*
G36*
X675885Y372720D02*
X674919Y372532D01*
X674034Y372101D01*
X673290Y371455D01*
X672740Y370638D01*
X672419Y369707D01*
X672350Y368725D01*
X672538Y367758D01*
X672970Y366873D01*
X676229Y361948D01*
X676876Y361205D01*
X677692Y360654D01*
X678623Y360334D01*
X679605Y360265D01*
X680572Y360453D01*
X681457Y360885D01*
X682201Y361531D01*
X682751Y362347D01*
X683072Y363278D01*
X683141Y364261D01*
X682953Y365227D01*
X682521Y366113D01*
X679261Y371037D01*
X678615Y371780D01*
X677799Y372331D01*
X676868Y372652D01*
X675885Y372720D01*
D02*
G37*
G36*
X376177Y368412D02*
X375459Y368305D01*
X374794Y368016D01*
X374226Y367564D01*
X373794Y366981D01*
X373528Y366306D01*
X373446Y365585D01*
X373553Y364867D01*
X373843Y364201D01*
X374294Y363634D01*
X377126Y360899D01*
X377710Y360467D01*
X378385Y360201D01*
X379106Y360119D01*
X379823Y360226D01*
X380442Y360495D01*
X380543Y360450D01*
X380800Y360138D01*
X380513Y359411D01*
X380425Y358634D01*
X380540Y357861D01*
X380852Y357144D01*
X381339Y356533D01*
X382395Y355513D01*
X384475Y357666D01*
X386555Y359820D01*
X385498Y360840D01*
X384870Y361305D01*
X384143Y361592D01*
X383366Y361680D01*
X382593Y361565D01*
X381876Y361253D01*
X381556Y361499D01*
X381507Y361598D01*
X381754Y362226D01*
X381837Y362947D01*
X381729Y363665D01*
X381440Y364330D01*
X380988Y364898D01*
X378156Y367633D01*
X377573Y368064D01*
X376898Y368330D01*
X376177Y368412D01*
D02*
G37*
G36*
X307847Y394563D02*
X305816D01*
Y392532D01*
X305988Y392555D01*
X306614Y392814D01*
X307152Y393227D01*
X307565Y393765D01*
X307824Y394391D01*
X307847Y394563D01*
D02*
G37*
G36*
X373307Y433321D02*
X373228Y433313D01*
X373150Y433321D01*
X371953Y433203D01*
X371878Y433180D01*
X371799Y433172D01*
X370649Y432823D01*
X370579Y432786D01*
X370503Y432763D01*
X369443Y432196D01*
X369382Y432146D01*
X369312Y432109D01*
X368383Y431346D01*
X368333Y431285D01*
X368272Y431235D01*
X367509Y430306D01*
X367472Y430236D01*
X367422Y430175D01*
X366855Y429115D01*
X366832Y429039D01*
X366795Y428969D01*
X366446Y427819D01*
X366438Y427740D01*
X366415Y427665D01*
X366297Y426468D01*
X366305Y426390D01*
X366297Y426311D01*
X366415Y425115D01*
X366438Y425039D01*
X366446Y424960D01*
X366795Y423810D01*
X366832Y423740D01*
X366855Y423665D01*
X367422Y422605D01*
X367472Y422543D01*
X367509Y422474D01*
X368272Y421545D01*
X368333Y421494D01*
X368383Y421433D01*
X369312Y420671D01*
X369382Y420633D01*
X369443Y420583D01*
X370503Y420016D01*
X370579Y419994D01*
X370649Y419956D01*
X371799Y419607D01*
X371878Y419600D01*
X371953Y419577D01*
X372597Y419513D01*
X372572Y419013D01*
X304657D01*
X304154Y418913D01*
X303728Y418629D01*
X299198Y414099D01*
X298914Y413673D01*
X298814Y413170D01*
Y392580D01*
X298914Y392078D01*
X299198Y391652D01*
X317795Y373055D01*
X318221Y372771D01*
X318723Y372671D01*
X324717D01*
X324978Y372280D01*
X325759Y371758D01*
X326681Y371575D01*
X327603Y371758D01*
X328384Y372280D01*
X328906Y373062D01*
X329089Y373984D01*
X328906Y374905D01*
X328384Y375687D01*
X327603Y376209D01*
X326681Y376392D01*
X325759Y376209D01*
X324978Y375687D01*
X324717Y375296D01*
X319267D01*
X301439Y393124D01*
Y412627D01*
X305200Y416388D01*
X383033D01*
X453796Y345624D01*
X453782Y345406D01*
X453655Y345058D01*
X452893Y344695D01*
X452161Y344070D01*
X451901Y343692D01*
X455130Y342047D01*
X458358Y340402D01*
X458511Y340834D01*
X458587Y341794D01*
X458411Y342741D01*
X457997Y343611D01*
X457384Y344328D01*
X457399Y344478D01*
X457508Y344828D01*
X477499D01*
X477660Y344355D01*
X477624Y344327D01*
X477555Y344248D01*
X477476Y344179D01*
X476845Y343357D01*
X476799Y343262D01*
X476740Y343175D01*
X476344Y342217D01*
X476323Y342114D01*
X476289Y342015D01*
X476154Y340987D01*
X476161Y340882D01*
X476154Y340778D01*
X476289Y339750D01*
X476323Y339650D01*
X476344Y339547D01*
X476740Y338590D01*
X476799Y338502D01*
X476845Y338408D01*
X477476Y337586D01*
X477555Y337516D01*
X477624Y337438D01*
X478447Y336807D01*
X478541Y336760D01*
X478628Y336702D01*
X479180Y336473D01*
X479100Y335965D01*
X478650Y335930D01*
X477966Y335687D01*
X477368Y335276D01*
X476897Y334725D01*
X476585Y334070D01*
X475368Y330325D01*
X475236Y329612D01*
X475293Y328888D01*
X475535Y328204D01*
X475946Y327606D01*
X476498Y327135D01*
X477153Y326823D01*
X477866Y326691D01*
X478590Y326747D01*
X479274Y326990D01*
X479872Y327401D01*
X480343Y327952D01*
X480655Y328607D01*
X481872Y332352D01*
X482004Y333065D01*
X481947Y333789D01*
X481705Y334473D01*
X481294Y335071D01*
X480742Y335542D01*
X480948Y335998D01*
X491980Y333314D01*
X492028Y333209D01*
X491739Y332640D01*
X491552Y332602D01*
X490853Y332254D01*
X490267Y331736D01*
X489836Y331084D01*
X489588Y330343D01*
X489308Y328901D01*
X492247Y328330D01*
X495186Y327759D01*
X495466Y329200D01*
X495514Y329980D01*
X495358Y330746D01*
X495009Y331446D01*
X494491Y332031D01*
X494115Y332280D01*
X494318Y332745D01*
X498812Y331652D01*
X498819Y331650D01*
X498923Y331602D01*
X498966Y331600D01*
X499008Y331586D01*
X499943Y331463D01*
X500048Y331469D01*
X500153Y331463D01*
X501181Y331598D01*
X501280Y331632D01*
X501383Y331652D01*
X502341Y332049D01*
X502428Y332107D01*
X502523Y332154D01*
X503345Y332785D01*
X503414Y332864D01*
X503493Y332933D01*
X503520Y332969D01*
X503994Y332808D01*
Y332055D01*
X504094Y331553D01*
X504379Y331127D01*
X504843Y330662D01*
X504151Y329971D01*
X503562Y330362D01*
X502874Y330592D01*
X502149Y330636D01*
X501438Y330492D01*
X500789Y330168D01*
X500245Y329687D01*
X499845Y329082D01*
X499615Y328394D01*
X498863Y324529D01*
X498819Y323805D01*
X498964Y323094D01*
X499288Y322444D01*
X499768Y321901D01*
X500373Y321500D01*
X501062Y321270D01*
X501786Y321226D01*
X502497Y321370D01*
X503146Y321694D01*
X503690Y322175D01*
X504090Y322780D01*
X504321Y323468D01*
X505035Y327142D01*
X507627Y329734D01*
X507912Y330160D01*
X508012Y330662D01*
X507912Y331165D01*
X507627Y331591D01*
X506619Y332599D01*
Y338408D01*
X506519Y338910D01*
X506235Y339336D01*
X498502Y347069D01*
X498076Y347353D01*
X497574Y347453D01*
X455680D01*
X384504Y418629D01*
X384079Y418913D01*
X383576Y419013D01*
X373884D01*
X373860Y419513D01*
X374503Y419577D01*
X374579Y419600D01*
X374658Y419607D01*
X375808Y419956D01*
X375878Y419994D01*
X375953Y420016D01*
X377013Y420583D01*
X377075Y420633D01*
X377144Y420671D01*
X378074Y421433D01*
X378124Y421494D01*
X378185Y421545D01*
X378947Y422474D01*
X378985Y422543D01*
X379035Y422605D01*
X379601Y423665D01*
X379624Y423740D01*
X379662Y423810D01*
X380011Y424960D01*
X380018Y425039D01*
X380041Y425115D01*
X380159Y426311D01*
X380151Y426390D01*
X380159Y426468D01*
X380041Y427665D01*
X380018Y427740D01*
X380011Y427819D01*
X379662Y428969D01*
X379624Y429039D01*
X379601Y429115D01*
X379035Y430175D01*
X378985Y430236D01*
X378947Y430306D01*
X378185Y431235D01*
X378124Y431285D01*
X378074Y431346D01*
X377144Y432109D01*
X377075Y432146D01*
X377013Y432196D01*
X375953Y432763D01*
X375878Y432786D01*
X375808Y432823D01*
X374658Y433172D01*
X374579Y433180D01*
X374503Y433203D01*
X373307Y433321D01*
D02*
G37*
G36*
X305888Y410132D02*
X306041Y405737D01*
X308534Y405825D01*
X308483Y407292D01*
X308354Y408063D01*
X308030Y408774D01*
X307532Y409377D01*
X306896Y409831D01*
X306164Y410105D01*
X305888Y410132D01*
D02*
G37*
G36*
X304889Y410097D02*
X304615Y410051D01*
X303904Y409727D01*
X303301Y409230D01*
X302847Y408593D01*
X302573Y407861D01*
X302498Y407083D01*
X302549Y405616D01*
X305042Y405703D01*
X304889Y410097D01*
D02*
G37*
G36*
X774301Y433642D02*
X720155Y433613D01*
X720099Y433619D01*
X719983Y433642D01*
X719944Y433634D01*
X719905Y433638D01*
X718747Y433524D01*
X718672Y433501D01*
X718593Y433493D01*
X717480Y433155D01*
X717410Y433118D01*
X717334Y433095D01*
X716308Y432547D01*
X716247Y432497D01*
X716177Y432459D01*
X715278Y431721D01*
X715228Y431660D01*
X715167Y431610D01*
X714429Y430711D01*
X714392Y430641D01*
X714341Y430580D01*
X713793Y429554D01*
X713770Y429478D01*
X713733Y429409D01*
X713395Y428295D01*
X713387Y428217D01*
X713365Y428141D01*
X713250Y426983D01*
X713258Y426905D01*
X713250Y426826D01*
X713365Y425668D01*
X713387Y425593D01*
X713395Y425514D01*
X713733Y424401D01*
X713770Y424331D01*
X713793Y424255D01*
X714341Y423230D01*
X714392Y423168D01*
X714429Y423099D01*
X715167Y422199D01*
X715228Y422149D01*
X715278Y422088D01*
X716177Y421350D01*
X716247Y421313D01*
X716308Y421263D01*
X717334Y420714D01*
X717410Y420691D01*
X717480Y420654D01*
X718593Y420316D01*
X718672Y420309D01*
X718747Y420286D01*
X719905Y420172D01*
X719945Y420176D01*
X719984Y420168D01*
X774130Y420196D01*
X774186Y420191D01*
X774301Y420168D01*
X774340Y420176D01*
X774380Y420172D01*
X775538Y420286D01*
X775613Y420309D01*
X775692Y420316D01*
X776805Y420654D01*
X776875Y420691D01*
X776951Y420714D01*
X777977Y421263D01*
X778038Y421313D01*
X778108Y421350D01*
X779007Y422088D01*
X779057Y422149D01*
X779118Y422199D01*
X779856Y423099D01*
X779893Y423168D01*
X779944Y423230D01*
X780492Y424255D01*
X780515Y424331D01*
X780552Y424401D01*
X780890Y425514D01*
X780898Y425593D01*
X780920Y425668D01*
X781035Y426826D01*
X781027Y426905D01*
X781035Y426983D01*
X780920Y428141D01*
X780898Y428217D01*
X780890Y428295D01*
X780552Y429409D01*
X780515Y429478D01*
X780492Y429554D01*
X779944Y430580D01*
X779893Y430641D01*
X779856Y430711D01*
X779118Y431610D01*
X779057Y431660D01*
X779007Y431721D01*
X778108Y432459D01*
X778038Y432497D01*
X777977Y432547D01*
X776951Y433095D01*
X776875Y433118D01*
X776805Y433155D01*
X775692Y433493D01*
X775613Y433501D01*
X775538Y433524D01*
X774380Y433638D01*
X774340Y433634D01*
X774301Y433642D01*
D02*
G37*
G36*
X349016D02*
X294870Y433613D01*
X294814Y433619D01*
X294699Y433642D01*
X294659Y433634D01*
X294620Y433638D01*
X293462Y433524D01*
X293387Y433501D01*
X293308Y433493D01*
X292195Y433155D01*
X292125Y433118D01*
X292049Y433095D01*
X291023Y432547D01*
X290962Y432497D01*
X290893Y432459D01*
X289993Y431721D01*
X289943Y431660D01*
X289882Y431610D01*
X289144Y430711D01*
X289107Y430641D01*
X289057Y430580D01*
X288508Y429554D01*
X288485Y429478D01*
X288448Y429409D01*
X288110Y428295D01*
X288103Y428217D01*
X288080Y428141D01*
X287965Y426983D01*
X287973Y426905D01*
X287965Y426826D01*
X288080Y425668D01*
X288103Y425593D01*
X288110Y425514D01*
X288448Y424401D01*
X288485Y424331D01*
X288508Y424255D01*
X289057Y423230D01*
X289107Y423168D01*
X289144Y423099D01*
X289882Y422199D01*
X289943Y422149D01*
X289993Y422088D01*
X290893Y421350D01*
X290962Y421313D01*
X291023Y421263D01*
X292049Y420714D01*
X292125Y420691D01*
X292195Y420654D01*
X293308Y420316D01*
X293387Y420309D01*
X293462Y420286D01*
X294620Y420172D01*
X294660Y420176D01*
X294699Y420168D01*
X348845Y420196D01*
X348901Y420191D01*
X349016Y420168D01*
X349056Y420176D01*
X349095Y420172D01*
X350253Y420286D01*
X350328Y420309D01*
X350407Y420316D01*
X351520Y420654D01*
X351590Y420691D01*
X351666Y420714D01*
X352692Y421263D01*
X352753Y421313D01*
X352823Y421350D01*
X353722Y422088D01*
X353772Y422149D01*
X353833Y422199D01*
X354571Y423099D01*
X354608Y423168D01*
X354659Y423230D01*
X355207Y424255D01*
X355230Y424331D01*
X355267Y424401D01*
X355605Y425514D01*
X355613Y425593D01*
X355636Y425668D01*
X355750Y426826D01*
X355742Y426905D01*
X355750Y426983D01*
X355636Y428141D01*
X355613Y428217D01*
X355605Y428295D01*
X355267Y429409D01*
X355230Y429478D01*
X355207Y429554D01*
X354659Y430580D01*
X354608Y430641D01*
X354571Y430711D01*
X353833Y431610D01*
X353772Y431660D01*
X353722Y431721D01*
X352823Y432459D01*
X352753Y432497D01*
X352692Y432547D01*
X351666Y433095D01*
X351590Y433118D01*
X351520Y433155D01*
X350407Y433493D01*
X350328Y433501D01*
X350253Y433524D01*
X349095Y433638D01*
X349055Y433634D01*
X349016Y433642D01*
D02*
G37*
G36*
X695850Y433321D02*
X695772Y433313D01*
X695693Y433321D01*
X694497Y433203D01*
X694421Y433180D01*
X694342Y433172D01*
X693192Y432823D01*
X693122Y432786D01*
X693047Y432763D01*
X691987Y432196D01*
X691925Y432146D01*
X691856Y432109D01*
X690927Y431346D01*
X690876Y431285D01*
X690815Y431235D01*
X690053Y430306D01*
X690015Y430236D01*
X689965Y430175D01*
X689399Y429115D01*
X689376Y429039D01*
X689338Y428969D01*
X688989Y427819D01*
X688982Y427740D01*
X688959Y427665D01*
X688841Y426468D01*
X688849Y426390D01*
X688841Y426311D01*
X688959Y425115D01*
X688982Y425039D01*
X688989Y424960D01*
X689338Y423810D01*
X689376Y423740D01*
X689399Y423665D01*
X689965Y422605D01*
X690015Y422543D01*
X690053Y422474D01*
X690815Y421545D01*
X690876Y421494D01*
X690927Y421433D01*
X691856Y420671D01*
X691925Y420633D01*
X691987Y420583D01*
X693047Y420016D01*
X693122Y419994D01*
X693192Y419956D01*
X694342Y419607D01*
X694421Y419600D01*
X694497Y419577D01*
X695693Y419459D01*
X695772Y419467D01*
X695850Y419459D01*
X697047Y419577D01*
X697122Y419600D01*
X697201Y419607D01*
X698351Y419956D01*
X698421Y419994D01*
X698497Y420016D01*
X699557Y420583D01*
X699618Y420633D01*
X699688Y420671D01*
X700617Y421433D01*
X700667Y421494D01*
X700728Y421545D01*
X701491Y422474D01*
X701528Y422543D01*
X701578Y422605D01*
X702145Y423665D01*
X702168Y423740D01*
X702205Y423810D01*
X702554Y424960D01*
X702562Y425039D01*
X702585Y425115D01*
X702703Y426311D01*
X702695Y426390D01*
X702703Y426468D01*
X702585Y427665D01*
X702562Y427740D01*
X702554Y427819D01*
X702205Y428969D01*
X702168Y429039D01*
X702145Y429115D01*
X701578Y430175D01*
X701528Y430236D01*
X701491Y430306D01*
X700728Y431235D01*
X700667Y431285D01*
X700617Y431346D01*
X699688Y432109D01*
X699618Y432146D01*
X699557Y432196D01*
X698497Y432763D01*
X698421Y432786D01*
X698351Y432823D01*
X697201Y433172D01*
X697122Y433180D01*
X697047Y433203D01*
X695850Y433321D01*
D02*
G37*
G36*
X345756Y410730D02*
X344834Y410546D01*
X344053Y410024D01*
X343531Y409243D01*
X343348Y408321D01*
X343531Y407400D01*
X344053Y406618D01*
X344834Y406096D01*
X345756Y405913D01*
X346217Y406004D01*
X354423Y397798D01*
X354849Y397513D01*
X355352Y397413D01*
X358045D01*
X358281Y396972D01*
X358156Y396785D01*
X357973Y395864D01*
X358156Y394942D01*
X358678Y394161D01*
X359068Y393900D01*
Y390744D01*
X338844Y370520D01*
X338345Y370727D01*
Y371971D01*
X353246Y386872D01*
X353531Y387298D01*
X353582Y387554D01*
X354021Y387848D01*
X354543Y388629D01*
X354726Y389551D01*
X354543Y390473D01*
X354021Y391254D01*
X353240Y391776D01*
X352318Y391959D01*
X351396Y391776D01*
X350615Y391254D01*
X350093Y390473D01*
X349909Y389551D01*
X350093Y388629D01*
X350572Y387911D01*
X347053Y384391D01*
X346574Y384536D01*
X346530Y384757D01*
X346008Y385538D01*
X345227Y386060D01*
X344305Y386244D01*
X343383Y386060D01*
X342602Y385538D01*
X342080Y384757D01*
X341897Y383835D01*
X341988Y383375D01*
X334126Y375513D01*
X333841Y375087D01*
X333741Y374584D01*
Y311440D01*
X333841Y310937D01*
X334126Y310511D01*
X353448Y291190D01*
X353356Y290729D01*
X353539Y289807D01*
X354062Y289026D01*
X354843Y288504D01*
X355765Y288321D01*
X356686Y288504D01*
X357468Y289026D01*
X357990Y289807D01*
X358173Y290729D01*
X357990Y291651D01*
X357468Y292432D01*
X356686Y292954D01*
X355765Y293138D01*
X355304Y293046D01*
X336367Y311983D01*
Y341747D01*
X336829Y341939D01*
X347205Y331563D01*
X346947Y331114D01*
X346099Y330945D01*
X345318Y330423D01*
X344796Y329642D01*
X344612Y328720D01*
X344796Y327798D01*
X345318Y327017D01*
X345708Y326756D01*
Y324329D01*
Y319383D01*
X345284Y319040D01*
X344980Y319137D01*
X344255Y319168D01*
X343546Y319011D01*
X342902Y318676D01*
X342368Y318186D01*
X339837Y315170D01*
X339447Y314558D01*
X339229Y313866D01*
X339197Y313141D01*
X339354Y312432D01*
X339689Y311789D01*
X340179Y311254D01*
X340792Y310864D01*
X341483Y310646D01*
X342209Y310614D01*
X342917Y310771D01*
X343561Y311106D01*
X344096Y311596D01*
X346626Y314612D01*
X347016Y315224D01*
X347234Y315916D01*
X347266Y316641D01*
X347188Y316991D01*
X347949Y317752D01*
X348234Y318178D01*
X348334Y318681D01*
Y320506D01*
X348796Y320698D01*
X369647Y299847D01*
X369613Y299805D01*
X370044Y299443D01*
X370047Y299446D01*
X370184Y299309D01*
X370609Y299025D01*
X371112Y298925D01*
X386769D01*
X387646Y298048D01*
X387363Y297624D01*
X386857Y297834D01*
X386685Y297856D01*
Y295825D01*
X388716D01*
X388693Y295997D01*
X388484Y296503D01*
X388908Y296786D01*
X389567Y296127D01*
X389476Y295666D01*
X389659Y294745D01*
X390181Y293963D01*
X390962Y293441D01*
X391884Y293258D01*
X392806Y293441D01*
X393587Y293963D01*
X394109Y294745D01*
X394293Y295666D01*
X394109Y296588D01*
X393587Y297369D01*
X392806Y297891D01*
X391884Y298075D01*
X391424Y297983D01*
X388241Y301166D01*
X387815Y301450D01*
X387313Y301550D01*
X371656D01*
X348334Y324872D01*
Y326644D01*
X348687Y326901D01*
X349161Y326731D01*
Y325350D01*
X349261Y324848D01*
X349546Y324422D01*
X369462Y304506D01*
X369888Y304221D01*
X370390Y304121D01*
X374135D01*
X374396Y303731D01*
X375178Y303209D01*
X376099Y303026D01*
X377021Y303209D01*
X377802Y303731D01*
X378325Y304512D01*
X378508Y305434D01*
X378325Y306356D01*
X377802Y307137D01*
X377021Y307659D01*
X376099Y307842D01*
X375178Y307659D01*
X374396Y307137D01*
X374135Y306747D01*
X370934D01*
X351786Y325894D01*
Y330150D01*
X351686Y330652D01*
X351402Y331078D01*
X338345Y344136D01*
Y344679D01*
X338844Y344886D01*
X372228Y311503D01*
X372136Y311042D01*
X372320Y310120D01*
X372842Y309339D01*
X373623Y308817D01*
X374545Y308634D01*
X375466Y308817D01*
X376248Y309339D01*
X376770Y310120D01*
X376953Y311042D01*
X376770Y311964D01*
X376248Y312745D01*
X375466Y313267D01*
X374545Y313451D01*
X374084Y313359D01*
X340802Y346641D01*
Y368765D01*
X361309Y389272D01*
X361594Y389698D01*
X361694Y390200D01*
Y393900D01*
X362084Y394161D01*
X362606Y394942D01*
X362650Y395162D01*
X363128Y395307D01*
X364023Y394413D01*
Y382511D01*
X351169Y369657D01*
X350884Y369232D01*
X350784Y368729D01*
Y347120D01*
X350884Y346618D01*
X351169Y346192D01*
X373810Y323551D01*
X374235Y323267D01*
X374592Y323196D01*
X374872Y322777D01*
X375654Y322254D01*
X376576Y322071D01*
X377497Y322254D01*
X378279Y322777D01*
X378801Y323558D01*
X378984Y324480D01*
X378801Y325401D01*
X378279Y326183D01*
X377497Y326705D01*
X376576Y326888D01*
X375654Y326705D01*
X374884Y326190D01*
X371024Y330050D01*
X371215Y330512D01*
X377921D01*
X394250Y314182D01*
X394676Y313898D01*
X395178Y313798D01*
X404787D01*
X404939Y313298D01*
X404797Y313203D01*
X404275Y312422D01*
X404092Y311500D01*
X404275Y310578D01*
X404797Y309797D01*
X405051Y309628D01*
X404855Y309156D01*
X404205Y309286D01*
X403283Y309103D01*
X402502Y308580D01*
X401980Y307799D01*
X401796Y306877D01*
X401980Y305956D01*
X402502Y305174D01*
X403283Y304652D01*
X404205Y304469D01*
X404665Y304561D01*
X405742Y303484D01*
Y300534D01*
X405842Y300031D01*
X406127Y299606D01*
X413580Y292152D01*
X413389Y291690D01*
X407600D01*
X406913Y292150D01*
X405991Y292333D01*
X405069Y292150D01*
X404288Y291628D01*
X403766Y290846D01*
X403582Y289925D01*
X403766Y289003D01*
X404288Y288222D01*
X405000Y287746D01*
X405068Y287426D01*
X405068Y287190D01*
X404645Y286907D01*
X404123Y286126D01*
X403939Y285204D01*
X404123Y284282D01*
X404645Y283501D01*
X405426Y282979D01*
X406348Y282796D01*
X407270Y282979D01*
X408051Y283501D01*
X408573Y284282D01*
X408756Y285204D01*
X408722Y285375D01*
X408802Y285775D01*
X408867Y285841D01*
X409900D01*
X410045Y285362D01*
X410016Y285342D01*
X409494Y284561D01*
X409310Y283639D01*
X409494Y282718D01*
X410016Y281936D01*
X410797Y281414D01*
X411470Y281280D01*
X411641Y280745D01*
X411308Y280411D01*
X410877Y280453D01*
X410095Y280976D01*
X409174Y281159D01*
X408252Y280976D01*
X407471Y280453D01*
X406949Y279672D01*
X406765Y278750D01*
X406949Y277829D01*
X407471Y277047D01*
X408252Y276525D01*
X409174Y276342D01*
X410095Y276525D01*
X410877Y277047D01*
X411138Y277438D01*
X411504D01*
X412006Y277538D01*
X412432Y277822D01*
X412596Y277986D01*
X413032Y277716D01*
Y276364D01*
X419021D01*
Y277833D01*
X418919Y278608D01*
X418619Y279330D01*
X418144Y279950D01*
X417523Y280426D01*
X416801Y280725D01*
X416130Y280813D01*
X415874Y281264D01*
X416875Y282266D01*
X450456D01*
X463245Y269476D01*
X463054Y269014D01*
X437278D01*
X437017Y269405D01*
X436236Y269927D01*
X435314Y270110D01*
X434392Y269927D01*
X433611Y269405D01*
X433089Y268623D01*
X432905Y267702D01*
X433089Y266780D01*
X433611Y265999D01*
X434392Y265476D01*
X435314Y265293D01*
X436236Y265476D01*
X437017Y265999D01*
X437278Y266389D01*
X463804D01*
X465218Y264976D01*
X465169Y264478D01*
X465094Y264428D01*
X463939Y263273D01*
X453735D01*
X453474Y263663D01*
X452693Y264186D01*
X451771Y264369D01*
X450850Y264186D01*
X450068Y263663D01*
X449546Y262882D01*
X449470Y262500D01*
X448992Y262355D01*
X448445Y262902D01*
X448537Y263362D01*
X448353Y264284D01*
X447831Y265065D01*
X447050Y265587D01*
X446128Y265771D01*
X445207Y265587D01*
X444425Y265065D01*
X443903Y264284D01*
X443720Y263362D01*
X443903Y262441D01*
X443932Y262397D01*
X443572Y262037D01*
X442942Y262458D01*
X442020Y262641D01*
X441098Y262458D01*
X440317Y261936D01*
X439795Y261154D01*
X439611Y260233D01*
X439795Y259311D01*
X440317Y258530D01*
X441098Y258008D01*
X442020Y257824D01*
X442942Y258008D01*
X443723Y258530D01*
X443984Y258920D01*
X444666D01*
X446015Y257572D01*
X446441Y257287D01*
X446943Y257188D01*
X447919D01*
X453165Y251942D01*
X453591Y251657D01*
X454093Y251557D01*
X511023D01*
X529018Y233562D01*
X529444Y233277D01*
X529946Y233177D01*
X539054D01*
X539556Y233277D01*
X539982Y233562D01*
X551917Y245497D01*
X555900D01*
X556402Y245597D01*
X556828Y245882D01*
X615319Y304372D01*
X622710D01*
X623212Y304472D01*
X623638Y304757D01*
X627820Y308939D01*
X638192D01*
X638383Y308477D01*
X632545Y302638D01*
X632085Y302730D01*
X631163Y302547D01*
X630381Y302025D01*
X629859Y301243D01*
X629676Y300321D01*
X629859Y299400D01*
X630381Y298618D01*
X631163Y298096D01*
X632085Y297913D01*
X633006Y298096D01*
X633788Y298618D01*
X634310Y299400D01*
X634493Y300321D01*
X634402Y300782D01*
X640771Y307151D01*
X665320D01*
X665822Y307251D01*
X666248Y307536D01*
X684284Y325571D01*
X693069D01*
X693185Y325072D01*
X693173Y325066D01*
X692388Y324383D01*
X691806Y323520D01*
X691467Y322536D01*
X691394Y321498D01*
X691593Y320476D01*
X692049Y319541D01*
X693403Y317495D01*
X696728Y319696D01*
X700052Y321897D01*
X698698Y323942D01*
X698015Y324727D01*
X697505Y325072D01*
X697658Y325571D01*
X700375D01*
X700567Y325179D01*
X703826Y320254D01*
X704472Y319511D01*
X705289Y318960D01*
X706220Y318639D01*
X707202Y318571D01*
X708169Y318759D01*
X709054Y319190D01*
X709797Y319836D01*
X710348Y320653D01*
X710669Y321584D01*
X710738Y322566D01*
X710549Y323533D01*
X710118Y324418D01*
X706858Y329343D01*
X706212Y330086D01*
X705396Y330637D01*
X704465Y330957D01*
X703482Y331026D01*
X702516Y330838D01*
X701630Y330406D01*
X700887Y329760D01*
X700337Y328944D01*
X700079Y328197D01*
X685035D01*
X684843Y328659D01*
X723764Y367579D01*
X728813D01*
X729073Y367189D01*
X729855Y366667D01*
X730777Y366483D01*
X731698Y366667D01*
X732479Y367189D01*
X733002Y367970D01*
X733185Y368892D01*
X733002Y369813D01*
X732479Y370595D01*
X731698Y371117D01*
X730777Y371300D01*
X729855Y371117D01*
X729073Y370595D01*
X728813Y370204D01*
X724325D01*
X723938Y370704D01*
X723968Y370855D01*
Y372607D01*
X724359Y372868D01*
X724881Y373650D01*
X725064Y374571D01*
X724881Y375493D01*
X724359Y376274D01*
X723577Y376796D01*
X722656Y376980D01*
X721734Y376796D01*
X720953Y376274D01*
X720430Y375493D01*
X720247Y374571D01*
X720430Y373650D01*
X720953Y372868D01*
X721343Y372607D01*
Y371399D01*
X716934Y366990D01*
X716472Y367181D01*
Y378911D01*
X716862Y379172D01*
X717384Y379954D01*
X717568Y380875D01*
X717384Y381797D01*
X716862Y382578D01*
X716081Y383100D01*
X715159Y383284D01*
X714238Y383100D01*
X713456Y382578D01*
X712934Y381797D01*
X712751Y380875D01*
X712934Y379954D01*
X713456Y379172D01*
X713847Y378911D01*
Y366430D01*
X710281Y362864D01*
X709820Y363111D01*
X709938Y363703D01*
X709755Y364625D01*
X709233Y365407D01*
X708451Y365929D01*
X707529Y366112D01*
X706608Y365929D01*
X705827Y365407D01*
X705304Y364625D01*
X705121Y363703D01*
X705304Y362782D01*
X705827Y362000D01*
X706135Y361794D01*
X706167Y361279D01*
X699884Y354995D01*
X699496Y355314D01*
X699693Y355610D01*
X699877Y356532D01*
X699693Y357453D01*
X699171Y358235D01*
X698781Y358496D01*
Y376173D01*
X707511Y384903D01*
X707971Y384812D01*
X708893Y384995D01*
X709674Y385517D01*
X710196Y386298D01*
X710380Y387220D01*
X710196Y388142D01*
X709674Y388923D01*
X708893Y389445D01*
X707971Y389629D01*
X707050Y389445D01*
X706268Y388923D01*
X705746Y388142D01*
X705563Y387220D01*
X705654Y386760D01*
X696540Y377645D01*
X696256Y377219D01*
X696156Y376717D01*
Y358496D01*
X695765Y358235D01*
X695243Y357453D01*
X695060Y356532D01*
X695243Y355610D01*
X695765Y354829D01*
X696547Y354307D01*
X697468Y354123D01*
X698390Y354307D01*
X698686Y354504D01*
X699005Y354116D01*
X662554Y317666D01*
X627089D01*
X626897Y318127D01*
X632165Y323395D01*
X632205D01*
X632707Y323495D01*
X633133Y323779D01*
X643028Y333675D01*
X643313Y334101D01*
X643413Y334603D01*
Y338597D01*
X643913Y338863D01*
X644337Y338577D01*
X645268Y338256D01*
X646250Y338188D01*
X647217Y338375D01*
X648102Y338807D01*
X648845Y339453D01*
X649396Y340270D01*
X649717Y341201D01*
X649785Y342183D01*
X649597Y343150D01*
X649166Y344035D01*
X647197Y347009D01*
X647429Y347565D01*
X647469Y347573D01*
X647895Y347858D01*
X648179Y348284D01*
X648279Y348786D01*
Y348786D01*
X648242Y348973D01*
X648713Y349167D01*
X651213Y345390D01*
X651859Y344647D01*
X652675Y344096D01*
X653607Y343776D01*
X654589Y343707D01*
X655556Y343895D01*
X656441Y344327D01*
X657184Y344973D01*
X657735Y345789D01*
X658055Y346720D01*
X658124Y347703D01*
X657936Y348669D01*
X657504Y349554D01*
X654505Y354086D01*
X654585Y354279D01*
X655011Y354563D01*
X655927Y355480D01*
X655955Y355499D01*
X656531Y355473D01*
X659552Y350909D01*
X660198Y350166D01*
X661014Y349616D01*
X661945Y349295D01*
X662928Y349226D01*
X663895Y349414D01*
X664780Y349846D01*
X665523Y350492D01*
X666074Y351308D01*
X666394Y352240D01*
X666463Y353222D01*
X666275Y354189D01*
X665843Y355074D01*
X662584Y359998D01*
X661938Y360742D01*
X661848Y360802D01*
X661850Y361404D01*
X661855Y361407D01*
X663527Y363079D01*
X664068Y362914D01*
X664199Y362239D01*
X664631Y361353D01*
X667891Y356429D01*
X668537Y355686D01*
X669353Y355135D01*
X670284Y354814D01*
X671267Y354746D01*
X672233Y354934D01*
X673118Y355365D01*
X673862Y356011D01*
X674412Y356828D01*
X674733Y357759D01*
X674802Y358741D01*
X674614Y359708D01*
X674182Y360593D01*
X670923Y365518D01*
X670277Y366261D01*
X669460Y366812D01*
X668529Y367132D01*
X668243Y367152D01*
X668068Y367621D01*
X681091Y380644D01*
X696210D01*
X696712Y380744D01*
X697138Y381028D01*
X708317Y392207D01*
X727746D01*
X727876Y391553D01*
X728398Y390772D01*
X729180Y390250D01*
X730101Y390067D01*
X731023Y390250D01*
X731804Y390772D01*
X732327Y391553D01*
X732510Y392475D01*
X732327Y393397D01*
X731804Y394178D01*
X731023Y394700D01*
X730101Y394883D01*
X729451Y394754D01*
X729057Y394832D01*
X709067D01*
X708876Y395294D01*
X711134Y397552D01*
X720265D01*
X720526Y397162D01*
X721307Y396640D01*
X722229Y396456D01*
X723151Y396640D01*
X723932Y397162D01*
X724454Y397943D01*
X724637Y398865D01*
X724454Y399786D01*
X723932Y400568D01*
X723151Y401090D01*
X722229Y401273D01*
X721307Y401090D01*
X720526Y400568D01*
X720265Y400177D01*
X710590D01*
X710088Y400077D01*
X709662Y399793D01*
X694926Y385056D01*
X681102D01*
X680910Y385518D01*
X690501Y395109D01*
X690675Y395074D01*
X691596Y395258D01*
X692378Y395780D01*
X692900Y396561D01*
X693083Y397483D01*
X692900Y398405D01*
X692378Y399186D01*
X691596Y399708D01*
X690675Y399891D01*
X689753Y399708D01*
X688972Y399186D01*
X688450Y398405D01*
X688266Y397483D01*
X688415Y396736D01*
X664411Y372731D01*
X663963Y372642D01*
X663538Y372358D01*
X658855Y367675D01*
X658570Y367249D01*
X658565Y367223D01*
X656127D01*
X655624Y367123D01*
X655199Y366838D01*
X650064Y361703D01*
X647788D01*
X647286Y361604D01*
X647115Y361490D01*
X646860Y361319D01*
X641725Y356184D01*
X638866D01*
X638363Y356084D01*
X637937Y355800D01*
X620735Y338597D01*
X620451Y338172D01*
X620351Y337669D01*
Y333676D01*
X619851Y333410D01*
X619427Y333695D01*
X618496Y334016D01*
X617513Y334085D01*
X616547Y333897D01*
X616006Y333633D01*
X615756Y334068D01*
X616015Y334241D01*
X616538Y335022D01*
X616721Y335944D01*
X616538Y336866D01*
X616015Y337647D01*
X615234Y338169D01*
X614313Y338352D01*
X613391Y338169D01*
X612609Y337647D01*
X612349Y337257D01*
X611706D01*
X611204Y337157D01*
X610778Y336872D01*
X587994Y314088D01*
X587605Y314407D01*
X587624Y314435D01*
X587807Y315356D01*
X587624Y316278D01*
X587102Y317059D01*
X586320Y317581D01*
X585399Y317765D01*
X584938Y317673D01*
X580938Y321673D01*
X580513Y321958D01*
X580010Y322058D01*
X520822D01*
X520561Y322448D01*
X519779Y322970D01*
X518858Y323153D01*
X517936Y322970D01*
X517155Y322448D01*
X516633Y321667D01*
X516449Y320745D01*
X516633Y319823D01*
X517155Y319042D01*
X517936Y318520D01*
X518858Y318336D01*
X519779Y318520D01*
X520561Y319042D01*
X520822Y319432D01*
X579466D01*
X583082Y315817D01*
X582990Y315356D01*
X583174Y314435D01*
X583696Y313653D01*
X584477Y313131D01*
X585399Y312948D01*
X586320Y313131D01*
X586758Y313424D01*
X587094Y313126D01*
X587133Y313073D01*
X587036Y312587D01*
Y300409D01*
X561113Y274486D01*
X552362D01*
X552115Y274986D01*
X552531Y275528D01*
X552908Y276437D01*
X553036Y277414D01*
X552908Y278390D01*
X552531Y279300D01*
X551931Y280081D01*
X551150Y280681D01*
X550240Y281058D01*
X549264Y281186D01*
X545327D01*
X544350Y281058D01*
X543441Y280681D01*
X542659Y280081D01*
X542060Y279300D01*
X541683Y278390D01*
X541554Y277414D01*
X541683Y276437D01*
X542060Y275528D01*
X542475Y274986D01*
X542229Y274486D01*
X526771D01*
X526525Y274986D01*
X526940Y275528D01*
X527317Y276437D01*
X527446Y277414D01*
X527317Y278390D01*
X526940Y279300D01*
X526341Y280081D01*
X525559Y280681D01*
X524650Y281058D01*
X523673Y281186D01*
X523017D01*
Y281764D01*
X522917Y282266D01*
X522633Y282692D01*
X522170Y283155D01*
X522361Y283617D01*
X543519D01*
X544021Y283717D01*
X544447Y284001D01*
X548223Y287777D01*
X548394Y288033D01*
X548508Y288203D01*
X548608Y288706D01*
Y290964D01*
X549264D01*
X550240Y291093D01*
X551150Y291470D01*
X551931Y292069D01*
X552531Y292850D01*
X552908Y293760D01*
X553036Y294737D01*
X552908Y295713D01*
X552531Y296623D01*
X551931Y297404D01*
X551150Y298004D01*
X550240Y298380D01*
X549264Y298509D01*
X545327D01*
X544350Y298380D01*
X543441Y298004D01*
X542659Y297404D01*
X542060Y296623D01*
X541683Y295713D01*
X541554Y294737D01*
X541683Y293760D01*
X542060Y292850D01*
X542659Y292069D01*
X543441Y291470D01*
X544350Y291093D01*
X545327Y290964D01*
X545983D01*
Y289249D01*
X542975Y286242D01*
X521941D01*
X504658Y303525D01*
X492756Y315427D01*
X492330Y315712D01*
X491828Y315812D01*
X487011D01*
X486908Y315950D01*
X487121Y316502D01*
X487225Y316523D01*
X488007Y317045D01*
X488268Y317436D01*
X502286D01*
X513832Y305889D01*
X514258Y305605D01*
X514760Y305505D01*
X555339D01*
X561187Y299657D01*
X561095Y299197D01*
X561278Y298275D01*
X561800Y297494D01*
X562582Y296972D01*
X563504Y296788D01*
X564425Y296972D01*
X565206Y297494D01*
X565729Y298275D01*
X565912Y299197D01*
X565729Y300118D01*
X565206Y300900D01*
X564425Y301422D01*
X563504Y301605D01*
X563043Y301514D01*
X556811Y307746D01*
X556385Y308030D01*
X555883Y308130D01*
X550402D01*
X550296Y308602D01*
X551257Y309000D01*
X552083Y309634D01*
X552716Y310460D01*
X553115Y311421D01*
X553185Y311953D01*
X541406D01*
X541476Y311421D01*
X541874Y310460D01*
X542508Y309634D01*
X543333Y309000D01*
X544295Y308602D01*
X544189Y308130D01*
X524811D01*
X524705Y308602D01*
X525667Y309000D01*
X526492Y309634D01*
X527126Y310460D01*
X527524Y311421D01*
X527594Y311953D01*
X515815D01*
X515885Y311421D01*
X516284Y310460D01*
X516917Y309634D01*
X517743Y309000D01*
X518704Y308602D01*
X518598Y308130D01*
X515304D01*
X503758Y319676D01*
X503332Y319961D01*
X502830Y320061D01*
X488268D01*
X488007Y320451D01*
X487225Y320973D01*
X486304Y321157D01*
X485382Y320973D01*
X484601Y320451D01*
X484079Y319670D01*
X483968Y319115D01*
X483426Y318950D01*
X471503Y330873D01*
X471112Y331134D01*
X471349Y331631D01*
X471802Y333028D01*
X468955Y333953D01*
X466107Y334878D01*
X465654Y333482D01*
X465609Y333244D01*
X465132Y333096D01*
X462854Y335373D01*
X462428Y335658D01*
X461926Y335758D01*
X415088D01*
X414952Y336442D01*
X414430Y337223D01*
X414039Y337484D01*
Y338944D01*
X414539Y339043D01*
X414550Y339018D01*
X414962Y338480D01*
X415500Y338067D01*
X416126Y337808D01*
X416299Y337785D01*
Y340316D01*
Y342847D01*
X416126Y342825D01*
X415500Y342565D01*
X414962Y342153D01*
X414550Y341615D01*
X414539Y341589D01*
X414039Y341689D01*
Y347235D01*
X414539Y347335D01*
X414644Y347082D01*
X415057Y346544D01*
X415594Y346131D01*
X416221Y345872D01*
X416393Y345849D01*
Y348381D01*
Y350912D01*
X416221Y350889D01*
X415594Y350630D01*
X415057Y350217D01*
X414644Y349679D01*
X414539Y349426D01*
X414039Y349526D01*
Y368231D01*
X413939Y368733D01*
X413655Y369159D01*
X403229Y379584D01*
X402803Y379869D01*
X402301Y379969D01*
X394173D01*
X392049Y382019D01*
X391466Y382451D01*
X390791Y382717D01*
X390070Y382799D01*
X389352Y382692D01*
X388687Y382403D01*
X388119Y381951D01*
X387687Y381368D01*
X387421Y380692D01*
X387339Y379972D01*
X387446Y379254D01*
X387736Y378588D01*
X388187Y378020D01*
X391019Y375286D01*
X391603Y374854D01*
X392278Y374588D01*
X392999Y374506D01*
X393717Y374613D01*
X394335Y374882D01*
X394436Y374837D01*
X394693Y374525D01*
X394407Y373798D01*
X394318Y373021D01*
X394434Y372248D01*
X394745Y371531D01*
X395232Y370920D01*
X396288Y369900D01*
X398368Y372053D01*
X400448Y374207D01*
X399392Y375227D01*
X398763Y375692D01*
X398036Y375979D01*
X397259Y376067D01*
X396486Y375952D01*
X395770Y375640D01*
X395449Y375886D01*
X395400Y375985D01*
X395648Y376613D01*
X395730Y377334D01*
X395738Y377344D01*
X401757D01*
X411414Y367687D01*
Y349595D01*
X410914Y349348D01*
X410759Y349467D01*
X410133Y349727D01*
X409961Y349749D01*
Y347218D01*
Y344687D01*
X410133Y344709D01*
X410759Y344969D01*
X410914Y345088D01*
X411414Y344841D01*
Y342693D01*
X410914Y342446D01*
X410759Y342565D01*
X410133Y342825D01*
X409961Y342847D01*
Y340316D01*
X409460D01*
Y339816D01*
X406929D01*
X406952Y339644D01*
X407211Y339018D01*
X407624Y338480D01*
X408162Y338067D01*
X408329Y337998D01*
X408329D01*
X408500Y337927D01*
X408498Y337923D01*
X408490Y337894D01*
X408485Y337878D01*
X408371Y337502D01*
X408364Y337481D01*
X408361Y337471D01*
X408355Y337451D01*
X408354Y337446D01*
X408140Y337489D01*
X408140D01*
X407993Y337518D01*
X400268D01*
X400007Y337909D01*
X399225Y338431D01*
X398304Y338614D01*
X397382Y338431D01*
X396601Y337909D01*
X396078Y337127D01*
X395895Y336206D01*
X396078Y335284D01*
X396601Y334503D01*
X397382Y333980D01*
X398304Y333797D01*
X399225Y333980D01*
X400007Y334503D01*
X400268Y334893D01*
X407450D01*
X410613Y331730D01*
X411038Y331445D01*
X411541Y331345D01*
X460642D01*
X465460Y326527D01*
X465886Y326243D01*
X466388Y326143D01*
X469993D01*
X484352Y311784D01*
X484778Y311499D01*
X485280Y311399D01*
X490213D01*
X519926Y281686D01*
X519750Y281223D01*
X519721Y281184D01*
X518760Y281058D01*
X517850Y280681D01*
X517069Y280081D01*
X516469Y279300D01*
X516092Y278390D01*
X515964Y277414D01*
X516092Y276437D01*
X516469Y275528D01*
X516885Y274986D01*
X516638Y274486D01*
X514556D01*
X513055Y275987D01*
X512629Y276272D01*
X512127Y276372D01*
X508303D01*
Y280940D01*
X508203Y281442D01*
X507919Y281868D01*
X506471Y283316D01*
X506045Y283600D01*
X505543Y283700D01*
X499900D01*
X499398Y283600D01*
X498972Y283316D01*
X497524Y281868D01*
X497240Y281442D01*
X497140Y280940D01*
Y280719D01*
X492792Y276372D01*
X477285D01*
X459600Y294056D01*
X459174Y294341D01*
X458672Y294441D01*
X432481D01*
X432274Y294941D01*
X441465Y304132D01*
X446052D01*
X446313Y303742D01*
X447094Y303220D01*
X448016Y303037D01*
X448938Y303220D01*
X449719Y303742D01*
X450241Y304523D01*
X450425Y305445D01*
X450241Y306367D01*
X449719Y307148D01*
X448938Y307670D01*
X448016Y307854D01*
X447094Y307670D01*
X446313Y307148D01*
X446052Y306758D01*
X440921D01*
X440419Y306658D01*
X439993Y306373D01*
X430421Y296801D01*
X428249D01*
X428225Y296922D01*
X427703Y297703D01*
X426922Y298225D01*
X426000Y298409D01*
X425078Y298225D01*
X424297Y297703D01*
X423775Y296922D01*
X423592Y296000D01*
X423775Y295078D01*
X423906Y294882D01*
X423670Y294441D01*
X417532D01*
X412261Y299712D01*
X412406Y300191D01*
X412626Y300235D01*
X413408Y300757D01*
X413930Y301538D01*
X414113Y302460D01*
X413930Y303381D01*
X413408Y304163D01*
X413017Y304424D01*
Y310963D01*
X412917Y311465D01*
X412633Y311891D01*
X411164Y313360D01*
X411410Y313821D01*
X411837Y313736D01*
X412758Y313920D01*
X413540Y314442D01*
X414062Y315223D01*
X414245Y316145D01*
X414062Y317066D01*
X413540Y317848D01*
X412758Y318370D01*
X411837Y318553D01*
X411251Y318437D01*
X410911Y318777D01*
X411056Y319255D01*
X411371Y319318D01*
X412152Y319840D01*
X412674Y320621D01*
X412857Y321543D01*
X412674Y322465D01*
X412152Y323246D01*
X411371Y323768D01*
X410449Y323951D01*
X409527Y323768D01*
X408746Y323246D01*
X408485Y322855D01*
X407536D01*
X406841Y323550D01*
X406415Y323835D01*
X405913Y323935D01*
X401209D01*
X379769Y345375D01*
X379925Y345850D01*
X380129Y345880D01*
X380846Y346192D01*
X381063Y346364D01*
X377541Y349766D01*
X377888Y350126D01*
X377528Y350473D01*
X379608Y352627D01*
X378552Y353647D01*
X377923Y354112D01*
X377196Y354398D01*
X376420Y354487D01*
X375647Y354371D01*
X374930Y354060D01*
X374609Y354306D01*
X374560Y354405D01*
X374808Y355032D01*
X374890Y355753D01*
X374783Y356471D01*
X374493Y357137D01*
X374042Y357704D01*
X371210Y360439D01*
X370626Y360871D01*
X369951Y361137D01*
X369230Y361219D01*
X368512Y361112D01*
X367847Y360822D01*
X367279Y360371D01*
X366847Y359787D01*
X366582Y359112D01*
X366499Y358391D01*
X366607Y357674D01*
X366896Y357008D01*
X367348Y356440D01*
X369382Y354476D01*
Y352592D01*
X369482Y352090D01*
X369766Y351664D01*
X398821Y322609D01*
X398630Y322147D01*
X396488D01*
X381695Y336940D01*
X381270Y337224D01*
X380767Y337324D01*
X371647D01*
X365061Y343911D01*
Y345597D01*
X365213Y345732D01*
X365930Y345840D01*
X366596Y346129D01*
X367164Y346581D01*
X367595Y347164D01*
X367861Y347839D01*
X367943Y348560D01*
X367836Y349278D01*
X367547Y349943D01*
X367095Y350511D01*
X364263Y353246D01*
X363680Y353678D01*
X363004Y353943D01*
X362283Y354026D01*
X361566Y353918D01*
X360900Y353629D01*
X360727Y353491D01*
X360227Y353732D01*
Y356592D01*
X380693Y377058D01*
X380978Y377484D01*
X381078Y377987D01*
Y398804D01*
X381468Y399065D01*
X381990Y399846D01*
X382174Y400768D01*
X381990Y401689D01*
X381468Y402471D01*
X380687Y402993D01*
X379765Y403176D01*
X378843Y402993D01*
X378062Y402471D01*
X377540Y401689D01*
X377357Y400768D01*
X377540Y399846D01*
X378062Y399065D01*
X378452Y398804D01*
Y378530D01*
X376549Y376627D01*
X376087Y376818D01*
Y389796D01*
X376263Y389869D01*
X376880Y390342D01*
X377354Y390959D01*
X377651Y391678D01*
X377752Y392448D01*
X377651Y393219D01*
X377354Y393938D01*
X376880Y394554D01*
X376263Y395028D01*
X375545Y395325D01*
X374774Y395427D01*
X374004Y395325D01*
X373285Y395028D01*
X372668Y394554D01*
X372195Y393938D01*
X371898Y393219D01*
X371796Y392448D01*
X371898Y391678D01*
X372195Y390959D01*
X372668Y390342D01*
X373285Y389869D01*
X373462Y389796D01*
Y376067D01*
X356199Y358804D01*
X355914Y358378D01*
X355814Y357876D01*
Y345913D01*
X355352Y345721D01*
X353409Y347664D01*
Y368185D01*
X366264Y381040D01*
X366548Y381465D01*
X366648Y381968D01*
Y394957D01*
X366548Y395459D01*
X366264Y395885D01*
X362495Y399654D01*
X362069Y399939D01*
X361566Y400038D01*
X355895D01*
X348073Y407861D01*
X348165Y408321D01*
X347981Y409243D01*
X347459Y410024D01*
X346678Y410546D01*
X345756Y410730D01*
D02*
G37*
G36*
X305816Y397594D02*
Y395563D01*
X307847D01*
X307824Y395735D01*
X307565Y396362D01*
X307152Y396900D01*
X306614Y397312D01*
X305988Y397572D01*
X305816Y397594D01*
D02*
G37*
G36*
X304816D02*
X304644Y397572D01*
X304017Y397312D01*
X303480Y396900D01*
X303067Y396362D01*
X302807Y395735D01*
X302785Y395563D01*
X304816D01*
Y397594D01*
D02*
G37*
G36*
X315387Y410315D02*
X314672Y410195D01*
X314011Y409894D01*
X313451Y409433D01*
X313030Y408842D01*
X312776Y408162D01*
X312706Y407440D01*
X312844Y403505D01*
X312964Y402789D01*
X313264Y402129D01*
X313726Y401569D01*
X314317Y401148D01*
X314997Y400894D01*
X315719Y400824D01*
X316435Y400944D01*
X317095Y401245D01*
X317655Y401706D01*
X318076Y402297D01*
X318330Y402977D01*
X318400Y403699D01*
X318262Y407634D01*
X318143Y408349D01*
X317842Y409010D01*
X317380Y409570D01*
X316789Y409991D01*
X316110Y410245D01*
X315387Y410315D01*
D02*
G37*
G36*
X308569Y404825D02*
X306076Y404738D01*
X306230Y400344D01*
X306503Y400390D01*
X307214Y400714D01*
X307818Y401211D01*
X308272Y401847D01*
X308545Y402579D01*
X308620Y403358D01*
X308569Y404825D01*
D02*
G37*
G36*
X305077Y404703D02*
X302584Y404616D01*
X302636Y403149D01*
X302765Y402378D01*
X303089Y401666D01*
X303586Y401063D01*
X304222Y400609D01*
X304954Y400336D01*
X305230Y400309D01*
X305077Y404703D01*
D02*
G37*
G36*
X417393Y350912D02*
Y348881D01*
X419424D01*
X419401Y349053D01*
X419142Y349679D01*
X418729Y350217D01*
X418191Y350630D01*
X417565Y350889D01*
X417393Y350912D01*
D02*
G37*
G36*
X492547Y327253D02*
X491708Y322937D01*
X491985Y322920D01*
X492751Y323076D01*
X493450Y323425D01*
X494035Y323942D01*
X494467Y324594D01*
X494715Y325335D01*
X494995Y326777D01*
X492547Y327253D01*
D02*
G37*
G36*
X418826Y324807D02*
Y322776D01*
X420857D01*
X420834Y322948D01*
X420575Y323574D01*
X420162Y324112D01*
X419624Y324525D01*
X418998Y324784D01*
X418826Y324807D01*
D02*
G37*
G36*
X489117Y327920D02*
X488837Y326478D01*
X488789Y325698D01*
X488945Y324932D01*
X489293Y324232D01*
X489811Y323647D01*
X490463Y323216D01*
X490726Y323128D01*
X491565Y327444D01*
X489117Y327920D01*
D02*
G37*
G36*
X471098Y338931D02*
X469739Y334750D01*
X472111Y333979D01*
X472565Y335376D01*
X472708Y336144D01*
X472646Y336923D01*
X472385Y337660D01*
X471943Y338304D01*
X471348Y338812D01*
X471098Y338931D01*
D02*
G37*
G36*
X523673Y316440D02*
X522205D01*
Y312953D01*
X527594D01*
X527524Y313485D01*
X527126Y314447D01*
X526492Y315272D01*
X525667Y315906D01*
X524705Y316304D01*
X523673Y316440D01*
D02*
G37*
G36*
X417826Y324807D02*
X417654Y324784D01*
X417027Y324525D01*
X416490Y324112D01*
X416077Y323574D01*
X415817Y322948D01*
X415795Y322776D01*
X417826D01*
Y324807D01*
D02*
G37*
G36*
X700604Y321063D02*
X697696Y319138D01*
X701214Y313823D01*
X701619Y314175D01*
X702201Y315038D01*
X702540Y316022D01*
X702613Y317060D01*
X702414Y318082D01*
X701958Y319017D01*
X700604Y321063D01*
D02*
G37*
G36*
X549264Y316440D02*
X547795D01*
Y312953D01*
X553185D01*
X553115Y313485D01*
X552716Y314447D01*
X552083Y315272D01*
X551257Y315906D01*
X550296Y316304D01*
X549264Y316440D01*
D02*
G37*
G36*
X546795D02*
X545327D01*
X544295Y316304D01*
X543333Y315906D01*
X542508Y315272D01*
X541874Y314447D01*
X541476Y313485D01*
X541406Y312953D01*
X546795D01*
Y316440D01*
D02*
G37*
G36*
X420857Y321776D02*
X418826D01*
Y319744D01*
X418998Y319767D01*
X419624Y320026D01*
X420162Y320439D01*
X420575Y320977D01*
X420834Y321603D01*
X420857Y321776D01*
D02*
G37*
G36*
X417826D02*
X415795D01*
X415817Y321603D01*
X416077Y320977D01*
X416490Y320439D01*
X417027Y320026D01*
X417654Y319767D01*
X417826Y319744D01*
Y321776D01*
D02*
G37*
G36*
X469874Y339291D02*
X469095Y339229D01*
X468358Y338969D01*
X467714Y338526D01*
X467207Y337932D01*
X466870Y337226D01*
X466416Y335829D01*
X468788Y335059D01*
X470147Y339240D01*
X469874Y339291D01*
D02*
G37*
G36*
X419424Y347881D02*
X417393D01*
Y345849D01*
X417565Y345872D01*
X418191Y346131D01*
X418729Y346544D01*
X419142Y347082D01*
X419401Y347708D01*
X419424Y347881D01*
D02*
G37*
G36*
X408960Y346718D02*
X406929D01*
X406952Y346546D01*
X407211Y345919D01*
X407624Y345382D01*
X408162Y344969D01*
X408788Y344709D01*
X408960Y344687D01*
Y346718D01*
D02*
G37*
G36*
X417299Y342847D02*
Y340816D01*
X419330D01*
X419307Y340988D01*
X419048Y341615D01*
X418635Y342153D01*
X418097Y342565D01*
X417471Y342825D01*
X417299Y342847D01*
D02*
G37*
G36*
X408960Y349749D02*
X408788Y349727D01*
X408162Y349467D01*
X407624Y349054D01*
X407211Y348517D01*
X406952Y347890D01*
X406929Y347718D01*
X408960D01*
Y349749D01*
D02*
G37*
G36*
X380328Y351932D02*
X378595Y350138D01*
X381758Y347084D01*
X381923Y347307D01*
X382209Y348034D01*
X382298Y348811D01*
X382182Y349584D01*
X381870Y350300D01*
X381384Y350912D01*
X380328Y351932D01*
D02*
G37*
G36*
X435858Y355172D02*
X432730Y349033D01*
X438869Y345905D01*
X441996Y352044D01*
X435858Y355172D01*
D02*
G37*
G36*
X455121Y340929D02*
X453703Y338146D01*
X454136Y337993D01*
X455096Y337917D01*
X456043Y338093D01*
X456912Y338507D01*
X457644Y339133D01*
X457904Y339511D01*
X455121Y340929D01*
D02*
G37*
G36*
X419330Y339816D02*
X417299D01*
Y337785D01*
X417471Y337808D01*
X418097Y338067D01*
X418635Y338480D01*
X419048Y339018D01*
X419307Y339644D01*
X419330Y339816D01*
D02*
G37*
G36*
X451447Y342801D02*
X451294Y342368D01*
X451219Y341408D01*
X451394Y340461D01*
X451809Y339592D01*
X452434Y338860D01*
X452812Y338600D01*
X454230Y341383D01*
X451447Y342801D01*
D02*
G37*
G36*
X408960Y342847D02*
X408788Y342825D01*
X408162Y342565D01*
X407624Y342153D01*
X407211Y341615D01*
X406952Y340988D01*
X406929Y340816D01*
X408960D01*
Y342847D01*
D02*
G37*
G36*
X369477Y347079D02*
X368759Y346972D01*
X368094Y346682D01*
X367526Y346231D01*
X367094Y345647D01*
X366828Y344972D01*
X366746Y344251D01*
X366853Y343534D01*
X367143Y342868D01*
X367595Y342300D01*
X370427Y339565D01*
X371010Y339134D01*
X371685Y338868D01*
X372406Y338786D01*
X373124Y338893D01*
X373789Y339182D01*
X374357Y339634D01*
X374789Y340217D01*
X375055Y340892D01*
X375137Y341613D01*
X375029Y342331D01*
X374740Y342997D01*
X374288Y343564D01*
X371456Y346299D01*
X370873Y346731D01*
X370198Y346997D01*
X369477Y347079D01*
D02*
G37*
%LPD*%
G36*
X466047Y261619D02*
X466473Y261334D01*
X466975Y261234D01*
X496970D01*
X497160Y260734D01*
X496744Y260014D01*
X496625Y259571D01*
X500217Y259098D01*
X503810Y258625D01*
Y259084D01*
X503560Y260014D01*
X503144Y260734D01*
X503334Y261234D01*
X506401D01*
X511203Y256432D01*
X511012Y255970D01*
X503334D01*
X503144Y256470D01*
X503560Y257190D01*
X503679Y257633D01*
X500087Y258106D01*
X496495Y258579D01*
Y258121D01*
X496744Y257190D01*
X497160Y256470D01*
X496970Y255970D01*
X455377D01*
X452166Y259181D01*
X452311Y259659D01*
X452693Y259735D01*
X453474Y260257D01*
X453735Y260648D01*
X464482D01*
X464985Y260748D01*
X465411Y261032D01*
X466022Y261644D01*
X466047Y261619D01*
D02*
G37*
G36*
X564154Y262244D02*
X556092Y254183D01*
X552378D01*
X551876Y254083D01*
X551450Y253798D01*
X541809Y244157D01*
X541330Y244386D01*
X541431Y245405D01*
X541423Y245484D01*
X541431Y245563D01*
X541313Y246759D01*
X541290Y246835D01*
X541282Y246913D01*
X540933Y248064D01*
X540896Y248133D01*
X540873Y248209D01*
X540307Y249269D01*
X540256Y249330D01*
X540219Y249400D01*
X539457Y250329D01*
X539395Y250379D01*
X539345Y250441D01*
X538416Y251203D01*
X538346Y251240D01*
X538285Y251291D01*
X537225Y251857D01*
X537149Y251880D01*
X537080Y251918D01*
X535929Y252266D01*
X535851Y252274D01*
X535775Y252297D01*
X534579Y252415D01*
X534500Y252407D01*
X534421Y252415D01*
X533225Y252297D01*
X533149Y252274D01*
X533071Y252266D01*
X531920Y251918D01*
X531851Y251880D01*
X531775Y251857D01*
X530715Y251291D01*
X530654Y251240D01*
X530584Y251203D01*
X529655Y250441D01*
X529605Y250379D01*
X529543Y250329D01*
X528781Y249400D01*
X528744Y249330D01*
X528693Y249269D01*
X528127Y248209D01*
X528104Y248133D01*
X528067Y248064D01*
X527718Y246913D01*
X527710Y246835D01*
X527687Y246759D01*
X527569Y245563D01*
X527577Y245484D01*
X527569Y245405D01*
X527670Y244386D01*
X527191Y244157D01*
X518465Y252883D01*
X518657Y253345D01*
X532019D01*
X532521Y253445D01*
X532947Y253729D01*
X533438Y254220D01*
X533578Y254126D01*
X534500Y253942D01*
X535422Y254126D01*
X536203Y254648D01*
X536725Y255429D01*
X536908Y256351D01*
X536725Y257273D01*
X536203Y258054D01*
X535422Y258576D01*
X534500Y258759D01*
X533578Y258576D01*
X532797Y258054D01*
X532275Y257273D01*
X532150Y256645D01*
X531475Y255970D01*
X526130D01*
X525960Y256470D01*
X526492Y256878D01*
X527126Y257704D01*
X527524Y258665D01*
X527594Y259197D01*
X521705D01*
Y260197D01*
X527594D01*
X527524Y260729D01*
X527126Y261691D01*
X526730Y262206D01*
X526977Y262706D01*
X542023D01*
X542270Y262206D01*
X541874Y261691D01*
X541476Y260729D01*
X541406Y260197D01*
X553185D01*
X553115Y260729D01*
X552716Y261691D01*
X552321Y262206D01*
X552567Y262706D01*
X563962D01*
X564154Y262244D01*
D02*
G37*
G36*
X612592Y334267D02*
X612609Y334241D01*
X613391Y333719D01*
X614313Y333535D01*
X614707Y333614D01*
X615279Y333219D01*
X615292Y333144D01*
X614918Y332819D01*
X614368Y332003D01*
X614047Y331071D01*
X613978Y330089D01*
X614166Y329122D01*
X614598Y328237D01*
X615709Y326558D01*
X590123Y300972D01*
X589661Y301163D01*
Y312043D01*
X611948Y334330D01*
X612592Y334267D01*
D02*
G37*
G36*
X474157Y273259D02*
X473966Y272797D01*
X471220D01*
X454451Y289566D01*
X454642Y290028D01*
X457388D01*
X474157Y273259D01*
D02*
G37*
G36*
X617406Y323994D02*
X617857Y323313D01*
X618504Y322569D01*
X619320Y322019D01*
X620251Y321698D01*
X620944Y321650D01*
X621137Y321135D01*
X617724Y317722D01*
X611240D01*
X611048Y318184D01*
X616909Y324044D01*
X617406Y323994D01*
D02*
G37*
%LPC*%
G36*
X546795Y259197D02*
X541406D01*
X541476Y258665D01*
X541874Y257704D01*
X542508Y256878D01*
X543333Y256245D01*
X544295Y255846D01*
X545327Y255711D01*
X546795D01*
Y259197D01*
D02*
G37*
G36*
X553185D02*
X547795D01*
Y255711D01*
X549264D01*
X550296Y255846D01*
X551257Y256245D01*
X552083Y256878D01*
X552716Y257704D01*
X553115Y258665D01*
X553185Y259197D01*
D02*
G37*
%LPD*%
D45*
X707529Y360784D02*
Y363703D01*
X663098Y316353D02*
X707529Y360784D01*
X370695Y352592D02*
Y357072D01*
X370390Y305434D02*
X376099D01*
X371104Y336012D02*
X380767D01*
X363748Y343367D02*
X371104Y336012D01*
X363748Y343367D02*
Y349879D01*
X402301Y378656D02*
X412726Y368231D01*
X391176Y378656D02*
X402301D01*
X379076Y400768D02*
X379765D01*
X383218Y382307D02*
X391657Y373867D01*
X383218Y382307D02*
Y402198D01*
X381195Y404220D02*
X383218Y402198D01*
X366213Y404220D02*
X381195D01*
X391657Y373867D02*
X396566D01*
X398728Y371706D01*
X343232Y314891D02*
X347021Y318681D01*
X350474Y325350D02*
X370390Y305434D01*
X350474Y325350D02*
Y330150D01*
X337032Y343592D02*
X350474Y330150D01*
X335054Y311440D02*
X355765Y290729D01*
X339489Y346098D02*
X374545Y311042D01*
X358914Y345673D02*
X370976Y333612D01*
X374738Y324480D02*
X376576D01*
X352097Y347120D02*
X374738Y324480D01*
X352097Y347120D02*
Y368729D01*
X358914Y345673D02*
Y357136D01*
X379765Y377987D01*
Y400768D01*
X374774Y375523D02*
Y392448D01*
X357127Y357876D02*
X374774Y375523D01*
X357127Y344933D02*
Y357876D01*
Y344933D02*
X370235Y331824D01*
X378464D01*
X412726Y335520D02*
Y368231D01*
Y335520D02*
X413801Y334445D01*
X370976Y333612D02*
X380640D01*
X501968Y325931D02*
X506699Y330662D01*
X505307Y332055D02*
X506699Y330662D01*
X505307Y332055D02*
Y338408D01*
X497574Y346141D02*
X505307Y338408D01*
X455136Y346141D02*
X497574D01*
X383576Y417701D02*
X455136Y346141D01*
X305316Y395063D02*
X305559Y395306D01*
Y405220D01*
Y409214D01*
X307546Y411201D01*
X359233D01*
X366213Y404220D01*
X304657Y417701D02*
X383576D01*
X300126Y413170D02*
X304657Y417701D01*
X300126Y392580D02*
Y413170D01*
Y392580D02*
X318723Y373984D01*
X326681D01*
X335054Y311440D02*
Y374584D01*
X344305Y383835D01*
X337032Y372514D02*
X352318Y387800D01*
Y389551D01*
X345756Y408321D02*
X355352Y398726D01*
X361566D01*
X365335Y394957D01*
Y381968D02*
Y394957D01*
X352097Y368729D02*
X365335Y381968D01*
X339489Y346098D02*
Y369308D01*
X360381Y390200D01*
Y395864D01*
X337032Y343592D02*
Y372514D01*
X406500Y311500D02*
X406620D01*
X408842Y309278D01*
Y301274D02*
Y309278D01*
X638341Y348708D02*
X640930Y351297D01*
X644419D01*
X646680Y354227D02*
X649269Y356816D01*
X652758D01*
X623839Y330303D02*
Y330303D01*
X625794Y316353D02*
X663098D01*
X623839Y330303D02*
X623857Y330321D01*
Y330321D01*
X631173Y326495D02*
X633761Y329084D01*
X655019Y359747D02*
X657608Y362335D01*
X660927D01*
X656867Y364123D02*
X660186D01*
X656127Y365910D02*
X659446D01*
X660927Y362335D02*
X663358Y364766D01*
Y365266D01*
X665946Y367855D01*
X666446D01*
X660186Y364123D02*
X661570Y365507D01*
Y366006D01*
X665206Y369642D01*
X665706D01*
X659446Y365910D02*
X659783Y366247D01*
Y366747D01*
X664466Y371430D01*
X664965D01*
X665706Y369642D02*
X679807Y383744D01*
X625422Y323564D02*
Y328719D01*
X623839Y330303D02*
X625422Y328719D01*
X621663Y332515D02*
X623857Y330321D01*
X621663Y332515D02*
Y337669D01*
X647788Y360391D02*
X650607D01*
X642269Y354872D02*
X647788Y360391D01*
X650607D02*
X656127Y365910D01*
X621663Y337669D02*
X638866Y354872D01*
X642269D01*
X633761Y329084D02*
Y334238D01*
X648528Y358604D02*
X651348D01*
X627210Y322824D02*
Y325448D01*
X628257Y326495D01*
X631173D01*
X643009Y353084D02*
X648528Y358604D01*
X651348D02*
X656867Y364123D01*
X630002Y337997D02*
X633761Y334238D01*
X630002Y337997D02*
Y343189D01*
X639898Y353084D01*
X643009D01*
X652758Y356816D02*
X654083Y355492D01*
X654083D01*
X642100Y334603D02*
Y339758D01*
X646680Y349073D02*
Y354227D01*
X654083Y355492D02*
X655019Y356428D01*
Y359747D01*
X631621Y324708D02*
X632205D01*
X642100Y334603D01*
X638341Y343517D02*
X642100Y339758D01*
X638341Y343517D02*
Y348708D01*
X646680Y349073D02*
X646967Y348786D01*
Y348786D02*
Y348786D01*
X644419Y351297D02*
X646930Y348786D01*
X646967D01*
X404205Y306877D02*
X407055Y304027D01*
Y300534D02*
Y304027D01*
X562917Y269381D02*
X563135Y269599D01*
X563138D01*
X563657Y267594D02*
X563875Y267811D01*
X564397Y265806D02*
X564615Y266024D01*
X565138Y264019D02*
X565356Y264237D01*
X543519Y284929D02*
X547295Y288706D01*
Y294737D01*
X547295Y312453D02*
X547295Y312453D01*
X555883Y306817D02*
X563504Y299197D01*
X406540Y290740D02*
X406903Y290378D01*
X414683D01*
X435314Y267702D02*
X464348D01*
X531427Y238065D02*
X537573D01*
X552378Y252870D01*
X510528Y264019D02*
X565138D01*
X511269Y265806D02*
X564397D01*
X509906Y269697D02*
X512009Y267594D01*
X563657D01*
X510646Y271484D02*
X512749Y269381D01*
X562917D01*
X513272Y271386D02*
X562397D01*
X514012Y273174D02*
X561657D01*
X467715Y264335D02*
X507685D01*
X468456Y266122D02*
X508425D01*
X498453Y280940D02*
X499900Y282388D01*
X505543D01*
X506990Y280940D01*
Y275298D02*
Y280940D01*
X506969Y275276D02*
X506990Y275298D01*
X506969Y275059D02*
Y275276D01*
X498453Y280176D02*
Y280940D01*
X508425Y266122D02*
X510528Y264019D01*
X507685Y264335D02*
X517362Y254657D01*
X466975Y262547D02*
X506945D01*
X531427Y238065D01*
X509166Y267909D02*
X511269Y265806D01*
X470677Y271484D02*
X510646D01*
X476001Y273271D02*
X511387D01*
X513272Y271386D01*
X506969Y275059D02*
X512127D01*
X514012Y273174D01*
X466022Y263500D02*
X466975Y262547D01*
X464348Y267702D02*
X467715Y264335D01*
X469196Y267909D02*
X509166D01*
X469936Y269697D02*
X509906D01*
X476741Y275059D02*
X493336D01*
X498453Y280176D01*
X512307Y254657D02*
X530687Y236277D01*
X538313D01*
X551770Y249734D01*
X511566Y252870D02*
X529946Y234490D01*
X539054D01*
X551374Y246810D01*
X517362Y254657D02*
X532019D01*
X533713Y256351D01*
X534500D01*
X563118Y247221D02*
X570569Y254672D01*
X715159Y365886D02*
Y380875D01*
X722656Y370855D02*
Y374571D01*
X723220Y368892D02*
X730777D01*
X731228Y325546D02*
Y336122D01*
X747271Y352165D01*
Y381325D01*
X694006Y288324D02*
X731228Y325546D01*
X570569Y254672D02*
X639936D01*
X673588Y288324D01*
X694006D01*
X741202Y348623D02*
Y363813D01*
X729441Y336863D02*
X741202Y348623D01*
X729441Y326561D02*
Y336863D01*
X692991Y290111D02*
X729441Y326561D01*
X672848Y290111D02*
X692991D01*
X641370Y258634D02*
X672848Y290111D01*
X599355Y258634D02*
X641370D01*
X592739Y265250D02*
X599355Y258634D01*
X664580Y310251D02*
X723220Y368892D01*
X551374Y246810D02*
X555900D01*
X663839Y312039D02*
X722656Y370855D01*
X551770Y249734D02*
X556296D01*
X663099Y313826D02*
X715159Y365886D01*
X552378Y252870D02*
X556636D01*
X565356Y264237D02*
X565359D01*
X564615Y266024D02*
X564619D01*
X563875Y267811D02*
X563878D01*
X618268Y316409D02*
X625422Y323564D01*
X621229Y309260D02*
X625795Y313826D01*
X663099D01*
X621969Y307472D02*
X626536Y312039D01*
X663839D01*
X622710Y305685D02*
X627276Y310251D01*
X664580D01*
X619008Y314622D02*
X627210Y322824D01*
X619748Y312835D02*
X631621Y324708D01*
X620489Y311047D02*
X625794Y316353D01*
X612285Y311047D02*
X620489D01*
X565359Y264237D02*
X594145Y293022D01*
X555900Y246810D02*
X614775Y305685D01*
X622710D01*
X556296Y249734D02*
X614035Y307472D01*
X621969D01*
X556636Y252870D02*
X613026Y309260D01*
X621229D01*
X594145Y293022D02*
X594260D01*
X612285Y311047D01*
X618865Y327857D02*
X619374D01*
X610689Y314622D02*
X619008D01*
X561657Y273174D02*
X588349Y299865D01*
Y312587D01*
X562397Y271386D02*
X590136Y299125D01*
Y299128D01*
X618865Y327857D01*
X564619Y266024D02*
X611429Y312835D01*
X619748D01*
X563878Y267811D02*
X610689Y314622D01*
X563138Y269599D02*
X609948Y316409D01*
X618268D01*
X418375Y309698D02*
Y322226D01*
X418326Y322275D02*
X418375Y322226D01*
X408842Y301274D02*
X416988Y293128D01*
X458672D01*
X476741Y275059D01*
X416248Y291341D02*
X457931D01*
X476001Y273271D01*
X415508Y289553D02*
X452607D01*
X470677Y271484D01*
X407055Y300534D02*
X416248Y291341D01*
X414683Y290378D02*
X415508Y289553D01*
X380084Y289224D02*
Y290569D01*
Y289224D02*
X386185Y295325D01*
X409460Y340316D02*
Y347218D01*
X416799Y340316D02*
Y348286D01*
X416893Y348381D01*
X486304Y318748D02*
X502830D01*
X514760Y306817D01*
X555883D01*
X413801Y334445D02*
X461926D01*
X503730Y302597D02*
X521397Y284929D01*
X543519D01*
X491828Y314499D02*
X503730Y302597D01*
X467128Y329243D02*
X469874D01*
X470575Y329944D01*
X411541Y332658D02*
X461185D01*
X466388Y327455D01*
X461926Y334445D02*
X467128Y329243D01*
X470575Y329944D02*
X470575D01*
X486021Y314499D01*
X491828D01*
X521705Y277414D02*
Y281764D01*
X490757Y312712D02*
X521705Y281764D01*
X485280Y312712D02*
X490757D01*
X470537Y327455D02*
X485280Y312712D01*
X466388Y327455D02*
X470537D01*
X426000Y296000D02*
X426511Y295489D01*
X430965D01*
X440921Y305445D01*
X448016D01*
X387313Y300238D02*
X391884Y295666D01*
X371112Y300238D02*
X387313D01*
X347021Y324329D02*
X371112Y300238D01*
X347021Y318681D02*
Y324329D01*
Y328720D01*
X611706Y335944D02*
X614313D01*
X588349Y312587D02*
X611706Y335944D01*
X518858Y320745D02*
X580010D01*
X585399Y315356D01*
X632085Y300321D02*
X640227Y308464D01*
X665320D01*
X683740Y326884D01*
X703257D01*
X705342Y324798D01*
X710590Y398865D02*
X722229D01*
X695469Y383744D02*
X710590Y398865D01*
X679807Y383744D02*
X695469D01*
X690675Y397139D02*
Y397483D01*
X664965Y371430D02*
X690675Y397139D01*
X666446Y367855D02*
X680548Y381957D01*
X696210D01*
X707773Y393520D01*
X729057D01*
X730101Y392475D01*
X697468Y376717D02*
X707971Y387220D01*
X697468Y356532D02*
Y376717D01*
X407183Y286012D02*
X407433Y285761D01*
X407500Y285828D01*
X409174Y278750D02*
X411504D01*
X407500Y285828D02*
Y286330D01*
X407183Y286012D02*
X407500Y286330D01*
X452480Y287153D02*
X469936Y269697D01*
X413445Y285366D02*
X451740D01*
X469196Y267909D01*
X411504Y278750D02*
X416332Y283578D01*
X450999D01*
X468456Y266122D01*
X411719Y283639D02*
X413445Y285366D01*
X406375Y285204D02*
X407500Y286330D01*
X406348Y285204D02*
X406375D01*
X416026Y274677D02*
Y275864D01*
Y274677D02*
X429281Y261423D01*
X430177D01*
X406500Y290700D02*
X406540Y290740D01*
X406500Y290700D02*
X406702Y290498D01*
X406000Y289796D02*
X406702Y290498D01*
X398304Y336206D02*
X407993D01*
X411541Y332658D01*
X411704Y302460D02*
Y310963D01*
X407530Y315138D02*
X411704Y310963D01*
X396279Y317972D02*
X403987D01*
X405172Y315110D02*
X405200Y315138D01*
X407530D01*
X395178Y315110D02*
X405172D01*
X380640Y333612D02*
X396279Y317972D01*
X378464Y331824D02*
X395178Y315110D01*
X405172Y320835D02*
X406252Y319756D01*
X408076D01*
X405913Y322622D02*
X406992Y321543D01*
X410449D01*
X400665Y322622D02*
X405913D01*
X395944Y320835D02*
X405172D01*
X380767Y336012D02*
X395944Y320835D01*
X370695Y352592D02*
X400665Y322622D01*
X442020Y260233D02*
X445210D01*
X454093Y252870D02*
X511566D01*
X445210Y260233D02*
X446943Y258500D01*
X454833Y254657D02*
X512307D01*
X446943Y258500D02*
X448463D01*
X454093Y252870D01*
X446128Y263362D02*
X454833Y254657D01*
X464482Y261960D02*
X466022Y263500D01*
X451771Y261960D02*
X464482D01*
X408076Y319756D02*
X411687Y316145D01*
X411837D01*
X407500Y286330D02*
X408324Y287153D01*
X452480D01*
X406000Y289796D02*
Y290000D01*
X405991Y289991D02*
X406000Y290000D01*
X405991Y289925D02*
Y289991D01*
D46*
X305559Y405220D02*
D03*
X315553Y405569D02*
D03*
D47*
X644390Y344415D02*
D03*
X636051Y338896D02*
D03*
X627712Y333377D02*
D03*
X652729Y349935D02*
D03*
X661068Y355454D02*
D03*
X669407Y360973D02*
D03*
X677745Y366493D02*
D03*
X619374Y327857D02*
D03*
X646970Y286163D02*
D03*
X655309Y291682D02*
D03*
X663648Y297202D02*
D03*
X671987Y302721D02*
D03*
X680326Y308240D02*
D03*
X688664Y313760D02*
D03*
X697003Y319279D02*
D03*
X705342Y324798D02*
D03*
D48*
X501968Y325931D02*
D03*
X492151Y327839D02*
D03*
D49*
X454903Y341601D02*
D03*
X500152Y258602D02*
D03*
D50*
X437363Y350538D02*
D03*
D51*
X502722Y278119D02*
D03*
D52*
X436026Y275864D02*
D03*
X426026Y275864D02*
D03*
X416026Y275864D02*
D03*
D53*
X547295Y277414D02*
D03*
Y259697D02*
D03*
X521705D02*
D03*
Y277414D02*
D03*
X547295Y294737D02*
D03*
Y312453D02*
D03*
X521705D02*
D03*
Y294737D02*
D03*
D54*
X592739Y265250D02*
D03*
X602442Y267669D02*
D03*
D55*
X616708Y272374D02*
D03*
X626134Y275712D02*
D03*
D56*
X478620Y331339D02*
D03*
X469109Y334429D02*
D03*
D57*
X709081Y291995D02*
D03*
X731893Y311479D02*
D03*
X724289Y304984D02*
D03*
X716685Y298490D02*
D03*
D58*
X370941Y342932D02*
D03*
X377888Y350126D02*
D03*
X384835Y357319D02*
D03*
X391781Y364512D02*
D03*
X398728Y371706D02*
D03*
X391534Y378653D02*
D03*
X384588Y371459D02*
D03*
X363748Y349879D02*
D03*
X370695Y357072D02*
D03*
X377641Y364266D02*
D03*
D59*
X350892Y308463D02*
D03*
X358553Y302035D02*
D03*
X366213Y295607D02*
D03*
X343232Y314891D02*
D03*
D60*
X707529Y363703D02*
D03*
X374545Y311042D02*
D03*
X376099Y305434D02*
D03*
X355765Y290729D02*
D03*
X379765Y400768D02*
D03*
X305316Y395063D02*
D03*
X347021Y328720D02*
D03*
X376576Y324480D02*
D03*
X412726Y335520D02*
D03*
X411704Y302460D02*
D03*
X345756Y408321D02*
D03*
X326681Y373984D02*
D03*
X344305Y383835D02*
D03*
X352318Y389551D02*
D03*
X360381Y395864D02*
D03*
X406500Y311500D02*
D03*
X404205Y306877D02*
D03*
X486304Y318748D02*
D03*
X563504Y299197D02*
D03*
X435314Y267702D02*
D03*
X534500Y256351D02*
D03*
X563118Y247221D02*
D03*
X715159Y380875D02*
D03*
X722656Y374571D02*
D03*
X730777Y368892D02*
D03*
X747271Y381325D02*
D03*
X741202Y363813D02*
D03*
X418375Y309698D02*
D03*
X418326Y322275D02*
D03*
X386185Y295325D02*
D03*
X380084Y290569D02*
D03*
X409460Y340316D02*
D03*
Y347218D02*
D03*
X416799Y340316D02*
D03*
X416893Y348381D02*
D03*
X426000Y296000D02*
D03*
X448016Y305445D02*
D03*
X391884Y295666D02*
D03*
X614313Y335944D02*
D03*
X518858Y320745D02*
D03*
X585399Y315356D02*
D03*
X632085Y300321D02*
D03*
X722229Y398865D02*
D03*
X690675Y397483D02*
D03*
X730101Y392475D02*
D03*
X707971Y387220D02*
D03*
X697468Y356532D02*
D03*
X409174Y278750D02*
D03*
X411719Y283639D02*
D03*
X406348Y285204D02*
D03*
X430177Y261423D02*
D03*
X398304Y336206D02*
D03*
X403987Y317972D02*
D03*
X410449Y321543D02*
D03*
X442020Y260233D02*
D03*
X446128Y263362D02*
D03*
X451771Y261960D02*
D03*
X411837Y316145D02*
D03*
X405991Y289925D02*
D03*
D61*
X487137Y298533D02*
D03*
X487963Y302784D02*
D03*
X491388Y297707D02*
D03*
X492214Y301958D02*
D03*
X495639Y296881D02*
D03*
X496465Y301132D02*
D03*
D62*
X374774Y392448D02*
D03*
M02*
