%FSLAX25Y25*%
%MOIN*%
G70*
G01*
G75*
G04 Layer_Physical_Order=1*
G04 Layer_Color=255*
%ADD10R,0.05512X0.01772*%
%ADD11C,0.01575*%
%ADD12C,0.01000*%
%ADD13C,0.05906*%
%ADD14R,0.05906X0.05906*%
G36*
X510000Y305000D02*
X510000Y305000D01*
X430000D01*
Y400000D01*
X430000Y400000D01*
X510000D01*
Y305000D01*
D02*
G37*
%LPC*%
G36*
X500000Y389964D02*
X498715Y389795D01*
X497518Y389299D01*
X496490Y388510D01*
X495701Y387482D01*
X495205Y386285D01*
X495036Y385000D01*
X495156Y384087D01*
X479649Y368580D01*
X479207Y368004D01*
X478929Y367334D01*
X478834Y366614D01*
Y361811D01*
X476890D01*
Y356102D01*
Y353543D01*
Y350984D01*
Y348425D01*
Y345866D01*
Y343307D01*
Y340748D01*
Y338189D01*
X478834D01*
Y333386D01*
X478929Y332666D01*
X479207Y331996D01*
X479649Y331420D01*
X495079Y315990D01*
Y310079D01*
X504921D01*
Y319921D01*
X501905D01*
X501806Y320421D01*
X502482Y320701D01*
X503510Y321490D01*
X504299Y322518D01*
X504795Y323715D01*
X504964Y325000D01*
X504795Y326285D01*
X504299Y327482D01*
X503510Y328510D01*
X502482Y329299D01*
X501408Y329743D01*
X501408Y329744D01*
Y330256D01*
X501408Y330257D01*
X502482Y330701D01*
X503510Y331490D01*
X504299Y332518D01*
X504795Y333715D01*
X504964Y335000D01*
X504795Y336285D01*
X504299Y337482D01*
X503510Y338510D01*
X502482Y339299D01*
X501408Y339743D01*
X501408Y339744D01*
Y340256D01*
X501408Y340257D01*
X502482Y340701D01*
X503510Y341490D01*
X504299Y342518D01*
X504795Y343715D01*
X504964Y345000D01*
X504795Y346285D01*
X504299Y347482D01*
X503510Y348510D01*
X502482Y349299D01*
X501408Y349743D01*
X501408Y349744D01*
Y350256D01*
X501408Y350257D01*
X502482Y350701D01*
X503510Y351490D01*
X504299Y352518D01*
X504795Y353715D01*
X504964Y355000D01*
X504795Y356285D01*
X504299Y357482D01*
X503510Y358510D01*
X502482Y359299D01*
X501408Y359743D01*
X501408Y359744D01*
Y360256D01*
X501408Y360257D01*
X502482Y360701D01*
X503510Y361490D01*
X504299Y362518D01*
X504795Y363715D01*
X504964Y365000D01*
X504795Y366285D01*
X504299Y367482D01*
X503510Y368510D01*
X502482Y369299D01*
X501408Y369743D01*
X501408Y369744D01*
Y370256D01*
X501408Y370257D01*
X502482Y370701D01*
X503510Y371490D01*
X504299Y372518D01*
X504795Y373715D01*
X504964Y375000D01*
X504795Y376285D01*
X504299Y377482D01*
X503510Y378510D01*
X502482Y379299D01*
X501408Y379743D01*
X501408Y379744D01*
Y380256D01*
X501408Y380257D01*
X502482Y380701D01*
X503510Y381490D01*
X504299Y382518D01*
X504795Y383715D01*
X504964Y385000D01*
X504795Y386285D01*
X504299Y387482D01*
X503510Y388510D01*
X502482Y389299D01*
X501285Y389795D01*
X500000Y389964D01*
D02*
G37*
G36*
X440000D02*
X438715Y389795D01*
X437518Y389299D01*
X436490Y388510D01*
X435701Y387482D01*
X435205Y386285D01*
X435036Y385000D01*
X435205Y383715D01*
X435701Y382518D01*
X436490Y381490D01*
X437518Y380701D01*
X438592Y380257D01*
X438592Y380256D01*
Y379744D01*
X438592Y379743D01*
X437518Y379299D01*
X436490Y378510D01*
X435701Y377482D01*
X435205Y376285D01*
X435036Y375000D01*
X435205Y373715D01*
X435701Y372518D01*
X436490Y371490D01*
X437518Y370701D01*
X438592Y370257D01*
X438592Y370256D01*
Y369744D01*
X438592Y369743D01*
X437518Y369299D01*
X436490Y368510D01*
X435701Y367482D01*
X435205Y366285D01*
X435036Y365000D01*
X435205Y363715D01*
X435701Y362518D01*
X436490Y361490D01*
X437518Y360701D01*
X438592Y360257D01*
X438592Y360256D01*
Y359744D01*
X438592Y359743D01*
X437518Y359299D01*
X436490Y358510D01*
X435701Y357482D01*
X435205Y356285D01*
X435036Y355000D01*
X435205Y353715D01*
X435701Y352518D01*
X436490Y351490D01*
X437518Y350701D01*
X438592Y350257D01*
X438592Y350256D01*
Y349744D01*
X438592Y349743D01*
X437518Y349299D01*
X436490Y348510D01*
X435701Y347482D01*
X435205Y346285D01*
X435036Y345000D01*
X435205Y343715D01*
X435701Y342518D01*
X436490Y341490D01*
X437518Y340701D01*
X438592Y340257D01*
X438592Y340256D01*
Y339744D01*
X438592Y339743D01*
X437518Y339299D01*
X436490Y338510D01*
X435701Y337482D01*
X435205Y336285D01*
X435036Y335000D01*
X435205Y333715D01*
X435701Y332518D01*
X436490Y331490D01*
X437518Y330701D01*
X438592Y330257D01*
X438592Y330256D01*
Y329744D01*
X438592Y329743D01*
X437518Y329299D01*
X436490Y328510D01*
X435701Y327482D01*
X435205Y326285D01*
X435036Y325000D01*
X435205Y323715D01*
X435701Y322518D01*
X436490Y321490D01*
X437518Y320701D01*
X438194Y320421D01*
X438095Y319921D01*
X435079D01*
Y310079D01*
X444921D01*
Y315990D01*
X460351Y331420D01*
X460793Y331996D01*
X461071Y332666D01*
X461166Y333386D01*
Y338189D01*
X463110D01*
Y340748D01*
Y343307D01*
Y345866D01*
Y348425D01*
Y353543D01*
Y356102D01*
Y361811D01*
X461166D01*
Y366614D01*
X461071Y367334D01*
X460793Y368004D01*
X460351Y368580D01*
X444844Y384087D01*
X444964Y385000D01*
X444795Y386285D01*
X444299Y387482D01*
X443510Y388510D01*
X442482Y389299D01*
X441285Y389795D01*
X440000Y389964D01*
D02*
G37*
%LPD*%
G36*
X486339Y338189D02*
Y338189D01*
X486700Y337895D01*
X487220Y337375D01*
Y335000D01*
X487315Y334281D01*
X487593Y333610D01*
X488034Y333034D01*
X495156Y325912D01*
X495036Y325000D01*
X495102Y324498D01*
X494654Y324277D01*
X484394Y334537D01*
Y338189D01*
X486339D01*
X486339Y338189D01*
D02*
G37*
G36*
X495102Y375502D02*
X495036Y375000D01*
X495156Y374088D01*
X488034Y366966D01*
X487593Y366390D01*
X487315Y365719D01*
X487220Y365000D01*
Y362625D01*
X486698Y362103D01*
X486339Y361811D01*
Y361811D01*
X486339Y361811D01*
X484394D01*
Y365463D01*
X494654Y375723D01*
X495102Y375502D01*
D02*
G37*
G36*
X455606Y365463D02*
Y361811D01*
X453661D01*
Y359252D01*
Y359177D01*
X453094D01*
X452780Y359492D01*
Y365000D01*
X452685Y365719D01*
X452407Y366390D01*
X451966Y366966D01*
X444844Y374088D01*
X444964Y375000D01*
X444898Y375502D01*
X445346Y375723D01*
X455606Y365463D01*
D02*
G37*
G36*
Y334537D02*
X445346Y324277D01*
X444898Y324498D01*
X444964Y325000D01*
X444844Y325912D01*
X453199Y334268D01*
X453641Y334843D01*
X453918Y335514D01*
X454013Y336233D01*
Y338189D01*
X455606D01*
Y334537D01*
D02*
G37*
D10*
X481614Y341043D02*
D03*
Y343602D02*
D03*
Y346161D02*
D03*
Y348721D02*
D03*
Y351279D02*
D03*
Y353839D02*
D03*
Y356398D02*
D03*
Y358957D02*
D03*
X458386Y341043D02*
D03*
Y343602D02*
D03*
Y346161D02*
D03*
Y348721D02*
D03*
Y351279D02*
D03*
Y353839D02*
D03*
Y356398D02*
D03*
Y358957D02*
D03*
D11*
X440000Y385000D02*
X458386Y366614D01*
Y359071D02*
Y366614D01*
X443720Y351279D02*
X458386D01*
X440000Y355000D02*
X443720Y351279D01*
X440000Y345000D02*
X441295D01*
X443720Y348721D02*
X458386D01*
X440000Y345000D02*
X443720Y348721D01*
X451161Y346161D02*
X458386D01*
X440000Y335000D02*
X451161Y346161D01*
X458287Y343504D02*
X458386Y343602D01*
X454978Y343504D02*
X458287D01*
X440000Y325000D02*
X451233Y336233D01*
X440000Y315000D02*
X458386Y333386D01*
Y341043D01*
X451233Y336233D02*
Y339759D01*
X454978Y343504D01*
X440000Y365000D02*
X451161Y353839D01*
X458386D01*
X440000Y375000D02*
X450000Y365000D01*
X451943Y356398D02*
X458386D01*
X450000Y358341D02*
Y365000D01*
Y358341D02*
X451943Y356398D01*
X481614Y351279D02*
X496279D01*
X500000Y355000D01*
X481614Y348721D02*
X496279D01*
X500000Y345000D01*
X481614Y346161D02*
X488839D01*
X500000Y335000D01*
X481614Y353839D02*
X488839D01*
X500000Y365000D01*
X481614Y356398D02*
X481713Y356496D01*
X485022D01*
X490000Y361474D01*
Y365000D01*
X500000Y375000D01*
X481614Y358957D02*
Y366614D01*
X500000Y385000D01*
X481614Y343602D02*
X481713Y343504D01*
X485022D01*
X490000Y338526D01*
Y335000D02*
Y338526D01*
Y335000D02*
X500000Y325000D01*
X481614Y333386D02*
Y341043D01*
Y333386D02*
X500000Y315000D01*
D12*
X430000Y305000D02*
Y400000D01*
Y305000D02*
X430000Y305000D01*
X510000D01*
Y400000D01*
X430000D02*
X510000D01*
D13*
X440000Y385000D02*
D03*
Y375000D02*
D03*
Y365000D02*
D03*
Y355000D02*
D03*
Y345000D02*
D03*
Y335000D02*
D03*
Y325000D02*
D03*
X500000Y385000D02*
D03*
Y375000D02*
D03*
Y365000D02*
D03*
Y355000D02*
D03*
Y345000D02*
D03*
Y335000D02*
D03*
Y325000D02*
D03*
D14*
X440000Y315000D02*
D03*
X500000D02*
D03*
M02*
