%FSLAX25Y25*%
%MOIN*%
G70*
G01*
G75*
G04 Layer_Physical_Order=1*
G04 Layer_Color=255*
%ADD10R,0.02756X0.03543*%
%ADD11R,0.03543X0.03150*%
%ADD12R,0.05512X0.01772*%
%ADD13C,0.01181*%
%ADD14C,0.01500*%
%ADD15C,0.01000*%
%ADD16C,0.04724*%
%ADD17R,0.05906X0.05906*%
%ADD18C,0.05906*%
%ADD19R,0.05906X0.05906*%
%ADD20C,0.05118*%
G36*
X565000Y400000D02*
Y190000D01*
X556800Y181800D01*
X556366Y182073D01*
X556260Y182874D01*
X555923Y183688D01*
X555387Y184387D01*
X554688Y184923D01*
X553874Y185260D01*
X553000Y185375D01*
X552126Y185260D01*
X551312Y184923D01*
X550613Y184387D01*
X550077Y183688D01*
X549740Y182874D01*
X549717Y182704D01*
X545418Y178405D01*
X535591D01*
X535240Y178760D01*
Y181713D01*
X531500D01*
Y182500D01*
X530713D01*
Y186240D01*
X527760D01*
X527760Y186240D01*
Y186240D01*
D01*
X527320Y186428D01*
X527298Y186538D01*
X526994Y186994D01*
X525762Y188225D01*
Y205643D01*
X525655Y206181D01*
X525350Y206637D01*
X522037Y209950D01*
X521581Y210255D01*
X521043Y210362D01*
X518929D01*
Y210630D01*
X511842D01*
Y210405D01*
X503719D01*
X503644Y210976D01*
X503267Y211886D01*
X502668Y212667D01*
X501886Y213267D01*
X500976Y213644D01*
X500000Y213772D01*
X499024Y213644D01*
X498114Y213267D01*
X497332Y212667D01*
X496733Y211886D01*
X496356Y210976D01*
X496228Y210000D01*
X496356Y209024D01*
X496733Y208114D01*
X497332Y207332D01*
X498114Y206733D01*
X499024Y206356D01*
X500000Y206228D01*
X500976Y206356D01*
X501886Y206733D01*
X502668Y207332D01*
X502869Y207595D01*
X504901D01*
X505108Y207095D01*
X501458Y203445D01*
X500976Y203644D01*
X500000Y203772D01*
X499024Y203644D01*
X498114Y203267D01*
X497332Y202667D01*
X496733Y201886D01*
X496356Y200976D01*
X496228Y200000D01*
X496356Y199024D01*
X496733Y198114D01*
X497332Y197333D01*
X498114Y196733D01*
X499024Y196356D01*
X500000Y196228D01*
X500976Y196356D01*
X501886Y196733D01*
X502668Y197333D01*
X503267Y198114D01*
X503644Y199024D01*
X503772Y200000D01*
X503644Y200976D01*
X503444Y201458D01*
X505441Y203454D01*
X505941Y203247D01*
Y198894D01*
X511059D01*
Y199851D01*
X511842D01*
Y199606D01*
Y197047D01*
Y194488D01*
Y191929D01*
Y189370D01*
X512730D01*
X512921Y188908D01*
X511802Y187789D01*
X511727Y187827D01*
X511367Y188061D01*
X511260Y188874D01*
X510923Y189688D01*
X510387Y190387D01*
X509688Y190923D01*
X508874Y191260D01*
X508787Y191272D01*
Y188000D01*
X508000D01*
Y187213D01*
X504728D01*
X504740Y187126D01*
X505077Y186312D01*
X505613Y185613D01*
X506312Y185077D01*
X507126Y184740D01*
X507939Y184633D01*
X508173Y184273D01*
X508211Y184197D01*
X505418Y181405D01*
X503740D01*
Y183740D01*
X496260D01*
Y176260D01*
X503740D01*
Y178595D01*
X506000D01*
X506538Y178702D01*
X506993Y179007D01*
X508437Y180451D01*
X508861Y180167D01*
X508740Y179874D01*
X508625Y179000D01*
X508740Y178126D01*
X509077Y177312D01*
X509613Y176613D01*
X510312Y176077D01*
X511126Y175740D01*
X512000Y175625D01*
X512874Y175740D01*
X513688Y176077D01*
X514387Y176613D01*
X514923Y177312D01*
X515260Y178126D01*
X515375Y179000D01*
X515260Y179874D01*
X514923Y180688D01*
X514387Y181387D01*
X514386Y181399D01*
X518360Y185373D01*
X518737Y185043D01*
X518233Y184386D01*
X517856Y183476D01*
X517831Y183287D01*
X521500D01*
Y182500D01*
X522287D01*
Y178831D01*
X522476Y178856D01*
X523386Y179233D01*
X524095Y179777D01*
X524595Y179649D01*
Y179000D01*
X524702Y178462D01*
X525006Y178006D01*
X527006Y176006D01*
X527462Y175702D01*
X528000Y175595D01*
X546000D01*
X546538Y175702D01*
X546993Y176006D01*
X550601Y179614D01*
X550613Y179613D01*
X551312Y179077D01*
X552126Y178740D01*
X552927Y178634D01*
X553200Y178200D01*
X550000Y175000D01*
X495000D01*
Y415000D01*
X550000D01*
X565000Y400000D01*
D02*
G37*
%LPC*%
G36*
X543272Y224213D02*
X540787D01*
Y221728D01*
X540874Y221740D01*
X541688Y222077D01*
X542387Y222613D01*
X542923Y223312D01*
X543260Y224126D01*
X543272Y224213D01*
D02*
G37*
G36*
X539213Y228272D02*
X539126Y228260D01*
X538312Y227923D01*
X537613Y227387D01*
X537077Y226688D01*
X536740Y225874D01*
X536728Y225787D01*
X539213D01*
Y228272D01*
D02*
G37*
G36*
X540787D02*
Y225787D01*
X543272D01*
X543260Y225874D01*
X542923Y226688D01*
X542387Y227387D01*
X541688Y227923D01*
X540874Y228260D01*
X540787Y228272D01*
D02*
G37*
G36*
X539213Y224213D02*
X536728D01*
X536740Y224126D01*
X537077Y223312D01*
X537613Y222613D01*
X538312Y222077D01*
X539126Y221740D01*
X539213Y221728D01*
Y224213D01*
D02*
G37*
G36*
X553118Y217559D02*
X548787D01*
Y212559D01*
X548787D01*
Y207441D01*
Y202441D01*
Y197441D01*
X553118D01*
Y202441D01*
Y203595D01*
X554418D01*
X556260Y201753D01*
Y196260D01*
X563740D01*
Y203740D01*
X558247D01*
X555994Y205993D01*
X555538Y206298D01*
X555000Y206405D01*
X553118D01*
Y207441D01*
Y208595D01*
X556534D01*
X556733Y208114D01*
X557333Y207332D01*
X558114Y206733D01*
X559024Y206356D01*
X560000Y206228D01*
X560976Y206356D01*
X561886Y206733D01*
X562668Y207332D01*
X563267Y208114D01*
X563644Y209024D01*
X563772Y210000D01*
X563644Y210976D01*
X563267Y211886D01*
X562668Y212667D01*
X561886Y213267D01*
X560976Y213644D01*
X560000Y213772D01*
X559024Y213644D01*
X558114Y213267D01*
X557333Y212667D01*
X556733Y211886D01*
X556534Y211405D01*
X553118D01*
Y212441D01*
X553118D01*
Y217559D01*
D02*
G37*
G36*
X500000Y233772D02*
X499024Y233644D01*
X498114Y233267D01*
X497332Y232667D01*
X496733Y231886D01*
X496356Y230976D01*
X496228Y230000D01*
X496356Y229024D01*
X496733Y228114D01*
X497332Y227332D01*
X498114Y226733D01*
X499024Y226356D01*
X500000Y226228D01*
X500694Y226319D01*
X506357Y220656D01*
X506240Y220374D01*
X506125Y219500D01*
X506240Y218626D01*
X506577Y217812D01*
X507113Y217113D01*
X507385Y216905D01*
X507215Y216405D01*
X505582D01*
X503444Y218542D01*
X503644Y219024D01*
X503772Y220000D01*
X503644Y220976D01*
X503267Y221886D01*
X502668Y222668D01*
X501886Y223267D01*
X500976Y223644D01*
X500000Y223772D01*
X499024Y223644D01*
X498114Y223267D01*
X497332Y222668D01*
X496733Y221886D01*
X496356Y220976D01*
X496228Y220000D01*
X496356Y219024D01*
X496733Y218114D01*
X497332Y217333D01*
X498114Y216733D01*
X499024Y216356D01*
X500000Y216228D01*
X500976Y216356D01*
X501458Y216556D01*
X504006Y214007D01*
X504462Y213702D01*
X505000Y213595D01*
X542882D01*
Y212559D01*
X542882D01*
Y210524D01*
X542158D01*
Y210630D01*
X535071D01*
Y207283D01*
Y204724D01*
Y202165D01*
Y199606D01*
Y197047D01*
Y194488D01*
Y191929D01*
Y189370D01*
X542158D01*
Y191929D01*
Y194488D01*
Y197047D01*
Y199606D01*
Y202165D01*
Y204724D01*
Y204830D01*
X542882D01*
Y202441D01*
Y197441D01*
X543642D01*
Y195453D01*
X543749Y194915D01*
X543750Y194914D01*
X543577Y194688D01*
X543240Y193874D01*
X543125Y193000D01*
X543240Y192126D01*
X543577Y191312D01*
X544113Y190613D01*
X544812Y190077D01*
X545626Y189740D01*
X546500Y189625D01*
X547374Y189740D01*
X548188Y190077D01*
X548887Y190613D01*
X549423Y191312D01*
X549760Y192126D01*
X549875Y193000D01*
X549760Y193874D01*
X549423Y194688D01*
X548887Y195387D01*
X548188Y195923D01*
X547374Y196260D01*
X546500Y196375D01*
X546452Y196417D01*
Y197441D01*
X547213D01*
Y202441D01*
Y207441D01*
Y212441D01*
X547213D01*
Y217559D01*
X542882D01*
Y216405D01*
X517405D01*
Y216960D01*
X517688Y217077D01*
X518387Y217613D01*
X518923Y218312D01*
X519260Y219126D01*
X519375Y220000D01*
X519260Y220874D01*
X518923Y221688D01*
X518387Y222387D01*
X517688Y222923D01*
X516874Y223260D01*
X516000Y223375D01*
X515126Y223260D01*
X514312Y222923D01*
X513613Y222387D01*
X513077Y221688D01*
X512917Y221302D01*
X512681Y221247D01*
X512362Y221268D01*
X511887Y221887D01*
X511188Y222423D01*
X510374Y222760D01*
X509500Y222875D01*
X508626Y222760D01*
X508344Y222643D01*
X503096Y227891D01*
X503267Y228114D01*
X503644Y229024D01*
X503772Y230000D01*
X503644Y230976D01*
X503267Y231886D01*
X502668Y232667D01*
X501886Y233267D01*
X500976Y233644D01*
X500000Y233772D01*
D02*
G37*
G36*
X511059Y198106D02*
X509287D01*
Y196531D01*
X511059D01*
Y198106D01*
D02*
G37*
G36*
X535240Y276240D02*
X532287D01*
Y273287D01*
X535240D01*
Y276240D01*
D02*
G37*
G36*
X541713Y275772D02*
X541626Y275760D01*
X540812Y275423D01*
X540113Y274887D01*
X539577Y274188D01*
X539240Y273374D01*
X539228Y273287D01*
X541713D01*
Y275772D01*
D02*
G37*
G36*
X543287D02*
Y273287D01*
X545772D01*
X545760Y273374D01*
X545423Y274188D01*
X544887Y274887D01*
X544188Y275423D01*
X543374Y275760D01*
X543287Y275772D01*
D02*
G37*
G36*
X545772Y271713D02*
X543287D01*
Y269228D01*
X543374Y269240D01*
X544188Y269577D01*
X544887Y270113D01*
X545423Y270812D01*
X545760Y271626D01*
X545772Y271713D01*
D02*
G37*
G36*
X549999Y255846D02*
X510239Y255803D01*
X510208Y255819D01*
X510103Y255825D01*
X510000Y255846D01*
X509948Y255836D01*
X509895Y255839D01*
X508590Y255667D01*
X508491Y255633D01*
X508388Y255613D01*
X507171Y255109D01*
X507084Y255051D01*
X506990Y255004D01*
X505945Y254203D01*
X505876Y254124D01*
X505797Y254055D01*
X504996Y253010D01*
X504949Y252916D01*
X504891Y252829D01*
X504387Y251612D01*
X504366Y251509D01*
X504333Y251410D01*
X504161Y250105D01*
X504168Y250000D01*
X504161Y249895D01*
X504333Y248590D01*
X504366Y248491D01*
X504387Y248388D01*
X504891Y247171D01*
X504949Y247084D01*
X504996Y246990D01*
X505797Y245945D01*
X505876Y245876D01*
X505945Y245797D01*
X506990Y244996D01*
X507084Y244949D01*
X507171Y244891D01*
X508388Y244387D01*
X508491Y244367D01*
X508590Y244333D01*
X509895Y244161D01*
X509948Y244164D01*
X510001Y244154D01*
X549761Y244197D01*
X549792Y244181D01*
X549897Y244175D01*
X550000Y244154D01*
X550052Y244164D01*
X550105Y244161D01*
X551410Y244333D01*
X551510Y244367D01*
X551613Y244387D01*
X552829Y244891D01*
X552916Y244949D01*
X553010Y244996D01*
X554055Y245797D01*
X554124Y245876D01*
X554203Y245945D01*
X555004Y246990D01*
X555051Y247084D01*
X555109Y247171D01*
X555613Y248388D01*
X555633Y248491D01*
X555667Y248590D01*
X555839Y249895D01*
X555832Y250000D01*
X555839Y250105D01*
X555667Y251410D01*
X555633Y251509D01*
X555613Y251612D01*
X555109Y252829D01*
X555051Y252916D01*
X555004Y253010D01*
X554203Y254055D01*
X554124Y254124D01*
X554055Y254203D01*
X553010Y255004D01*
X552916Y255051D01*
X552829Y255109D01*
X551613Y255613D01*
X551510Y255633D01*
X551410Y255667D01*
X550105Y255839D01*
X550051Y255836D01*
X549999Y255846D01*
D02*
G37*
G36*
X520713Y271713D02*
X517831D01*
X517856Y271524D01*
X518233Y270614D01*
X518832Y269832D01*
X519614Y269233D01*
X520524Y268856D01*
X520713Y268831D01*
Y271713D01*
D02*
G37*
G36*
X541713D02*
X539228D01*
X539240Y271626D01*
X539577Y270812D01*
X540113Y270113D01*
X540812Y269577D01*
X541626Y269240D01*
X541713Y269228D01*
Y271713D01*
D02*
G37*
G36*
Y185772D02*
X541626Y185760D01*
X540812Y185423D01*
X540113Y184887D01*
X539577Y184188D01*
X539240Y183374D01*
X539228Y183287D01*
X541713D01*
Y185772D01*
D02*
G37*
G36*
X543287D02*
Y183287D01*
X545772D01*
X545760Y183374D01*
X545423Y184188D01*
X544887Y184887D01*
X544188Y185423D01*
X543374Y185760D01*
X543287Y185772D01*
D02*
G37*
G36*
X499213Y189213D02*
X496331D01*
X496356Y189024D01*
X496733Y188114D01*
X497332Y187332D01*
X498114Y186733D01*
X499024Y186356D01*
X499213Y186331D01*
Y189213D01*
D02*
G37*
G36*
X535240Y186240D02*
X532287D01*
Y183287D01*
X535240D01*
Y186240D01*
D02*
G37*
G36*
X520713Y181713D02*
X517831D01*
X517856Y181524D01*
X518233Y180614D01*
X518832Y179832D01*
X519614Y179233D01*
X520524Y178856D01*
X520713Y178831D01*
Y181713D01*
D02*
G37*
G36*
X541713D02*
X539228D01*
X539240Y181626D01*
X539577Y180812D01*
X540113Y180113D01*
X540812Y179577D01*
X541626Y179240D01*
X541713Y179228D01*
Y181713D01*
D02*
G37*
G36*
X545772D02*
X543287D01*
Y179228D01*
X543374Y179240D01*
X544188Y179577D01*
X544887Y180113D01*
X545423Y180812D01*
X545760Y181626D01*
X545772Y181713D01*
D02*
G37*
G36*
X507713Y194957D02*
X505941D01*
Y193382D01*
X507713D01*
Y194957D01*
D02*
G37*
G36*
X511059D02*
X509287D01*
Y193382D01*
X511059D01*
Y194957D01*
D02*
G37*
G36*
X507713Y198106D02*
X505941D01*
Y196531D01*
X507713D01*
Y198106D01*
D02*
G37*
G36*
X500787Y193669D02*
Y190787D01*
X503669D01*
X503644Y190976D01*
X503267Y191886D01*
X502668Y192667D01*
X501886Y193267D01*
X500976Y193644D01*
X500787Y193669D01*
D02*
G37*
G36*
X503669Y189213D02*
X500787D01*
Y186331D01*
X500976Y186356D01*
X501886Y186733D01*
X502668Y187332D01*
X503267Y188114D01*
X503644Y189024D01*
X503669Y189213D01*
D02*
G37*
G36*
X507213Y191272D02*
X507126Y191260D01*
X506312Y190923D01*
X505613Y190387D01*
X505077Y189688D01*
X504740Y188874D01*
X504728Y188787D01*
X507213D01*
Y191272D01*
D02*
G37*
G36*
X499213Y193669D02*
X499024Y193644D01*
X498114Y193267D01*
X497332Y192667D01*
X496733Y191886D01*
X496356Y190976D01*
X496331Y190787D01*
X499213D01*
Y193669D01*
D02*
G37*
G36*
Y279213D02*
X496331D01*
X496356Y279024D01*
X496733Y278114D01*
X497332Y277332D01*
X498114Y276733D01*
X499024Y276356D01*
X499213Y276331D01*
Y279213D01*
D02*
G37*
G36*
Y369213D02*
X496331D01*
X496356Y369024D01*
X496733Y368114D01*
X497332Y367333D01*
X498114Y366733D01*
X499024Y366356D01*
X499213Y366331D01*
Y369213D01*
D02*
G37*
G36*
X503669D02*
X500787D01*
Y366331D01*
X500976Y366356D01*
X501886Y366733D01*
X502668Y367333D01*
X503267Y368114D01*
X503644Y369024D01*
X503669Y369213D01*
D02*
G37*
G36*
X499213Y373669D02*
X499024Y373644D01*
X498114Y373267D01*
X497332Y372668D01*
X496733Y371886D01*
X496356Y370976D01*
X496331Y370787D01*
X499213D01*
Y373669D01*
D02*
G37*
G36*
X563740Y369213D02*
X560787D01*
Y366260D01*
X563740D01*
Y369213D01*
D02*
G37*
G36*
X549999Y345846D02*
X510239Y345803D01*
X510208Y345819D01*
X510103Y345826D01*
X510000Y345846D01*
X509948Y345836D01*
X509895Y345839D01*
X508590Y345667D01*
X508491Y345634D01*
X508388Y345613D01*
X507171Y345109D01*
X507084Y345051D01*
X506990Y345004D01*
X505945Y344203D01*
X505876Y344124D01*
X505797Y344055D01*
X504996Y343010D01*
X504949Y342916D01*
X504891Y342829D01*
X504387Y341613D01*
X504366Y341510D01*
X504333Y341410D01*
X504161Y340105D01*
X504168Y340000D01*
X504161Y339895D01*
X504333Y338590D01*
X504366Y338491D01*
X504387Y338387D01*
X504891Y337171D01*
X504949Y337084D01*
X504996Y336990D01*
X505797Y335945D01*
X505876Y335876D01*
X505945Y335797D01*
X506990Y334996D01*
X507084Y334949D01*
X507171Y334891D01*
X508388Y334387D01*
X508491Y334366D01*
X508590Y334333D01*
X509895Y334161D01*
X509948Y334164D01*
X510001Y334154D01*
X549761Y334197D01*
X549792Y334181D01*
X549897Y334174D01*
X550000Y334154D01*
X550052Y334164D01*
X550105Y334161D01*
X551410Y334333D01*
X551510Y334366D01*
X551613Y334387D01*
X552829Y334891D01*
X552916Y334949D01*
X553010Y334996D01*
X554055Y335797D01*
X554124Y335876D01*
X554203Y335945D01*
X555004Y336990D01*
X555051Y337084D01*
X555109Y337171D01*
X555613Y338387D01*
X555633Y338491D01*
X555667Y338590D01*
X555839Y339895D01*
X555832Y340000D01*
X555839Y340105D01*
X555667Y341410D01*
X555633Y341510D01*
X555613Y341613D01*
X555109Y342829D01*
X555051Y342916D01*
X555004Y343010D01*
X554203Y344055D01*
X554124Y344124D01*
X554055Y344203D01*
X553010Y345004D01*
X552916Y345051D01*
X552829Y345109D01*
X551613Y345613D01*
X551510Y345634D01*
X551410Y345667D01*
X550105Y345839D01*
X550051Y345836D01*
X549999Y345846D01*
D02*
G37*
G36*
X503740Y363740D02*
X496260D01*
Y356260D01*
X503740D01*
Y363740D01*
D02*
G37*
G36*
X559213Y369213D02*
X556260D01*
Y366260D01*
X559213D01*
Y369213D01*
D02*
G37*
G36*
X500000Y413772D02*
X499024Y413644D01*
X498114Y413267D01*
X497332Y412668D01*
X496733Y411886D01*
X496356Y410976D01*
X496228Y410000D01*
X496356Y409024D01*
X496733Y408114D01*
X497332Y407333D01*
X498114Y406733D01*
X499024Y406356D01*
X500000Y406228D01*
X500976Y406356D01*
X501458Y406556D01*
X529006Y379007D01*
X529462Y378702D01*
X530000Y378595D01*
X543960D01*
X544077Y378312D01*
X544613Y377613D01*
X545312Y377077D01*
X546126Y376740D01*
X547000Y376625D01*
X547874Y376740D01*
X548688Y377077D01*
X549387Y377613D01*
X549923Y378312D01*
X550040Y378595D01*
X556534D01*
X556733Y378114D01*
X557333Y377332D01*
X558114Y376733D01*
X559024Y376356D01*
X560000Y376228D01*
X560976Y376356D01*
X561886Y376733D01*
X562668Y377332D01*
X563267Y378114D01*
X563644Y379024D01*
X563772Y380000D01*
X563644Y380976D01*
X563267Y381886D01*
X562668Y382667D01*
X561886Y383267D01*
X560976Y383644D01*
X560000Y383772D01*
X559024Y383644D01*
X558114Y383267D01*
X557333Y382667D01*
X556733Y381886D01*
X556534Y381405D01*
X550040D01*
X549923Y381688D01*
X549387Y382387D01*
X548688Y382923D01*
X547874Y383260D01*
X547000Y383375D01*
X546126Y383260D01*
X545312Y382923D01*
X544613Y382387D01*
X544077Y381688D01*
X543960Y381405D01*
X530582D01*
X503444Y408542D01*
X503644Y409024D01*
X503772Y410000D01*
X503644Y410976D01*
X503267Y411886D01*
X502668Y412668D01*
X501886Y413267D01*
X500976Y413644D01*
X500000Y413772D01*
D02*
G37*
G36*
Y393772D02*
X499024Y393644D01*
X498114Y393267D01*
X497332Y392668D01*
X496733Y391886D01*
X496356Y390976D01*
X496228Y390000D01*
X496356Y389024D01*
X496733Y388114D01*
X497332Y387333D01*
X498114Y386733D01*
X499024Y386356D01*
X500000Y386228D01*
X500976Y386356D01*
X501886Y386733D01*
X502668Y387333D01*
X503267Y388114D01*
X503644Y389024D01*
X503772Y390000D01*
X503644Y390976D01*
X503267Y391886D01*
X502668Y392668D01*
X501886Y393267D01*
X500976Y393644D01*
X500000Y393772D01*
D02*
G37*
G36*
Y403772D02*
X499024Y403644D01*
X498114Y403267D01*
X497332Y402668D01*
X496733Y401886D01*
X496356Y400976D01*
X496228Y400000D01*
X496356Y399024D01*
X496733Y398114D01*
X497332Y397333D01*
X498114Y396733D01*
X499024Y396356D01*
X500000Y396228D01*
X500976Y396356D01*
X501886Y396733D01*
X502668Y397333D01*
X503267Y398114D01*
X503644Y399024D01*
X503772Y400000D01*
X503644Y400976D01*
X503267Y401886D01*
X502668Y402668D01*
X501886Y403267D01*
X500976Y403644D01*
X500000Y403772D01*
D02*
G37*
G36*
Y383772D02*
X499024Y383644D01*
X498114Y383267D01*
X497332Y382667D01*
X496733Y381886D01*
X496356Y380976D01*
X496228Y380000D01*
X496356Y379024D01*
X496733Y378114D01*
X497332Y377332D01*
X498114Y376733D01*
X499024Y376356D01*
X500000Y376228D01*
X500976Y376356D01*
X501886Y376733D01*
X502668Y377332D01*
X503267Y378114D01*
X503644Y379024D01*
X503772Y380000D01*
X503644Y380976D01*
X503267Y381886D01*
X502668Y382667D01*
X501886Y383267D01*
X500976Y383644D01*
X500000Y383772D01*
D02*
G37*
G36*
X500787Y373669D02*
Y370787D01*
X503669D01*
X503644Y370976D01*
X503267Y371886D01*
X502668Y372668D01*
X501886Y373267D01*
X500976Y373644D01*
X500787Y373669D01*
D02*
G37*
G36*
X559213Y373740D02*
X556260D01*
Y370787D01*
X559213D01*
Y373740D01*
D02*
G37*
G36*
X563740D02*
X560787D01*
Y370787D01*
X563740D01*
Y373740D01*
D02*
G37*
G36*
X540787Y318272D02*
Y315787D01*
X543272D01*
X543260Y315874D01*
X542923Y316688D01*
X542387Y317387D01*
X541688Y317923D01*
X540874Y318260D01*
X540787Y318272D01*
D02*
G37*
G36*
X507713Y284957D02*
X505941D01*
Y283382D01*
X507713D01*
Y284957D01*
D02*
G37*
G36*
X511059D02*
X509287D01*
Y283382D01*
X511059D01*
Y284957D01*
D02*
G37*
G36*
X507713Y288106D02*
X505941D01*
Y286531D01*
X507713D01*
Y288106D01*
D02*
G37*
G36*
X500787Y283669D02*
Y280787D01*
X503669D01*
X503644Y280976D01*
X503267Y281886D01*
X502668Y282667D01*
X501886Y283267D01*
X500976Y283644D01*
X500787Y283669D01*
D02*
G37*
G36*
X503669Y279213D02*
X500787D01*
Y276331D01*
X500976Y276356D01*
X501886Y276733D01*
X502668Y277332D01*
X503267Y278114D01*
X503644Y279024D01*
X503669Y279213D01*
D02*
G37*
G36*
X507213Y281272D02*
X507126Y281260D01*
X506312Y280923D01*
X505613Y280387D01*
X505077Y279688D01*
X504740Y278874D01*
X504728Y278787D01*
X507213D01*
Y281272D01*
D02*
G37*
G36*
X499213Y283669D02*
X499024Y283644D01*
X498114Y283267D01*
X497332Y282667D01*
X496733Y281886D01*
X496356Y280976D01*
X496331Y280787D01*
X499213D01*
Y283669D01*
D02*
G37*
G36*
X539213Y314213D02*
X536728D01*
X536740Y314126D01*
X537077Y313312D01*
X537613Y312613D01*
X538312Y312077D01*
X539126Y311740D01*
X539213Y311728D01*
Y314213D01*
D02*
G37*
G36*
X543272D02*
X540787D01*
Y311728D01*
X540874Y311740D01*
X541688Y312077D01*
X542387Y312613D01*
X542923Y313312D01*
X543260Y314126D01*
X543272Y314213D01*
D02*
G37*
G36*
X539213Y318272D02*
X539126Y318260D01*
X538312Y317923D01*
X537613Y317387D01*
X537077Y316688D01*
X536740Y315874D01*
X536728Y315787D01*
X539213D01*
Y318272D01*
D02*
G37*
G36*
X500000Y323772D02*
X499024Y323644D01*
X498114Y323267D01*
X497332Y322668D01*
X496733Y321886D01*
X496356Y320976D01*
X496228Y320000D01*
X496356Y319024D01*
X496733Y318114D01*
X497332Y317333D01*
X498114Y316733D01*
X499024Y316356D01*
X500000Y316228D01*
X500694Y316319D01*
X506357Y310656D01*
X506240Y310374D01*
X506125Y309500D01*
X506240Y308626D01*
X506577Y307812D01*
X507113Y307113D01*
X507385Y306905D01*
X507215Y306405D01*
X505582D01*
X503444Y308542D01*
X503644Y309024D01*
X503772Y310000D01*
X503644Y310976D01*
X503267Y311886D01*
X502668Y312667D01*
X501886Y313267D01*
X500976Y313644D01*
X500000Y313772D01*
X499024Y313644D01*
X498114Y313267D01*
X497332Y312667D01*
X496733Y311886D01*
X496356Y310976D01*
X496228Y310000D01*
X496356Y309024D01*
X496733Y308114D01*
X497332Y307332D01*
X498114Y306733D01*
X499024Y306356D01*
X500000Y306228D01*
X500976Y306356D01*
X501458Y306556D01*
X504006Y304007D01*
X504462Y303702D01*
X505000Y303595D01*
X542882D01*
Y302559D01*
X542882D01*
Y300524D01*
X542158D01*
Y300630D01*
X535071D01*
Y297284D01*
Y294724D01*
Y292165D01*
Y289606D01*
Y287047D01*
Y284488D01*
Y281929D01*
Y279370D01*
X542158D01*
Y281929D01*
Y284488D01*
Y287047D01*
Y289606D01*
Y292165D01*
Y294724D01*
Y294830D01*
X542882D01*
Y292441D01*
Y287441D01*
X543642D01*
Y285453D01*
X543749Y284915D01*
X543750Y284914D01*
X543577Y284688D01*
X543240Y283874D01*
X543125Y283000D01*
X543240Y282126D01*
X543577Y281312D01*
X544113Y280613D01*
X544812Y280077D01*
X545626Y279740D01*
X546500Y279625D01*
X547374Y279740D01*
X548188Y280077D01*
X548887Y280613D01*
X549423Y281312D01*
X549760Y282126D01*
X549875Y283000D01*
X549760Y283874D01*
X549423Y284688D01*
X548887Y285387D01*
X548188Y285923D01*
X547374Y286260D01*
X546500Y286375D01*
X546452Y286417D01*
Y287441D01*
X547213D01*
Y292441D01*
Y297441D01*
Y302441D01*
X547213D01*
Y307559D01*
X542882D01*
Y306405D01*
X517405D01*
Y306960D01*
X517688Y307077D01*
X518387Y307613D01*
X518923Y308312D01*
X519260Y309126D01*
X519375Y310000D01*
X519260Y310874D01*
X518923Y311688D01*
X518387Y312387D01*
X517688Y312923D01*
X516874Y313260D01*
X516000Y313375D01*
X515126Y313260D01*
X514312Y312923D01*
X513613Y312387D01*
X513077Y311688D01*
X512917Y311302D01*
X512681Y311247D01*
X512362Y311268D01*
X511887Y311887D01*
X511188Y312423D01*
X510374Y312760D01*
X509500Y312875D01*
X508626Y312760D01*
X508344Y312643D01*
X503096Y317891D01*
X503267Y318114D01*
X503644Y319024D01*
X503772Y320000D01*
X503644Y320976D01*
X503267Y321886D01*
X502668Y322668D01*
X501886Y323267D01*
X500976Y323644D01*
X500000Y323772D01*
D02*
G37*
G36*
X511059Y288106D02*
X509287D01*
Y286531D01*
X511059D01*
Y288106D01*
D02*
G37*
G36*
X500000Y303772D02*
X499024Y303644D01*
X498114Y303267D01*
X497332Y302667D01*
X496733Y301886D01*
X496356Y300976D01*
X496228Y300000D01*
X496356Y299024D01*
X496733Y298114D01*
X497332Y297333D01*
X498114Y296733D01*
X499024Y296356D01*
X500000Y296228D01*
X500976Y296356D01*
X501886Y296733D01*
X502668Y297333D01*
X502869Y297595D01*
X504901D01*
X505108Y297095D01*
X501458Y293444D01*
X500976Y293644D01*
X500000Y293772D01*
X499024Y293644D01*
X498114Y293267D01*
X497332Y292668D01*
X496733Y291886D01*
X496356Y290976D01*
X496228Y290000D01*
X496356Y289024D01*
X496733Y288114D01*
X497332Y287333D01*
X498114Y286733D01*
X499024Y286356D01*
X500000Y286228D01*
X500976Y286356D01*
X501886Y286733D01*
X502668Y287333D01*
X503267Y288114D01*
X503644Y289024D01*
X503772Y290000D01*
X503644Y290976D01*
X503444Y291458D01*
X505441Y293454D01*
X505941Y293247D01*
Y288894D01*
X511059D01*
Y289851D01*
X511842D01*
Y289606D01*
Y287047D01*
Y284488D01*
Y281929D01*
Y279370D01*
X512730D01*
X512921Y278908D01*
X511802Y277789D01*
X511727Y277827D01*
X511367Y278061D01*
X511260Y278874D01*
X510923Y279688D01*
X510387Y280387D01*
X509688Y280923D01*
X508874Y281260D01*
X508787Y281272D01*
Y278000D01*
X508000D01*
Y277213D01*
X504728D01*
X504740Y277126D01*
X505077Y276312D01*
X505613Y275613D01*
X506312Y275077D01*
X507126Y274740D01*
X507939Y274633D01*
X508173Y274273D01*
X508211Y274198D01*
X505418Y271405D01*
X503740D01*
Y273740D01*
X496260D01*
Y266260D01*
X503740D01*
Y268595D01*
X506000D01*
X506538Y268702D01*
X506993Y269007D01*
X508437Y270451D01*
X508861Y270167D01*
X508740Y269874D01*
X508625Y269000D01*
X508740Y268126D01*
X509077Y267312D01*
X509613Y266613D01*
X510312Y266077D01*
X511126Y265740D01*
X512000Y265625D01*
X512874Y265740D01*
X513688Y266077D01*
X514387Y266613D01*
X514923Y267312D01*
X515260Y268126D01*
X515375Y269000D01*
X515260Y269874D01*
X514923Y270688D01*
X514387Y271387D01*
X514386Y271399D01*
X518272Y275286D01*
X518295Y275289D01*
X518544Y275008D01*
X518610Y274877D01*
X518233Y274386D01*
X517856Y273476D01*
X517831Y273287D01*
X521500D01*
Y272500D01*
X522287D01*
Y268831D01*
X522476Y268856D01*
X523386Y269233D01*
X524095Y269777D01*
X524595Y269649D01*
Y269000D01*
X524702Y268462D01*
X525006Y268007D01*
X527006Y266007D01*
X527462Y265702D01*
X528000Y265595D01*
X546000D01*
X546538Y265702D01*
X546993Y266007D01*
X550601Y269614D01*
X550613Y269613D01*
X551312Y269077D01*
X552126Y268740D01*
X553000Y268625D01*
X553874Y268740D01*
X554688Y269077D01*
X555387Y269613D01*
X555923Y270312D01*
X556260Y271126D01*
X556375Y272000D01*
X556260Y272874D01*
X555923Y273688D01*
X555387Y274387D01*
X554688Y274923D01*
X553874Y275260D01*
X553000Y275375D01*
X552126Y275260D01*
X551312Y274923D01*
X550613Y274387D01*
X550077Y273688D01*
X549740Y272874D01*
X549717Y272704D01*
X545418Y268405D01*
X535591D01*
X535240Y268760D01*
Y271713D01*
X531500D01*
Y272500D01*
X530713D01*
Y276240D01*
X527760D01*
X527760Y276240D01*
Y276240D01*
D01*
X527320Y276428D01*
X527298Y276538D01*
X526994Y276993D01*
X525762Y278225D01*
Y295643D01*
X525655Y296181D01*
X525350Y296637D01*
X522037Y299950D01*
X521581Y300255D01*
X521043Y300362D01*
X518929D01*
Y300630D01*
X511842D01*
Y300405D01*
X503719D01*
X503644Y300976D01*
X503267Y301886D01*
X502668Y302667D01*
X501886Y303267D01*
X500976Y303644D01*
X500000Y303772D01*
D02*
G37*
G36*
X553118Y307559D02*
X548787D01*
Y302559D01*
X548787D01*
Y297441D01*
Y292441D01*
Y287441D01*
X553118D01*
Y292441D01*
Y293595D01*
X554418D01*
X556260Y291753D01*
Y286260D01*
X563740D01*
Y293740D01*
X558247D01*
X555994Y295993D01*
X555538Y296298D01*
X555000Y296405D01*
X553118D01*
Y297441D01*
Y298595D01*
X556534D01*
X556733Y298114D01*
X557333Y297333D01*
X558114Y296733D01*
X559024Y296356D01*
X560000Y296228D01*
X560976Y296356D01*
X561886Y296733D01*
X562668Y297333D01*
X563267Y298114D01*
X563644Y299024D01*
X563772Y300000D01*
X563644Y300976D01*
X563267Y301886D01*
X562668Y302667D01*
X561886Y303267D01*
X560976Y303644D01*
X560000Y303772D01*
X559024Y303644D01*
X558114Y303267D01*
X557333Y302667D01*
X556733Y301886D01*
X556534Y301405D01*
X553118D01*
Y302441D01*
X553118D01*
Y307559D01*
D02*
G37*
%LPD*%
D10*
X545047Y215000D02*
D03*
X550953D02*
D03*
X545047Y305000D02*
D03*
X550953D02*
D03*
X550953Y200000D02*
D03*
X545047D02*
D03*
X550953Y205000D02*
D03*
X545047D02*
D03*
X550953Y210000D02*
D03*
X545047D02*
D03*
X550953Y290000D02*
D03*
X545047D02*
D03*
X550953Y295000D02*
D03*
X545047D02*
D03*
X550953Y300000D02*
D03*
X545047D02*
D03*
D11*
X508500Y285744D02*
D03*
Y291256D02*
D03*
Y195744D02*
D03*
Y201256D02*
D03*
D12*
X538614Y281043D02*
D03*
Y283602D02*
D03*
Y286161D02*
D03*
Y288720D02*
D03*
Y291280D02*
D03*
Y293839D02*
D03*
Y296398D02*
D03*
Y298957D02*
D03*
X515386Y281043D02*
D03*
Y283602D02*
D03*
Y286161D02*
D03*
Y288720D02*
D03*
Y291280D02*
D03*
Y293839D02*
D03*
Y296398D02*
D03*
Y298957D02*
D03*
X538614Y191043D02*
D03*
Y193602D02*
D03*
Y196161D02*
D03*
Y198721D02*
D03*
Y201279D02*
D03*
Y203839D02*
D03*
Y206398D02*
D03*
Y208957D02*
D03*
X515386Y191043D02*
D03*
Y193602D02*
D03*
Y196161D02*
D03*
Y198721D02*
D03*
Y201279D02*
D03*
Y203839D02*
D03*
Y206398D02*
D03*
Y208957D02*
D03*
D13*
X500000Y179000D02*
X501000Y180000D01*
X503516Y190000D02*
X505516Y188000D01*
X508000D01*
X500000Y190000D02*
X503516D01*
X500000Y199000D02*
Y200000D01*
X531500Y182500D02*
X542500D01*
X545047Y195453D02*
X546500Y194000D01*
X545047Y195453D02*
Y200000D01*
X546500Y193000D02*
Y194000D01*
X500000Y229000D02*
X509500Y219500D01*
X555000Y205000D02*
X560000Y200000D01*
X550953Y200000D02*
Y205000D01*
X555000D01*
X550953Y210000D02*
X560000D01*
X516000Y215000D02*
Y220000D01*
Y215000D02*
X545047D01*
X500000Y219000D02*
X501000D01*
X505000Y215000D02*
X516000D01*
X501000Y219000D02*
X505000Y215000D01*
X550953Y210000D02*
Y215000D01*
X550953Y210000D02*
X550953Y210000D01*
X515386Y189386D02*
Y191043D01*
X506000Y180000D02*
X515386Y189386D01*
X501000Y180000D02*
X506000D01*
X515091Y198425D02*
X515386Y198721D01*
X511252Y198425D02*
X515091D01*
X511252Y195744D02*
Y198425D01*
X508500Y195744D02*
X511252D01*
X519721Y201279D02*
X520031Y200969D01*
Y191815D02*
Y200969D01*
X515386Y201279D02*
X519721D01*
X519259Y191043D02*
X520031Y191815D01*
X515386Y191043D02*
X519259D01*
X515362Y201256D02*
X515386Y201279D01*
X508500Y201256D02*
X515362D01*
X515386Y206398D02*
X519602D01*
X522000Y204000D01*
Y191000D02*
Y204000D01*
X512000Y181000D02*
X522000Y191000D01*
X512000Y179000D02*
Y181000D01*
X500000Y200000D02*
X506398Y206398D01*
X515386D01*
X551000Y182000D02*
X553000D01*
X524357Y187643D02*
Y205643D01*
X526000Y179000D02*
Y186000D01*
X546000Y177000D02*
X551000Y182000D01*
X528000Y177000D02*
X546000D01*
X526000Y179000D02*
X528000Y177000D01*
X515386Y208957D02*
X521043D01*
X500000Y209000D02*
X515343D01*
X521043Y208957D02*
X524357Y205643D01*
Y187643D02*
X526000Y186000D01*
X500000Y299000D02*
X515343D01*
X551000Y272000D02*
X553000D01*
X546000Y267000D02*
X551000Y272000D01*
X528000Y267000D02*
X546000D01*
X526000Y269000D02*
X528000Y267000D01*
X526000Y269000D02*
Y276000D01*
X524357Y277643D02*
X526000Y276000D01*
X524357Y277643D02*
Y295643D01*
X521043Y298957D02*
X524357Y295643D01*
X515386Y298957D02*
X521043D01*
X519721Y291280D02*
X520031Y290968D01*
Y281815D02*
Y290968D01*
X519259Y281043D02*
X520031Y281815D01*
X519602Y296398D02*
X522000Y294000D01*
Y281000D02*
Y294000D01*
X512000Y271000D02*
X522000Y281000D01*
X515386Y281043D02*
X519259D01*
X512000Y269000D02*
Y271000D01*
X515386Y296398D02*
X519602D01*
X505516Y278000D02*
X508000D01*
X503516Y280000D02*
X505516Y278000D01*
X500000Y280000D02*
X503516D01*
X547000Y380000D02*
X560000D01*
X530000D02*
X547000D01*
X516000Y305000D02*
X545047D01*
X505000D02*
X516000D01*
Y310000D01*
X500000Y269000D02*
X501000Y270000D01*
X500000Y289000D02*
Y290000D01*
X531500Y272500D02*
X542500D01*
X545047Y285453D02*
X546500Y284000D01*
X545047Y285453D02*
Y290000D01*
X546500Y283000D02*
Y284000D01*
X500000Y319000D02*
X509500Y309500D01*
X555000Y295000D02*
X560000Y290000D01*
X550953Y290000D02*
Y295000D01*
X555000D01*
X550953Y300000D02*
X560000D01*
X501000Y309000D02*
X505000Y305000D01*
X500000Y309000D02*
X501000D01*
X550953Y300000D02*
Y305000D01*
X550953Y300000D02*
X550953Y300000D01*
X515386Y279386D02*
Y281043D01*
X506000Y270000D02*
X515386Y279386D01*
X501000Y270000D02*
X506000D01*
X511252Y288425D02*
X515091D01*
X515386Y288720D01*
X508500Y285744D02*
X511252D01*
Y288425D01*
X515386Y291280D02*
X519721D01*
X515362Y291256D02*
X515386Y291280D01*
X508500Y291256D02*
X515362D01*
X506398Y296398D02*
X515386D01*
X500000Y290000D02*
X506398Y296398D01*
X500000Y410000D02*
X530000Y380000D01*
D14*
X538614Y206398D02*
X543650D01*
X538614Y208957D02*
X544004D01*
X538614Y296398D02*
X543650D01*
X538614Y298957D02*
X544004D01*
D15*
X510000Y255000D02*
G03*
X510000Y245000I0J-5000D01*
G01*
X550000D02*
G03*
X550000Y255000I0J5000D01*
G01*
Y335000D02*
G03*
X550000Y345000I0J5000D01*
G01*
X510000D02*
G03*
X510000Y335000I0J-5000D01*
G01*
Y255000D02*
X550000D01*
X510000Y245000D02*
X550000D01*
X510000Y335000D02*
X550000D01*
X510000Y345000D02*
X550000D01*
D16*
X495000Y175000D02*
Y415000D01*
Y175000D02*
X550000D01*
X565000Y190000D01*
Y400000D01*
X550000Y415000D02*
X565000Y400000D01*
X495000Y415000D02*
X550000D01*
D17*
X560000Y200000D02*
D03*
X500000Y180000D02*
D03*
X560000Y290000D02*
D03*
X500000Y270000D02*
D03*
X560000Y370000D02*
D03*
X500000Y360000D02*
D03*
D18*
X560000Y210000D02*
D03*
X500000Y190000D02*
D03*
Y200000D02*
D03*
Y210000D02*
D03*
Y220000D02*
D03*
Y230000D02*
D03*
X521500Y182500D02*
D03*
X560000Y300000D02*
D03*
X500000Y280000D02*
D03*
Y290000D02*
D03*
Y300000D02*
D03*
Y310000D02*
D03*
Y320000D02*
D03*
X521500Y272500D02*
D03*
X560000Y380000D02*
D03*
X500000Y370000D02*
D03*
Y380000D02*
D03*
Y390000D02*
D03*
Y400000D02*
D03*
Y410000D02*
D03*
D19*
X531500Y182500D02*
D03*
Y272500D02*
D03*
D20*
X508000Y188000D02*
D03*
X542500Y182500D02*
D03*
X540000Y225000D02*
D03*
X546500Y193000D02*
D03*
X509500Y219500D02*
D03*
X516000Y220000D02*
D03*
X512000Y179000D02*
D03*
X553000Y182000D02*
D03*
Y272000D02*
D03*
X512000Y269000D02*
D03*
X547000Y380000D02*
D03*
X516000Y310000D02*
D03*
X508000Y278000D02*
D03*
X542500Y272500D02*
D03*
X540000Y315000D02*
D03*
X546500Y283000D02*
D03*
X509500Y309500D02*
D03*
M02*
